<svg width="449" height="449" viewBox="0 0 449 449" fill="none" xmlns="http://www.w3.org/2000/svg">
<g clip-path="url(#clip0_132_2)">
<path d="M125.22 334.46H90.02V349.46H160.46V341.96V334.46H125.22Z" fill="#808080"/>
<path d="M160.46 299.76V334.46H125.22L132.95 299.76H160.46Z" fill="#666666"/>
<path d="M160.46 334.46H147.965V349.46H160.46V334.46Z" fill="#808080"/>
<path d="M448.36 384.03C448.36 390.62 445.84 396.62 441.73 401.12C437.09 406.19 430.43 409.37 423.02 409.37H167.44C160.44 409.37 154.11 406.53 149.53 401.95C144.94 397.37 142.11 391.03 142.11 384.03H448.36Z" fill="#71B7EA"/>
<path d="M417.67 217.84H172.8C165.98 217.84 160.46 223.37 160.46 230.19V384.03H430.01V230.19C430.01 223.37 424.48 217.84 417.67 217.84ZM407.01 361.03H183.46V240.84H407.01V361.03Z" fill="#88C5FC"/>
<path d="M160.46 264.99V299.76H17.2C7.7 299.76 0 292.06 0 282.56V264.99H160.46Z" fill="#B3B3B3"/>
<path d="M348.08 64.99V146.99H260.08V88.99V64.99H348.08Z" fill="#F9A18A"/>
<path d="M407.01 240.84H183.46V361.03H407.01V240.84Z" fill="#E6E6E6"/>
<path d="M304.08 174.99V217.84H172.8C167.14 217.84 162.38 221.65 160.92 226.84C160.62 227.9 160.46 229.03 160.46 230.19V264.99H0V106.19C0 96.69 7.7 88.99 17.2 88.99H260.08V159.75C260.08 168.17 266.9 174.99 275.32 174.99H304.08Z" fill="#AFDAF9"/>
<path d="M342.35 42.33C339.74 40.24 336.43 38.99 332.83 38.99H275.32C266.9 38.99 260.08 45.82 260.08 54.24V159.75C260.08 167.52 265.88 173.92 273.39 174.86C274.02 174.95 274.67 174.99 275.32 174.99H332.83C341.25 174.99 348.08 168.17 348.08 159.75V54.24C348.08 49.42 345.84 45.12 342.35 42.33ZM342.98 146.99H265.18V64.99H342.98V146.99Z" fill="#666666"/>
<path opacity="0.3" d="M304.08 174.99V217.84H178.26L245.32 88.99H260.08V159.75C260.08 168.17 266.9 174.99 275.32 174.99H304.08Z" fill="#DAEFFF"/>
<path opacity="0.3" d="M72.69 88.99L59.85 113.65L51.31 130.08L32.55 166.11L23.6 183.32L6.31 216.55L0 228.67V106.19C0 96.69 7.7 88.99 17.2 88.99H72.69Z" fill="#E4F4FF"/>
<path opacity="0.23" d="M318 241L305.979 257.607L243.171 344.393L231.15 361H196L208.021 344.393L270.829 257.607L282.85 241H318Z" fill="#F2F2F2"/>
<path opacity="0.24" d="M275.32 174.99C266.9 174.99 260.08 168.17 260.08 159.75V88.99H254.18H249.08V169.75C249.08 177.52 254.88 183.92 262.39 184.86C263.02 184.95 263.67 184.99 264.32 184.99H304.08V174.99H275.32Z" fill="#808080"/>
<path opacity="0.24" d="M156.8 226.84C149.98 226.84 144.46 232.37 144.46 239.19V299.76H160.46V230.19C160.46 229.03 160.62 227.9 160.92 226.84H156.8Z" fill="#808080"/>
<path d="M343.301 65.5V147H295.5L343.301 65.5Z" fill="#FFB6A3"/>
</g>
<defs>
<clipPath id="clip0_132_2">
<rect width="448.36" height="448.36" fill="white"/>
</clipPath>
</defs>
</svg>
