<svg width="512" height="512" viewBox="0 0 512 512" fill="none" xmlns="http://www.w3.org/2000/svg">
<g clip-path="url(#clip0_127_8)">
<rect x="3" y="-2" width="504" height="504" rx="76" fill="#ABBDFF"/>
<ellipse cx="131.293" cy="113.884" rx="20.4548" ry="9.89857" transform="rotate(23.5936 131.293 113.884)" fill="#D9D9D9"/>
<path d="M380 96.5L407 142L312.5 354L152.5 308L123.5 267L215 56L380 96.5Z" fill="#C5953A"/>
<ellipse cx="290.95" cy="436.39" rx="32.8115" ry="12.5045" transform="rotate(23.5936 290.95 436.39)" fill="#D9D9D9"/>
<ellipse cx="64.0878" cy="338.959" rx="29.3099" ry="16.0782" transform="rotate(70.0066 64.0878 338.959)" fill="#D9D9D9"/>
<ellipse cx="463.658" cy="217.82" rx="14.3759" ry="10.8489" transform="rotate(23.5936 463.658 217.82)" fill="#D9D9D9"/>
<path d="M372.777 240.443C369.287 245.706 366.61 250.954 364.634 256.709C372.382 257.865 434.597 232.047 445.946 223.297C446.103 220.752 443.789 219.312 443.066 217.128C441.27 211.695 443.517 205.794 448.933 202.572C453.525 199.84 459.739 197.99 463.645 199.934C469.133 202.666 475.219 206.389 478.1 212.53C479.24 214.961 481.557 216.474 482.122 219.266C483.522 226.196 479.627 232.256 472.554 233.647C471.743 233.807 470.818 234.059 470.081 233.831C457.457 229.915 447.237 236.659 437.259 242.146C424.919 248.932 411.253 252.345 398.877 258.848C390.307 263.352 381.487 267.233 371.941 269.215C371.29 269.35 370.626 269.774 370.016 269.696C360.573 268.475 357.069 273.873 354.979 282.059C351.797 294.521 345.542 305.773 340.231 317.429C334.678 329.62 327.91 341.365 324.742 354.667C322.485 364.147 317.569 370.168 307.311 364.888C306.926 364.69 306.35 364.863 305.336 364.863C305.073 371.317 304.529 377.681 302.564 383.889C299.889 392.342 296.773 400.557 292.041 408.072C290.589 410.38 291.507 411.739 292.448 414.093C296.073 423.163 302.394 426.166 311.783 426.008C319.703 425.875 325.322 430.78 329.383 437.434C332.761 442.97 332.703 446.625 328.007 451.232C318.93 460.139 307.515 462.34 295.34 461.488C285.617 460.807 277.036 456.775 269.141 451.33C260.972 445.697 255.345 437.98 251.641 428.806C250.755 426.612 250.93 424.411 251.965 422.522C256.045 415.077 261.686 409.165 269.622 405.756C270.972 405.176 272.555 404.378 273.953 405.168C278.239 407.59 279.967 404.704 281.626 401.666C287.986 390.016 292.886 377.953 292.671 364.321C292.622 361.218 291.722 359.517 288.626 358.462C277.447 354.656 266.681 349.676 255.66 345.582C235.602 338.129 215.033 331.963 193.958 327.719C185.818 326.079 177.777 323.877 169.788 321.592C166.065 320.527 163.049 320.844 160.056 323.353C145.432 335.61 128.935 345.009 110.542 349.428C100.409 351.863 94.804 356.474 89.6423 365.127C80.5059 380.443 56.5035 375.082 50.6503 360.931C46.9277 351.931 41.6962 343.347 41.1062 333.26C40.5748 324.173 41.9992 315.209 46.2387 307.279C49.5858 301.018 56.0495 300.889 62.5703 302.345C71.3541 304.305 77.3121 310.424 77.0768 319.315C76.7961 329.927 83.3975 335.428 90.9918 340.547C91.5028 340.891 92.2837 341.165 92.8516 341.048C112.544 336.985 131.164 330.45 147.359 317.516C132.953 304.768 126.768 287.121 117.152 271.719C114.534 267.526 115.966 264.022 119.955 261.557C121.742 260.453 123.025 259.234 123.677 257.145C126.86 246.955 131.334 237.289 136.266 227.86C140.641 219.497 142.178 210.227 145.324 201.481C146.087 199.359 145.153 197.651 144.08 195.878C138.322 186.366 131.795 177.352 127.236 167.075C122.693 156.833 120.113 146.474 121.368 135.25C121.804 131.35 120.457 127.903 117.14 125.702C110.718 121.439 109.463 114.622 108.525 107.928C107.678 101.881 116.233 95.5119 123.297 97.6614C131.701 100.219 140.798 101.213 148.162 106.746C148.797 107.223 149.693 107.359 150.474 107.635C157.655 110.177 158.789 113.624 155.151 120.502C151.431 127.533 146.172 131.968 137.881 131.88C135.433 131.853 134.505 132.82 134.105 135.343C132.085 148.095 136.808 159.211 142.494 169.986C144.706 174.177 146.695 178.655 150.415 182.561C155.078 173.28 159.576 164.298 164.1 155.329C171.954 139.756 175.39 122.697 180.493 106.211C184.511 93.2305 191.368 82.0492 200.009 71.7618C203.722 67.3412 207.624 63.0914 207.834 56.6347C207.96 52.7403 212.869 49.5746 216.99 49.878C217.976 49.9506 219.214 50.5375 219.902 50.1387C228.005 45.4394 235.365 49.4776 242.188 52.7709C252.669 57.8299 263.709 59.4232 274.983 60.3184C288.456 61.3884 301.741 63.3182 314.388 68.2875C324.724 72.3485 335.831 72.6309 346.49 75.1454C362.556 78.9355 378.16 84.0459 393.55 89.8871C398.668 91.8299 400.13 95.9151 397.333 100.605C395.959 102.91 396.478 104.58 397.504 106.606C401.259 114.021 404.86 121.516 408.663 128.906C411.92 135.236 413.102 141.609 410.694 148.579C404.667 166.021 398.416 183.376 391.707 200.567C386.387 214.2 381.36 227.964 372.777 240.443ZM350.851 122.165C319.706 107.916 286.905 99.5237 253.141 94.5221C243.758 93.1322 240.741 95.3019 238.918 104.876C237.892 110.264 237.641 115.885 235.278 120.907C226.716 139.111 217.737 157.122 209.402 175.428C203.069 189.339 194.427 202.121 189.529 216.735C188.515 219.762 188.82 221.415 191.827 222.535C194.477 223.522 197.122 224.564 199.658 225.808C202.738 227.319 205.079 229.633 203.519 233.33C202.035 236.848 199.015 237.497 195.567 236.132C192.317 234.845 189.077 233.529 185.853 232.177C184.392 231.564 182.99 230.996 181.952 232.786C176.778 241.696 170.888 250.211 167.053 259.861C162.182 272.119 159.488 285.002 156.031 297.672C154.356 303.813 155.004 305.048 161.183 305.919C163.654 306.268 165.279 305.164 167.088 303.923C173.956 299.209 180.625 294.278 186.911 288.768C190.479 285.64 194.342 286.379 196.434 289.711C198.902 293.641 196.469 295.71 193.425 297.772C188.275 301.259 184.291 306.17 178.791 309.588C198.533 314.595 217.706 320.121 236.988 325.031C256.379 329.968 273.396 341.139 293.053 344.997C294.195 342.158 293.683 339.836 293.305 337.577C292.646 333.638 291.735 329.741 291.041 325.807C290.464 322.534 291.287 319.585 294.622 318.437C297.955 317.291 299.943 319.593 301.253 322.31C302.7 325.31 303.843 328.401 304.118 331.815C304.507 336.623 305.271 341.4 305.724 346.204C305.948 348.588 306.608 350.461 309.239 350.924C312.276 351.46 312.216 348.861 312.842 347.146C315.3 340.414 317.982 333.793 321.109 327.329C326.757 315.65 332.346 303.933 337.58 292.066C340.433 285.596 342.65 278.824 344.216 271.918C340.863 270.105 337.861 270.865 334.922 270.998C330.624 271.192 327.556 269.019 327.351 265.581C327.152 262.238 330.108 259.612 334.446 259.528C337.773 259.463 341.16 259.319 344.421 259.839C347.773 260.373 349.52 259.074 350.489 256.178C352.132 251.265 354.505 246.675 356.549 241.939C359.484 235.141 364.549 229.694 367.753 223.059C378.204 201.418 385.704 178.618 394.222 156.224C399.767 141.646 398.867 140.931 383.859 135.732C372.867 131.925 361.863 127.985 350.851 122.165ZM194.985 104.276C193.283 110.019 191.405 115.716 189.913 121.512C185.623 138.172 179.861 154.281 171.946 169.558C167.964 177.246 163.696 184.755 161.703 193.302C161.228 195.338 160.566 197.352 162.215 198.925C167.09 203.578 172.109 208.078 176.91 212.49C179.545 210.976 180.012 208.928 180.432 207.04C181.388 202.74 183.242 198.885 185.54 195.178C188.701 190.077 191.309 184.69 193.968 179.309C199.202 168.722 204.185 158.012 209.523 147.47C213.685 139.248 218.741 131.165 219.163 121.448C219.242 119.629 219.946 117.729 221.396 116.535C228.227 110.909 226.046 101.94 229.429 95.0381C229.742 94.3985 229.173 92.943 228.56 92.2933C223.681 87.1177 220.139 80.7827 214.543 75.7794C205.686 83.5713 200.203 93.3777 194.985 104.276ZM242.355 64.902C236.179 63.4373 230.002 61.9727 223.825 60.508C223.546 60.8969 223.267 61.2857 222.988 61.6746C225.345 65.6248 227.603 69.638 230.089 73.5052C232.058 76.5699 234.253 79.1644 238.216 80.2889C281.514 92.5751 324.763 105.036 368.018 117.475C375.293 119.567 382.534 121.782 390.75 124.225C387.68 117.659 384.457 112.345 382.688 106.585C380.441 99.2671 375.836 96.455 368.673 94.8001C326.785 85.1218 285.003 74.9807 242.355 64.902ZM149.619 273.958C153.354 261.506 157.761 249.337 164.562 238.162C166.807 234.474 169.012 230.76 171.155 227.011C171.987 225.556 172.739 223.894 171.491 222.335C167.555 217.416 163.318 212.815 157.717 209.931C155.604 211.223 155.481 213.146 154.983 214.867C153.13 221.267 150.917 227.524 148.135 233.597C142.582 245.717 135.212 257.128 135.22 271.31C135.223 276.399 139.389 287.638 144.684 290.968C147.099 285.738 147.493 279.993 149.619 273.958ZM314.579 445.981C318.154 443.43 318.119 440.882 314.236 439.392C311.958 438.518 309.357 437.87 306.96 438.026C296.314 438.721 288.949 434.597 284.127 424.841C280.979 418.472 269.297 418.583 265.351 424.478C264.356 425.963 264.071 427.445 265.213 429.086C267.965 433.042 270.785 437.077 274.559 439.984C286.436 449.133 299.594 451.504 314.579 445.981ZM59.0276 349.094C59.9252 351.238 60.7725 353.405 61.7309 355.521C63.7207 359.916 67.766 361.715 73.8769 361.359C78.5033 361.091 80.233 357.58 81.1771 354.21C82.3063 350.18 80.0925 347.017 76.5447 344.629C68.9276 339.501 65.178 332.263 65.5824 322.993C65.6784 320.794 65.4868 318.662 64.0837 316.822C62.5027 314.749 60.087 314.531 57.8258 314.234C56.3502 314.04 55.9733 315.615 55.7927 316.673C54.6888 323.137 52.0599 329.513 54.3553 336.216C55.7524 340.296 57.2358 344.346 59.0276 349.094ZM128.132 111.916C128.007 111.273 127.848 110.633 127.764 109.984C127.391 107.135 123.811 105.243 120.311 106.024C117.143 106.732 117.247 108.54 117.998 111.246C120.788 121.304 132.753 126.802 142.306 122.156C144.308 121.182 146.566 120.284 146.667 116.946C141.052 119.342 138.856 116.401 138.083 111.34C134.767 113.085 132.015 117.277 128.132 111.916ZM465.619 215.279C461.193 215.226 459.128 212.97 459.85 208.49C456.512 209.083 452.812 208.396 451.568 211.74C450.34 215.042 453.422 217.059 455.281 219.313C455.91 220.076 456.358 220.993 457.014 221.727C460.771 225.938 469.812 226.752 473.529 223.027C471.11 220.58 466.673 220.047 465.619 215.279Z" fill="black"/>
<path d="M343.853 206.938C341.558 221.61 312.473 224.159 278.993 218.922C245.514 213.685 216.082 205.463 218.377 190.79C220.672 176.118 253.825 160.551 287.304 165.788C320.784 171.025 346.148 192.265 343.853 206.938Z" fill="#D9D9D9"/>
<path d="M251.374 224.954C239.633 223.378 229.426 219.366 220.527 212.077C214.078 206.795 212.785 199.805 213.852 192.243C215.229 182.487 219.043 173.457 225.761 166.314C235.275 156.198 247.765 153.006 261.259 154.201C268.025 154.8 274.707 156.406 280.902 159.583C283.698 161.017 286.685 162.045 289.993 161.901C292.887 161.774 295.057 163.546 296.82 165.566C298.62 167.629 300.527 168.232 302.987 167.063C312.153 162.708 320.446 165.016 328.413 170.291C332.155 172.769 336.031 175.044 339.833 177.431C344.251 180.203 346.544 184.348 347.026 189.407C347.562 195.029 348.101 200.682 348.08 206.319C348.043 216.113 342.635 222.881 334.627 227.688C324.848 233.558 313.905 234.828 302.831 234.345C295.43 234.023 290.003 229.738 286.993 223.013C285.39 219.435 283.457 218.615 280.078 220.305C271.151 224.768 261.588 225.48 251.374 224.954ZM268.809 169.611C265.73 168.962 262.681 168.047 259.569 167.714C250.38 166.732 242.012 169.355 235.473 175.675C230.798 180.194 228.511 186.496 227.381 193.007C226.504 198.062 228.17 201.455 232.71 204.527C245.938 213.477 270.064 213.384 283.998 202.979C287.017 200.724 290.904 198.104 291.028 194.288C291.213 188.604 290.711 182.669 287.521 177.502C286.902 176.499 286.299 175.478 284.961 175.369C279.337 174.915 274.695 171.705 268.809 169.611ZM322.164 182.403C320.525 181.602 318.941 180.654 317.238 180.027C312.037 178.11 303.434 183.359 304.545 188.167C306.42 196.28 302.422 202.274 298.584 208.412C295.676 213.064 298.675 220.198 304.235 220.609C313.128 221.268 321.897 219.74 329.916 216.113C341.807 210.735 343.395 199.124 334.134 189.88C330.888 186.641 326.561 185.17 322.164 182.403Z" fill="black"/>
<path d="M269.155 275.31C253.97 274.776 238.9 275.137 227.758 262.854C223.127 257.749 220.737 251.625 220.388 244.712C220.211 241.209 221.711 238.792 225.135 238.127C228.491 237.475 230.388 239.528 231.428 242.512C231.538 242.825 231.677 243.152 231.684 243.475C231.969 257.063 240.825 261.089 252.45 263.199C266.41 265.734 278.886 264.19 289.464 253.95C291.689 251.797 294.258 250.808 296.989 253.244C299.693 255.656 299.175 258.317 297.192 260.774C290.094 269.568 280.289 273.297 269.155 275.31Z" fill="black"/>
<path d="M275.525 191.905C274.019 191.895 272.834 191.923 271.77 191.578C268.214 190.426 265.621 188.489 265.698 184.194C265.76 180.777 267.738 179.021 270.607 178.14C274.572 176.922 277.852 178.428 280.21 181.598C282.894 185.206 281.321 188.692 275.525 191.905Z" fill="black"/>
<path d="M322.543 188.091C326.983 187.206 329.951 188.748 331.065 192.647C332.003 195.928 331.198 198.984 327.636 200.526C324.414 201.92 321.451 201.645 319.098 198.788C316.203 195.27 317.417 191.145 322.543 188.091Z" fill="black"/>
</g>
<defs>
<clipPath id="clip0_127_8">
<rect width="512" height="512" fill="white"/>
</clipPath>
</defs>
</svg>
