<svg viewBox="-30 5 80 40" xmlns="http://www.w3.org/2000/svg" xmlns:xlink="http://www.w3.org/1999/xlink"
	style="width: calc(2 * var(--icon-size))">
	<g transform="matrix(.237004 0 0 .237004 5.369548 -9.353936)">
		<path
			d="M159.8 157.35c0 43.78-35.485 79.265-79.265 79.265S1.27 201.13 1.27 157.35s35.485-79.265 79.265-79.265c43.78-.04 79.266 35.485 79.266 79.265"
			fill="#008dc2" />
		<g fill="#fff">
			<use xlink:href="#B" />
			<use xlink:href="#B" x="1.075" y="17.397" />
			<path
				d="M41.363 167.18c0 3.495-2.842 6.337-6.337 6.337s-6.337-2.842-6.337-6.337 2.842-6.337 6.337-6.337c3.496-.038 6.337 2.804 6.337 6.337m8.68 16.514c0 3.495-2.842 6.337-6.337 6.337s-6.337-2.842-6.337-6.337 2.842-6.337 6.337-6.337c3.495-.038 6.337 2.804 6.337 6.337" />
			<use xlink:href="#C" />
			<path
				d="M129.423 193.14c0 3.495-2.842 6.337-6.337 6.337s-6.337-2.842-6.337-6.337 2.842-6.337 6.337-6.337 6.337 2.843 6.337 6.337" />
			<use xlink:href="#C" x="-21.89" y="-110.027" />
			<path
				d="M79.345 90.9c0 3.495-2.842 6.337-6.337 6.337S66.67 94.405 66.67 90.9s2.842-6.337 6.337-6.337 6.337 2.843 6.337 6.337" />
		</g>
		<g fill="#68b346" stroke="#fff" stroke-width="3.5">
			<circle r="42.244" cy="138.454" cx="124.277" />
			<circle r="34.563" cy="224.594" cx="66.403" />
			<circle r="23.042" cy="95.98" cx="37.946" />
		</g>
	</g>

</svg>