<svg xmlns="http://www.w3.org/2000/svg" width="5.57em" height="1em" viewBox="0 0 100 100">
  <path fill="#ff3e00"
    d="M71.366 12.122C62.86-.053 46.06-3.664 33.913 4.077L12.58 17.674A24.473 24.473 0 0 0 1.523 34.068a25.776 25.776 0 0 0 2.54 16.547a24.527 24.527 0 0 0-3.66 9.147a26.081 26.081 0 0 0 4.455 19.724c8.506 12.176 25.308 15.786 37.453 8.044l21.333-13.597A24.472 24.472 0 0 0 74.702 57.54a25.788 25.788 0 0 0-2.54-16.548a24.537 24.537 0 0 0 3.659-9.146a26.073 26.073 0 0 0-4.456-19.724" />
  <path fill="#ffffff"
    d="M31.829 80.632A16.947 16.947 0 0 1 13.64 73.89a15.684 15.684 0 0 1-2.68-11.86c.124-.674.294-1.34.51-1.991l.401-1.227l1.094.802a27.509 27.509 0 0 0 8.343 4.172l.792.24l-.073.792a4.78 4.78 0 0 0 .86 3.172a5.104 5.104 0 0 0 5.48 2.032a4.701 4.701 0 0 0 1.31-.572l21.334-13.601a4.441 4.441 0 0 0 2.004-2.97a4.739 4.739 0 0 0-.808-3.575a5.107 5.107 0 0 0-5.48-2.034a4.692 4.692 0 0 0-1.31.572l-8.14 5.19a15.579 15.579 0 0 1-4.335 1.902a16.947 16.947 0 0 1-18.188-6.742a15.68 15.68 0 0 1-2.68-11.86a14.716 14.716 0 0 1 6.656-9.855L40.062 12.88a15.55 15.55 0 0 1 4.335-1.905a16.946 16.946 0 0 1 18.188 6.742a15.684 15.684 0 0 1 2.68 11.86a15.093 15.093 0 0 1-.512 1.994L64.35 32.8l-1.093-.8a27.495 27.495 0 0 0-8.342-4.172l-.794-.24l.074-.792a4.792 4.792 0 0 0-.86-3.172a5.104 5.104 0 0 0-5.476-2.032a4.696 4.696 0 0 0-1.31.572L25.215 35.759a4.437 4.437 0 0 0-2.003 2.97a4.736 4.736 0 0 0 .806 3.575a5.108 5.108 0 0 0 5.48 2.034a4.722 4.722 0 0 0 1.31-.572l8.139-5.188a15.522 15.522 0 0 1 4.335-1.904a16.945 16.945 0 0 1 18.184 6.738a15.68 15.68 0 0 1 2.68 11.86a14.722 14.722 0 0 1-6.65 9.86L36.163 78.726a15.54 15.54 0 0 1-4.334 1.905" />
</svg>