<svg width="107" height="113" viewBox="0 0 107 113" fill="none" xmlns="http://www.w3.org/2000/svg">
  <path
    d="M25.0082 46.0951C25.0082 54.1616 27.9677 62.3304 33.1282 68.5066C38.5832 75.0355 45.7196 78.631 53.2231 78.631C60.7259 78.631 67.8541 75.0371 73.2955 68.5113C78.4387 62.3425 81.3885 54.1772 81.3885 46.1087V39.2743C85.1911 22.9402 83.7769 9.5284 82.4823 5.56566C82.0304 4.18237 80.7057 3.33271 79.3177 3.42022C79.0997 3.40459 78.8766 3.41006 78.6516 3.4421C74.5549 4.0226 69.4269 3.00066 63.9965 1.91817C55.0049 0.126269 44.8586 -1.89338 36.9042 3.41201C27.9712 3.42959 21.4911 10.5039 21.4911 20.247C21.4911 27.2943 24.4452 40.1439 25.0082 42.5284V46.0951ZM68.4948 64.5087C64.2621 69.5852 58.8387 72.3806 53.2231 72.3806C47.6044 72.3806 42.1713 69.5817 37.9246 64.4989C33.688 59.4287 31.2585 52.7205 31.2585 46.0951V43.3836C31.2585 38.6184 34.3177 31.8102 36.1553 28.319C47.7818 27.0588 57.0519 28.3913 62.8675 29.7773C67.5635 30.8965 70.8008 32.2177 72.2856 32.8911L75.1378 39.5626V46.1087C75.1385 52.7384 72.7169 59.4447 68.4948 64.5087ZM36.9378 9.66122C37.0991 9.66122 37.2566 9.64521 37.4113 9.62177C38.2179 9.74795 39.0727 9.562 39.7758 9.0315C45.6164 4.62771 54.3396 6.36649 62.7749 8.04784C67.2525 8.94047 71.8493 9.85655 76.1097 9.85655C76.421 9.85655 76.7304 9.85069 77.0383 9.84053C77.593 13.4552 77.9707 20.1521 76.9648 28.4405C76.7406 28.2041 76.4824 27.9994 76.1917 27.8416C75.5284 27.4814 59.6919 19.0809 34.0235 22.269C33.0122 22.3276 32.048 22.8749 31.5 23.816C31.3832 24.0168 30.1081 26.2267 28.7189 29.3464C28.1677 26.031 27.7411 22.6827 27.7411 20.2466C27.7415 14.9779 30.5851 9.66122 36.9378 9.66122Z"
    fill="#00AAFF" />
  <path
    d="M8.30363 112.491H98.0817C102.661 112.491 106.387 109.07 106.387 104.864V100.613C106.387 93.2284 101.675 84.4423 92.6705 81.9379C92.6037 81.9195 92.5365 81.9031 92.4685 81.889L79.2568 79.1459L75.8683 74.0456C75.8335 73.9929 75.7968 73.9413 75.7589 73.8909C74.9702 72.8471 73.7717 72.1576 72.4704 71.9994C71.1691 71.8416 69.8378 72.2244 68.8206 73.0506C68.8003 73.067 68.7803 73.0834 68.7604 73.1006L53.1931 86.4026L37.6257 73.1006C37.6062 73.0838 37.5859 73.067 37.5659 73.0506C36.5487 72.2244 35.2197 71.8404 33.9161 71.9994C32.6149 72.1576 31.4164 72.8467 30.6276 73.8909C30.5897 73.9413 30.553 73.9929 30.5183 74.0456L27.1298 79.1459L13.918 81.889C13.8501 81.9031 13.7829 81.9195 13.7161 81.9379C4.71122 84.4423 2.76414e-07 93.2284 2.76414e-07 100.613V104.864C-0.00117167 109.069 3.72444 112.491 8.30363 112.491ZM50.1187 98.0935L53.2052 94.957L56.3694 98.1381V106.241H50.1187V98.0935ZM100.136 100.613V104.864C100.136 105.515 99.2923 106.241 98.0817 106.241H62.6198V103.115C62.6706 103.115 62.7218 103.114 62.7726 103.112C63.6562 103.068 64.4805 102.653 65.0403 101.968L78.5848 85.39L91.0899 87.9863C97.0293 89.6911 100.136 95.6149 100.136 100.613ZM71.5911 78.9029L73.4845 81.7531L62.3917 95.3293L57.7855 90.6993L71.5911 78.9029ZM34.7943 78.9029L48.6135 90.7114L44.0753 95.3234L32.9051 81.7464L34.7943 78.9029ZM6.2492 100.613C6.2492 95.6149 9.35603 89.6915 15.2955 87.9867L27.8079 85.3889L41.4545 101.976C42.017 102.66 42.844 103.073 43.7288 103.113C43.7753 103.115 43.8214 103.116 43.8679 103.116V106.241H8.30323C7.09261 106.241 6.24882 105.515 6.24882 104.864L6.2492 100.613Z"
    fill="#00AAFF" />
</svg>