<svg width="800" height="800" viewBox="0 0 800 800" fill="none" xmlns="http://www.w3.org/2000/svg">
<path d="M716.011 626.217C702.848 613.053 685.325 606.934 668.054 607.939L621.773 561.659C640.553 537.68 656.064 511.354 668.054 483.014C686.164 440.088 695.387 394.561 695.387 347.693C695.387 300.825 686.164 255.215 668.054 212.372C650.531 170.954 625.462 133.812 593.519 101.868C561.574 69.9243 524.433 44.8555 483.014 27.3325C440.088 9.22263 394.561 0 347.694 0C300.826 0 255.216 9.22263 212.373 27.3325C170.955 44.7717 133.813 69.8404 101.869 101.784C69.9251 133.728 44.8563 170.87 27.3334 212.288C9.22263 255.216 0 300.742 0 347.61C0 394.477 9.22263 440.088 27.3325 482.931C44.8555 524.349 69.9243 561.49 101.868 593.436C133.812 625.38 170.954 650.448 212.372 667.97C255.299 686.081 300.825 695.304 347.693 695.304C394.56 695.304 440.171 686.081 483.013 667.97C511.687 655.813 538.349 640.135 562.579 620.934L608.776 667.131C607.854 684.404 613.892 701.926 627.055 715.09L692.703 780.737C704.944 792.98 721.042 799.183 737.139 799.183C753.237 799.183 769.334 793.063 781.576 780.737C806.141 756.172 806.141 716.347 781.576 691.781L716.011 626.217ZM561.91 501.712C553.609 513.114 544.387 524.014 534.242 534.158C524.348 544.052 513.784 553.022 502.716 561.071C457.945 593.77 404.118 611.376 347.608 611.376C277.097 611.376 210.862 583.961 161.06 534.075C111.258 484.273 83.7574 417.954 83.7574 347.526C83.7574 277.099 111.174 210.78 161.06 160.978C210.862 111.175 277.181 83.6752 347.608 83.6752C418.036 83.6752 484.356 111.092 534.157 160.978C583.959 210.78 611.459 277.099 611.459 347.526C611.544 403.7 594.189 457.107 561.91 501.712Z" fill="black"/>
<path d="M339.11 227.924H373.522C384.294 227.924 393.211 236.422 394.887 247.434H424.99C423.075 219.844 400.752 198 373.522 198H339.11C311.879 198 289.556 219.844 287.641 247.434H317.744C319.36 236.362 328.337 227.924 339.11 227.924Z" fill="black"/>
<path d="M425.11 262.395H395.186H317.385H287.462H238.686C229.59 262.395 219.356 271.073 213.79 276.519C210.319 280.709 209.66 283.581 209.96 286.813C212.174 308.298 226.477 328.526 250.716 344.446C272.201 358.51 299.192 367.786 328.636 371.317C337.613 372.394 346.89 372.993 356.226 372.993C373.522 372.993 390.399 371.078 406.198 367.427C426.965 362.639 445.877 354.859 461.796 344.446C486.034 328.526 500.278 308.238 502.552 286.813C502.912 283.521 501.116 278.794 498.722 276.519C493.157 271.073 482.923 262.395 473.825 262.395H425.11Z" fill="black"/>
<path d="M475.022 364.495C460.54 374.01 443.902 381.611 425.829 386.997C404.223 393.52 380.644 396.932 356.286 396.932C354.551 396.932 352.755 396.932 351.02 396.872C308.289 396.035 268.191 384.603 237.549 364.495C224.622 355.996 213.91 346.301 205.531 335.588C203.496 332.955 202 333.434 202 336.725V420.152C202 441.278 218.398 458.454 238.626 458.454H412.482H473.825C480.469 458.454 486.693 456.599 492.019 453.367C503.031 446.784 510.452 434.395 510.452 420.152V336.785C510.452 333.494 508.956 333.015 506.921 335.648C498.662 346.3 487.949 355.996 475.022 364.495Z" fill="black"/>
</svg>
