<svg width="506" height="407" viewBox="0 0 506 407" fill="none" xmlns="http://www.w3.org/2000/svg">
<path d="M506 0H0V407.456H506V0Z" fill="#324A5E"/>
<path d="M446.329 21.9165H59.5106C59.5106 42.7133 42.3933 59.6706 21.4366 59.6706V347.785C42.2333 347.785 59.5106 364.902 59.5106 385.699H446.169C446.169 364.902 462.967 348.105 483.604 347.945V59.6706C462.967 59.5106 446.329 42.7133 446.329 21.9165Z" fill="#E6E9EE"/>
<path d="M130.539 90.7056C132.619 90.8656 134.699 91.0256 136.778 91.1856C135.819 94.865 134.219 97.9045 131.979 100.144C129.739 102.384 127.02 103.984 123.66 104.943C119.501 106.063 116.142 105.583 113.422 103.504C110.702 101.424 109.423 97.9045 109.423 92.7853C109.423 87.5062 110.702 82.8669 113.422 79.1875C116.142 75.5081 119.661 72.9484 123.98 71.6686C127.82 70.5488 131.019 71.0288 133.419 72.6285C134.859 73.5884 135.978 75.3481 136.618 77.7477C134.539 78.7075 132.459 79.8274 130.379 80.7872C130.059 79.1875 129.26 78.0676 127.98 77.4277C126.86 76.7878 125.42 76.6279 123.66 77.1078C121.261 77.7477 119.501 79.1875 118.061 81.2671C116.622 83.3468 115.822 86.3863 115.822 90.2257C115.822 94.2251 116.462 96.9447 117.901 98.2245C119.341 99.5043 121.101 99.8242 123.5 99.1843C125.26 98.7044 126.7 97.7445 127.82 96.3048C129.1 95.1849 130.059 93.2652 130.539 90.7056Z" fill="#324A5E"/>
<path d="M142.218 99.6642C142.218 89.1059 142.218 78.3876 142.218 67.8293C150.056 66.0695 157.895 64.3098 165.734 63.03C165.734 64.7898 165.734 66.7094 165.734 68.4692C159.975 69.589 154.216 70.7088 148.617 71.8286C148.617 74.2283 148.617 76.4679 148.617 78.8675C153.896 77.7477 159.175 76.6279 164.614 75.668C164.614 77.4277 164.614 79.1875 164.614 81.1072C159.335 82.067 153.896 83.1868 148.617 84.3067C148.617 87.1862 148.617 90.0657 148.617 92.9453C154.536 91.6655 160.455 90.5457 166.374 89.4259C166.374 91.1856 166.374 92.9453 166.374 94.865C158.215 96.1448 150.216 97.7445 142.218 99.6642Z" fill="#324A5E"/>
<path d="M171.813 93.7452C171.813 83.1868 171.813 72.4685 171.813 61.9102C176.292 61.1103 180.931 60.4704 185.411 59.8305C188.77 59.3506 191.33 59.3506 192.929 59.6705C194.529 59.9905 195.809 60.9504 196.609 62.2302C197.569 63.6699 198.049 65.2697 198.049 67.0294C198.049 69.429 197.409 71.5087 195.969 73.2684C194.529 75.0281 192.45 76.3079 189.57 76.9478C191.01 77.5877 192.13 78.3876 193.089 79.1875C194.049 79.9874 195.169 81.5871 196.769 83.9867C198.049 85.9064 199.328 87.8261 200.768 89.7458C198.209 90.0657 195.649 90.3857 193.089 90.7057C191.49 88.626 189.89 86.5463 188.45 84.3067C186.85 82.067 185.731 80.6272 185.091 80.1473C184.451 79.6674 183.811 79.1875 183.171 79.0275C182.531 78.8675 181.411 78.8675 179.972 79.1875C179.492 79.1875 179.172 79.3474 178.692 79.3474C178.692 83.8267 178.692 88.306 178.692 92.6253C176.132 92.9453 174.052 93.2652 171.813 93.7452ZM178.372 74.2283C179.972 73.9083 181.571 73.7483 183.171 73.5884C186.211 73.1084 188.29 72.7885 188.93 72.4685C189.73 72.1486 190.37 71.5087 190.69 70.8688C191.17 70.2289 191.33 69.269 191.33 68.4692C191.33 67.3493 191.01 66.5495 190.53 65.9096C189.89 65.2697 189.09 64.9497 188.13 64.9497C187.65 64.9497 186.051 65.1097 183.331 65.4296C181.571 65.7496 179.972 65.9096 178.212 66.2295C178.372 68.7891 178.372 71.5087 178.372 74.2283Z" fill="#324A5E"/>
<path d="M211.327 88.626C211.327 79.8274 211.327 71.0288 211.327 62.0702C208.127 62.3901 204.928 62.7101 201.728 63.03C201.728 61.2703 201.728 59.5106 201.728 57.5909C210.207 56.6311 218.845 55.9912 227.324 55.5112C227.324 57.2709 227.324 59.0307 227.324 60.9504C224.125 61.1103 220.925 61.2703 217.726 61.5903C217.726 70.3889 217.726 79.1875 217.726 88.1461C215.806 88.306 213.566 88.466 211.327 88.626Z" fill="#324A5E"/>
<path d="M231.483 87.3462C231.483 76.6279 231.483 66.0696 231.483 55.5112C233.723 55.3513 235.803 55.3513 238.042 55.1913C238.042 65.7496 238.042 76.4679 238.042 87.0262C235.803 87.1862 233.563 87.3462 231.483 87.3462Z" fill="#324A5E"/>
<path d="M244.281 87.0262C244.281 76.4679 244.281 65.7496 244.281 55.1913C251.64 55.0313 258.999 55.0313 266.358 55.3512C266.358 57.111 266.358 58.8707 266.358 60.7904C261.079 60.6304 255.96 60.6304 250.68 60.6304C250.68 63.19 250.68 65.5896 250.68 68.1492C255.16 68.1492 259.639 68.1492 264.118 68.3092C264.118 70.0689 264.118 71.8286 264.118 73.7483C259.639 73.5884 255.16 73.5884 250.68 73.5884C250.68 78.0677 250.68 82.7069 250.68 87.1862C248.601 86.8663 246.361 86.8663 244.281 87.0262Z" fill="#324A5E"/>
<path d="M271.477 87.1862C271.477 76.6279 271.477 65.9096 271.477 55.3512C273.717 55.5112 275.796 55.5112 278.036 55.6712C278.036 66.2295 278.036 76.9478 278.036 87.5062C275.796 87.3462 273.717 87.3462 271.477 87.1862Z" fill="#324A5E"/>
<path d="M304.752 77.9077C306.831 78.8675 308.911 79.6674 310.991 80.6273C310.031 83.9867 308.431 86.3864 306.192 87.8261C303.952 89.2659 301.072 89.7458 297.713 89.4259C293.394 89.1059 289.874 87.3462 287.155 84.3067C284.435 81.2672 282.995 77.1078 282.995 72.1486C282.995 66.8694 284.435 62.7101 287.155 59.9905C289.874 57.271 293.554 55.9911 298.033 56.4711C302.032 56.791 305.232 58.3908 307.631 60.9504C309.071 62.3901 310.191 64.6298 310.991 67.1894C308.911 67.5093 306.671 67.6693 304.592 67.9893C304.272 66.2295 303.472 64.9497 302.192 63.8299C300.912 62.7101 299.473 62.0702 297.873 61.9102C295.473 61.7503 293.554 62.3902 292.114 63.9899C290.674 65.5896 289.874 68.3092 289.874 71.9886C289.874 75.988 290.674 79.0275 292.114 80.7872C293.554 82.547 295.473 83.6668 297.873 83.8268C299.633 83.9867 301.072 83.5068 302.352 82.547C303.312 81.7471 304.272 80.1473 304.752 77.9077Z" fill="#324A5E"/>
<path d="M345.385 95.6649C342.986 95.1849 340.746 94.705 338.346 94.3851C337.387 91.8255 336.427 89.2659 335.627 86.7063C331.308 85.9064 327.148 85.2665 322.829 84.6266C321.869 86.8663 321.069 89.2659 320.109 91.5055C317.87 91.1856 315.47 90.8656 313.23 90.5457C317.39 80.4673 321.549 70.3889 325.708 60.3105C327.948 60.6304 330.188 60.9504 332.587 61.4303C336.907 72.9485 341.226 84.3067 345.385 95.6649ZM333.547 80.9472C332.107 76.7879 330.668 72.6285 329.068 68.3092C327.628 71.9886 326.188 75.828 324.749 79.5074C327.788 79.9874 330.668 80.4673 333.547 80.9472Z" fill="#324A5E"/>
<path d="M352.744 97.2646C352.744 88.466 352.744 79.6674 352.744 70.7088C349.545 70.0689 346.505 69.429 343.306 68.7891C343.306 67.0294 343.306 65.2697 343.306 63.35C351.784 64.9497 360.103 66.7095 368.582 68.7891C368.582 70.5489 368.582 72.3086 368.582 74.2283C365.542 73.4284 362.343 72.7885 359.143 71.9886C359.143 80.7872 359.143 89.5858 359.143 98.5444C357.064 98.0645 354.824 97.5846 352.744 97.2646Z" fill="#324A5E"/>
<path d="M372.581 101.744C372.581 91.0256 372.581 80.4673 372.581 69.9089C380.42 71.8286 388.099 74.0683 395.777 76.4679C395.777 78.2276 395.777 79.9873 395.777 81.907C390.178 80.1473 384.579 78.5476 378.82 77.1078C378.82 79.5074 378.82 81.7471 378.82 84.1467C384.099 85.5865 389.378 87.0262 394.498 88.626C394.498 90.3857 394.498 92.1454 394.498 94.0651C389.218 92.4654 384.099 91.0256 378.82 89.5858C378.82 92.4654 378.82 95.3449 378.82 98.2245C384.739 99.8242 390.498 101.424 396.257 103.184C396.257 104.943 396.257 106.703 396.257 108.623C388.579 106.063 380.58 103.824 372.581 101.744Z" fill="#324A5E"/>
<path d="M483.923 147.977H354.184V154.216H483.923V147.977Z" fill="#324A5E"/>
<path d="M154.856 147.977H21.7566V154.216H154.856V147.977Z" fill="#324A5E"/>
<path d="M484.083 333.547H286.035V339.786H484.083V333.547Z" fill="#324A5E"/>
<path d="M218.046 333.547H21.7566V339.786H218.046V333.547Z" fill="#324A5E"/>
<path d="M380.26 128.46H128.78L150.536 151.176L128.78 173.733H380.26L358.503 151.176L380.26 128.46Z" fill="#F1543F"/>
<path d="M313.71 187.81H191.65V194.049H313.71V187.81Z" fill="#ACB3BA"/>
<path d="M415.774 211.966H90.2257V218.205H415.774V211.966Z" fill="#ACB3BA"/>
<path d="M415.774 236.283H90.2257V242.522H415.774V236.283Z" fill="#ACB3BA"/>
<path d="M415.774 260.439H90.2257V266.678H415.774V260.439Z" fill="#ACB3BA"/>
<path d="M415.774 284.595H90.2257V290.834H415.774V284.595Z" fill="#ACB3BA"/>
<path d="M162.694 159.655V142.537H168.293C170.373 142.537 171.813 142.697 172.453 142.857C173.413 143.177 174.212 143.657 174.852 144.457C175.492 145.257 175.812 146.377 175.812 147.817C175.812 148.936 175.652 149.736 175.172 150.536C174.852 151.176 174.372 151.816 173.733 152.296C173.093 152.776 172.613 152.936 171.973 153.096C171.173 153.256 169.893 153.416 168.453 153.416H166.214V159.815H162.694V159.655ZM166.214 145.417V150.216H168.133C169.413 150.216 170.373 150.056 170.853 149.896C171.333 149.736 171.653 149.416 171.973 149.096C172.293 148.776 172.293 148.297 172.293 147.817C172.293 147.177 172.133 146.697 171.813 146.217C171.493 145.737 171.013 145.577 170.373 145.417C169.893 145.417 169.093 145.257 167.973 145.257H166.214V145.417Z" fill="white"/>
<path d="M178.692 159.655V142.537H191.33V145.417H182.051V149.256H190.69V152.136H182.051V156.775H191.65V159.655H178.692Z" fill="white"/>
<path d="M194.529 159.655V142.537H201.728C203.488 142.537 204.928 142.697 205.727 143.017C206.527 143.337 207.167 143.817 207.647 144.617C208.127 145.417 208.447 146.217 208.447 147.337C208.447 148.616 208.127 149.736 207.327 150.536C206.527 151.336 205.408 151.976 203.968 152.136C204.768 152.616 205.248 153.096 205.887 153.576C206.367 154.056 207.007 155.015 207.807 156.295L209.887 159.655H205.727L203.168 155.975C202.208 154.696 201.728 153.896 201.408 153.416C201.088 153.096 200.768 152.776 200.448 152.776C200.128 152.616 199.488 152.616 198.689 152.616H198.049V159.655H194.529ZM198.049 149.736H200.608C202.208 149.736 203.328 149.736 203.648 149.576C204.128 149.416 204.448 149.256 204.608 148.776C204.768 148.457 204.928 147.977 204.928 147.497C204.928 146.857 204.768 146.537 204.448 146.057C204.128 145.737 203.648 145.417 203.168 145.417C202.848 145.417 202.048 145.417 200.608 145.417H197.889V149.736H198.049Z" fill="white"/>
<path d="M210.847 154.056L214.206 153.736C214.366 154.855 214.846 155.655 215.486 156.135C216.126 156.615 216.926 156.935 218.046 156.935C219.165 156.935 219.965 156.775 220.605 156.295C221.245 155.815 221.405 155.335 221.405 154.696C221.405 154.216 221.245 153.896 221.085 153.736C220.925 153.416 220.445 153.256 219.805 152.936C219.325 152.776 218.525 152.616 217.086 152.136C215.166 151.656 213.886 151.176 213.246 150.376C212.126 149.416 211.647 148.297 211.647 147.017C211.647 146.217 211.966 145.257 212.446 144.617C212.926 143.817 213.566 143.337 214.526 142.857C215.486 142.377 216.606 142.217 217.886 142.217C219.965 142.217 221.565 142.697 222.685 143.657C223.805 144.617 224.285 145.897 224.444 147.337L220.925 147.497C220.765 146.697 220.445 146.057 219.965 145.577C219.485 145.257 218.685 144.937 217.726 144.937C216.766 144.937 215.966 145.097 215.326 145.577C215.006 145.897 214.846 146.217 214.846 146.697C214.846 147.177 215.006 147.497 215.326 147.657C215.806 147.977 216.766 148.457 218.525 148.776C220.125 149.096 221.405 149.576 222.205 150.056C223.005 150.536 223.645 151.016 224.125 151.816C224.604 152.616 224.764 153.416 224.764 154.536C224.764 155.495 224.444 156.455 223.965 157.255C223.485 158.055 222.685 158.695 221.725 159.175C220.765 159.655 219.485 159.815 218.046 159.815C215.966 159.815 214.206 159.335 213.086 158.375C211.807 157.415 211.007 155.975 210.847 154.056Z" fill="white"/>
<path d="M227.644 159.655V142.537H240.282V145.417H231.003V149.256H239.642V152.136H231.003V156.775H240.602V159.655H227.644Z" fill="white"/>
<path d="M243.482 159.655V142.537H246.841L253.88 153.896V142.537H257.079V159.655H253.56L246.681 148.457V159.655H243.482Z" fill="white"/>
<path d="M264.598 159.655V145.417H259.479V142.537H273.077V145.417H267.958V159.655H264.598Z" fill="white"/>
<path d="M275.316 159.655V142.537H287.954V145.417H278.676V149.256H287.315V152.136H278.676V156.775H288.274V159.655H275.316Z" fill="white"/>
<path d="M291.154 142.537H297.393C298.833 142.537 299.953 142.697 300.592 142.857C301.552 143.177 302.512 143.657 303.152 144.457C303.792 145.257 304.432 146.057 304.752 147.177C305.072 148.297 305.232 149.576 305.232 151.176C305.232 152.616 305.072 153.736 304.752 154.855C304.272 156.135 303.792 157.095 302.992 157.895C302.352 158.535 301.552 158.855 300.592 159.335C299.793 159.655 298.833 159.655 297.553 159.655H291.154V142.537ZM294.513 145.417V156.775H297.073C298.033 156.775 298.673 156.775 299.153 156.615C299.633 156.455 300.113 156.295 300.592 155.975C300.912 155.655 301.232 155.015 301.552 154.376C301.712 153.576 301.872 152.616 301.872 151.176C301.872 149.896 301.712 148.776 301.552 148.137C301.392 147.497 301.072 146.857 300.592 146.537C300.113 146.217 299.633 145.897 298.993 145.737C298.513 145.577 297.553 145.577 296.113 145.577H294.513V145.417Z" fill="white"/>
<path d="M314.99 142.537H321.869C323.149 142.537 324.269 142.537 324.909 142.697C325.549 142.857 326.188 143.017 326.668 143.337C327.148 143.657 327.628 144.137 327.948 144.777C328.268 145.417 328.428 146.057 328.428 146.697C328.428 147.497 328.268 148.297 327.788 148.936C327.308 149.576 326.828 150.056 326.028 150.376C326.988 150.696 327.788 151.176 328.428 151.976C329.068 152.776 329.228 153.576 329.228 154.536C329.228 155.335 329.068 156.135 328.748 156.775C328.428 157.575 327.948 158.055 327.308 158.535C326.668 159.015 325.868 159.175 325.069 159.335C324.429 159.335 323.149 159.495 320.909 159.495H315.15V142.537H314.99ZM318.35 145.417V149.416H320.589C321.869 149.416 322.829 149.416 323.149 149.416C323.789 149.416 324.269 149.096 324.589 148.776C324.909 148.457 325.069 147.977 325.069 147.497C325.069 147.017 324.909 146.537 324.589 146.217C324.269 145.897 323.789 145.737 323.309 145.577C322.989 145.577 322.029 145.577 320.429 145.577H318.35V145.417ZM318.35 152.136V156.615H321.549C322.829 156.615 323.629 156.615 323.949 156.455C324.429 156.295 324.909 156.135 325.229 155.815C325.549 155.495 325.708 155.015 325.708 154.376C325.708 153.896 325.549 153.416 325.389 153.096C325.069 152.776 324.749 152.456 324.269 152.296C323.789 152.136 322.829 151.976 321.229 151.976H318.35V152.136Z" fill="white"/>
<path d="M336.587 159.655V152.456L330.348 142.537H334.347L338.346 149.256L342.346 142.537H346.345L340.106 152.456V159.655H336.587Z" fill="white"/>
<path d="M286.835 330.988L281.555 325.708C281.236 325.389 280.916 324.909 280.916 324.269V316.75C280.916 312.271 277.236 308.591 272.757 308.591H265.238C264.758 308.591 264.278 308.431 263.798 307.951L258.519 302.672C255.32 299.473 250.2 299.473 247.001 302.672L241.722 307.951C241.402 308.271 240.922 308.591 240.282 308.591H232.763C228.284 308.591 224.604 312.271 224.604 316.75V324.269C224.604 324.749 224.444 325.229 223.965 325.708L218.685 330.988C215.486 334.187 215.486 339.306 218.685 342.506L223.965 347.785C224.285 348.105 224.604 348.585 224.604 349.225V356.744C224.604 361.223 228.284 364.902 232.763 364.902H240.282C240.762 364.902 241.242 365.062 241.722 365.542L247.001 370.821C248.601 372.421 250.68 373.221 252.76 373.221C254.84 373.221 256.919 372.421 258.519 370.821L263.798 365.542C264.118 365.222 264.598 364.902 265.238 364.902H272.757C277.236 364.902 280.916 361.223 280.916 356.744V349.225C280.916 348.745 281.076 348.265 281.555 347.785L286.835 342.506C289.874 339.306 289.874 334.187 286.835 330.988Z" fill="#F1543F"/>
</svg>
