<svg width="403" height="246" viewBox="0 0 403 246" fill="none" xmlns="http://www.w3.org/2000/svg">
<path d="M402.566 172.199C402.624 170.934 402.664 169.664 402.688 168.384C402.842 160.434 402.345 152.184 400.951 143.8C400.404 140.518 399.722 137.213 398.884 133.9C398.272 131.48 397.579 129.058 396.792 126.629C396.65 126.176 396.503 125.723 396.35 125.272C394.54 119.864 392.289 114.461 389.535 109.094C389.291 108.609 389.039 108.127 388.78 107.64C386.718 103.753 384.382 99.885 381.759 96.063C381.492 95.6701 381.221 95.2797 380.944 94.8893C379.413 92.7131 377.785 90.5513 376.053 88.4016C373.538 85.271 370.797 82.1789 367.834 79.1255C363.732 74.9031 359.665 71.0712 355.635 67.6081C353.973 66.1741 352.321 64.8077 350.676 63.499C349.265 62.3736 347.856 61.2963 346.456 60.2624L346.408 60.2287C346.346 60.1819 346.28 60.1347 346.218 60.0841C342.972 57.6933 339.757 55.5267 336.573 53.5698C335.924 53.1698 335.276 52.7793 334.624 52.3937C331.501 50.5453 323.035 49.4051 323.035 49.4051C303.653 84.1525 294.073 14.2772 288.202 15.1183C287.5 14.8339 286.791 14.5543 286.075 14.2772H286.073C285.37 14.0025 284.658 13.7349 283.94 13.4674C283.934 13.464 283.928 13.4619 283.921 13.4599L283.915 13.4578C277.825 11.1948 271.248 9.15834 264.132 7.41109C263.714 7.30746 263.292 7.20384 262.868 7.10262C261.114 6.68328 259.324 6.28081 257.504 5.89762C250.174 4.35281 242.47 3.07791 234.549 2.1115C233.622 2.00064 232.695 1.8922 231.762 1.78857C229.675 1.5548 227.577 1.34272 225.467 1.15474C224.852 1.0969 224.236 1.04387 223.617 0.993257C220.783 0.757077 217.93 0.559459 215.069 0.407629C211.997 0.241339 208.911 0.125658 205.822 0.0605884C203.968 0.0244384 202.113 0.00274844 200.259 0.000338443C195.669 -0.00689156 191.076 0.101567 186.514 0.340157C184.892 0.419687 183.277 0.51609 181.667 0.62936C168.58 1.54998 155.811 3.5093 144.015 6.67845C143.597 6.78931 143.179 6.90258 142.764 7.01826C138.721 8.14132 134.797 9.40658 131.017 10.8261C130.51 11.0165 130.006 11.2093 129.503 11.4069C128.607 11.7539 127.722 12.1106 126.845 12.4769C116.335 16.8679 87.5779 -8.00085 72.4925 23.4014C72.265 23.8714 72.0457 24.3438 71.8305 24.8185C71.0196 26.6067 70.281 28.4383 69.6273 30.3085C65.6967 41.5391 64.7554 54.2157 68.7171 68.2901C82.7453 118.088 61.3854 124.286 34.6654 148.018C-0.0688626 178.858 -11.8669 220.195 13.9573 242.569C14.6503 243.172 15.3723 243.76 16.1212 244.333C16.1481 244.352 382.541 245.213 382.541 245.213C382.541 245.213 382.847 244.584 383.36 243.516L383.375 243.487C383.385 243.466 383.395 243.444 383.406 243.42C383.526 243.167 383.656 242.892 383.797 242.598C384.121 241.918 384.496 241.13 384.905 240.26L385.044 239.964C385.133 239.776 385.224 239.583 385.315 239.388C385.576 238.836 385.845 238.255 386.124 237.657C387.603 234.486 389.432 230.271 391.333 225.2V225.198C391.687 224.255 392.043 223.282 392.401 222.282C392.899 220.874 393.4 219.414 393.898 217.9C394.084 217.341 394.269 216.772 394.451 216.196C395.551 212.748 396.621 209.048 397.608 205.132C397.653 204.951 397.699 204.766 397.744 204.58L397.812 204.308C398.181 202.809 398.538 201.278 398.884 199.719C399.072 198.852 399.256 197.977 399.436 197.095L399.474 196.912C399.54 196.586 399.606 196.258 399.668 195.928C400.905 189.633 401.863 182.926 402.353 175.925C402.44 174.691 402.508 173.45 402.566 172.199Z" fill="#94B2ED"/>
<path d="M259.206 144.256C259.194 144.318 259.175 144.386 259.154 144.453C259.061 144.728 258.848 145.019 258.534 145.321C256.889 146.89 252.491 148.733 248.399 150.09C246.651 150.669 244.961 151.16 243.562 151.5C239.791 152.425 230.337 154.076 229.505 151.3C228.545 148.087 229.658 129.523 228.812 117.317C227.811 102.396 231.619 88.55 236.986 84.1176C237.389 83.799 238.241 84.9129 240.565 86.0921C242.71 87.1826 245.083 87.4921 247.092 87.0245L248.889 88.6758C251.374 91.0711 254.107 94.3386 255.348 99.35C256.103 102.425 256.676 107.284 257.102 112.754C257.266 114.87 257.406 117.083 257.53 119.314C257.723 122.869 257.89 126.453 257.971 129.861C257.971 129.926 257.973 129.993 257.975 130.058L257.977 130.184C258.012 130.526 258.017 130.902 258.023 131.246C258.05 132.234 258.066 133.198 258.081 134.134C258.108 136.095 258.124 137.927 258.188 139.558C258.273 141.72 259.005 142.665 259.196 143.537C259.248 143.774 259.26 144.007 259.206 144.256Z" fill="#F99746"/>
<path d="M272.295 231.283C272.295 231.283 272.771 240.227 274.256 240.354C274.453 240.371 281.789 240.371 281.789 240.371L291.152 240.308C291.152 240.308 291.09 237.679 288.353 237.125C285.616 236.568 281.036 234.327 279.376 230.114C277.632 225.68 272.295 231.283 272.295 231.283Z" fill="#182E51"/>
<path d="M235.211 165.582C236.549 168.223 238.095 170.698 239.687 173.041C244.613 180.285 249.973 186.257 250.908 191.901C251.092 193.027 251.388 194.236 251.773 195.514C252.164 196.808 252.646 198.167 253.203 199.572C255.292 204.86 258.418 210.786 261.538 216.172C266.933 225.485 270.917 232.242 270.917 232.242C270.917 232.242 271.964 233.695 275.709 233.695C279.151 233.695 280.702 231.307 280.702 231.307C280.33 230.22 271.604 210.106 266.176 194.393C263.973 188.016 252.549 148.432 252.549 148.432C252.549 148.432 232.18 139.443 230.066 145.268C228.32 150.068 229.741 154.775 235.211 165.582Z" fill="#182E51"/>
<path d="M246.047 91.9481C243.107 91.4249 240.05 90.0871 237.828 88.9465C236.305 88.1649 235.852 85.9224 236.897 84.4135C238.018 82.795 239.259 80.4168 239.948 77.2144C240.023 76.8724 240.091 76.5215 240.151 76.1631C240.343 75.0213 240.461 73.784 240.482 72.4515L243.295 75.3864L244.171 76.3003L247.975 80.27C247.975 80.27 247.944 80.8373 247.828 81.891C247.729 82.8258 247.559 84.1397 247.284 85.7814C247.183 86.3885 247.065 87.0419 246.93 87.7374C247.079 87.8439 247.222 87.9524 247.363 88.062C248.993 89.3381 247.989 92.294 246.047 91.9481Z" fill="#FFB27D"/>
<path d="M247.975 80.2702C247.975 80.2702 247.944 80.8375 247.828 81.8912C244.839 81.8608 241.345 79.412 240.134 77.1539C239.996 76.8912 242.062 76.5632 244.17 76.3005L247.975 80.2702Z" fill="#ED975D"/>
<path d="M249.824 80.2167C249.824 80.2167 239.787 81.5355 239.179 74.2411C238.568 66.9468 236.864 62.2044 243.246 61.0539C249.63 59.9036 251.109 62.5454 251.821 64.9226C252.532 67.2998 252.419 79.6853 249.824 80.2167Z" fill="#FFB27D"/>
<path d="M258.232 143.638C258.232 143.638 289.449 162.743 290.43 171.604C291.152 178.116 261.37 205.322 261.37 205.322C261.37 205.322 255.067 201.859 254.369 196.709C254.369 196.709 265.617 177.612 270.704 174.482C272.417 173.426 236.617 167.495 232.337 159.737C228.057 151.98 229.59 145.451 229.59 145.451L258.232 143.638Z" fill="#1C468A"/>
<path d="M239.669 76.2834C239.669 76.2834 236.839 73.2967 236.307 69.6532C235.775 66.0098 233.196 59.2075 238.072 56.4168C242.946 53.626 250.147 56.3587 252.743 58.219C255.338 60.0795 255.238 63.1609 252.944 64.2654C249.684 65.8343 246.413 64.3818 245.112 66.0679C243.81 67.7539 243.362 70.1376 242.362 69.3818C241.365 68.6261 240.016 68.0448 239.669 69.4399C239.319 70.8353 240.881 71.4983 240.482 72.4505C240.252 73 239.036 72.7927 239.669 76.2834Z" fill="#2B478B"/>
<path d="M277.455 143.757H272.483C271.952 143.757 271.519 143.253 271.519 142.634V133.799H278.417V142.634C278.417 143.253 277.986 143.757 277.455 143.757Z" fill="#FFB93E"/>
<path d="M271.519 133.799C271.519 133.799 271.811 133.042 272.585 133.013C273.358 132.984 273.458 133.483 274.132 133.321C274.807 133.157 275.429 133.018 276.129 133.321C276.826 133.623 278.394 133.273 278.406 133.536C278.419 133.799 278.648 134.117 277.899 134.146C277.15 134.174 275.853 133.914 275.355 134.146C274.856 134.379 273.582 134.384 273.059 134.148C272.535 133.914 271.53 134.382 271.519 133.799Z" fill="white"/>
<path d="M263.232 136.409C263.364 136.642 269.835 134.502 270.334 135.175C270.835 135.847 270.535 140.149 269.736 140.44C268.938 140.732 264.086 139.452 264.086 139.452L263.232 136.409Z" fill="#FFB27D"/>
<path d="M259.206 144.255C259.194 144.318 259.175 144.386 259.154 144.453C259.061 144.728 258.848 145.019 258.534 145.318C254.541 144.227 242.869 140.836 239.727 137.763C235.918 134.039 232.614 116.022 232.614 116.022L244.433 129.229L258.081 134.133C258.108 136.095 258.124 137.927 258.188 139.558C258.273 141.72 259.005 142.665 259.196 143.537C259.248 143.773 259.26 144.007 259.206 144.255Z" fill="#E58138"/>
<path d="M253.409 129.456C253.409 129.456 245.31 115.866 244.799 107.739L242.813 128.68L250.602 131.348L253.409 129.456Z" fill="#E58138"/>
<path d="M243.924 94.8302C243.496 89.6345 238.208 87.1607 234.82 90.5754C233.767 91.6375 232.778 92.9408 231.971 94.5372C227.283 103.813 237.021 135.271 240.49 134.934C243.957 134.596 250.062 138.512 245.691 115.022C244.51 108.669 244.408 100.724 243.924 94.8302Z" fill="#F99746"/>
<path d="M240.488 134.934C240.488 134.934 247.162 137.341 264.229 140.44C264.229 140.44 265.522 137.763 264.229 135.635C264.229 135.635 247.59 126.062 243.945 124.045C239.872 121.792 238.812 134.215 240.488 134.934Z" fill="#F99746"/>
<path d="M338.76 239.766H342.262V163.928H338.76V239.766Z" fill="#6683D3"/>
<path d="M354.015 238.706L352.347 236.891C351.681 236.168 350.804 235.766 349.894 235.766H331.323C330.528 235.766 329.761 236.105 329.167 236.722L327.16 238.809C326.831 239.152 327.04 239.788 327.481 239.788L353.659 239.761C354.133 239.759 354.362 239.084 354.015 238.706Z" fill="#6683D3"/>
<path d="M319.109 209.251H340.812C341.336 209.251 341.762 208.754 341.762 208.145C341.762 207.535 341.336 207.041 340.812 207.041H319.109C318.583 207.041 318.159 207.535 318.159 208.145C318.159 208.754 318.583 209.251 319.109 209.251Z" fill="#6683D3"/>
<path d="M336.439 78.9959C336.439 78.9959 340.696 82.8318 336.292 88.1088C336.292 88.1088 340.251 89.5386 341.489 88.4059C341.489 88.4059 341.24 88.966 341.015 89.2152C341.015 89.2152 345.03 89.4738 346.714 88.0502C348.4 86.6266 347.73 62.6397 336.526 65.0685C336.526 65.0685 327.082 64.0244 327.752 76.7931C328.422 89.5618 324.852 89.4822 324.852 89.4822C324.852 89.4822 325.834 90.0746 326.314 90.0855C326.314 90.0855 327.02 89.7897 327.167 89.3417C327.167 89.3417 327.016 90.0476 326.834 90.2691C326.834 90.2691 330.681 90.7807 332.632 89.1289C334.585 87.4774 336.944 81.6384 336.439 78.9959Z" fill="#233862"/>
<path d="M314.578 222.438C315.366 223.711 316.299 224.383 316.275 225.41C316.227 227.241 313.078 229.085 313.174 231.958C313.269 234.83 310.735 235.956 308.854 237.306C306.974 238.658 306.64 238.262 307.162 235.081C307.226 234.693 307.292 234.233 307.362 233.722C307.865 230.056 308.66 227.302 308.854 225.121C309.288 220.284 308.504 205.669 308.504 205.669L312.547 208.195L313.525 217.891C313.434 220.081 313.962 221.445 314.578 222.438Z" fill="#E49963"/>
<path d="M328.218 143.728C328.218 143.728 314.456 156.754 309.82 170.966C308.798 174.099 307.197 202.587 304.816 213.09C304.816 213.09 309.965 218.505 313.625 218.872C313.625 218.872 323.892 187.744 320.681 179.719C319.206 176.034 344.652 165.97 347.488 155.06C350.324 144.147 334.573 136.915 328.218 143.728Z" fill="#182E51"/>
<path d="M328.34 205.096C328.34 205.778 328.05 206.248 327.558 206.564C327.558 206.566 327.553 206.568 327.551 206.568C326.641 207.152 325.046 207.21 323.31 207.12C323.089 207.111 322.888 207.103 322.711 207.103C322.663 207.103 322.617 207.103 322.572 207.106C322.535 207.106 322.5 207.106 322.464 207.106C320.745 207.156 320.927 207.754 317.663 208.082C313.941 208.451 312.57 207.125 312.35 206.52C312.166 206.007 313.763 205.426 315.546 204.763C315.633 204.73 315.72 204.696 315.807 204.665C316.045 204.578 316.283 204.486 316.521 204.395C318.645 203.573 320.737 202.597 321.258 200.093C321.813 197.437 320.149 190.021 320.149 190.021L324.107 184.469C324.107 184.469 326.614 197.03 326.985 199.447C327.185 200.736 327.688 201.76 327.98 202.864C328.002 202.944 328.021 203.021 328.04 203.098C328.191 203.746 328.342 204.409 328.34 205.096Z" fill="#E49963"/>
<path d="M328.34 205.096C328.34 205.778 328.05 206.248 327.558 206.564C327.558 206.566 327.553 206.568 327.551 206.568C326.583 207.089 325.013 207.166 323.315 207.108C323.091 207.101 322.893 207.099 322.711 207.104C322.663 207.104 322.617 207.104 322.572 207.106C322.535 207.106 322.5 207.106 322.464 207.106C320.745 207.157 320.927 207.754 317.663 208.082C313.941 208.451 312.57 207.125 312.35 206.52C312.166 206.007 313.763 205.426 315.546 204.763C316.047 204.988 318.434 205.954 321.258 205.33C323.741 204.785 326.207 203.346 327.98 202.864C328.002 202.941 328.021 203.021 328.04 203.098C328.191 203.746 328.342 204.409 328.34 205.096Z" fill="#233862"/>
<path d="M300.281 114.926C300.281 114.926 298.411 110.542 297.197 111.01C295.101 111.817 291.708 109.542 291.419 110.214C291.129 110.889 291.743 113.658 292.61 114.533C293.477 115.408 299.356 117.553 299.356 117.553L300.281 114.926Z" fill="#FFB27D"/>
<path d="M347.747 146.333C347.747 146.333 313.44 140.016 305.687 148.608C301.564 153.177 320.193 198.628 320.193 198.628C320.193 198.628 321.782 198.297 324.113 197.329C325.989 196.548 327.342 194.386 327.342 194.386C327.342 194.386 325.414 178.661 324.936 172.826C324.26 164.606 319.485 160.766 321.68 161.027C323.873 161.289 340.185 172.277 350.117 161.169C356.185 154.382 353.084 144.545 353.084 144.545L347.747 146.333Z" fill="#2B478B"/>
<path d="M332.283 94.4304C332.252 94.4468 335.301 96.2917 337.595 95.5605C339.753 94.8751 341.162 91.616 341.133 91.6088C340.218 91.3972 339.956 89.9346 339.974 83.6488L339.561 83.7435L332.616 85.3457C332.616 85.3457 332.773 87.8921 332.779 90.2908C332.783 92.305 332.678 94.2152 332.283 94.4304Z" fill="#FFB27D"/>
<path d="M331.317 87.6171C331.317 87.6171 340.514 87.7938 340.52 81.1207C340.527 74.4479 341.716 69.9764 335.847 69.5816C329.976 69.1866 328.832 71.7314 328.364 73.9582C327.897 76.185 328.925 87.3993 331.317 87.6171Z" fill="#FFB27D"/>
<path d="M356.508 148.736C356.011 150.338 354.491 150.753 352.453 150.473C348.566 149.945 342.571 147.977 338.27 146.304C333.085 144.289 328.571 144.174 327.967 144.174C326.076 144.174 329.825 140.583 329.357 130.96C329.163 126.99 327.038 121.098 325.944 114.947C324.672 107.811 332.727 92.507 332.727 92.507C332.727 92.507 333.425 96.9375 341.133 91.6085C341.404 91.4206 344.439 96.6532 347.36 103.105C350.581 110.221 353.665 118.82 352.759 123.25C351.03 131.697 357.95 144.075 356.508 148.736Z" fill="#F9DDBF"/>
<path d="M332.727 92.5073L327.976 115.215C327.976 115.215 327.386 116.442 326.459 118.187C324.283 122.284 320.257 129.246 317.679 129.952C316.407 130.302 313.701 129.068 310.71 127.306C305.05 123.975 298.359 118.755 298.359 118.755C297.927 115.733 300.186 113.27 300.186 113.27C300.186 113.27 313.736 119.204 315.083 119.314C318.017 119.558 321.004 103.064 323.745 97.5666C325.727 93.5906 332.727 92.5073 332.727 92.5073Z" fill="#F9DDBF"/>
<path d="M333.363 83.5719C333.363 83.5719 333.191 84.4195 331.381 84.2889C331.381 84.2889 329.86 84.1795 329.908 83.2478C329.908 83.2478 331.381 82.585 333.363 83.5719Z" fill="white"/>
<path d="M356.508 148.736C356.011 150.338 354.491 150.753 352.453 150.473C349.762 149.109 338.139 143.863 338.27 140.31C338.464 135.047 340.504 134.881 339.064 128.386C337.906 123.17 348.644 113.473 350.357 111.366C353.576 118.483 353.665 118.82 352.759 123.25C351.03 131.697 357.95 144.075 356.508 148.736Z" fill="#EAC3A0"/>
<path d="M316.275 225.41C316.227 227.241 313.078 229.085 313.174 231.958C313.269 234.831 310.517 236.932 308.639 238.282C306.756 239.634 306.638 238.262 307.162 235.081C307.226 234.693 307.292 234.233 307.362 233.722C307.996 233.425 310.335 232.153 311.266 229.355C312.346 226.106 314.578 222.438 314.578 222.438C315.366 223.711 316.299 224.381 316.275 225.41Z" fill="#233862"/>
<path d="M333.081 125.966C331.41 125.966 330.04 124.373 330.04 122.426V117.762H336.12V122.426C336.12 124.373 334.753 125.966 333.081 125.966Z" fill="#8AA8ED"/>
<path d="M335.804 122.585C335.709 124.231 334.519 125.549 333.081 125.549C331.641 125.549 330.452 124.231 330.357 122.585H335.804Z" fill="#B74B42"/>
<path d="M337.225 128.258C337.225 128.258 335.278 126.496 333.441 126.916C331.602 127.335 330.702 128.805 330.775 129.477C330.845 130.147 331.819 132.037 333.224 132.205C334.631 132.374 338.632 131.198 338.632 131.198L337.225 128.258Z" fill="#FFB27D"/>
<path d="M341.133 91.6088C341.133 91.6088 348.628 92.1467 351.222 96.3616C354.873 102.297 361.218 126.523 359.487 132.066C359.487 132.066 353.249 133.577 347.705 133.184C344.846 132.982 336.685 131.955 336.685 131.955C336.685 131.955 336.133 128.945 336.9 127.489C337.67 126.034 350.165 123.681 350.74 123.011C351.317 122.339 343.533 109.911 343.533 107.896C343.533 105.879 341.133 91.6088 341.133 91.6088Z" fill="#F9DDBF"/>
<path d="M330.741 67.8992C330.741 67.8992 334.128 77.8385 338.605 79.2867C343.079 80.7351 344.447 78.6143 344.447 78.6143C344.447 78.6143 341.05 75.3442 340.425 69.7549C340.425 69.7549 333.023 63.6116 330.741 67.8992Z" fill="#233862"/>
<path d="M331.939 70.0646C331.939 70.0646 329.293 70.9185 328.743 72.8289C328.193 74.7393 327.959 78.9245 328.255 79.2041C328.255 79.2041 325.483 72.3999 327.949 69.0493C328.892 67.7708 332.336 65.8216 333.323 65.4916C334.413 65.1277 331.939 70.0646 331.939 70.0646Z" fill="#233862"/>
<path d="M331.052 69.2794C331.052 69.2794 332.928 78.5979 338.394 81.6917C338.394 81.6917 332.974 75.8708 332.605 69.7388C332.239 63.6068 331.052 69.2794 331.052 69.2794Z" fill="#233862"/>
<path d="M323.302 165.837C328.017 170.375 334.064 173.101 340.655 173.101C346.298 173.101 351.541 171.103 355.889 167.686C363.151 161.976 367.925 152.305 367.925 141.332C367.925 136.088 366.835 131.138 364.903 126.781C355.339 129.8 343.822 135.686 334.349 147.123C330.148 152.192 326.35 158.354 323.302 165.837Z" fill="#7F9AE5"/>
<path d="M247.236 190.06C246.678 191.424 241.314 192.689 233.351 193.81C231.948 194.008 230.467 194.2 228.913 194.388C201.817 197.673 127.603 199.507 123.028 198.538C116.707 197.198 104.128 131.779 104.128 131.779C104.128 131.779 141.164 131.119 170.576 130.796C180.637 130.687 215.638 130.415 222.128 130.415C232.18 130.412 248.138 187.85 247.236 190.06Z" fill="#8AA8ED"/>
<path d="M269.403 229.77C269.074 230.039 268.737 230.305 268.391 230.567C264.097 233.818 258.494 236.407 252.09 238.009C247.247 239.222 241.947 239.872 236.4 239.822L226.764 239.824H226.632L181.011 239.839L154.863 239.846H154.476L154.474 239.834L153.567 234.958L145.287 185.789C145.287 185.789 259.876 183.141 269.194 188.604C273.52 191.14 275.975 201.647 277.337 213.227C278.061 219.392 274.991 225.178 269.403 229.77Z" fill="#7F9AE5"/>
<path d="M184.102 145.162C184.102 145.162 196.629 153.867 201.279 158.891C201.279 158.891 198.732 160.299 197.812 160.371C192.774 160.771 181.483 156.199 179.386 150.75L184.102 145.162Z" fill="#F9DDBF"/>
<path d="M179.769 225.53C179.344 226.099 179.29 226.733 179.5 227.408C179.5 227.41 179.502 227.415 179.504 227.417C179.892 228.668 181.177 230.066 182.669 231.461C182.859 231.64 183.029 231.804 183.175 231.955C183.215 231.994 183.254 232.033 183.291 232.074C183.32 232.105 183.349 232.136 183.378 232.165C184.768 233.659 184.245 234.002 186.744 237.033C189.593 240.487 191.556 240.547 192.112 240.234C192.586 239.966 191.626 238.135 190.563 236.074C190.511 235.975 190.462 235.874 190.408 235.775C190.267 235.501 190.126 235.223 189.986 234.949C188.74 232.471 189.059 231.307 189.355 227.62C189.595 224.624 193.358 210.88 193.358 210.88L187.896 209.786C187.896 209.786 186.252 220.73 184.441 222.414C183.471 223.313 182.387 223.323 181.456 223.99C181.39 224.036 181.326 224.084 181.262 224.133C180.734 224.542 180.194 224.964 179.769 225.53Z" fill="#FFB27D"/>
<path d="M179.769 225.53C179.344 226.099 179.29 226.733 179.5 227.408C179.5 227.41 179.502 227.415 179.504 227.417C179.979 228.668 181.233 230.059 182.675 231.449C182.863 231.63 183.029 231.799 183.175 231.955C183.215 231.994 183.254 232.035 183.291 232.073C183.32 232.105 183.349 232.136 183.378 232.165C184.768 233.659 184.245 234.001 186.744 237.033C189.593 240.487 191.556 240.547 192.112 240.234C192.586 239.966 191.626 238.135 190.563 236.074C190.008 235.838 187.433 234.618 185.484 231.714C183.769 229.165 182.625 225.887 181.456 223.99C181.39 224.036 181.326 224.084 181.262 224.133C180.734 224.542 180.194 224.964 179.769 225.53Z" fill="#233862"/>
<path d="M223.795 221.559C224.133 223.523 226.534 223.195 229.22 222.431C231.903 221.667 231.266 222.576 235.085 222.082C238.905 221.59 240.062 219.929 240.178 219.269C240.283 218.681 238.395 218.474 236.371 218.204C236.117 218.17 235.86 218.134 235.604 218.095C233.32 217.763 231.644 216.045 229.569 214.632C227.602 213.295 224.666 207.851 224.666 207.851L219.428 208.333C219.428 208.333 222.178 213.198 223.241 215.312C223.866 216.555 223.833 218.201 223.754 219.472C223.715 220.161 223.675 220.867 223.795 221.559Z" fill="#FFB27D"/>
<path d="M229.22 222.431C231.903 221.667 231.266 222.576 235.085 222.082C238.906 221.59 240.062 219.929 240.178 219.269C240.283 218.681 238.395 218.474 236.371 218.204L236.353 218.247C236.353 218.247 234.061 220.142 230.881 220.228C228.291 220.303 225.546 219.438 223.756 219.472C223.715 220.161 223.675 220.867 223.795 221.559C224.133 223.523 226.534 223.195 229.22 222.431Z" fill="#233862"/>
<path d="M203.718 182.536L198.821 197.888L192.429 217.932C192.429 217.932 190.693 218.127 189.032 217.57C187.501 217.054 185.747 215.707 185.747 215.707C185.747 215.707 187.522 194.186 190.834 181.83C191.682 178.658 192.634 176.094 193.683 174.65C198.817 167.582 203.718 182.536 203.718 182.536Z" fill="#233862"/>
<path d="M198.741 158.154C195.532 156.949 186.38 158.496 177.189 160.593L175.264 156.896L155.409 155.088C155.409 155.088 148.857 172.014 152.444 182.799C152.971 184.384 154.019 185.401 155.805 185.435C155.805 185.435 156.094 185.433 156.095 185.435C156.095 185.435 167.912 185.428 171.749 185.428C181.624 185.428 192.646 177.521 194.072 177.188C196.405 176.643 197.34 182.083 199.674 187.792C202.007 193.501 221.613 213.078 221.613 213.078C221.613 213.078 224.627 213.114 225.87 212.569C227.209 211.984 227.699 211.225 227.699 211.225C227.699 211.225 205.975 160.875 198.741 158.154Z" fill="#2B478B"/>
<path d="M168.686 86.4806C165.903 85.6467 162.095 86.4782 161.464 86.5505C153.909 87.4157 151.37 97.234 152.514 104.852C153.57 111.88 150.508 113.824 146.962 119.377C144.227 123.657 143.232 127.68 143.36 131.148C143.412 132.543 143.646 133.847 144.022 135.044C145.144 138.606 147.525 141.2 150.111 142.315C150.737 142.585 151.412 142.679 152.092 142.65C152.434 142.636 152.777 142.593 153.119 142.523C153.183 142.511 153.245 142.499 153.309 142.484C154.112 142.301 154.891 141.997 155.582 141.665C157.074 140.949 158.152 140.105 158.152 140.105C158.237 140.105 164.068 135.664 169.859 130.803C170.684 130.111 171.508 129.412 172.314 128.716C173.233 127.921 174.129 127.13 174.977 126.364C176.444 125.033 177.77 123.768 178.827 122.655C188.798 118.109 175.776 88.6062 168.686 86.4806Z" fill="#233862"/>
<path d="M169.922 118.15C169.957 118.165 166.695 120.992 164.173 120.442C161.8 119.927 159.455 116.444 159.487 116.432C160.454 116.111 161.207 114.632 160.711 107.872L161.162 107.932L168.755 108.942C168.755 108.942 168.778 111.696 168.954 114.278C169.102 116.447 169.48 117.96 169.922 118.15Z" fill="#FFB27D"/>
<path d="M170.323 111.251C170.323 111.251 160.444 112.386 159.932 105.209C159.42 98.0317 157.801 93.3442 164.086 92.3159C170.372 91.2878 171.794 93.9077 172.465 96.2555C173.136 98.6029 172.88 110.771 170.323 111.251Z" fill="#FFB27D"/>
<path d="M169.265 91.183C169.265 91.183 168.021 99.9525 162.395 102.032C158.29 103.551 156.431 102.548 156.431 102.548C156.431 102.548 158.408 99.497 159.109 95.2539C159.316 94.0034 160.08 92.9743 161.118 92.5764C164.035 91.4584 167.569 88.4023 169.265 91.183Z" fill="#233862"/>
<path d="M167.403 93.0533C167.403 93.0533 169.265 93.5366 170.915 96.335C171.816 97.8654 172.86 101.719 172.682 103.428C172.682 103.428 174.411 95.311 171.89 92.292C169.217 89.0908 167.403 93.0533 167.403 93.0533Z" fill="#233862"/>
<path d="M177.506 138.064C177.208 161.265 177.424 156.416 175.246 158.619C174.721 159.149 173.245 159.465 171.303 159.614C165.196 160.087 154.461 158.916 154.053 157.6C152.644 153.052 153.639 151.637 152.464 144.672C152.341 143.933 152.19 143.13 152.012 142.258C151.032 137.474 150.078 135.847 153.554 128.162C156.707 121.201 159.982 115.552 160.276 115.755C168.594 121.508 169.265 116.673 169.265 116.673C169.265 116.673 177.651 126.749 177.506 138.064Z" fill="#F9DDBF"/>
<path d="M169.471 155.178C167.659 155.178 166.175 153.45 166.175 151.338V146.282H172.767V151.338C172.767 153.45 171.284 155.178 169.471 155.178Z" fill="#8AA8ED"/>
<path d="M172.425 151.512C172.32 153.298 171.031 154.725 169.471 154.725C167.912 154.725 166.622 153.298 166.518 151.512H172.425Z" fill="#B74B42"/>
<path d="M171.303 159.614C165.196 160.087 154.461 158.915 154.053 157.6C152.645 153.052 153.639 151.637 152.464 144.672L155.409 135.011C155.409 135.011 154.922 145.771 157.646 148.601C160.367 151.43 168.798 154.064 170.122 156.428C170.76 157.563 171.18 158.701 171.303 159.614Z" fill="#EAC3A0"/>
<path d="M198.821 197.888L192.429 217.932C192.429 217.932 190.693 218.127 189.032 217.57C187.501 217.054 185.747 215.707 185.747 215.707C185.747 215.707 187.522 194.186 190.834 181.83L198.821 197.888Z" fill="#2B478B"/>
<path d="M169.265 116.671C169.265 116.671 177.823 118.36 178.828 122.655C179.832 126.947 186.775 150.953 186.775 150.953C186.775 150.953 181.396 153.091 179.386 150.75C177.376 148.408 172.392 129.027 172.392 129.027L169.265 116.671Z" fill="#F9DDBF"/>
<path d="M160.271 115.75C160.271 115.75 152.182 116.331 149.381 120.881C145.439 127.284 137.619 154.582 142.101 158.224C147.148 162.323 165.072 159.296 165.072 159.296C165.072 159.296 165.668 156.048 164.838 154.476C164.008 152.905 150.523 150.367 149.9 149.642C149.278 148.916 157.681 135.502 157.681 133.329C157.681 131.152 160.271 115.75 160.271 115.75Z" fill="#F9DDBF"/>
<path d="M168.043 107.019C168.043 107.019 168.457 108.199 169.551 108.199C170.645 108.199 170.94 108.009 171.147 107.739C171.354 107.469 171.56 106.949 171.56 106.949C171.56 106.949 169.747 106.532 168.043 107.019Z" fill="white"/>
<path d="M201.279 158.891L200.412 159.347C201.399 161.648 202.237 163.425 202.996 164.196C203.884 165.1 204.875 167.324 205.561 167.184C206.259 167.044 206.242 165.456 205.913 163.213C205.613 161.171 204.664 160.622 203.788 160.2C203.493 160.058 201.809 159.125 201.279 158.891Z" fill="#FFB27D"/>
<path d="M177.095 221.939C175.307 232.845 165.5 239.756 155.447 239.756H135.179L136.764 174.217C136.764 174.217 156.102 167.078 160.96 173.87C165.215 179.817 176.755 203.368 177.362 217.307C177.432 218.92 177.338 220.467 177.095 221.939Z" fill="#94B2ED"/>
<path d="M165.497 222.395C164.69 226.702 162.631 230.365 159.811 233.201L159.81 233.204C158.128 234.896 156.174 236.293 154.053 237.359C151.448 238.67 148.59 239.477 145.674 239.708C145.522 239.718 145.371 239.73 145.22 239.74C145.1 239.745 144.978 239.752 144.858 239.754C144.657 239.764 144.455 239.771 144.254 239.773C144.148 239.776 144.041 239.776 143.933 239.776H123.664L123.663 239.766C123.279 239.771 122.887 239.776 122.493 239.781C120.407 239.81 118.227 239.834 116.205 239.853C115.866 239.858 115.532 239.86 115.204 239.863C115.081 239.863 114.958 239.863 114.839 239.863C112.841 239.879 111.074 239.884 109.815 239.875C108.043 239.863 106.372 239.73 104.802 239.467C102.776 239.128 100.917 238.573 99.2156 237.778C98.9119 237.636 98.6132 237.486 98.3203 237.327C98.0213 237.168 97.7274 237 97.4392 236.824C96.67 236.354 95.9364 235.826 95.2411 235.238C93.4432 233.719 91.8883 231.796 90.5654 229.43C89.645 227.784 88.8355 225.923 88.1352 223.831C87.2769 221.272 86.5838 218.368 86.0455 215.095C86.0313 215.013 86.017 214.929 86.0038 214.844C85.7609 213.341 85.5501 211.76 85.3715 210.099C85.2907 209.342 85.2156 208.569 85.1477 207.778C84.9061 204.99 84.7464 201.989 84.6642 198.772C84.657 198.493 84.6512 198.211 84.6452 197.926C84.6442 197.864 84.6429 197.801 84.6417 197.736C84.5916 195.181 84.5894 192.489 84.6334 189.655C84.6524 188.414 84.681 187.146 84.7178 185.85C84.7346 185.262 84.7536 184.666 84.7737 184.066C84.8773 181.054 85.0273 177.897 85.2203 174.593C85.3072 173.11 85.4024 171.597 85.5073 170.052C85.9382 163.69 86.5218 156.809 87.2456 149.384C88.0659 140.956 89.0125 135.064 90.3889 133.724C92.4189 131.743 96.6541 130.945 99.6008 130.627H99.6031C101.431 130.429 102.761 130.415 102.761 130.415C102.826 130.415 102.892 130.417 102.957 130.417C103.004 130.42 103.05 130.42 103.096 130.422C103.208 130.427 103.32 130.437 103.431 130.446C103.493 130.451 103.556 130.458 103.618 130.468C103.66 130.47 103.7 130.475 103.741 130.482C103.802 130.49 103.865 130.499 103.925 130.511C104.035 130.528 104.143 130.55 104.251 130.572C104.325 130.588 104.4 130.605 104.474 130.625C104.48 130.625 104.487 130.627 104.493 130.629C104.547 130.641 104.6 130.656 104.654 130.673C104.756 130.699 104.857 130.728 104.957 130.762C105.026 130.784 105.094 130.808 105.162 130.832C105.21 130.849 105.256 130.866 105.304 130.882C105.867 131.097 106.406 131.381 106.916 131.726C108.663 132.912 110.038 134.832 110.714 137.209C113.067 145.48 117.266 160.265 121.637 175.73C121.658 175.807 121.681 175.887 121.702 175.964C121.954 176.851 122.205 177.742 122.457 178.637C122.482 178.726 122.507 178.817 122.533 178.906C122.546 178.952 122.56 178.998 122.573 179.044C122.819 178.926 123.074 178.805 123.338 178.682C123.347 178.678 123.355 178.673 123.366 178.668C124.413 178.176 125.599 177.639 126.879 177.092H126.88C127.544 176.807 128.231 176.518 128.94 176.231C130.941 175.422 133.099 174.619 135.288 173.93C136.258 173.621 137.237 173.335 138.208 173.082C139.456 172.754 140.694 172.477 141.902 172.272C141.943 172.264 141.977 172.26 142.006 172.252C142.149 172.228 142.291 172.209 142.433 172.185C143.284 172.055 144.116 171.958 144.922 171.905H144.923C149.045 171.64 152.459 172.51 154.021 175.426C154.605 176.516 155.388 178.241 156.276 180.418C158.111 184.919 160.391 191.347 162.269 198.054C164.134 204.715 165.604 211.656 165.848 217.264C165.928 219.059 165.801 220.771 165.497 222.395Z" fill="#6683D3"/>
<path d="M113.161 181.661C113.161 181.661 102.758 136.835 102.007 133.068C101.673 131.391 100.642 130.784 99.6031 130.627C101.432 130.429 102.762 130.415 102.762 130.415C106.362 130.415 109.56 133.138 110.715 137.189C113.235 146.022 117.874 162.309 122.574 178.899C122.336 178.894 113.161 181.661 113.161 181.661Z" fill="#94B2ED"/>
<path d="M68.4895 203.178C68.4895 203.178 63.4356 196.309 68.178 191.945C68.178 191.945 71.6421 189.503 74.4663 189.701C74.4663 189.701 70.4641 197.519 71.759 198.297C73.0538 199.073 75.6795 189.209 75.6795 189.209C75.6795 189.209 83.5624 188.32 86.0983 189.739C86.0983 189.739 79.3593 196.164 80.7787 196.548C82.1979 196.928 89.477 190.624 89.477 190.624C89.477 190.624 96.8136 192.077 96.4224 197.292C96.0312 202.505 93.5032 204.115 92.392 203.978C91.2809 203.838 84.7813 200.948 84.6398 202.009C84.4983 203.069 88.4107 206.535 91.1504 206.699C91.1504 206.699 85.9779 213.343 82.54 211.425C79.1024 209.506 78.8089 206.467 76.666 205.327C74.523 204.187 72.6938 204.19 73.5784 205.351C74.4632 206.515 78.3415 207.646 79.567 210.171C80.7926 212.697 81.8921 214.399 78.3353 213.774C74.7787 213.153 68.9972 210.121 68.7433 206.648C68.4895 203.178 68.4895 203.178 68.4895 203.178Z" fill="#4D66C1"/>
<path d="M92.8176 197.432C92.8176 197.432 72.8904 196.538 68.4897 203.178C68.4897 203.178 67.5164 206.573 64.5217 209.665L64.055 211.147C64.055 211.147 67.5079 206.906 68.7436 206.648C68.7436 206.648 66.8112 198.423 92.8176 197.432Z" fill="#4D66C1"/>
<path d="M64.5214 209.665C64.5214 209.665 60.2443 213.35 59.9472 219.934L60.7234 220.014C60.7234 220.014 62.0896 213.206 64.5587 210.545C67.0277 207.882 64.5214 209.665 64.5214 209.665Z" fill="#4D66C1"/>
<path d="M50.8191 194.538C50.8191 194.538 58.8587 189.294 55.107 182.177C55.107 182.177 52.1056 177.805 48.8898 176.68C48.8898 176.68 50.6048 187.296 48.8898 187.544C47.1748 187.795 47.7106 175.557 47.7106 175.557C47.7106 175.557 39.2422 170.811 35.9191 171.187C35.9191 171.187 41.1717 181.55 39.4565 181.302C37.7415 181.051 31.8458 170.561 31.8458 170.561C31.8458 170.561 23.163 168.688 21.7695 174.682C20.376 180.678 22.627 183.673 23.9133 184.049C25.1997 184.423 33.4536 184.298 33.2393 185.546C33.0249 186.797 27.4507 188.795 24.3422 187.669C24.3422 187.669 27.7724 197.536 32.2746 197.037C36.7768 196.536 38.1703 193.289 40.9574 193.039C43.7444 192.791 45.7811 193.665 44.3876 194.538C42.994 195.413 38.2773 194.825 36.0263 197.054C33.7753 199.283 31.9529 200.657 36.1334 201.657C40.314 202.655 47.8177 202.03 49.3184 198.285C50.8191 194.538 50.8191 194.538 50.8191 194.538Z" fill="#4D66C1"/>
<path d="M25.7355 176.557C25.7355 176.557 48.2464 185.047 50.8191 194.538C50.8191 194.538 50.7119 198.784 52.9629 203.655V205.527C52.9629 205.527 50.6046 199.158 49.3182 198.285C49.3182 198.285 54.3565 190.043 25.7355 176.557Z" fill="#4D66C1"/>
<path d="M52.9629 203.655C52.9629 203.655 56.4345 209.795 54.4553 217.271L53.5623 216.992C53.5623 216.992 54.4293 208.759 52.6129 204.616C50.7965 200.476 52.9629 203.655 52.9629 203.655Z" fill="#4D66C1"/>
<path d="M63.6093 187.305C63.6093 187.305 53.0117 180.391 57.9573 171.009C57.9573 171.009 61.9138 165.247 66.1529 163.767C66.1529 163.767 63.8919 177.757 66.1529 178.087C68.4136 178.415 67.7071 162.285 67.7071 162.285C67.7071 162.285 78.8701 156.028 83.2505 156.522C83.2505 156.522 76.3266 170.185 78.5875 169.857C80.8484 169.527 88.6199 155.701 88.6199 155.701C88.6199 155.701 100.065 153.23 101.903 161.133C103.739 169.033 100.772 172.985 99.0764 173.477C97.3806 173.971 86.5005 173.807 86.7831 175.453C87.0656 177.099 94.4134 179.733 98.5112 178.251C98.5112 178.251 93.9895 191.255 88.0549 190.597C82.1201 189.939 80.2832 185.659 76.6094 185.329C72.9355 185.001 70.2506 186.153 72.0877 187.305C73.9247 188.457 80.142 187.684 83.1094 190.621C86.0768 193.562 88.479 195.372 82.9681 196.687C77.4573 198.006 67.566 197.181 65.5879 192.243C63.6093 187.305 63.6093 187.305 63.6093 187.305Z" fill="#4D66C1"/>
<path d="M96.6744 163.601C96.6744 163.601 67.0008 174.795 63.6095 187.305C63.6095 187.305 63.7508 192.901 60.7834 199.322V201.792C60.7834 201.792 63.8921 193.395 65.5877 192.243C65.5877 192.243 58.9466 181.379 96.6744 163.601Z" fill="#4D66C1"/>
<path d="M60.7834 199.322C60.7834 199.322 56.2074 207.417 58.8161 217.271L59.9934 216.903C59.9934 216.903 58.8506 206.048 61.2448 200.589C63.6391 195.131 60.7834 199.322 60.7834 199.322Z" fill="#4D66C1"/>
<path d="M63.2523 238.641C74.7173 238.641 84.0116 227.813 84.0116 214.456H42.4932C42.4932 227.813 51.7873 238.641 63.2523 238.641Z" fill="#4D66C1"/>
<path d="M69.2906 237.46H56.1046V239.879H69.2906V237.46Z" fill="#4D66C1"/>
<path d="M135.621 195.36H132.814V207.947H135.621V195.36Z" fill="#4D66C1"/>
<path d="M138.282 239.506H130.316C129.794 239.506 129.371 239.012 129.371 238.405V209.564C129.371 206.665 131.388 204.315 133.875 204.315H134.559C137.047 204.315 139.064 206.665 139.064 209.564V238.595C139.064 239.096 138.714 239.506 138.282 239.506Z" fill="#4D66C1"/>
<path d="M120.56 201.792H118.162V212.545H120.56V201.792Z" fill="#4D66C1"/>
<path d="M122.833 239.506H116.028C115.582 239.506 115.22 239.084 115.22 238.564V213.926C115.22 211.451 116.943 209.444 119.069 209.444H119.653C121.778 209.444 123.502 211.451 123.502 213.926V238.727C123.502 239.156 123.202 239.506 122.833 239.506Z" fill="#4D66C1"/>
</svg>
