<svg width="92" height="75" viewBox="0 0 92 75" fill="none" xmlns="http://www.w3.org/2000/svg">
<path d="M31 32.5699V44.5699H67V32.5699H31Z" fill="#00AAFF"/>
<path d="M31 32.5699V44.5699H67V32.5699H31Z" fill="#00AAFF"/>
<path d="M0 32.5699V36.5699L16.5 44.5699H24V32.5699H0Z" fill="#00AAFF"/>
<path d="M0 32.5699V36.5699L16.5 44.5699H24V32.5699H0Z" fill="#00AAFF"/>
<path d="M74.2416 25.0699L79.6407 32.82V44.82L60 66.0699H53L46 74.0699H65.5L91.6407 44.82V32.82L86.2416 25.0699H74.2416Z" fill="#00AAFF"/>
<path d="M74.2416 25.0699L79.6407 32.82V44.82L60 66.0699H53L46 74.0699H65.5L91.6407 44.82V32.82L86.2416 25.0699H74.2416Z" fill="#00AAFF"/>
<path d="M46 0L53 6.5H60L68.5 17.4276H80.5L65.5 0H46Z" fill="#00AAFF"/>
<path d="M46 0L53 6.5H60L68.5 17.4276H80.5L65.5 0H46Z" fill="#00AAFF"/>
</svg>
