<svg width="180" height="180" viewBox="0 0 180 180" fill="none" xmlns="http://www.w3.org/2000/svg">
<g clip-path="url(#clip0_45_41)">
<rect x="1.5" y="122.654" width="61" height="54.8462" rx="7.5" stroke="black" stroke-width="3"/>
<path d="M48.6097 128.539H40.0147C38.875 128.539 37.7819 128.993 36.976 129.801C36.17 130.609 35.7172 131.705 35.7172 132.848C35.7172 133.991 36.17 135.087 36.976 135.895C37.7819 136.703 38.875 137.157 40.0147 137.157V145.776H34.9254C35.4349 144.396 35.7027 142.938 35.7172 141.467C35.7177 138.621 34.7815 135.854 33.0538 133.596C31.3262 131.338 28.9037 129.715 26.1622 128.979C23.4208 128.242 20.5136 128.434 17.8917 129.523C15.2698 130.613 13.0797 132.54 11.6614 135.005C11.3765 135.495 11.191 136.037 11.1155 136.599C11.0401 137.162 11.0761 137.734 11.2217 138.282C11.3672 138.831 11.6193 139.345 11.9636 139.795C12.3078 140.246 12.7374 140.623 13.2277 140.907C13.7179 141.19 14.2592 141.374 14.8204 141.447C15.3816 141.52 15.9517 141.481 16.4979 141.333C17.0442 141.185 17.5558 140.93 18.0034 140.582C18.4511 140.235 18.8259 139.803 19.1064 139.31C19.4839 138.656 20.0261 138.113 20.6786 137.735C21.3312 137.357 22.0713 137.158 22.8248 137.157C23.9645 137.157 25.0576 137.611 25.8636 138.42C26.6695 139.228 27.1223 140.324 27.1223 141.467C27.1223 142.61 26.6695 143.706 25.8636 144.514C25.0576 145.322 23.9645 145.776 22.8248 145.776C21.685 145.776 20.5919 146.23 19.786 147.038C18.9801 147.846 18.5273 148.942 18.5273 150.085C18.5273 151.228 18.9801 152.324 19.786 153.133C20.5919 153.941 21.685 154.395 22.8248 154.395C23.9645 154.395 25.0576 154.849 25.8636 155.657C26.6695 156.465 27.1223 157.561 27.1223 158.704C27.1223 159.847 26.6695 160.943 25.8636 161.751C25.0576 162.559 23.9645 163.013 22.8248 163.013C22.0713 163.013 21.3312 162.813 20.6786 162.436C20.0261 162.058 19.4839 161.515 19.1065 160.861C18.826 160.368 18.4511 159.936 18.0035 159.588C17.5558 159.241 17.0442 158.986 16.498 158.838C15.9517 158.689 15.3817 158.65 14.8205 158.724C14.2592 158.797 13.718 158.98 13.2277 159.264C12.7375 159.547 12.3079 159.925 11.9636 160.376C11.6194 160.826 11.3673 161.34 11.2217 161.889C11.0762 162.437 11.0401 163.009 11.1156 163.571C11.191 164.134 11.3765 164.676 11.6614 165.166C13.0798 167.631 15.2698 169.558 17.8917 170.647C20.5136 171.737 23.4208 171.928 26.1622 171.192C28.9037 170.455 31.3261 168.832 33.0538 166.574C34.7814 164.317 35.7177 161.55 35.7172 158.704C35.7027 157.233 35.4349 155.775 34.9254 154.395H40.0147V167.323C40.0147 168.466 40.4675 169.562 41.2734 170.37C42.0794 171.178 43.1725 171.632 44.3122 171.632C45.452 171.632 46.5451 171.178 47.351 170.37C48.1569 169.562 48.6097 168.466 48.6097 167.323V137.157C49.7495 137.157 50.8426 136.703 51.6485 135.895C52.4544 135.087 52.9072 133.991 52.9072 132.848C52.9072 131.705 52.4544 130.609 51.6485 129.801C50.8426 128.993 49.7495 128.539 48.6097 128.539Z" fill="black"/>
<rect x="122.5" y="3.5" width="56" height="50.3269" rx="7.5" stroke="black" stroke-width="3"/>
<path fill-rule="evenodd" clip-rule="evenodd" d="M160.588 47.9379C159.717 47.3809 159.089 46.4778 158.843 45.4273L156.696 36.2665H145.44L143.292 45.4273C143.046 46.4778 142.418 47.3809 141.547 47.9379C140.676 48.4948 139.634 48.66 138.649 48.3971C137.664 48.1342 136.817 47.4647 136.295 46.536C135.773 45.6072 135.618 44.4952 135.865 43.4447L142.596 14.7297C143.069 12.7142 144.159 10.9248 145.694 9.64622C147.229 8.36761 149.121 7.6731 151.069 7.6731C153.017 7.6731 154.909 8.36761 156.444 9.64622C157.979 10.9248 159.07 12.7142 159.542 14.7297L166.27 43.4447C166.392 43.9649 166.417 44.5056 166.343 45.036C166.269 45.5664 166.098 46.0761 165.84 46.536C165.581 46.9958 165.24 47.3969 164.836 47.7162C164.432 48.0355 163.973 48.2669 163.486 48.3971C162.998 48.5273 162.491 48.5537 161.994 48.4749C161.497 48.3961 161.019 48.2136 160.588 47.9379ZM150.024 16.7122L147.355 28.0969H154.782L152.114 16.7122C152.034 16.4865 151.89 16.2923 151.704 16.1553C151.517 16.0182 151.296 15.9449 151.069 15.9449C150.843 15.9449 150.621 16.0182 150.435 16.1553C150.248 16.2923 150.105 16.4865 150.024 16.7122Z" fill="black"/>
<mask id="mask0_45_41" style="mask-type:alpha" maskUnits="userSpaceOnUse" x="-2" y="1" width="185" height="181">
<path d="M-1.5 1.5H93H117.5C117.5 1.5 117.5 36.4172 117.5 42.5C117.5 46.5 116.324 52.3244 119.5 55.5C123.5 59.5 124 59.5 124 59.5H183V91.5V181.5H93H71.5C71.5 136.5 73.3571 123 71.5 120C70.0611 117.676 68 116 68 116H-1.5V1.5Z" fill="#D9D9D9"/>
</mask>
<g mask="url(#mask0_45_41)">
<path d="M162.794 38.4004C161.581 36.694 160.308 35.0331 158.982 33.4187C142.598 13.4807 117.76 0.741455 90.0004 0.741455C62.2408 0.741455 37.4019 13.4807 21.0179 33.4187C19.6909 35.0331 18.4191 36.6939 17.2057 38.4004C6.8421 52.979 0.741699 70.7906 0.741699 89.9998C0.741699 109.319 6.9136 127.225 17.3864 141.849C18.6058 143.551 19.8811 145.21 21.2141 146.819C37.599 166.621 62.3509 179.259 90.0004 179.259C117.649 179.259 142.402 166.622 158.786 146.819C160.119 145.21 161.395 143.551 162.614 141.849C173.086 127.225 179.258 109.319 179.258 89.9998C179.258 70.7906 173.158 52.979 162.794 38.4004ZM153.866 37.0691C152.445 37.983 150.954 38.8737 149.387 39.7359C144.733 42.296 139.618 44.5137 134.147 46.3742C132.012 39.5913 129.365 33.2758 126.238 27.591C122.297 20.4239 117.781 14.595 112.861 10.2187C129.112 14.8829 143.338 24.3881 153.866 37.0691ZM135.974 64.3081C136.875 64.3081 137.728 64.5103 138.497 64.864C140.589 65.8244 142.048 67.9336 142.048 70.3818C142.048 72.2785 141.173 73.9737 139.806 75.0881C138.76 75.9409 137.427 76.4547 135.974 76.4547C135.129 76.4547 134.323 76.2808 133.591 75.9667C131.424 75.0382 129.9 72.8851 129.9 70.3817C129.9 68.4292 130.83 66.6934 132.266 65.5816C133.293 64.7866 134.578 64.3081 135.974 64.3081ZM93.1363 7.22485C103.436 8.60905 113.141 16.7898 120.743 30.6133C123.67 35.935 126.152 41.8572 128.159 48.2271C117.408 51.2373 105.514 52.9394 93.1363 53.1855V7.22485ZM93.1363 59.4581C106.089 59.2094 118.569 57.422 129.884 54.2526C130.292 55.8369 130.672 57.4461 131.024 59.076C126.675 60.9872 123.629 65.3348 123.629 70.3819C123.629 76.534 128.152 81.6474 134.048 82.5751C134.119 84.0621 134.168 85.5586 134.196 87.0611H101.989C100.915 82.6766 97.4923 79.2051 93.1363 78.0597V59.4581ZM129.788 126.115C118.499 122.961 106.052 121.184 93.1363 120.936V101.94C97.3615 100.83 100.706 97.5306 101.884 93.3329H134.188C133.944 104.861 132.438 115.966 129.788 126.115ZM131.073 148.875C131.073 152.225 128.348 154.949 125 154.949C124.927 154.949 124.857 154.94 124.785 154.938C122.47 154.856 120.484 153.477 119.532 151.502C119.147 150.706 118.926 149.818 118.926 148.875C118.926 145.881 121.105 143.393 123.959 142.897C124.298 142.838 124.644 142.802 124.999 142.802C126.956 142.802 128.695 143.735 129.806 145.177C130.597 146.203 131.073 147.483 131.073 148.875ZM86.8646 7.22485V53.1855C74.4856 52.9394 62.5919 51.2372 51.8402 48.2279C52.3161 46.7185 52.8187 45.2341 53.347 43.778C53.6009 43.7935 53.8556 43.8038 54.1129 43.8038C60.9198 43.8038 66.4583 38.2653 66.4583 31.4584C66.4583 28.4778 65.3964 25.7413 63.6322 23.6059C70.4307 14.0284 78.4484 8.35565 86.8646 7.22485ZM50.1166 54.2526C61.4311 57.4229 73.9116 59.2094 86.8646 59.4581V78.0597C82.5076 79.2051 79.0861 82.6765 78.0113 87.0611H45.8035C46.0187 75.5305 47.4953 64.4174 50.1166 54.2526ZM48.0392 31.4584C48.0392 28.1091 50.7637 25.3846 54.113 25.3846C54.409 25.3846 54.6973 25.413 54.9821 25.4539C57.2712 25.7843 59.148 27.3901 59.8675 29.5299C60.0714 30.1365 60.1867 30.7837 60.1867 31.4584C60.1867 34.1549 58.4191 36.4444 55.9821 37.2344C55.3926 37.4263 54.7653 37.5322 54.113 37.5322C52.4254 37.5322 50.898 36.8394 49.7964 35.7251C48.7113 34.6269 48.0392 33.1201 48.0392 31.4584ZM67.1399 10.2188C64.1073 12.9157 61.2279 16.1634 58.5439 19.9387C57.167 19.4073 55.674 19.113 54.1129 19.113C47.306 19.113 41.7674 24.6511 41.7674 31.4585C41.7674 35.7896 44.0117 39.6044 47.3954 41.8083C46.8558 43.3048 46.3404 44.8271 45.8533 46.3744C40.3828 44.5139 35.2677 42.2962 30.613 39.7361C29.0459 38.8738 27.5546 37.9832 26.1338 37.0693C36.6619 24.3881 50.8876 14.8829 67.1399 10.2188ZM22.3002 42.0561C23.9748 43.1507 25.7355 44.2109 27.5908 45.2315C32.6414 48.0093 38.1911 50.4068 44.122 52.4042C41.3218 63.1628 39.7504 74.905 39.531 87.0611H7.0676C7.6528 70.3388 13.2076 54.8575 22.3002 42.0561ZM46.4894 104.892C48.1279 105.98 49.2113 107.841 49.2113 109.953C49.2113 111.502 48.6236 112.913 47.6649 113.987C46.5522 115.235 44.9378 116.026 43.1393 116.026C42.6126 116.026 42.1031 115.951 41.6144 115.824C39.0018 115.145 37.0647 112.773 37.0647 109.953C37.0647 107.681 38.3194 105.699 40.1712 104.658C41.049 104.164 42.0601 103.878 43.1384 103.878C44.3767 103.878 45.5281 104.253 46.4894 104.892ZM7.0797 93.3329H39.5396C39.5714 94.9275 39.6274 96.5161 39.7057 98.096C34.5639 99.5865 30.793 104.335 30.793 109.953C30.793 116.665 36.1809 122.141 42.8596 122.289C43.2752 124.206 43.7279 126.096 44.2175 127.957C38.2505 129.961 32.669 132.37 27.5917 135.162C25.8069 136.144 24.1099 137.162 22.493 138.212C13.3582 125.458 7.7423 110.022 7.0797 93.3329ZM26.3491 143.184C27.7053 142.32 29.1252 141.476 30.6131 140.658C35.3005 138.08 40.4543 135.849 45.967 133.981C48.0822 140.629 50.6897 146.825 53.7619 152.409C57.704 159.576 62.2202 165.406 67.1409 169.783C50.9986 165.15 36.8555 155.738 26.3491 143.184ZM86.8646 172.775C76.5638 171.391 66.8594 163.21 59.2573 149.387C56.3856 144.166 53.9434 138.366 51.9564 132.134C62.6771 129.143 74.5303 127.454 86.8646 127.207V172.775ZM86.8646 120.936C73.9478 121.184 61.5008 122.961 50.2112 126.115C49.7594 124.382 49.3412 122.622 48.9565 120.837C52.8376 118.753 55.4829 114.656 55.4829 109.953C55.4829 104.121 51.4194 99.2251 45.9764 97.9394C45.8981 96.4127 45.8448 94.8758 45.8112 93.3329H78.1154C79.2943 97.5307 82.6393 100.83 86.8646 101.94V120.936ZM86.8646 95.1917C86.0901 94.7219 85.4266 94.0876 84.9284 93.3329C84.2968 92.3751 83.9267 91.2314 83.9267 89.9998C83.9267 88.9344 84.2047 87.9328 84.6892 87.061C85.2046 86.1325 85.9585 85.3571 86.8646 84.8081C87.7811 84.2522 88.8524 83.9261 90.0004 83.9261C91.1484 83.9261 92.2189 84.2522 93.1363 84.8081C94.0424 85.3571 94.7963 86.1325 95.3117 87.061C95.7963 87.9327 96.0742 88.9344 96.0742 89.9998C96.0742 91.2314 95.7033 92.3751 95.0717 93.3329C94.5742 94.0876 93.9108 94.7219 93.1363 95.1917C92.2189 95.7476 91.1484 96.0737 90.0004 96.0737C88.8524 96.0737 87.7811 95.7476 86.8646 95.1917ZM93.1363 172.775V127.207C105.47 127.454 117.323 129.143 128.044 132.134C127.558 133.657 127.048 135.156 126.508 136.626C126.013 136.564 125.51 136.53 124.998 136.53C118.192 136.53 112.654 142.068 112.654 148.875C112.654 152.05 113.859 154.948 115.836 157.138C109.152 166.267 101.333 171.674 93.1363 172.775ZM112.859 169.783C115.752 167.21 118.503 164.133 121.081 160.58C122.313 160.993 123.63 161.221 125 161.221C131.806 161.221 137.344 155.682 137.345 148.875C137.344 144.812 135.37 141.202 132.331 138.951C132.931 137.326 133.496 135.667 134.033 133.981C139.546 135.849 144.7 138.08 149.387 140.658C150.875 141.476 152.295 142.32 153.651 143.185C143.145 155.739 129.002 165.15 112.859 169.783ZM157.507 138.212C155.89 137.162 154.193 136.143 152.409 135.162C147.332 132.37 141.75 129.961 135.782 127.957C138.611 117.217 140.213 105.485 140.461 93.3329H172.921C172.258 110.022 166.642 125.458 157.507 138.212ZM172.932 87.061H140.469C140.438 85.3467 140.38 83.6403 140.296 81.9442C144.977 80.1878 148.319 75.6691 148.319 70.3818C148.319 63.9974 143.447 58.7291 137.226 58.0992C136.814 56.1733 136.365 54.2741 135.878 52.4041C141.809 50.4068 147.359 48.0093 152.409 45.2314C154.265 44.2108 156.025 43.1498 157.7 42.056C166.792 54.8575 172.348 70.338 172.932 87.061Z" fill="black"/>
</g>
</g>
<defs>
<clipPath id="clip0_45_41">
<rect width="180" height="180" fill="white"/>
</clipPath>
</defs>
</svg>
