<svg width="190" height="152" viewBox="0 0 190 152" fill="none" xmlns="http://www.w3.org/2000/svg">
<path d="M174.341 62.8114L137.719 26.3184C121.089 9.74687 94.0285 9.74637 77.3979 26.3184L73.6501 30.0534L50.4816 6.96607C41.1604 -2.32203 25.9925 -2.32203 16.6704 6.96607C12.1546 11.4669 9.66735 17.4494 9.66735 23.8134C9.66735 30.1774 12.1542 36.1604 16.67 40.6594L29.0001 52.9464C31.8954 55.8314 33.4893 59.6664 33.4893 63.7464C33.4893 67.8264 31.895 71.6614 29.0001 74.5464C23.0242 80.5014 13.3006 80.5014 7.32428 74.5464C5.64883 72.8774 2.93205 72.8774 1.25659 74.5464C-0.418864 76.2154 -0.418864 78.9234 1.25659 80.5934C10.5787 89.8824 25.7462 89.8824 35.0674 80.5934C39.5832 76.0934 42.07 70.1104 42.07 63.7464C42.07 57.3834 39.5832 51.4004 35.0674 46.9004L22.7368 34.6134C19.842 31.7284 18.2476 27.8934 18.2476 23.8134C18.2476 19.7344 19.842 15.8984 22.7368 13.0138C28.7131 7.05887 38.4367 7.05887 44.4126 13.0138L67.5811 36.1004L63.8329 39.8354C47.2023 56.4074 47.2023 83.3724 63.8329 99.9454L100.454 136.438C110.639 146.587 124.018 151.662 137.397 151.662C150.776 151.662 164.154 146.587 174.34 136.438C194.711 116.139 194.711 83.1104 174.341 62.8114ZM168.273 130.391C159.759 138.874 148.581 143.116 137.398 143.114C126.217 143.114 115.034 138.872 106.523 130.391L69.9015 93.8984C56.6167 80.6594 56.6167 59.1194 69.9015 45.8814L83.4652 32.3654C90.1078 25.7464 98.8331 22.4364 107.558 22.4364C116.284 22.4364 125.009 25.7464 131.651 32.3654L168.273 68.8584C185.297 85.8234 185.297 113.426 168.273 130.391Z" fill="white"/>
<path d="M129.956 41.5244L107.558 63.8434L85.1608 41.5244C83.4854 39.8554 80.7686 39.8554 79.0927 41.5244C77.4173 43.1934 77.4173 45.9014 79.0927 47.5714L101.49 69.8894L79.0927 92.2084C77.4173 93.8784 77.4173 96.5854 79.0927 98.2554C79.9307 99.0904 81.0286 99.5074 82.1266 99.5074C83.2245 99.5074 84.3229 99.0904 85.1604 98.2554L136.024 47.5714C137.699 45.9014 137.699 43.1944 136.024 41.5244C134.348 39.8554 131.632 39.8554 129.956 41.5244Z" fill="white"/>
</svg>
