<svg width="123" height="122" viewBox="0 0 123 122" fill="none" xmlns="http://www.w3.org/2000/svg">
<path d="M7.6 22.7C4.69 20.58 4.04 16.5 6.16 13.58C8.28 10.66 12.36 10.02 15.27 12.14L120.2 88.64C123.11 90.76 123.75 94.84 121.63 97.76C119.51 100.67 115.43 101.32 112.52 99.2L7.6 22.7ZM88.85 51.97V23.09L60.43 31.25L36.42 13.75L96.79 0V57.76L88.85 51.97ZM36.33 57.46V102.54C36.36 102.86 36.38 103.18 36.38 103.5V103.51C36.38 111.27 28.24 118.97 18.19 120.71C8.15 122.44 0 117.55 0 109.79C0 102.03 8.15 94.33 18.19 92.6C21.97 91.95 25.48 92.24 28.4 93.26V51.68L36.33 57.46ZM92.87 98.69C90.1 101.46 86.16 103.57 81.78 104.32C73.39 105.77 66.59 101.69 66.59 95.2C66.58 91.17 69.21 87.16 73.21 84.36L92.87 98.69Z" fill="black"/>
</svg>
