<svg class="svg-icon"
  style="width: 1em; height: 1em;vertical-align: middle;fill: currentColor;overflow: hidden; fill:white"
  viewBox="0 0 1024 1024" version="1.1" xmlns="http://www.w3.org/2000/svg">
  <path
    d="M753.066667 569.6c-10.666667-4.266667-21.333333-4.266667-32-4.266667 0-29.866667-19.2-59.733333-51.2-68.266666-14.933333-4.266667-27.733333-2.133333-42.666667 2.133333-8.533333-19.2-23.466667-36.266667-46.933333-42.666667-10.666667-2.133333-21.333333-2.133333-29.866667-2.133333l34.133333-115.2c34.133333-10.666667 61.866667-34.133333 76.8-66.133333 32-64 6.4-142.933333-57.6-174.933334-64-32-142.933333-6.4-174.933333 57.6-23.466667 46.933333-14.933333 104.533333 19.2 142.933334l-106.666667 315.733333c-10.666667-2.133333-27.733333-10.666667-38.4-34.133333 0-2.133333-2.133333-4.266667-2.133333-6.4 19.2-32 23.466667-70.4 12.8-104.533334-10.666667-34.133333-34.133333-59.733333-64-76.8-29.866667-17.066667-66.133333-19.2-100.266667-8.533333-68.266667 21.333333-106.666667 93.866667-85.333333 164.266667 14.933333 44.8 53.333333 78.933333 98.133333 89.6 2.133333 14.933333 4.266667 29.866667 6.4 46.933333 10.666667 87.466667 61.866667 140.8 100.266667 181.333333 32 32 49.066667 51.2 42.666667 72.533334l40.533333 10.666666c12.8-44.8-19.2-78.933333-53.333333-113.066666-36.266667-38.4-78.933333-81.066667-87.466667-155.733334-2.133333-19.2-4.266667-38.4-6.4-55.466666-4.266667-36.266667-10.666667-72.533333-6.4-81.066667 2.133333-4.266667 8.533333-6.4 14.933333-6.4 4.266667 0 17.066667 0 27.733334 12.8 6.4 6.4 8.533333 14.933333 12.8 25.6 4.266667 8.533333 6.4 17.066667 12.8 27.733333 32 64 91.733333 57.6 93.866666 57.6l12.8-2.133333 123.733334-364.8 2.133333-2.133333-2.133333-2.133334 10.666666-32c4.266667-14.933333 19.2-23.466667 34.133334-19.2 14.933333 4.266667 23.466667 19.2 19.2 32l-89.6 309.333334 21.333333 6.4 19.2 6.4 25.6-78.933334c2.133333-6.4 6.4-12.8 12.8-17.066666 6.4-4.266667 12.8-4.266667 21.333333-2.133334 14.933333 4.266667 23.466667 19.2 19.2 34.133334l-17.066666 61.866666-4.266667 17.066667 40.533333 10.666667 17.066667-61.866667c2.133333-6.4 6.4-12.8 12.8-17.066667 6.4-4.266667 12.8-4.266667 21.333333-2.133333 14.933333 4.266667 23.466667 19.2 19.2 34.133333L661.333333 640l40.533334 10.666667 10.666666-42.666667c6.4-2.133333 17.066667-2.133333 25.6 0 4.266667 2.133333 17.066667 6.4 12.8 36.266667-14.933333 128-98.133333 226.133333-147.2 283.733333-23.466667 27.733333-38.4 44.8-40.533333 59.733333l40.533333 10.666667c2.133333-6.4 19.2-25.6 34.133334-42.666667 53.333333-61.866667 140.8-166.4 157.866666-307.2 6.4-53.333333-23.466667-72.533333-42.666666-78.933333zM211.2 492.8c-19.2 2.133333-38.4 12.8-46.933333 27.733333-8.533333 14.933333-8.533333 36.266667-6.4 70.4-23.466667-10.666667-42.666667-29.866667-51.2-55.466666-14.933333-44.8 10.666667-93.866667 57.6-108.8 21.333333-6.4 46.933333-4.266667 66.133333 6.4 21.333333 10.666667 36.266667 29.866667 42.666667 51.2 4.266667 12.8 4.266667 27.733333 2.133333 40.533333l-2.133333-2.133333c-14.933333-21.333333-38.4-32-61.866667-29.866667zM554.666667 198.4c-36.266667-10.666667-74.666667 10.666667-85.333334 46.933333l-2.133333 4.266667c-8.533333-23.466667-8.533333-49.066667 2.133333-72.533333 21.333333-42.666667 74.666667-59.733333 117.333334-38.4 21.333333 10.666667 36.266667 27.733333 42.666666 51.2s6.4 44.8-4.266666 66.133333c-6.4 10.666667-12.8 21.333333-23.466667 27.733333 12.8-38.4-10.666667-76.8-46.933333-85.333333zM256 164.266667v2.133333c0 2.133333 2.133333 4.266667 4.266667 6.4 2.133333 2.133333 4.266667 2.133333 6.4 4.266667h4.266666l70.4 12.8h2.133334c10.666667 0 19.2-8.533333 21.333333-19.2 2.133333-10.666667-6.4-23.466667-19.2-23.466667L320 142.933333l83.2-83.2c8.533333-8.533333 8.533333-21.333333 0-29.866666-8.533333-8.533333-21.333333-8.533333-29.866667 0l-81.066666 81.066666-2.133334-23.466666c-2.133333-10.666667-12.8-19.2-23.466666-19.2-10.666667 2.133333-19.2 12.8-19.2 23.466666l8.533333 68.266667v4.266667z" />
  <path
    d="M149.333333 298.666667l2.133334 23.466666c2.133333 10.666667 10.666667 19.2 21.333333 19.2h2.133333c10.666667-2.133333 19.2-12.8 19.2-23.466666l-8.533333-68.266667v-4.266667-2.133333c0-2.133333-2.133333-4.266667-4.266667-6.4-2.133333-2.133333-4.266667-2.133333-6.4-4.266667h-2.133333H170.666667l-68.266667-8.533333c-10.666667-2.133333-23.466667 6.4-23.466667 19.2-2.133333 10.666667 6.4 23.466667 19.2 23.466667l25.6 4.266666-83.2 83.2c-8.533333 8.533333-8.533333 21.333333 0 29.866667 4.266667 4.266667 10.666667 6.4 14.933334 6.4 6.4 0 10.666667-2.133333 14.933333-6.4L149.333333 298.666667z" />
</svg>