<svg width="190" height="238" viewBox="0 0 190 238" fill="none" xmlns="http://www.w3.org/2000/svg">
  <path
    d="M174.341 149.149L137.719 112.656C121.089 96.0845 94.0285 96.084 77.3979 112.656L73.6501 116.391L50.4816 93.3037C41.1604 84.0156 25.9925 84.0156 16.6704 93.3037C12.1546 97.8045 9.66735 103.787 9.66735 110.151C9.66735 116.515 12.1542 122.498 16.67 126.997L29.0001 139.284C31.8954 142.169 33.4893 146.004 33.4893 150.084C33.4893 154.164 31.895 157.999 29.0001 160.884C23.0242 166.839 13.3006 166.839 7.32428 160.884C5.64883 159.215 2.93205 159.215 1.25659 160.884C-0.418865 162.553 -0.418865 165.261 1.25659 166.931C10.5787 176.22 25.7462 176.22 35.0674 166.931C39.5832 162.431 42.07 156.448 42.07 150.084C42.07 143.721 39.5832 137.738 35.0674 133.238L22.7368 120.951C19.842 118.066 18.2476 114.231 18.2476 110.151C18.2476 106.072 19.842 102.236 22.7368 99.3514C28.7131 93.3965 38.4367 93.3965 44.4126 99.3514L67.5811 122.438L63.8329 126.173C47.2023 142.745 47.2023 169.71 63.8329 186.283L100.454 222.776C110.639 232.925 124.018 238 137.397 238C150.776 238 164.154 232.925 174.34 222.776C194.711 202.477 194.711 169.448 174.341 149.149ZM168.273 216.729C159.759 225.212 148.581 229.454 137.398 229.452C126.217 229.452 115.034 225.21 106.523 216.729L69.9015 180.236C56.6167 166.997 56.6167 145.457 69.9015 132.219L83.4652 118.703C90.1078 112.084 98.8331 108.774 107.558 108.774C116.284 108.774 125.009 112.084 131.651 118.703L168.273 155.196C185.297 172.161 185.297 199.764 168.273 216.729Z"
    fill="white" />
  <path
    d="M129.956 127.862L107.558 150.181L85.1608 127.862C83.4854 126.193 80.7686 126.193 79.0927 127.862C77.4173 129.531 77.4173 132.239 79.0927 133.909L101.49 156.227L79.0927 178.546C77.4173 180.216 77.4173 182.923 79.0927 184.593C79.9307 185.428 81.0286 185.845 82.1266 185.845C83.2245 185.845 84.3229 185.428 85.1604 184.593L136.024 133.909C137.699 132.239 137.699 129.532 136.024 127.862C134.348 126.193 131.632 126.193 129.956 127.862Z"
    fill="white" />
  <path
    d="M97.563 115.233C100.295 113.679 104.91 112.951 107.728 112.934C110.696 112.917 114.043 113.279 116.739 114.55C119.233 115.726 121.538 117.727 123.366 119.644C125.983 122.387 125.535 126.622 122.856 129.304L113.835 138.339C110.713 141.465 105.652 141.465 102.53 138.339L92.9061 128.701C90.3662 126.158 89.8176 122.182 92.262 119.547C93.6763 118.022 95.4648 116.426 97.563 115.233Z"
    fill="white" />
  <path
    d="M35.9848 54.6921L52.4058 64.9223C55.2788 60.3067 59.4279 56.6128 64.7315 53.9286C72.6683 49.8998 82.6361 48.5087 93.557 49.894C98.551 50.5283 103.612 51.7228 108.617 53.4374L103.092 62.3145L144.067 66.9521L121.815 32.2346L115.849 41.8198C107.357 38.3626 98.6498 36.0265 90.1048 34.9376C75.7349 33.1065 62.6261 34.9348 52.1779 40.2203C45.222 43.7499 39.7678 48.6144 35.9848 54.6921Z"
    fill="white" />
</svg>