<svg width="190" height="238" viewBox="-30 -30 190 190" fill="none"
  xmlns="http://www.w3.org/2000/svg">
  <path
    d="M128.618 54.2185L91.923 17.652C75.2593 1.0468 48.1444 1.04637 31.4804 17.652L21.6438 27.4536L17.8881 31.1957C1.22399 47.8013 1.22399 74.8207 17.8881 91.4272L54.5833 127.994C64.7887 138.163 78.1944 143.248 91.6005 143.248C105.006 143.248 118.412 138.163 128.618 127.994C149.03 107.653 149.029 74.5581 128.618 54.2185ZM122.538 121.934C114.007 130.435 102.806 134.685 91.601 134.683C80.3981 134.682 69.1923 130.433 60.6641 121.934L23.9688 85.3677C10.6573 72.1024 10.6573 50.5187 23.9688 37.2539L37.5598 23.711C44.2158 17.0788 52.9586 13.762 61.7015 13.762C70.4443 13.762 79.187 17.0783 85.8426 23.711L122.538 60.2775C139.597 77.2764 139.597 104.935 122.538 121.934Z"
    fill="white" />
  <path
    d="M82.988 32.0597L60.5453 54.4236L38.1027 32.0597C36.4239 30.3872 33.7016 30.3872 32.0224 32.0597C30.3436 33.7326 30.3436 36.4453 32.0224 38.1187L54.465 60.4826L32.0224 82.8464C30.3436 84.5194 30.3436 87.2321 32.0224 88.9054C32.862 89.7417 33.9622 90.1602 35.0623 90.1602C36.1625 90.1602 37.2631 89.7417 38.1023 88.9054L89.0679 38.1187C90.7467 36.4457 90.7467 33.7331 89.0679 32.0597C87.3886 30.3872 84.6672 30.3872 82.988 32.0597Z"
    fill="white" />
  <path
    d="M51.5132 37.9606C52.8795 39.2827 54.1586 40.5204 55.2064 41.7569C56.2536 42.9929 57.0444 44.1985 57.455 45.4437C57.8613 46.6759 57.9014 47.9663 57.4166 49.3975C56.9276 50.8408 55.8961 52.4519 54.1138 54.2939C52.3315 56.136 50.7547 57.2205 49.3282 57.7568C47.9139 58.2884 46.6233 58.2903 45.3785 57.9248C44.1204 57.5554 42.8895 56.8049 41.6196 55.7988C40.3493 54.7924 39.0701 53.5548 37.7037 52.2327C36.3375 50.9108 35.0589 49.6735 34.0112 48.4371C32.9639 47.2011 32.1733 45.9955 31.7626 44.7503C31.3563 43.5182 31.3149 42.2277 31.7997 40.7965C32.2887 39.3531 33.3214 37.7422 35.1037 35.9001C36.8859 34.0582 38.4616 32.9735 39.888 32.4372C41.3025 31.9054 42.5942 31.9037 43.8391 32.2692C45.0971 32.6386 46.3282 33.3892 47.598 34.3952C48.8682 35.4015 50.1469 36.6386 51.5132 37.9606Z"
    fill="white" stroke="white" />
  <path
    d="M84.5244 87.0244C85.9051 87.0244 87.0244 85.9051 87.0244 84.5244L87.0244 62.0244C87.0244 60.6437 85.9051 59.5244 84.5244 59.5244C83.1437 59.5244 82.0244 60.6437 82.0244 62.0244L82.0244 82.0244L62.0244 82.0244C60.6437 82.0244 59.5244 83.1437 59.5244 84.5244C59.5244 85.9051 60.6437 87.0244 62.0244 87.0244L84.5244 87.0244ZM68.968 68.968L67.2003 70.7358L82.7566 86.2922L84.5244 84.5244L86.2921 82.7566L70.7358 67.2003L68.968 68.968Z"
    fill="white" />
  <path
    d="M1.72556e-06 2.5C1.78375e-06 1.11929 1.11929 3.56063e-07 2.5 4.14256e-07L25 1.36256e-06C26.3807 1.42075e-06 27.5 1.11929 27.5 2.5C27.5 3.88071 26.3807 5 25 5L5 5L5 25C5 26.3807 3.88071 27.5 2.5 27.5C1.11929 27.5 7.19061e-07 26.3807 7.77254e-07 25L1.72556e-06 2.5ZM18.0564 18.0564L16.2886 19.8241L0.732235 4.26777L2.5 2.5L4.26777 0.732234L19.8241 16.2886L18.0564 18.0564Z"
    fill="white" />
</svg>