<svg class="svg-icon"
  style="width: 1em; height: 1em;vertical-align: middle;fill: currentColor;overflow: hidden;"
  viewBox="0 0 1024 1024" version="1.1" xmlns="http://www.w3.org/2000/svg">
  <path
    d="M772.266667 565.333333c-8.533333-40.533333-29.866667-64-61.866667-66.133333-10.666667 0-21.333333 0-32 4.266667-8.533333-29.866667-34.133333-51.2-66.133333-51.2-14.933333 0-29.866667 4.266667-40.533334 12.8-12.8-17.066667-34.133333-29.866667-55.466666-29.866667-8.533333 0-19.2 2.133333-27.733334 6.4V362.666667c49.066667-25.6 78.933333-76.8 78.933334-132.266667 0-83.2-66.133333-149.333333-149.333334-149.333333s-149.333333 66.133333-149.333333 149.333333c0 55.466667 32 106.666667 78.933333 132.266667v174.933333l-49.066666 14.933333c-40.533333 10.666667-70.4 49.066667-70.4 91.733334 0 38.4 0 66.133333 2.133333 85.333333 8.533333 76.8 51.2 134.4 83.2 179.2 19.2 25.6 36.266667 49.066667 36.266667 64h42.666666c0-27.733333-19.2-55.466667-44.8-87.466667-29.866667-40.533333-68.266667-93.866667-74.666666-157.866666-2.133333-17.066667-2.133333-44.8-2.133334-81.066667 0-23.466667 17.066667-44.8 38.4-51.2l40.533334-10.666667v130.133334h42.666666V247.466667c0-14.933333 12.8-27.733333 27.733334-27.733334s27.733333 12.8 27.733333 27.733334v356.266666h42.666667v-98.133333c0-14.933333 12.8-27.733333 27.733333-27.733333s27.733333 12.8 27.733333 27.733333v98.133333h42.666667v-81.066666c0-14.933333 12.8-27.733333 27.733333-27.733334s27.733333 12.8 27.733334 27.733334V618.666667h42.666666v-68.266667c6.4-4.266667 14.933333-6.4 25.6-6.4 6.4 0 17.066667 2.133333 23.466667 32 29.866667 145.066667-8.533333 270.933333-29.866667 339.2-8.533333 27.733333-12.8 44.8-12.8 57.6h42.666667c0-6.4 6.4-25.6 10.666667-44.8 19.2-74.666667 57.6-209.066667 25.6-362.666667zM420.266667 177.066667c-38.4 0-70.4 32-70.4 70.4v64c-23.466667-19.2-36.266667-49.066667-36.266667-81.066667 0-59.733333 46.933333-106.666667 106.666667-106.666667s106.666667 46.933333 106.666666 106.666667c0 32-14.933333 61.866667-36.266666 81.066667v-64c0-38.4-32-70.4-70.4-70.4z"
    fill="white" />
</svg>