<svg width="93" height="48" viewBox="0 0 93 48" fill="none" xmlns="http://www.w3.org/2000/svg">
<path d="M74.3489 47.4515H73.052L70.2563 45.478H65.5439L65.9843 45.149H57.2239L53.3099 43.1755H43.3129L43.753 43.5043H29.3375L29.7779 43.1755H21.5122L21.1206 43.5102H19.2151L17.6538 45.0661H13.0408L11.9674 46.1359H0.891676L0.862486 46.0834C0.690992 45.775 0.464538 45.5058 0.189738 45.2835L0.151882 45.253V29.9547L1.03991 29.0697V22.8095L0.151882 21.9244V17.1152L0 17.2742V16.2998L0.301939 15.9982L0.51699 16.1578V9.75347L0.514937 9.70045V6.81416L4.00684 3.52394L5.13774 3.52348L7.24584 1.42232H8.80707L9.40912 0.822442H11.5558L11.9961 0.164534H18.2632L18.0983 0H19.3952L22.1909 1.97372H26.9031L26.4627 2.30256H35.2233L39.1373 4.27629H49.1343L48.6942 3.94722H63.1095L62.6691 4.27629H70.9348L71.3257 3.94199H73.2322L74.7934 2.38608H79.4064L80.4805 1.31582H91.3683L91.3984 1.36452C91.6123 1.71293 91.9063 2.01582 92.2486 2.24021L92.2946 2.27048V17.4975L91.4075 18.3818V24.6432L92.2946 25.5269V30.3366L92.4472 30.1768V31.152L92.145 31.4535L91.9302 31.2942V37.699L91.9316 37.7515V40.6376L88.4395 43.928H87.3099L85.2014 46.0292H83.6401L83.0381 46.6293H80.8915L80.4511 47.2872H74.1838L74.3489 47.4515ZM73.1172 47.2474H73.8547L73.6899 47.0829H80.3419L80.782 46.425H82.9535L83.5555 45.8249H85.1168L87.2253 43.7237H88.3583L91.727 40.5493V37.803L91.7259 37.7504V30.888L92.1252 31.1843L92.2427 31.0673V30.6871L92.0903 30.847V25.6113L91.203 24.7276V18.2969L92.0903 17.4128V2.37971C91.7585 2.15305 91.4712 1.85744 91.2545 1.51972H80.5653L79.4912 2.59021H74.8782L73.317 4.14589H71.4014L71.0105 4.48019H62.0547L62.4951 4.15135H49.3086L49.7489 4.48019H39.0885L35.1747 2.5067H25.8483L26.2887 2.17763H22.1259L19.3302 0.203904H18.5927L18.7576 0.368438H12.1056L11.6652 1.02635H9.49373L8.8919 1.62645H7.33067L5.22235 3.72716L4.08826 3.72784L0.719498 6.902V9.64879L0.721551 9.70158V16.5638L0.321779 16.2672L0.204561 16.3842V16.7636L0.356443 16.6045V21.8398L1.24447 22.7246V29.1544L0.356443 30.0392V45.156C0.619156 45.3756 0.839225 45.6362 1.0114 45.9316H11.8828L12.9562 44.8618H17.5692L19.2151 43.3061H21.0452L21.4367 42.9711H30.3925L29.9521 43.3H43.1387L42.6983 42.9711H53.3587L57.2727 44.9448H66.5989L66.1585 45.2737H70.3216L73.1172 47.2474Z" fill="#29ABE2"/>
</svg>
