<svg width="60" height="21" viewBox="0 0 60 21" fill="none" xmlns="http://www.w3.org/2000/svg">
  <mask id="path-1-outside-1_124_2" maskUnits="userSpaceOnUse" x="-2" y="-2" width="64" height="25" fill="black">
    <rect fill="white" x="-2" y="-2" width="64" height="25" />
    <path
      d="M12.9354 6.58452C12.9661 5.8151 12.7415 5.22112 12.2614 4.80256C11.7874 4.384 11.0703 4.17471 10.1101 4.17471C9.45762 4.17471 8.89134 4.26704 8.41122 4.4517C7.93111 4.63021 7.5464 4.8795 7.2571 5.19957C6.97396 5.51349 6.79853 5.87666 6.73082 6.28906C6.66312 6.6276 6.68466 6.92306 6.79546 7.17543C6.91241 7.42779 7.09399 7.64631 7.3402 7.83097C7.59257 8.00947 7.8911 8.16643 8.2358 8.30185C8.58049 8.43111 8.94673 8.5419 9.33452 8.63423L10.9595 9.04048C11.7536 9.22514 12.4676 9.47135 13.1016 9.77912C13.7417 10.0869 14.2772 10.4654 14.7081 10.9148C15.1451 11.3641 15.4529 11.8935 15.6314 12.5028C15.8099 13.1122 15.8345 13.8108 15.7053 14.5987C15.5083 15.7559 15.0497 16.7592 14.3295 17.6087C13.6094 18.4519 12.6645 19.1075 11.495 19.5753C10.3255 20.0369 8.97135 20.2678 7.43253 20.2678C5.90601 20.2678 4.61648 20.0339 3.56392 19.5661C2.51136 19.0982 1.74503 18.4058 1.26491 17.4886C0.790956 16.5653 0.649384 15.4235 0.840199 14.0632H4.70881C4.6411 14.6972 4.73343 15.2266 4.9858 15.6513C5.24432 16.0698 5.62902 16.3868 6.13992 16.6023C6.65081 16.8116 7.25095 16.9162 7.94034 16.9162C8.62358 16.9162 9.22988 16.8177 9.75923 16.6207C10.2947 16.4238 10.7287 16.1499 11.0611 15.799C11.3935 15.4482 11.5966 15.045 11.6705 14.5895C11.7443 14.1648 11.6797 13.8078 11.4766 13.5185C11.2734 13.2292 10.9472 12.983 10.4979 12.7798C10.0547 12.5705 9.50379 12.3859 8.84517 12.2259L6.86932 11.7088C5.3428 11.321 4.18868 10.7147 3.40696 9.88991C2.62524 9.0651 2.34517 7.95407 2.56676 6.55682C2.76373 5.41193 3.24077 4.41169 3.99787 3.55611C4.76113 2.69437 5.72135 2.02651 6.87855 1.55256C8.0419 1.07244 9.31297 0.832386 10.6918 0.832386C12.0952 0.832386 13.2801 1.07552 14.2464 1.56179C15.2128 2.0419 15.9176 2.71283 16.3608 3.57457C16.804 4.43632 16.9394 5.43963 16.767 6.58452H12.9354ZM20.638 1.09091H25.5684L28.6799 13.7955H28.9015L36.2047 1.09091H41.1351L37.9959 20H34.1181L36.1678 7.69247H36.0016L29.0953 19.9077H26.4455L23.6017 7.64631H23.4448L21.3766 20H17.4988L20.638 1.09091ZM43.1548 4.38707L43.7088 1.09091H59.2386L58.6847 4.38707H52.8956L50.3104 20H46.3587L48.9439 4.38707H43.1548Z" />
  </mask>
  <path
    d="M12.9354 6.58452C12.9661 5.8151 12.7415 5.22112 12.2614 4.80256C11.7874 4.384 11.0703 4.17471 10.1101 4.17471C9.45762 4.17471 8.89134 4.26704 8.41122 4.4517C7.93111 4.63021 7.5464 4.8795 7.2571 5.19957C6.97396 5.51349 6.79853 5.87666 6.73082 6.28906C6.66312 6.6276 6.68466 6.92306 6.79546 7.17543C6.91241 7.42779 7.09399 7.64631 7.3402 7.83097C7.59257 8.00947 7.8911 8.16643 8.2358 8.30185C8.58049 8.43111 8.94673 8.5419 9.33452 8.63423L10.9595 9.04048C11.7536 9.22514 12.4676 9.47135 13.1016 9.77912C13.7417 10.0869 14.2772 10.4654 14.7081 10.9148C15.1451 11.3641 15.4529 11.8935 15.6314 12.5028C15.8099 13.1122 15.8345 13.8108 15.7053 14.5987C15.5083 15.7559 15.0497 16.7592 14.3295 17.6087C13.6094 18.4519 12.6645 19.1075 11.495 19.5753C10.3255 20.0369 8.97135 20.2678 7.43253 20.2678C5.90601 20.2678 4.61648 20.0339 3.56392 19.5661C2.51136 19.0982 1.74503 18.4058 1.26491 17.4886C0.790956 16.5653 0.649384 15.4235 0.840199 14.0632H4.70881C4.6411 14.6972 4.73343 15.2266 4.9858 15.6513C5.24432 16.0698 5.62902 16.3868 6.13992 16.6023C6.65081 16.8116 7.25095 16.9162 7.94034 16.9162C8.62358 16.9162 9.22988 16.8177 9.75923 16.6207C10.2947 16.4238 10.7287 16.1499 11.0611 15.799C11.3935 15.4482 11.5966 15.045 11.6705 14.5895C11.7443 14.1648 11.6797 13.8078 11.4766 13.5185C11.2734 13.2292 10.9472 12.983 10.4979 12.7798C10.0547 12.5705 9.50379 12.3859 8.84517 12.2259L6.86932 11.7088C5.3428 11.321 4.18868 10.7147 3.40696 9.88991C2.62524 9.0651 2.34517 7.95407 2.56676 6.55682C2.76373 5.41193 3.24077 4.41169 3.99787 3.55611C4.76113 2.69437 5.72135 2.02651 6.87855 1.55256C8.0419 1.07244 9.31297 0.832386 10.6918 0.832386C12.0952 0.832386 13.2801 1.07552 14.2464 1.56179C15.2128 2.0419 15.9176 2.71283 16.3608 3.57457C16.804 4.43632 16.9394 5.43963 16.767 6.58452H12.9354ZM20.638 1.09091H25.5684L28.6799 13.7955H28.9015L36.2047 1.09091H41.1351L37.9959 20H34.1181L36.1678 7.69247H36.0016L29.0953 19.9077H26.4455L23.6017 7.64631H23.4448L21.3766 20H17.4988L20.638 1.09091ZM43.1548 4.38707L43.7088 1.09091H59.2386L58.6847 4.38707H52.8956L50.3104 20H46.3587L48.9439 4.38707H43.1548Z"
    fill="white" />
  <path
    d="M12.9354 6.58452L10.937 6.50458L10.8538 8.58452H12.9354V6.58452ZM12.2614 4.80256L10.9374 6.30169L10.9471 6.3101L12.2614 4.80256ZM8.41122 4.4517L9.1082 6.32633L9.11871 6.32242L9.12918 6.31839L8.41122 4.4517ZM7.2571 5.19957L5.77336 3.85849L5.77196 3.86004L7.2571 5.19957ZM6.73082 6.28906L8.69199 6.68129L8.69878 6.6473L8.7044 6.61308L6.73082 6.28906ZM6.79546 7.17543L4.96417 7.97941L4.97231 7.99796L4.98083 8.01635L6.79546 7.17543ZM7.3402 7.83097L6.1402 9.43097L6.16251 9.4477L6.18527 9.4638L7.3402 7.83097ZM8.2358 8.30185L7.50449 10.1633L7.51898 10.169L7.53355 10.1745L8.2358 8.30185ZM9.33452 8.63423L9.81959 6.69395L9.80869 6.69122L9.79776 6.68862L9.33452 8.63423ZM10.9595 9.04048L10.4744 10.9808L10.4904 10.9848L10.5065 10.9885L10.9595 9.04048ZM13.1016 9.77912L12.2282 11.5783L12.235 11.5816L13.1016 9.77912ZM14.7081 10.9148L13.2645 12.299L13.2694 12.3041L13.2744 12.3092L14.7081 10.9148ZM15.6314 12.5028L13.712 13.0651L13.712 13.0651L15.6314 12.5028ZM15.7053 14.5987L17.6769 14.9343L17.6789 14.9225L15.7053 14.5987ZM14.3295 17.6087L15.8504 18.9075L15.8551 18.902L14.3295 17.6087ZM11.495 19.5753L12.2294 21.4356L12.2378 21.4322L11.495 19.5753ZM3.56392 19.5661L4.3762 17.7384L4.3762 17.7384L3.56392 19.5661ZM1.26491 17.4886L-0.514349 18.402L-0.510694 18.4091L-0.506981 18.4162L1.26491 17.4886ZM0.840199 14.0632V12.0632H-0.898838L-1.14041 13.7854L0.840199 14.0632ZM4.70881 14.0632L6.6975 14.2756L6.93377 12.0632H4.70881V14.0632ZM4.9858 15.6513L3.26643 16.6729L3.27519 16.6877L3.2842 16.7023L4.9858 15.6513ZM6.13992 16.6023L5.36281 18.4451L5.37227 18.4491L5.38178 18.453L6.13992 16.6023ZM9.75923 16.6207L9.06882 14.7437L9.06177 14.7463L9.75923 16.6207ZM11.0611 15.799L12.513 17.1745L12.513 17.1745L11.0611 15.799ZM11.6705 14.5895L9.70003 14.2468L9.69807 14.2581L9.69624 14.2693L11.6705 14.5895ZM11.4766 13.5185L13.1134 12.3692L11.4766 13.5185ZM10.4979 12.7798L9.64386 14.5883L9.65888 14.5954L9.67403 14.6023L10.4979 12.7798ZM8.84517 12.2259L8.33885 14.1607L8.35586 14.1652L8.37293 14.1693L8.84517 12.2259ZM6.86932 11.7088L7.37563 9.77396L7.3687 9.77214L7.36174 9.77037L6.86932 11.7088ZM3.40696 9.88991L1.95534 11.2657L1.95534 11.2657L3.40696 9.88991ZM2.56676 6.55682L0.595719 6.21771L0.593499 6.23062L0.591448 6.24355L2.56676 6.55682ZM3.99787 3.55611L2.50069 2.23004L2.50008 2.23073L3.99787 3.55611ZM6.87855 1.55256L7.63659 3.40334L7.64153 3.4013L6.87855 1.55256ZM14.2464 1.56179L13.3475 3.34839L13.3566 3.35292L14.2464 1.56179ZM16.3608 3.57457L18.1394 2.65988L18.1394 2.65988L16.3608 3.57457ZM16.767 6.58452V8.58452H18.4885L18.7448 6.88224L16.767 6.58452ZM14.9338 6.66445C14.9832 5.42968 14.6087 4.1956 13.5756 3.29501L10.9471 6.3101C10.9475 6.31048 10.9407 6.30432 10.932 6.29194C10.9281 6.2863 10.9249 6.28094 10.9225 6.27638C10.9202 6.27186 10.9192 6.26933 10.9193 6.26952C10.9194 6.26977 10.9208 6.27362 10.9229 6.28186C10.925 6.29015 10.9278 6.30328 10.9305 6.32194C10.9358 6.35958 10.9404 6.41908 10.937 6.50458L14.9338 6.66445ZM13.5853 3.30345C12.5969 2.43061 11.3137 2.17471 10.1101 2.17471V6.17471C10.8269 6.17471 10.9779 6.33738 10.9375 6.30166L13.5853 3.30345ZM10.1101 2.17471C9.27525 2.17471 8.4548 2.29211 7.69326 2.58501L9.12918 6.31839C9.32787 6.24198 9.64 6.17471 10.1101 6.17471V2.17471ZM7.71424 2.57708C6.98899 2.84672 6.31512 3.2591 5.77336 3.85849L8.74085 6.54065C8.77769 6.4999 8.87322 6.41369 9.1082 6.32633L7.71424 2.57708ZM5.77196 3.86004C5.23518 4.45516 4.88782 5.16971 4.75725 5.96504L8.7044 6.61308C8.70831 6.58928 8.71279 6.57996 8.71407 6.57731C8.71543 6.5745 8.72151 6.56209 8.74224 6.53911L5.77196 3.86004ZM4.76966 5.89683C4.6419 6.53562 4.65081 7.26565 4.96417 7.97941L8.62674 6.37144C8.66956 6.46896 8.68635 6.55667 8.6909 6.61911C8.69521 6.67811 8.68782 6.70212 8.69199 6.68129L4.76966 5.89683ZM4.98083 8.01635C5.25112 8.5996 5.65823 9.06949 6.1402 9.43097L8.5402 6.23097C8.53172 6.2246 8.54067 6.23001 8.55757 6.25035C8.57507 6.27141 8.59418 6.30021 8.61008 6.3345L4.98083 8.01635ZM6.18527 9.4638C6.592 9.75148 7.03844 9.98026 7.50449 10.1633L8.9671 6.44034C8.74376 6.3526 8.59313 6.26745 8.49513 6.19813L6.18527 9.4638ZM7.53355 10.1745C7.96242 10.3353 8.40898 10.4698 8.87128 10.5798L9.79776 6.68862C9.48449 6.61403 9.19857 6.52688 8.93804 6.42919L7.53355 10.1745ZM8.84945 10.5745L10.4744 10.9808L11.4446 7.1002L9.81959 6.69395L8.84945 10.5745ZM10.5065 10.9885C11.1774 11.1445 11.7473 11.3449 12.2282 11.5783L13.975 7.97991C13.1879 7.59782 12.3297 7.30576 11.4125 7.09247L10.5065 10.9885ZM12.235 11.5816C12.6894 11.8001 13.021 12.0451 13.2645 12.299L16.1517 9.53053C15.5334 8.88581 14.794 8.37368 13.9682 7.97661L12.235 11.5816ZM13.2744 12.3092C13.4811 12.5217 13.6239 12.7643 13.712 13.0651L17.5507 11.9406C17.2818 11.0227 16.8092 10.2065 16.1418 9.52034L13.2744 12.3092ZM13.712 13.0651C13.7875 13.3227 13.8245 13.7087 13.7316 14.2749L17.6789 14.9225C17.8445 13.913 17.8323 12.9017 17.5507 11.9406L13.712 13.0651ZM13.7336 14.2631C13.5934 15.0867 13.2796 15.7544 12.804 16.3153L15.8551 18.902C16.8198 17.7641 17.4232 16.4251 17.6769 14.9343L13.7336 14.2631ZM12.8087 16.3098C12.3259 16.8751 11.6623 17.3543 10.7522 17.7183L12.2378 21.4322C13.6668 20.8606 14.8928 20.0288 15.8504 18.9075L12.8087 16.3098ZM10.7607 17.715C9.87092 18.0662 8.77456 18.2678 7.43253 18.2678V22.2678C9.16814 22.2678 10.7801 22.0077 12.2294 21.4356L10.7607 17.715ZM7.43253 18.2678C6.0993 18.2678 5.10428 18.062 4.3762 17.7384L2.75164 21.3937C4.12867 22.0057 5.71273 22.2678 7.43253 22.2678V18.2678ZM4.3762 17.7384C3.68667 17.432 3.28404 17.0333 3.03681 16.5611L-0.506981 18.4162C0.206019 19.7782 1.33606 20.7645 2.75164 21.3937L4.3762 17.7384ZM3.04418 16.5753C2.8109 16.1208 2.66895 15.4236 2.82081 14.341L-1.14041 13.7854C-1.37018 15.4234 -1.22899 17.0098 -0.514349 18.402L3.04418 16.5753ZM0.840199 16.0632H4.70881V12.0632H0.840199V16.0632ZM2.72012 13.8508C2.61991 14.7891 2.73662 15.7813 3.26643 16.6729L6.70516 14.6296C6.73023 14.6718 6.66229 14.6053 6.6975 14.2756L2.72012 13.8508ZM3.2842 16.7023C3.78835 17.5185 4.51964 18.0896 5.36281 18.4451L6.91702 14.7594C6.73841 14.6841 6.70029 14.6212 6.68739 14.6003L3.2842 16.7023ZM5.38178 18.453C6.185 18.782 7.05337 18.9162 7.94034 18.9162V14.9162C7.44852 14.9162 7.11661 14.8411 6.89805 14.7515L5.38178 18.453ZM7.94034 18.9162C8.81322 18.9162 9.66287 18.7906 10.4567 18.4952L9.06177 14.7463C8.79688 14.8449 8.43394 14.9162 7.94034 14.9162V18.9162ZM10.4496 18.4978C11.2223 18.2136 11.9338 17.7859 12.513 17.1745L9.60918 14.4235C9.52362 14.5138 9.36717 14.6339 9.06882 14.7437L10.4496 18.4978ZM12.513 17.1745C13.1076 16.5468 13.5034 15.7807 13.6447 14.9096L9.69624 14.2693C9.68978 14.3092 9.67933 14.3495 9.60917 14.4235L12.513 17.1745ZM13.6409 14.9322C13.7843 14.1075 13.6853 13.1838 13.1134 12.3692L9.83974 14.6677C9.77029 14.5688 9.72728 14.4584 9.70937 14.3595C9.69281 14.268 9.70412 14.2233 9.70003 14.2468L13.6409 14.9322ZM13.1134 12.3692C12.6387 11.6932 11.9745 11.2525 11.3217 10.9574L9.67403 14.6023C9.79042 14.6549 9.85113 14.6954 9.87473 14.7132C9.89687 14.7299 9.87503 14.718 9.83974 14.6677L13.1134 12.3692ZM11.3519 10.9713C10.7499 10.6871 10.0615 10.4632 9.31741 10.2824L8.37293 14.1693C8.94606 14.3086 9.35948 14.454 9.64386 14.5883L11.3519 10.9713ZM9.35149 10.291L7.37563 9.77396L6.363 13.6437L8.33885 14.1607L9.35149 10.291ZM7.36174 9.77037C6.06572 9.44114 5.2981 8.97787 4.85858 8.51412L1.95534 11.2657C3.07927 12.4516 4.61989 13.2009 6.37689 13.6472L7.36174 9.77037ZM4.85858 8.51413C4.60819 8.24993 4.39146 7.81978 4.54208 6.87008L0.591448 6.24355C0.298879 8.08836 0.642284 9.88028 1.95534 11.2657L4.85858 8.51413ZM4.5378 6.89592C4.67287 6.11087 4.98924 5.45378 5.49566 4.88149L2.50008 2.23073C1.49229 3.36961 0.854596 4.71299 0.595719 6.21771L4.5378 6.89592ZM5.49505 4.88218C6.03822 4.26892 6.73779 3.77146 7.63658 3.40334L6.12052 -0.298224C4.70492 0.281571 3.48403 1.11981 2.50069 2.23004L5.49505 4.88218ZM7.64153 3.4013C8.54071 3.03021 9.54961 2.83239 10.6918 2.83239V-1.16761C9.07633 -1.16761 7.5431 -0.885329 6.11558 -0.296191L7.64153 3.4013ZM10.6918 2.83239C11.8726 2.83239 12.7303 3.03781 13.3475 3.34836L15.1454 -0.224783C13.8298 -0.886768 12.3178 -1.16761 10.6918 -1.16761V2.83239ZM13.3566 3.35292C13.9864 3.6658 14.3562 4.04986 14.5822 4.48927L18.1394 2.65988C17.479 1.3758 16.4393 0.418003 15.1363 -0.22934L13.3566 3.35292ZM14.5822 4.48927C14.7984 4.90959 14.9117 5.47407 14.7893 6.2868L18.7448 6.88224C18.9671 5.40519 18.8096 3.96304 18.1394 2.65988L14.5822 4.48927ZM16.767 4.58452H12.9354V8.58452H16.767V4.58452ZM20.638 1.09091V-0.909091H18.9426L18.665 0.76336L20.638 1.09091ZM25.5684 1.09091L27.5109 0.615144L27.1376 -0.909091H25.5684V1.09091ZM28.6799 13.7955L26.7373 14.2712L27.1106 15.7955H28.6799V13.7955ZM28.9015 13.7955V15.7955H30.0587L30.6354 14.7922L28.9015 13.7955ZM36.2047 1.09091V-0.909091H35.0475L34.4708 0.0941557L36.2047 1.09091ZM41.1351 1.09091L43.1081 1.41846L43.4945 -0.909091H41.1351V1.09091ZM37.9959 20V22H39.6913L39.9689 20.3275L37.9959 20ZM34.1181 20L32.1452 19.6714L31.7574 22H34.1181V20ZM36.1678 7.69247L38.1406 8.02103L38.5284 5.69247H36.1678V7.69247ZM36.0016 7.69247V5.69247H34.8348L34.2606 6.70814L36.0016 7.69247ZM29.0953 19.9077V21.9077H30.2621L30.8364 20.892L29.0953 19.9077ZM26.4455 19.9077L24.4972 20.3595L24.8563 21.9077H26.4455V19.9077ZM23.6017 7.64631L25.55 7.19444L25.191 5.64631H23.6017V7.64631ZM23.4448 7.64631V5.64631H21.7518L21.4722 7.31607L23.4448 7.64631ZM21.3766 20V22H23.0696L23.3491 20.3302L21.3766 20ZM17.4988 20L15.5258 19.6725L15.1394 22H17.4988V20ZM20.638 3.09091H25.5684V-0.909091H20.638V3.09091ZM23.6258 1.56667L26.7373 14.2712L30.6225 13.3197L27.5109 0.615144L23.6258 1.56667ZM28.6799 15.7955H28.9015V11.7955H28.6799V15.7955ZM30.6354 14.7922L37.9386 2.08766L34.4708 0.0941557L27.1675 12.7987L30.6354 14.7922ZM36.2047 3.09091H41.1351V-0.909091H36.2047V3.09091ZM39.1621 0.76336L36.0229 19.6725L39.9689 20.3275L43.1081 1.41846L39.1621 0.76336ZM37.9959 18H34.1181V22H37.9959V18ZM36.0909 20.3286L38.1406 8.02103L34.195 7.36391L32.1452 19.6714L36.0909 20.3286ZM36.1678 5.69247H36.0016V9.69247H36.1678V5.69247ZM34.2606 6.70814L27.3543 18.9233L30.8364 20.892L37.7426 8.6768L34.2606 6.70814ZM29.0953 17.9077H26.4455V21.9077H29.0953V17.9077ZM28.3938 19.4558L25.55 7.19444L21.6535 8.09817L24.4972 20.3595L28.3938 19.4558ZM23.6017 5.64631H23.4448V9.64631H23.6017V5.64631ZM21.4722 7.31607L19.4041 19.6698L23.3491 20.3302L25.4173 7.97654L21.4722 7.31607ZM21.3766 18H17.4988V22H21.3766V18ZM19.4718 20.3275L22.611 1.41846L18.665 0.76336L15.5258 19.6725L19.4718 20.3275ZM43.1548 4.38707L41.1825 4.05559L40.7906 6.38707H43.1548V4.38707ZM43.7088 1.09091V-0.909091H42.0169L41.7365 0.759423L43.7088 1.09091ZM59.2386 1.09091L61.211 1.42239L61.6028 -0.909091H59.2386V1.09091ZM58.6847 4.38707V6.38707H60.3766L60.657 4.71856L58.6847 4.38707ZM52.8956 4.38707V2.38707H51.1995L50.9225 4.06036L52.8956 4.38707ZM50.3104 20V22H52.0064L52.2835 20.3267L50.3104 20ZM46.3587 20L44.3855 19.6733L44.0003 22H46.3587V20ZM48.9439 4.38707L50.917 4.71379L51.3023 2.38707H48.9439V4.38707ZM45.1272 4.71856L45.6811 1.42239L41.7365 0.759423L41.1825 4.05559L45.1272 4.71856ZM43.7088 3.09091H59.2386V-0.909091H43.7088V3.09091ZM57.2663 0.759423L56.7123 4.05559L60.657 4.71856L61.211 1.42239L57.2663 0.759423ZM58.6847 2.38707H52.8956V6.38707H58.6847V2.38707ZM50.9225 4.06036L48.3372 19.6733L52.2835 20.3267L54.8687 4.71379L50.9225 4.06036ZM50.3104 18H46.3587V22H50.3104V18ZM48.3318 20.3267L50.917 4.71379L46.9708 4.06036L44.3855 19.6733L48.3318 20.3267ZM48.9439 2.38707H43.1548V6.38707H48.9439V2.38707Z"
    fill="black" mask="url(#path-1-outside-1_124_2)" />
</svg>