<svg width="161" height="195" viewBox="0 0 161 195" fill="none" xmlns="http://www.w3.org/2000/svg">
<path d="M79.9031 2.24331C79.9958 2.33658 80.0937 2.43436 80.1967 2.53642C81.1471 3.47782 82.5359 4.78439 84.3034 6.26064C87.8327 9.20838 92.9017 12.8575 99.032 15.6177C105.164 18.3789 112.405 20.2708 120.246 19.6357C127.649 19.0361 135.492 16.1906 143.353 9.85447C143.773 10.7056 144.331 11.8764 144.987 13.3392C146.482 16.6739 148.481 21.5229 150.482 27.5581C154.487 39.6349 158.492 56.4251 158.523 75.315C158.554 94.1954 151.867 113.528 140 134C128.232 154.3 111.368 175.835 79.9126 192.757C18.1801 152.138 2.19782 106.066 1.52266 70.2218C1.18285 52.1808 4.72063 36.6645 8.34608 25.6567C10.1581 20.1549 11.9899 15.7859 13.3649 12.7992C13.9657 11.4942 14.4791 10.4536 14.8651 9.69821C33.9934 22.7203 50.4286 20.8107 62.1492 15.4255C68.1082 12.6876 72.8133 9.0715 76.0247 6.14834C77.6327 4.6847 78.8727 3.38891 79.7146 2.45397C79.7798 2.38157 79.8426 2.31132 79.9031 2.24331Z" fill="#357797" stroke="white"/>
<path d="M80.3957 7C80.4848 7.08812 80.579 7.18051 80.678 7.27693C81.592 8.16638 82.9275 9.40085 84.6272 10.7956C88.0211 13.5807 92.8957 17.0284 98.7908 19.6363C104.688 22.2451 111.651 24.0326 119.191 23.4326C126.31 22.8661 133.852 20.1776 141.412 14.1911C141.816 14.9953 142.352 16.1015 142.983 17.4836C144.421 20.6342 146.343 25.2156 148.267 30.9178C152.119 42.3281 155.97 58.1917 156 76.0392C156.03 93.8776 149.599 112.143 138.187 131.486C126.871 150.665 110.654 171.012 80.4048 187C21.0403 148.623 5.67106 105.093 5.02179 71.227C4.69502 54.1816 8.0971 39.5216 11.5835 29.1213C13.326 23.9231 15.0875 19.7952 16.4098 16.9734C16.9875 15.7404 17.4812 14.7572 17.8524 14.0435C36.247 26.3469 52.0518 24.5427 63.3228 19.4547C69.0532 16.8679 73.5778 13.4514 76.666 10.6895C78.2124 9.30666 79.4048 8.08238 80.2144 7.19903C80.2771 7.13063 80.3375 7.06426 80.3957 7Z" fill="#144F87"/>
<path d="M79.7798 14.6291C80.614 15.4123 81.7022 16.3851 83.0162 17.4561C86.2673 20.1061 90.9478 23.3967 96.6225 25.8903C102.3 28.3853 109.047 30.1139 116.38 29.5343C122.969 29.0135 129.899 26.638 136.826 21.4861C137.082 22.0153 137.369 22.6202 137.68 23.2971C139.02 26.2144 140.815 30.4642 142.613 35.7569C146.214 46.3535 149.808 61.0677 149.835 77.6045C149.863 94.1236 146.334 112.441 135.709 130.329C125.245 147.946 107.812 165.294 79.8022 180.111C24.6212 144.472 10.4574 104.245 9.85588 73.0752C9.5513 57.2935 12.7228 43.7126 15.9759 34.0732C17.6012 29.2569 19.2431 25.436 20.4722 22.8304C20.7511 22.2392 21.0086 21.7109 21.2397 21.2479C38.478 32.2428 53.3879 30.5228 64.1056 25.7169C69.6373 23.2364 73.997 19.9648 76.9684 17.3252C78.1076 16.3132 79.0488 15.3887 79.7798 14.6291Z" fill="#357797"/>
<path d="M80.4488 22C81.2174 22.7194 82.2201 23.6129 83.4309 24.5967C86.4266 27.0308 90.7393 30.0533 95.9682 32.3437C101.2 34.6355 107.417 36.2232 114.173 35.6909C120.245 35.2125 126.63 33.0305 133.013 28.2984C133.249 28.7844 133.513 29.3401 133.8 29.9618C135.035 32.6414 136.689 36.545 138.345 41.4065C141.663 51.1398 144.975 64.6552 145 79.8448C145.026 95.018 141.29 110.569 131.5 127C121.858 143.182 117.5 148.5 80.4694 174C32 140.5 16.573 104.315 16.0187 75.6845C15.7381 61.1885 18.6604 48.7141 21.6579 39.86C23.1555 35.4361 24.6684 31.9265 25.8009 29.5331C26.0579 28.9901 26.2952 28.5048 26.5081 28.0796C42.392 38.1787 56.1305 36.5988 66.0061 32.1845C71.1032 29.9061 75.1203 26.901 77.8583 24.4764C78.908 23.5469 79.7752 22.6977 80.4488 22Z" fill="#144F87"/>
<path d="M64.8718 39V44.5H60.9743V131H64.8718V136H46V131H50V44.5H45.8718V39H64.8718Z" fill="#357797"/>
<path d="M114.872 39V44.5H110.974V131H114.872V136H96V131H100V44.5H95.8718V39H114.872Z" fill="#357797"/>
<path d="M43.473 71L45.8878 56.4545H56.0298L55.5469 59.3097H48.9205L48.4375 62.2926H54.5455L54.0625 65.1548H47.9545L47.4716 68.1449H54.098L53.6151 71H43.473ZM60.348 64.7784L59.3111 71H55.8381L57.6562 60.0909H60.9588L60.6321 62.0938H60.7528C61.0938 61.4261 61.5885 60.9029 62.2372 60.5241C62.8859 60.1406 63.6151 59.9489 64.4247 59.9489C65.187 59.9489 65.8239 60.1193 66.3352 60.4602C66.8466 60.8011 67.2088 61.2794 67.4219 61.8949C67.6349 62.5057 67.6705 63.223 67.5284 64.0469L66.3636 71H62.8906L63.9347 64.7287C64.0388 64.1274 63.9654 63.6562 63.7145 63.3153C63.4683 62.9697 63.0658 62.7969 62.5071 62.7969C62.1425 62.7969 61.8087 62.8774 61.5057 63.0384C61.2074 63.1946 60.9564 63.4195 60.7528 63.7131C60.554 64.0066 60.419 64.3617 60.348 64.7784ZM72.896 75.3182C71.8543 75.3182 70.9878 75.1738 70.2965 74.8849C69.6052 74.5961 69.0891 74.2008 68.7482 73.6989C68.4073 73.197 68.244 72.6288 68.2582 71.9943L71.582 71.8097C71.6104 72.0369 71.6933 72.2334 71.8306 72.3991C71.9679 72.5649 72.1644 72.6903 72.4201 72.7756C72.6758 72.8655 72.993 72.9105 73.3718 72.9105C73.9542 72.9105 74.4608 72.7685 74.8917 72.4844C75.3226 72.2003 75.5877 71.7102 75.6871 71.0142L76.0067 69.0966H75.886C75.6966 69.4328 75.4409 69.7334 75.119 69.9986C74.797 70.2637 74.4158 70.4721 73.9755 70.6236C73.5352 70.7751 73.0475 70.8509 72.5124 70.8509C71.7122 70.8509 71.0138 70.6662 70.4173 70.2969C69.8207 69.9228 69.3898 69.3452 69.1246 68.5639C68.8595 67.7779 68.8287 66.767 69.0323 65.5312C69.2454 64.2576 69.6242 63.2088 70.1687 62.3849C70.7132 61.5563 71.3477 60.9432 72.0721 60.5455C72.8013 60.1477 73.547 59.9489 74.3093 59.9489C74.8822 59.9489 75.3557 60.0483 75.7298 60.2472C76.1038 60.4413 76.3974 60.6922 76.6104 61C76.8235 61.3078 76.975 61.6274 77.065 61.9588H77.1644L77.4698 60.0909H80.9286L79.1104 71.0426C78.9637 71.9706 78.6062 72.7519 78.038 73.3864C77.4698 74.0208 76.743 74.5014 75.8576 74.8281C74.9722 75.1548 73.985 75.3182 72.896 75.3182ZM74.1175 68.3224C74.5389 68.3224 74.9201 68.2112 75.261 67.9886C75.6019 67.7661 75.8884 67.4465 76.1204 67.0298C76.3524 66.6132 76.5157 66.1136 76.6104 65.5312C76.7051 64.9394 76.7051 64.4304 76.6104 64.0043C76.5205 63.5734 76.3453 63.242 76.0849 63.0099C75.8245 62.7779 75.4812 62.6619 75.055 62.6619C74.6242 62.6619 74.2406 62.7803 73.9045 63.017C73.573 63.2538 73.2937 63.5876 73.0664 64.0185C72.8439 64.4446 72.6876 64.9489 72.5977 65.5312C72.503 66.1136 72.4959 66.6132 72.5763 67.0298C72.6616 67.4465 72.832 67.7661 73.0877 67.9886C73.3481 68.2112 73.6914 68.3224 74.1175 68.3224ZM87.2124 56.4545L84.7976 71H81.3246L83.7393 56.4545H87.2124ZM87.0082 71L88.8263 60.0909H92.2994L90.4812 71H87.0082ZM90.8079 58.8125C90.3155 58.8125 89.9154 58.6491 89.6076 58.3224C89.2998 57.9957 89.1791 57.6051 89.2454 57.1506C89.3117 56.6913 89.5437 56.3007 89.9414 55.9787C90.3391 55.6567 90.7818 55.4957 91.2695 55.4957C91.762 55.4957 92.1573 55.6567 92.4556 55.9787C92.7586 56.3007 92.877 56.6913 92.8107 57.1506C92.7539 57.6051 92.5266 57.9957 92.1289 58.3224C91.7359 58.6491 91.2956 58.8125 90.8079 58.8125ZM103.452 63.4219L100.32 63.5071C100.324 63.2751 100.272 63.0715 100.163 62.8963C100.054 62.7164 99.9006 62.5767 99.7017 62.4773C99.5028 62.3778 99.2661 62.3281 98.9915 62.3281C98.5464 62.3281 98.1463 62.4276 97.7912 62.6264C97.4408 62.8253 97.2443 63.0833 97.2017 63.4006C97.1686 63.571 97.2159 63.7202 97.3438 63.848C97.4716 63.9711 97.7557 64.08 98.196 64.1747L100.241 64.5724C101.293 64.7808 102.055 65.143 102.528 65.6591C103.007 66.1705 103.177 66.8475 103.04 67.6903C102.917 68.41 102.599 69.0327 102.088 69.5582C101.581 70.0838 100.935 70.491 100.149 70.7798C99.3679 71.0639 98.5038 71.206 97.5568 71.206C95.9564 71.206 94.7491 70.884 93.9347 70.2401C93.125 69.5914 92.7462 68.732 92.7983 67.6619L96.179 67.5767C96.1932 67.9792 96.3281 68.2822 96.5838 68.4858C96.8442 68.6847 97.197 68.7888 97.642 68.7983C98.1297 68.8078 98.5511 68.706 98.9062 68.4929C99.2614 68.2798 99.4602 68.017 99.5028 67.7045C99.5313 67.5009 99.4626 67.3423 99.2969 67.2287C99.1359 67.1151 98.8352 67.0133 98.3949 66.9233L96.5483 66.5611C95.4877 66.3575 94.7206 65.974 94.2472 65.4105C93.7784 64.8423 93.6174 64.1179 93.7642 63.2372C93.8873 62.5365 94.1761 61.9422 94.6307 61.4545C95.09 60.9621 95.6889 60.5881 96.4276 60.3324C97.1709 60.0767 98.0185 59.9489 98.9702 59.9489C100.495 59.9489 101.645 60.259 102.422 60.8793C103.203 61.4948 103.546 62.3423 103.452 63.4219ZM108.727 64.7784L107.69 71H104.217L106.632 56.4545H109.991L109.068 62.0938H109.189C109.539 61.4214 110.027 60.8958 110.652 60.517C111.277 60.1383 112.001 59.9489 112.825 59.9489C113.583 59.9489 114.217 60.1193 114.728 60.4602C115.24 60.7964 115.602 61.2723 115.815 61.8878C116.028 62.5033 116.066 63.223 115.929 64.0469L114.764 71H111.291L112.342 64.7287C112.437 64.1226 112.359 63.6491 112.108 63.3082C111.857 62.9673 111.454 62.7969 110.9 62.7969C110.536 62.7969 110.199 62.8774 109.892 63.0384C109.589 63.1946 109.335 63.4195 109.132 63.7131C108.928 64.0066 108.793 64.3617 108.727 64.7784ZM31.2269 95L33.6417 80.4545H37.1573L35.2255 92.1449H41.2766L40.7937 95H31.2269ZM45.6605 95.1847C44.9692 95.1847 44.3726 95.0687 43.8707 94.8366C43.3736 94.5999 43.009 94.2424 42.777 93.7642C42.5497 93.286 42.4953 92.6894 42.6136 91.9744C42.7178 91.3684 42.9096 90.8594 43.1889 90.4474C43.473 90.0308 43.821 89.6922 44.233 89.4318C44.6496 89.1714 45.1136 88.9725 45.625 88.8352C46.1364 88.6979 46.6714 88.6056 47.2301 88.5582C47.8551 88.5014 48.3617 88.4399 48.75 88.3736C49.143 88.3073 49.4366 88.215 49.6307 88.0966C49.8248 87.9735 49.9432 87.803 49.9858 87.5852V87.5497C50.0426 87.1851 49.9645 86.9034 49.7514 86.7045C49.5384 86.5057 49.2188 86.4062 48.7926 86.4062C48.3381 86.4062 47.9498 86.5057 47.6278 86.7045C47.3059 86.9034 47.081 87.178 46.9531 87.5284L43.7713 87.4148C43.9702 86.7519 44.3111 86.16 44.794 85.6392C45.277 85.1136 45.8902 84.7017 46.6335 84.4034C47.3816 84.1004 48.2457 83.9489 49.2259 83.9489C49.9171 83.9489 50.5421 84.0317 51.1009 84.1974C51.6596 84.3584 52.1307 84.5952 52.5142 84.9077C52.9025 85.2154 53.1795 85.5942 53.3452 86.044C53.5109 86.4938 53.5464 87.0076 53.4517 87.5852L52.2088 95H48.9418L49.1974 93.4801H49.1122C48.8565 93.8494 48.5559 94.1619 48.2102 94.4176C47.8693 94.6733 47.4858 94.8651 47.0597 94.9929C46.6335 95.1207 46.1671 95.1847 45.6605 95.1847ZM47.1236 92.9119C47.4882 92.9119 47.8338 92.8362 48.1605 92.6847C48.4872 92.5331 48.7618 92.3248 48.9844 92.0597C49.2116 91.7898 49.3561 91.4773 49.4176 91.1222L49.581 90.0852C49.4815 90.1373 49.3561 90.1847 49.2045 90.2273C49.053 90.2699 48.892 90.3101 48.7216 90.348C48.5511 90.3812 48.3759 90.4143 48.196 90.4474C48.0208 90.4759 47.8527 90.5019 47.6918 90.5256C47.3509 90.5777 47.0549 90.6581 46.804 90.767C46.553 90.8759 46.3518 91.018 46.2003 91.1932C46.0535 91.3636 45.9635 91.5672 45.9304 91.804C45.8736 92.1591 45.9564 92.4337 46.179 92.6278C46.4015 92.8172 46.7164 92.9119 47.1236 92.9119ZM58.8636 88.7784L57.8267 95H54.3537L56.1719 84.0909H59.4744L59.1477 86.0938H59.2685C59.6094 85.4261 60.1042 84.9029 60.7528 84.5241C61.4015 84.1406 62.1307 83.9489 62.9403 83.9489C63.7027 83.9489 64.3395 84.1193 64.8509 84.4602C65.3622 84.8011 65.7244 85.2794 65.9375 85.8949C66.1506 86.5057 66.1861 87.223 66.044 88.0469L64.8793 95H61.4062L62.4503 88.7287C62.5545 88.1274 62.4811 87.6562 62.2301 87.3153C61.9839 86.9697 61.5814 86.7969 61.0227 86.7969C60.6581 86.7969 60.3243 86.8774 60.0213 87.0384C59.723 87.1946 59.4721 87.4195 59.2685 87.7131C59.0696 88.0066 58.9347 88.3617 58.8636 88.7784ZM71.4116 99.3182C70.3699 99.3182 69.5034 99.1738 68.8121 98.8849C68.1209 98.5961 67.6048 98.2008 67.2638 97.6989C66.9229 97.197 66.7596 96.6288 66.7738 95.9943L70.0977 95.8097C70.1261 96.0369 70.2089 96.2334 70.3462 96.3991C70.4835 96.5649 70.68 96.6903 70.9357 96.7756C71.1914 96.8655 71.5086 96.9105 71.8874 96.9105C72.4698 96.9105 72.9764 96.7685 73.4073 96.4844C73.8382 96.2003 74.1033 95.7102 74.2028 95.0142L74.5224 93.0966H74.4016C74.2122 93.4328 73.9566 93.7334 73.6346 93.9986C73.3126 94.2637 72.9315 94.4721 72.4911 94.6236C72.0508 94.7751 71.5631 94.8509 71.0281 94.8509C70.2279 94.8509 69.5295 94.6662 68.9329 94.2969C68.3363 93.9228 67.9054 93.3452 67.6403 92.5639C67.3751 91.7779 67.3443 90.767 67.5479 89.5312C67.761 88.2576 68.1398 87.2088 68.6843 86.3849C69.2288 85.5563 69.8633 84.9432 70.5877 84.5455C71.3169 84.1477 72.0626 83.9489 72.8249 83.9489C73.3978 83.9489 73.8713 84.0483 74.2454 84.2472C74.6194 84.4413 74.913 84.6922 75.1261 85C75.3391 85.3078 75.4906 85.6274 75.5806 85.9588H75.68L75.9854 84.0909H79.4442L77.6261 95.0426C77.4793 95.9706 77.1218 96.7519 76.5536 97.3864C75.9854 98.0208 75.2586 98.5014 74.3732 98.8281C73.4878 99.1548 72.5006 99.3182 71.4116 99.3182ZM72.6332 92.3224C73.0546 92.3224 73.4357 92.2112 73.7766 91.9886C74.1175 91.7661 74.404 91.4465 74.636 91.0298C74.868 90.6132 75.0314 90.1136 75.1261 89.5312C75.2208 88.9394 75.2208 88.4304 75.1261 88.0043C75.0361 87.5734 74.8609 87.242 74.6005 87.0099C74.3401 86.7779 73.9968 86.6619 73.5707 86.6619C73.1398 86.6619 72.7563 86.7803 72.4201 87.017C72.0887 87.2538 71.8093 87.5876 71.582 88.0185C71.3595 88.4446 71.2032 88.9489 71.1133 89.5312C71.0186 90.1136 71.0115 90.6132 71.092 91.0298C71.1772 91.4465 71.3477 91.7661 71.6033 91.9886C71.8638 92.2112 72.207 92.3224 72.6332 92.3224ZM87.6598 90.2912L88.6967 84.0909H92.1626L90.3445 95H87.0348L87.3686 92.9688H87.255C86.9188 93.6364 86.424 94.1667 85.7706 94.5597C85.1172 94.9479 84.3809 95.142 83.5618 95.142C82.8184 95.142 82.1934 94.9716 81.6868 94.6307C81.1802 94.2898 80.8203 93.8139 80.6072 93.2031C80.3989 92.5876 80.361 91.8679 80.4936 91.044L81.6584 84.0909H85.1314L84.0874 90.3622C83.9974 90.9541 84.0755 91.4205 84.3217 91.7614C84.5727 92.1023 84.9657 92.2727 85.5007 92.2727C85.8464 92.2727 86.1707 92.197 86.4737 92.0455C86.7768 91.8892 87.0324 91.6643 87.2408 91.3707C87.4538 91.0724 87.5935 90.7126 87.6598 90.2912ZM95.6019 95.1847C94.9106 95.1847 94.314 95.0687 93.8121 94.8366C93.315 94.5999 92.9504 94.2424 92.7184 93.7642C92.4911 93.286 92.4367 92.6894 92.555 91.9744C92.6592 91.3684 92.851 90.8594 93.1303 90.4474C93.4144 90.0308 93.7624 89.6922 94.1744 89.4318C94.591 89.1714 95.055 88.9725 95.5664 88.8352C96.0778 88.6979 96.6128 88.6056 97.1715 88.5582C97.7965 88.5014 98.3031 88.4399 98.6914 88.3736C99.0844 88.3073 99.378 88.215 99.5721 88.0966C99.7662 87.9735 99.8846 87.803 99.9272 87.5852V87.5497C99.984 87.1851 99.9059 86.9034 99.6928 86.7045C99.4798 86.5057 99.1602 86.4062 98.734 86.4062C98.2795 86.4062 97.8912 86.5057 97.5692 86.7045C97.2473 86.9034 97.0224 87.178 96.8945 87.5284L93.7127 87.4148C93.9116 86.7519 94.2525 86.16 94.7354 85.6392C95.2184 85.1136 95.8316 84.7017 96.5749 84.4034C97.323 84.1004 98.1871 83.9489 99.1673 83.9489C99.8585 83.9489 100.484 84.0317 101.042 84.1974C101.601 84.3584 102.072 84.5952 102.456 84.9077C102.844 85.2154 103.121 85.5942 103.287 86.044C103.452 86.4938 103.488 87.0076 103.393 87.5852L102.15 95H98.8832L99.1388 93.4801H99.0536C98.7979 93.8494 98.4973 94.1619 98.1516 94.4176C97.8107 94.6733 97.4272 94.8651 97.0011 94.9929C96.5749 95.1207 96.1085 95.1847 95.6019 95.1847ZM97.065 92.9119C97.4296 92.9119 97.7752 92.8362 98.1019 92.6847C98.4286 92.5331 98.7032 92.3248 98.9258 92.0597C99.1531 91.7898 99.2975 91.4773 99.359 91.1222L99.5224 90.0852C99.4229 90.1373 99.2975 90.1847 99.146 90.2273C98.9944 90.2699 98.8335 90.3101 98.663 90.348C98.4925 90.3812 98.3174 90.4143 98.1374 90.4474C97.9622 90.4759 97.7942 90.5019 97.6332 90.5256C97.2923 90.5777 96.9963 90.6581 96.7454 90.767C96.4944 90.8759 96.2932 91.018 96.1417 91.1932C95.9949 91.3636 95.9049 91.5672 95.8718 91.804C95.815 92.1591 95.8978 92.4337 96.1204 92.6278C96.3429 92.8172 96.6578 92.9119 97.065 92.9119ZM108.677 99.3182C107.636 99.3182 106.769 99.1738 106.078 98.8849C105.386 98.5961 104.87 98.2008 104.529 97.6989C104.189 97.197 104.025 96.6288 104.039 95.9943L107.363 95.8097C107.392 96.0369 107.475 96.2334 107.612 96.3991C107.749 96.5649 107.946 96.6903 108.201 96.7756C108.457 96.8655 108.774 96.9105 109.153 96.9105C109.735 96.9105 110.242 96.7685 110.673 96.4844C111.104 96.2003 111.369 95.7102 111.468 95.0142L111.788 93.0966H111.667C111.478 93.4328 111.222 93.7334 110.9 93.9986C110.578 94.2637 110.197 94.4721 109.757 94.6236C109.316 94.7751 108.829 94.8509 108.294 94.8509C107.493 94.8509 106.795 94.6662 106.199 94.2969C105.602 93.9228 105.171 93.3452 104.906 92.5639C104.641 91.7779 104.61 90.767 104.814 89.5312C105.027 88.2576 105.405 87.2088 105.95 86.3849C106.494 85.5563 107.129 84.9432 107.853 84.5455C108.583 84.1477 109.328 83.9489 110.091 83.9489C110.663 83.9489 111.137 84.0483 111.511 84.2472C111.885 84.4413 112.179 84.6922 112.392 85C112.605 85.3078 112.756 85.6274 112.846 85.9588H112.946L113.251 84.0909H116.71L114.892 95.0426C114.745 95.9706 114.387 96.7519 113.819 97.3864C113.251 98.0208 112.524 98.5014 111.639 98.8281C110.753 99.1548 109.766 99.3182 108.677 99.3182ZM109.899 92.3224C110.32 92.3224 110.701 92.2112 111.042 91.9886C111.383 91.7661 111.67 91.4465 111.902 91.0298C112.134 90.6132 112.297 90.1136 112.392 89.5312C112.486 88.9394 112.486 88.4304 112.392 88.0043C112.302 87.5734 112.127 87.242 111.866 87.0099C111.606 86.7779 111.262 86.6619 110.836 86.6619C110.405 86.6619 110.022 86.7803 109.686 87.017C109.354 87.2538 109.075 87.5876 108.848 88.0185C108.625 88.4446 108.469 88.9489 108.379 89.5312C108.284 90.1136 108.277 90.6132 108.358 91.0298C108.443 91.4465 108.613 91.7661 108.869 91.9886C109.129 92.2112 109.473 92.3224 109.899 92.3224ZM122.177 95.206C121.036 95.206 120.089 94.9811 119.336 94.5312C118.588 94.0767 118.062 93.4304 117.759 92.5923C117.456 91.7495 117.402 90.7481 117.596 89.5881C117.785 88.4612 118.171 87.4763 118.754 86.6335C119.341 85.786 120.079 85.1278 120.969 84.6591C121.86 84.1856 122.852 83.9489 123.945 83.9489C124.722 83.9489 125.411 84.0696 126.012 84.3111C126.613 84.5526 127.111 84.9124 127.504 85.3906C127.897 85.8641 128.164 86.4465 128.306 87.1378C128.448 87.8291 128.443 88.6222 128.292 89.517L128.157 90.3835H118.683L119.002 88.3665H125.252C125.309 87.9972 125.278 87.6681 125.16 87.3793C125.041 87.0904 124.85 86.8655 124.585 86.7045C124.324 86.5388 124.004 86.456 123.626 86.456C123.242 86.456 122.882 86.5459 122.546 86.7259C122.215 86.901 121.933 87.1378 121.701 87.4361C121.469 87.7344 121.317 88.0705 121.246 88.4446L120.87 90.5114C120.794 90.9706 120.816 91.3636 120.934 91.6903C121.052 92.017 121.256 92.268 121.545 92.4432C121.834 92.6136 122.205 92.6989 122.66 92.6989C122.963 92.6989 123.247 92.6586 123.512 92.5781C123.777 92.4929 124.014 92.3674 124.222 92.2017C124.435 92.0312 124.608 91.8253 124.741 91.5838L127.908 91.6761C127.653 92.3911 127.257 93.0137 126.722 93.544C126.187 94.0696 125.534 94.4792 124.762 94.7727C123.995 95.0616 123.133 95.206 122.177 95.206ZM55.5797 108.844C55.6176 108.309 55.4756 107.894 55.1536 107.601C54.8364 107.307 54.3345 107.161 53.6479 107.161C53.1934 107.161 52.8051 107.22 52.4831 107.338C52.1612 107.452 51.9078 107.613 51.7232 107.821C51.5385 108.025 51.4225 108.261 51.3752 108.531C51.3326 108.744 51.3444 108.934 51.4107 109.099C51.477 109.265 51.593 109.412 51.7587 109.54C51.9292 109.668 52.1399 109.779 52.3908 109.874C52.6465 109.968 52.9329 110.051 53.2502 110.122L54.4434 110.406C55.1346 110.562 55.7336 110.771 56.2402 111.031C56.7516 111.287 57.1659 111.597 57.4831 111.962C57.8004 112.321 58.0182 112.736 58.1365 113.205C58.2549 113.673 58.2644 114.199 58.165 114.781C58.0134 115.7 57.6512 116.488 57.0783 117.146C56.5101 117.804 55.7668 118.309 54.8482 118.659C53.9344 119.009 52.8714 119.185 51.6593 119.185C50.4471 119.185 49.4173 119.002 48.5698 118.638C47.727 118.268 47.1162 117.712 46.7374 116.969C46.3586 116.225 46.2568 115.288 46.432 114.156H49.7914C49.7393 114.625 49.7985 115.016 49.9689 115.328C50.1441 115.641 50.414 115.877 50.7786 116.038C51.1432 116.199 51.5835 116.28 52.0996 116.28C52.5731 116.28 52.9874 116.216 53.3425 116.088C53.7024 115.96 53.9888 115.783 54.2019 115.555C54.4197 115.328 54.5523 115.068 54.5996 114.774C54.647 114.504 54.602 114.27 54.4647 114.071C54.3321 113.872 54.1048 113.699 53.7828 113.553C53.4656 113.406 53.0489 113.273 52.5328 113.155L51.0769 112.8C49.8742 112.506 48.9628 112.037 48.3425 111.393C47.727 110.75 47.5092 109.876 47.6891 108.773C47.8406 107.868 48.2147 107.078 48.8113 106.401C49.4126 105.723 50.1725 105.198 51.0911 104.824C52.0144 104.445 53.03 104.256 54.138 104.256C55.2649 104.256 56.2118 104.447 56.9789 104.831C57.7507 105.21 58.307 105.745 58.6479 106.436C58.9935 107.123 59.093 107.925 58.9462 108.844H55.5797ZM64.3084 119.206C63.1578 119.206 62.2085 118.969 61.4604 118.496C60.717 118.022 60.1962 117.364 59.8979 116.521C59.5996 115.674 59.5452 114.694 59.7346 113.581C59.9145 112.464 60.2956 111.483 60.878 110.641C61.4604 109.793 62.2038 109.133 63.1081 108.659C64.0125 108.186 65.0352 107.949 66.1763 107.949C67.1848 107.949 68.0324 108.131 68.7189 108.496C69.4102 108.86 69.9097 109.376 70.2175 110.044C70.53 110.707 70.6223 111.486 70.4945 112.381H67.2488C67.2772 111.827 67.1635 111.391 66.9078 111.074C66.6522 110.752 66.2805 110.591 65.7928 110.591C65.3809 110.591 65.0021 110.705 64.6564 110.932C64.3155 111.154 64.0243 111.486 63.7828 111.926C63.5461 112.362 63.3757 112.902 63.2715 113.545C63.1673 114.189 63.1602 114.734 63.2502 115.179C63.3449 115.619 63.5224 115.953 63.7828 116.18C64.048 116.403 64.3842 116.514 64.7914 116.514C65.1133 116.514 65.4116 116.446 65.6863 116.308C65.9609 116.171 66.2 115.97 66.4036 115.705C66.6072 115.435 66.7658 115.108 66.8794 114.724H70.1181C69.9334 115.629 69.5759 116.417 69.0456 117.089C68.5201 117.757 67.8548 118.278 67.0499 118.652C66.245 119.021 65.3311 119.206 64.3084 119.206ZM75.7093 112.778L74.6724 119H71.1994L73.6142 104.455H76.9735L76.0502 110.094H76.171C76.5214 109.421 77.0091 108.896 77.6341 108.517C78.2591 108.138 78.9835 107.949 79.8074 107.949C80.5649 107.949 81.1994 108.119 81.7108 108.46C82.2221 108.796 82.5843 109.272 82.7974 109.888C83.0105 110.503 83.0484 111.223 82.911 112.047L81.7463 119H78.2733L79.3244 112.729C79.4191 112.123 79.341 111.649 79.09 111.308C78.8391 110.967 78.4366 110.797 77.8826 110.797C77.5181 110.797 77.1819 110.877 76.8741 111.038C76.5711 111.195 76.3178 111.42 76.1142 111.713C75.9106 112.007 75.7756 112.362 75.7093 112.778ZM88.9782 119.206C87.8276 119.206 86.8783 118.969 86.1301 118.496C85.3868 118.022 84.8636 117.362 84.5605 116.514C84.2575 115.667 84.1983 114.682 84.383 113.56C84.5676 112.442 84.9488 111.462 85.5265 110.619C86.1041 109.777 86.8427 109.121 87.7424 108.652C88.642 108.183 89.6623 107.949 90.8034 107.949C91.9493 107.949 92.8939 108.186 93.6373 108.659C94.3854 109.133 94.9109 109.793 95.214 110.641C95.5217 111.488 95.5833 112.475 95.3986 113.602C95.214 114.72 94.8304 115.7 94.248 116.543C93.6657 117.381 92.927 118.034 92.0321 118.503C91.1373 118.972 90.1193 119.206 88.9782 119.206ZM89.3688 116.585C89.7949 116.585 90.1761 116.457 90.5123 116.202C90.8532 115.946 91.1396 115.589 91.3716 115.129C91.6036 114.67 91.7694 114.137 91.8688 113.531C91.9682 112.935 91.9777 112.411 91.8972 111.962C91.8214 111.507 91.6605 111.154 91.4142 110.903C91.168 110.648 90.8342 110.52 90.4128 110.52C89.9867 110.52 89.6032 110.65 89.2623 110.911C88.9213 111.166 88.6349 111.524 88.4029 111.983C88.1756 112.437 88.0123 112.97 87.9128 113.581C87.8134 114.178 87.8016 114.701 87.8773 115.151C87.9531 115.6 88.1164 115.953 88.3674 116.209C88.6183 116.46 88.9521 116.585 89.3688 116.585ZM101.361 119.206C100.21 119.206 99.2611 118.969 98.513 118.496C97.7696 118.022 97.2464 117.362 96.9434 116.514C96.6403 115.667 96.5811 114.682 96.7658 113.56C96.9505 112.442 97.3316 111.462 97.9093 110.619C98.4869 109.777 99.2256 109.121 100.125 108.652C101.025 108.183 102.045 107.949 103.186 107.949C104.332 107.949 105.277 108.186 106.02 108.659C106.768 109.133 107.294 109.793 107.597 110.641C107.905 111.488 107.966 112.475 107.781 113.602C107.597 114.72 107.213 115.7 106.631 116.543C106.048 117.381 105.31 118.034 104.415 118.503C103.52 118.972 102.502 119.206 101.361 119.206ZM101.752 116.585C102.178 116.585 102.559 116.457 102.895 116.202C103.236 115.946 103.522 115.589 103.754 115.129C103.986 114.67 104.152 114.137 104.252 113.531C104.351 112.935 104.36 112.411 104.28 111.962C104.204 111.507 104.043 111.154 103.797 110.903C103.551 110.648 103.217 110.52 102.796 110.52C102.369 110.52 101.986 110.65 101.645 110.911C101.304 111.166 101.018 111.524 100.786 111.983C100.558 112.437 100.395 112.97 100.296 113.581C100.196 114.178 100.184 114.701 100.26 115.151C100.336 115.6 100.499 115.953 100.75 116.209C101.001 116.46 101.335 116.585 101.752 116.585ZM114.546 104.455L112.132 119H108.659L111.073 104.455H114.546Z" fill="#9B8700"/>
</svg>
