
<svg width="524" height="544" viewBox="0 0 524 544" fill="none" xmlns="http://www.w3.org/2000/svg">
<g clip-path="url(#clip0_3_2)">
<path d="M508.715 339.637L522.877 331.037L523.044 15.0174L509.261 1.608L509.052 131.383L508.715 339.637Z" fill="#231F20"/>
<path d="M432.493 125.839C432.333 125.995 432.175 126.151 432.003 126.316C431.889 126.424 431.765 126.54 431.648 126.652C431.496 126.797 431.348 126.94 431.187 127.091C431.056 127.213 430.916 127.343 430.78 127.469C430.617 127.62 430.459 127.769 430.289 127.925C430.14 128.061 429.984 128.203 429.831 128.343C429.66 128.499 429.489 128.653 429.309 128.815C429.144 128.963 428.972 129.116 428.801 129.269C428.62 129.429 428.44 129.589 428.251 129.756C428.069 129.915 427.879 130.08 427.691 130.244C427.499 130.411 427.308 130.575 427.109 130.745C426.909 130.917 426.701 131.093 426.495 131.269C426.295 131.439 426.095 131.608 425.888 131.78C425.672 131.961 425.452 132.144 425.228 132.329C425.015 132.505 424.8 132.683 424.58 132.863C424.348 133.051 424.112 133.241 423.873 133.435C423.648 133.616 423.419 133.8 423.187 133.985C422.943 134.179 422.696 134.375 422.445 134.572C422.204 134.761 421.959 134.953 421.709 135.145C421.452 135.347 421.192 135.547 420.925 135.751C420.672 135.944 420.416 136.139 420.155 136.336C419.881 136.543 419.607 136.749 419.325 136.959C419.059 137.159 418.785 137.36 418.512 137.56C418.224 137.772 417.935 137.984 417.64 138.197C417.361 138.399 417.079 138.603 416.795 138.805C416.487 139.025 416.183 139.243 415.868 139.464C415.58 139.668 415.283 139.873 414.987 140.079C414.667 140.303 414.347 140.525 414.019 140.749C413.713 140.959 413.4 141.168 413.088 141.379C412.755 141.604 412.425 141.828 412.084 142.053C411.764 142.267 411.433 142.481 411.107 142.696C410.759 142.923 410.417 143.149 410.063 143.377C409.728 143.593 409.381 143.811 409.039 144.027C408.68 144.255 408.325 144.483 407.96 144.712C407.605 144.932 407.24 145.155 406.88 145.376C406.509 145.604 406.145 145.831 405.768 146.059C405.04 146.499 404.3 146.94 403.544 147.381C403.193 147.587 402.827 147.793 402.469 147.999C402.041 148.245 401.621 148.491 401.187 148.736C400.797 148.956 400.397 149.175 400.001 149.395C399.584 149.627 399.169 149.86 398.745 150.091C398.333 150.315 397.912 150.539 397.495 150.761C397.069 150.991 396.647 151.219 396.213 151.445C395.792 151.668 395.359 151.889 394.928 152.111C394.484 152.34 394.043 152.568 393.592 152.797C393.16 153.016 392.717 153.233 392.277 153.452C391.816 153.681 391.356 153.911 390.885 154.139C390.441 154.355 389.988 154.571 389.536 154.785C389.059 155.013 388.581 155.241 388.095 155.468C387.633 155.683 387.164 155.897 386.695 156.111C386.205 156.335 385.716 156.557 385.22 156.78C384.744 156.993 384.261 157.204 383.779 157.416C383.273 157.637 382.765 157.857 382.251 158.077C381.761 158.287 381.267 158.495 380.769 158.703C380.251 158.919 379.729 159.136 379.203 159.351C378.697 159.556 378.189 159.761 377.677 159.965C377.14 160.179 376.6 160.391 376.057 160.603C375.541 160.803 375.024 161.001 374.501 161.2C374.253 161.293 374.015 161.389 373.765 161.483L396.953 164.34C399.796 163.211 421.329 154.527 433.453 145.939L433.388 124.956C433.184 125.161 432.964 125.379 432.732 125.607C432.656 125.681 432.572 125.763 432.493 125.839Z" fill="#302D2E"/>
<path d="M369.377 93.1387V160.231C369.781 160.088 370.188 159.945 370.587 159.801C371.251 159.561 371.911 159.321 372.561 159.079C373.229 158.829 373.888 158.577 374.544 158.325C375.208 158.069 375.871 157.812 376.525 157.552C377.136 157.309 377.737 157.065 378.337 156.82C379.019 156.541 379.697 156.261 380.365 155.98C380.912 155.749 381.448 155.519 381.985 155.287C382.685 154.984 383.383 154.68 384.068 154.375C384.547 154.16 385.019 153.945 385.491 153.729C386.215 153.399 386.936 153.068 387.644 152.735C388.047 152.545 388.443 152.355 388.841 152.164C389.597 151.801 390.351 151.437 391.087 151.072C391.411 150.912 391.727 150.751 392.047 150.589C392.84 150.191 393.629 149.791 394.4 149.388C394.637 149.265 394.869 149.14 395.105 149.017C395.94 148.577 396.767 148.137 397.575 147.696C397.727 147.613 397.876 147.529 398.028 147.447C398.903 146.965 399.765 146.484 400.608 146.003C400.68 145.963 400.749 145.921 400.82 145.881C422.865 133.252 433.548 120.931 433.695 120.757L436.032 118.008L436.125 147.3L436.124 147.301L436.707 335.001L506.047 340.567L506.385 131.269L506.597 -0.0012828L448.731 8.52404C438.715 58.896 377.112 89.4827 369.377 93.1387Z" fill="#423F3F"/>
<path d="M235.435 228.299L267.284 344.707L297.427 344.195L250.543 173.481L235.435 228.299Z" fill="#8D0F14"/>
<path d="M265.257 347.408L199.535 348.524L232.669 228.295L232.672 228.283L250.547 163.428L300.909 346.803L265.257 347.408ZM425.388 496.864L299.389 72.8453L199.051 54.968L150.085 199.267L33.4292 543.053L149.664 529.484L177.605 428.099L287.735 421.615L320.919 419.661L321.204 420.703L344.256 504.634L425.388 496.864Z" fill="#E81C24"/>
<path d="M157.044 76.1467L0 524.772L30.75 542.651L148.921 194.397L195.832 56.152L157.044 76.1467Z" fill="#C1171D"/>
<path d="M291.188 424.083L312.751 501.663L341.467 504.545L318.919 422.451L291.188 424.083Z" fill="#8D0F14"/>
</g>
<defs>
<clipPath id="clip0_3_2">
<rect width="523.04" height="543.053" fill="white"/>
</clipPath>
</defs>
</svg>
