<svg width="1065" height="300" viewBox="0 0 1065 300" fill="none" xmlns="http://www.w3.org/2000/svg">
<path d="M640.446 11.1849L679.857 180.104H682.779L722.195 11.1849H804.728L841.188 291.65H764.769L750.849 114.45L747.884 114.264L711.28 291.65H651.363L614.758 114.264L611.794 114.449L597.729 291.65H521.452L557.914 11.1849H640.446Z" fill="#263DB0" stroke="white" stroke-width="3"/>
<path d="M957.615 11.1849V235.122H1062.5V291.65H884.079V11.1849H957.615Z" fill="#263DB0" stroke="white" stroke-width="3"/>
<path d="M181.305 11.1849L265.445 291.65H183.626L172.546 241.801L172.286 240.627H96.1783L95.9175 241.802L84.8404 291.65H3.0191L87.1588 11.1849H181.305ZM107.254 187.947L106.855 189.768H108.72L159.745 189.767H161.61L161.211 187.946L135.697 71.7249H132.767L107.254 187.947Z" fill="#263DB0" stroke="white" stroke-width="3"/>
<path d="M348.807 11.934C386.625 -2.23675 435.104 0.367982 470.115 16.351C471.317 32.4178 472.462 49.955 470.244 85.9613C435.014 56.4171 390.629 47.6923 354.608 53.2426C336.204 56.0784 319.898 62.6535 308.091 72.1732C299.522 79.082 293.303 87.565 290.422 97.2816C289.277 76.6934 294.126 59.819 303.028 46.3285C313.536 30.4063 329.778 19.064 348.807 11.934Z" fill="#263DB0" stroke="white" stroke-width="3"/>
<path d="M378.274 69.9512C375.614 71.7355 373.579 73.6932 372.049 75.7754C368.902 80.0582 368.01 84.6997 368.018 89.0332C368.038 99.917 375.069 106.933 383.932 112.003C392.736 117.039 403.863 120.432 412.571 123.831C427.213 129.546 447.218 135.87 463.657 148.211C479.983 160.467 492.731 178.632 492.73 208.109C492.73 226.062 484.065 243.576 470.2 258.223C456.342 272.863 437.376 284.538 417.021 290.798C367.068 306.161 317.138 291.28 285.966 277.985V213.834C311.522 231.639 334.401 241.265 362.691 241.86C371.567 242.048 382.76 239.931 391.789 234.651C400.869 229.342 407.856 220.752 407.857 208.11C407.857 197.292 402.811 190.182 396.441 185.079C390.195 180.076 382.433 176.849 377.172 173.974C346.276 157.084 335.763 131.855 339.604 110.371C342.906 91.9005 356.861 75.8791 378.274 69.9512Z" fill="#263DB0" stroke="white" stroke-width="3"/>
</svg>
