<svg width="884" height="941" viewBox="0 0 884 941" fill="none" xmlns="http://www.w3.org/2000/svg">
<path d="M333.622 2C331.972 0.6 328.182 0.66 325.032 0C323.382 2.44 321.252 4.37 320.732 6.5C319.473 11.8799 318.581 17.3392 318.062 22.84C305.872 145.49 260.222 259.32 171.382 363.5C122.102 421.28 73.0523 480.35 36.7823 543.12C-53.2177 698.87 26.8723 857.92 223.192 927.44C229.652 929.71 236.912 930.75 253.102 934.53C186.512 874.32 152.222 813.12 163.782 740.73C174.782 671.66 209.732 610.04 262.652 553.85C266.552 561.67 266.792 568.48 266.522 575.29C263.942 636.91 284.332 691.29 347.342 734.23C376.472 754.07 402.632 776.54 428.972 798.62C455.732 821.12 463.482 848.16 455.882 877.62C452.222 891.94 446.882 906.01 441.102 923.69C485.942 919.26 527.412 913.07 555.252 888.3C581.862 864.65 601.562 836.57 629.972 803.9C631.972 831.56 635.862 853.08 634.352 874.4C632.762 896.57 625.912 918.51 621.352 940.59C757.622 920.05 877.832 786.36 883.112 649.58C886.982 549.77 802.052 403.58 730.732 389.4C734.732 398.76 738.452 407.64 742.442 416.4C767.192 470.9 774.442 526.16 758.782 583.19C743.132 639.92 663.702 703.55 593.622 711.6C595.992 705.91 596.982 700.6 600.232 696.27C675.712 594.58 676.622 488.15 633.722 379.54C576.362 234.33 466.232 112.94 333.622 2Z" fill="#EE4358"/>
</svg>
