<svg width="320" height="174" viewBox="0 0 320 174" fill="none" xmlns="http://www.w3.org/2000/svg">
<g clip-path="url(#clip0_28_64)">
<path d="M58.9414 0.576172C64.8688 1.0772 69.5411 2.21788 74.9668 4.88574L74.9697 4.8877L77.1855 5.96094C87.449 11.1003 96.0463 17.6935 104.277 25.6719L104.278 25.6729C109.055 30.2786 113.341 33.0117 119.663 35.2832V35.2822C125.485 37.4649 132.025 40.3786 137.831 44.165C143.616 47.9376 148.637 52.5559 151.513 58.1484C151.663 59.4427 151.734 60.0648 151.734 60.6406C151.734 61.1958 151.669 61.712 151.527 62.7637C150.587 63.7027 150.173 64.0949 149.623 64.3271C149.035 64.5755 148.274 64.6498 146.529 64.8037C141.305 64.6648 136.526 63.1575 131.455 61.6455L131.448 61.6436L130.296 61.3242C106.127 54.7315 83.3931 55.3809 58.9014 60.5098L53.2422 61.6426C52.4094 61.809 51.5758 61.975 50.7178 62.1465C50.4394 62.2021 50.161 62.2575 49.8809 62.3135C50.8312 60.3734 51.702 59.005 53.3535 57.3535L54.6084 56.0986L52.8828 56.5137C37.2721 60.2718 23.4522 65.5302 10.5225 75.3467C9.59641 75.9825 9.21285 76.2403 8.82227 76.3682C8.54233 76.4598 8.25029 76.4867 7.71484 76.4951C10.8707 68.0258 17.0979 60.8734 24.5273 54.876C32.1501 48.7225 41.0081 43.8082 49.0293 39.9502H49.0303C49.901 39.529 50.7718 39.1078 51.6689 38.6738L51.668 38.6729C57.0919 36.1554 62.2041 34.5866 68.0918 33.4912L68.54 33.4082L68.498 32.9541C67.4111 21.2249 65.1277 10.7811 58.9414 0.576172Z" fill="#663366" stroke="white"/>
<path d="M83.5474 98.6855C83.4904 101.343 83.1137 103.882 82.5894 106.5H75.4996V99.5H61.5523L61.5035 99.9443L60.5035 108.944L60.5025 108.95L59.5025 118.95L59.4478 119.5H67.4097L67.4908 119.098C67.7947 117.578 68.099 116.059 68.4107 114.5H72.5074C72.5307 116.064 72.5476 117.628 72.5621 119.192V119.193L72.5972 122.111C72.5488 123.547 72.5245 124.243 72.3921 125.194C72.2649 126.109 72.0363 127.259 71.5884 129.5H58.5367L58.5015 129.962L57.5015 142.962L57.4605 143.5H62.4996V150.5H35.4996V144.359C35.5026 144.358 35.5063 144.358 35.5093 144.357C35.5146 144.356 35.5197 144.353 35.525 144.352C35.5301 144.35 35.5354 144.348 35.5406 144.347C35.5459 144.345 35.5519 144.344 35.5572 144.342C35.5624 144.34 35.5676 144.338 35.5728 144.336L35.6041 144.326C35.6093 144.324 35.6145 144.322 35.6197 144.32L35.6509 144.311C35.6561 144.309 35.6614 144.306 35.6666 144.305L35.6812 144.3L35.7125 144.29C35.7174 144.288 35.7221 144.286 35.7271 144.284C35.7322 144.282 35.7377 144.281 35.7427 144.279L35.7574 144.274C35.7624 144.273 35.768 144.271 35.773 144.27L35.8023 144.26C35.8073 144.258 35.813 144.257 35.8179 144.255L35.9205 144.221C35.9251 144.219 35.9295 144.217 35.9341 144.216L35.9634 144.206C35.968 144.205 35.9725 144.203 35.9771 144.201L35.9917 144.196C35.9963 144.195 36.0008 144.193 36.0054 144.191C36.0101 144.19 36.0154 144.189 36.0201 144.188L36.0474 144.178L36.0621 144.173C36.0666 144.171 36.0712 144.17 36.0757 144.169L36.1167 144.154C36.1212 144.153 36.126 144.152 36.1304 144.15L36.1578 144.141C36.1623 144.139 36.167 144.138 36.1714 144.137C36.1759 144.135 36.1806 144.133 36.1851 144.132C36.1895 144.13 36.1944 144.129 36.1988 144.128C36.2031 144.126 36.2072 144.124 36.2115 144.123C36.2159 144.122 36.2207 144.121 36.2251 144.119C36.2296 144.118 36.2344 144.116 36.2388 144.114C36.2431 144.113 36.2473 144.111 36.2515 144.109C36.2559 144.108 36.2608 144.107 36.2652 144.105C36.2694 144.104 36.2737 144.103 36.2779 144.102C36.2821 144.1 36.2863 144.098 36.2906 144.097C36.2949 144.095 36.2999 144.094 36.3042 144.093C36.3085 144.091 36.3127 144.089 36.3169 144.088C36.3211 144.086 36.3254 144.085 36.3296 144.084C36.3338 144.083 36.3382 144.08 36.3423 144.079C36.3466 144.078 36.3517 144.077 36.356 144.075C36.3602 144.074 36.3645 144.073 36.3687 144.071C36.3729 144.07 36.3772 144.068 36.3814 144.066L36.4068 144.059C36.411 144.057 36.4153 144.055 36.4195 144.054C36.4236 144.052 36.4281 144.051 36.4322 144.05L36.4439 144.046C36.4481 144.045 36.4524 144.042 36.4566 144.041L36.482 144.033L36.4937 144.029C36.4978 144.028 36.5023 144.027 36.5064 144.025C36.5104 144.024 36.5141 144.022 36.5181 144.021C36.5222 144.019 36.5267 144.018 36.5308 144.017L36.5425 144.013C36.5466 144.011 36.5512 144.01 36.5552 144.009L36.5669 144.005C36.571 144.004 36.5756 144.002 36.5796 144.001L36.5914 143.997C36.5953 143.996 36.5991 143.994 36.6031 143.992L36.6265 143.984C36.6305 143.983 36.6353 143.982 36.6392 143.98L36.7095 143.957C36.7131 143.956 36.7167 143.954 36.7203 143.953L36.732 143.949C36.7358 143.948 36.7399 143.948 36.7437 143.946L36.7554 143.942C36.759 143.941 36.7626 143.94 36.7662 143.938L36.7896 143.931C36.7932 143.929 36.7967 143.928 36.8003 143.927L36.8121 143.923C36.8157 143.922 36.8192 143.92 36.8228 143.919C36.8265 143.918 36.8308 143.917 36.8345 143.916L36.856 143.908L36.8677 143.904C36.8713 143.903 36.8749 143.902 36.8785 143.9C36.882 143.899 36.8857 143.899 36.8892 143.897L36.9009 143.894L36.9224 143.886C36.9259 143.885 36.9296 143.884 36.9332 143.883L36.9546 143.875C36.9581 143.874 36.962 143.873 36.9654 143.872L36.9869 143.864C36.9903 143.863 36.9942 143.862 36.9976 143.861L37.0191 143.854C37.0226 143.852 37.0263 143.852 37.0298 143.851C37.0334 143.849 37.0371 143.848 37.0406 143.847C37.044 143.846 37.0479 143.845 37.0513 143.844C37.0546 143.843 37.0578 143.841 37.0611 143.84C37.0646 143.839 37.0683 143.837 37.0718 143.836C37.0753 143.835 37.0791 143.834 37.0826 143.833C37.0859 143.832 37.089 143.83 37.0923 143.829C37.0958 143.828 37.0997 143.827 37.1031 143.826C37.1065 143.825 37.1104 143.823 37.1138 143.822C37.117 143.821 37.1204 143.82 37.1236 143.819C37.127 143.818 37.1309 143.817 37.1343 143.815C37.1376 143.814 37.1409 143.814 37.1441 143.812C37.1475 143.811 37.1514 143.81 37.1548 143.809C37.1581 143.808 37.1614 143.807 37.1646 143.806C37.168 143.805 37.172 143.803 37.1753 143.802C37.1786 143.801 37.1819 143.8 37.1851 143.799C37.1884 143.798 37.1916 143.796 37.1949 143.795C37.1982 143.794 37.2023 143.793 37.2056 143.792C37.2089 143.791 37.2121 143.789 37.2154 143.788C37.2186 143.787 37.2219 143.786 37.2251 143.785C37.2285 143.784 37.2326 143.783 37.2359 143.782C37.2391 143.781 37.2424 143.779 37.2457 143.778C37.2489 143.777 37.2522 143.776 37.2554 143.775C37.2587 143.774 37.2619 143.773 37.2652 143.771C37.2684 143.77 37.2718 143.77 37.275 143.769C37.2783 143.767 37.2824 143.767 37.2857 143.766C37.2889 143.765 37.2923 143.763 37.2955 143.762L37.315 143.756C37.3182 143.755 37.3215 143.753 37.3248 143.752L37.3443 143.746C37.3475 143.745 37.3508 143.743 37.3541 143.742L37.3736 143.736C37.3767 143.735 37.3802 143.733 37.3833 143.732L37.3921 143.729C37.3952 143.728 37.3988 143.728 37.4019 143.727C37.4051 143.725 37.4085 143.724 37.4117 143.723L37.441 143.714C37.444 143.713 37.4467 143.711 37.4498 143.71L37.4693 143.704L37.4781 143.701C37.4812 143.7 37.4847 143.698 37.4878 143.697C37.491 143.696 37.4945 143.695 37.4976 143.694L37.5064 143.691L37.5259 143.686C37.5289 143.685 37.5317 143.683 37.5347 143.682C37.5378 143.681 37.5414 143.68 37.5445 143.679L37.5533 143.676C37.5564 143.675 37.5599 143.674 37.563 143.673L37.5718 143.67C37.5749 143.669 37.5785 143.668 37.5816 143.667C37.5846 143.666 37.5874 143.664 37.5904 143.663C37.5935 143.662 37.5971 143.661 37.6001 143.66L37.6089 143.657C37.612 143.656 37.6156 143.655 37.6187 143.654L37.6363 143.648C37.6393 143.647 37.643 143.647 37.646 143.646C37.6491 143.644 37.6518 143.643 37.6548 143.642L37.6636 143.639C37.6667 143.638 37.6703 143.637 37.6734 143.636L37.691 143.63C37.694 143.629 37.6977 143.628 37.7007 143.627L37.7183 143.621C37.7213 143.62 37.7251 143.619 37.7281 143.618L37.7369 143.615C37.7399 143.614 37.7426 143.612 37.7457 143.611L37.7544 143.608C37.7574 143.607 37.7612 143.606 37.7642 143.605L37.8082 143.591C37.8111 143.59 37.8149 143.589 37.8179 143.588L37.8707 143.57C37.8736 143.569 37.8775 143.568 37.8804 143.567L37.9419 143.547C37.9449 143.546 37.9478 143.544 37.9507 143.543L38.2496 143.443C38.2525 143.442 38.2564 143.441 38.2593 143.44L38.3736 143.402C38.3766 143.401 38.3804 143.4 38.3833 143.399L38.4273 143.385C38.4303 143.384 38.4341 143.383 38.4371 143.382L38.4546 143.376C38.4576 143.375 38.4604 143.373 38.4634 143.372L38.4722 143.369C38.4752 143.368 38.479 143.367 38.482 143.366L38.5083 143.357C38.5114 143.356 38.5151 143.355 38.5181 143.354L38.5357 143.349C38.5387 143.348 38.5424 143.347 38.5455 143.346L38.5542 143.343C38.5573 143.342 38.56 143.34 38.563 143.339C38.5661 143.338 38.5698 143.337 38.5728 143.336L38.5904 143.33C38.5934 143.329 38.5971 143.328 38.6001 143.327L38.6089 143.324C38.612 143.323 38.6156 143.322 38.6187 143.321L38.6275 143.318C38.6305 143.317 38.6333 143.315 38.6363 143.314C38.6394 143.313 38.643 143.313 38.646 143.312L38.6548 143.309C38.6579 143.308 38.6615 143.307 38.6646 143.306L38.6734 143.303C38.6764 143.302 38.6801 143.301 38.6832 143.3C38.6863 143.299 38.6898 143.297 38.6929 143.296L38.7017 143.293C38.7048 143.292 38.7083 143.291 38.7115 143.29L38.7203 143.287C38.7233 143.286 38.7269 143.285 38.73 143.284C38.7332 143.283 38.7366 143.281 38.7398 143.28L38.7486 143.277L38.7681 143.271C38.7711 143.27 38.7739 143.269 38.7769 143.268L38.8062 143.259C38.8094 143.258 38.8128 143.256 38.816 143.255L38.8248 143.252C38.8278 143.251 38.8314 143.25 38.8345 143.249C38.8377 143.248 38.8411 143.246 38.8443 143.245L38.8736 143.236C38.8768 143.235 38.8801 143.234 38.8833 143.232L38.9029 143.227C38.9061 143.225 38.9094 143.224 38.9126 143.223C38.9159 143.222 38.9192 143.221 38.9224 143.22C38.9257 143.219 38.9289 143.217 38.9322 143.216L38.9517 143.21C38.955 143.209 38.9591 143.207 38.9625 143.206L38.982 143.2C38.9853 143.199 38.9885 143.197 38.9917 143.196C38.9949 143.195 38.9983 143.194 39.0015 143.193C39.0049 143.192 39.0089 143.191 39.0123 143.189C39.0155 143.188 39.0188 143.188 39.022 143.187C39.0253 143.185 39.0285 143.184 39.0318 143.183C39.0352 143.181 39.0391 143.181 39.0425 143.18C39.0458 143.179 39.049 143.177 39.0523 143.176C39.0557 143.175 39.0596 143.174 39.063 143.173C39.0663 143.172 39.0695 143.17 39.0728 143.169C39.0762 143.168 39.0802 143.167 39.0835 143.166C39.0868 143.165 39.09 143.163 39.0933 143.162C39.0967 143.161 39.1006 143.16 39.1041 143.159C39.1074 143.158 39.1105 143.156 39.1138 143.155C39.1173 143.154 39.1211 143.153 39.1246 143.152C39.1279 143.151 39.131 143.15 39.1343 143.148C39.1377 143.147 39.1416 143.147 39.1451 143.146C39.1485 143.144 39.1523 143.143 39.1558 143.142C39.1592 143.14 39.1631 143.14 39.1666 143.139C39.1699 143.138 39.173 143.136 39.1763 143.135C39.1798 143.134 39.1835 143.132 39.1871 143.131C39.1905 143.13 39.1943 143.129 39.1978 143.128C39.2013 143.127 39.205 143.125 39.2085 143.124C39.212 143.123 39.2159 143.122 39.2193 143.121C39.2227 143.12 39.2266 143.118 39.23 143.117C39.2333 143.116 39.2365 143.114 39.2398 143.113C39.2432 143.112 39.2471 143.111 39.2505 143.11L39.272 143.103C39.2756 143.101 39.2801 143.101 39.2837 143.1L39.3052 143.092C39.3087 143.091 39.3124 143.09 39.316 143.089L39.3375 143.081L39.3492 143.077C39.3528 143.076 39.3563 143.074 39.3599 143.073C39.3634 143.072 39.3671 143.071 39.3707 143.07L39.3824 143.066C39.386 143.065 39.3895 143.064 39.3931 143.062L39.4048 143.059C39.4084 143.057 39.412 143.056 39.4156 143.055C39.4193 143.053 39.4235 143.053 39.4273 143.052C39.4309 143.051 39.4344 143.049 39.438 143.048L39.4615 143.04C39.4651 143.039 39.4686 143.037 39.4722 143.036L39.5074 143.024C39.511 143.023 39.5145 143.022 39.5181 143.021L39.5884 142.997C39.5924 142.996 39.5972 142.994 39.6011 142.993L39.6363 142.981C39.6403 142.98 39.645 142.979 39.649 142.978L39.6724 142.97C39.6765 142.968 39.6811 142.967 39.6851 142.966C39.6891 142.964 39.6928 142.962 39.6968 142.961C39.7009 142.96 39.7054 142.958 39.7095 142.957L39.7212 142.953C39.7253 142.952 39.7298 142.951 39.7339 142.949L39.7457 142.945C39.7498 142.944 39.7542 142.942 39.7583 142.94L39.7964 142.929C39.8004 142.927 39.8041 142.925 39.8082 142.924L39.8335 142.916C39.8377 142.915 39.842 142.913 39.8462 142.911L39.8716 142.903C39.8759 142.902 39.881 142.9 39.8853 142.898C39.8895 142.897 39.8938 142.896 39.898 142.895C39.9023 142.893 39.9064 142.891 39.9107 142.89C39.9149 142.888 39.9192 142.887 39.9234 142.886C39.9277 142.884 39.9327 142.883 39.9371 142.882C39.9413 142.88 39.9455 142.878 39.9498 142.877C39.9541 142.875 39.959 142.875 39.9634 142.873C39.9677 142.872 39.9718 142.87 39.9761 142.868C39.9805 142.867 39.9854 142.866 39.9898 142.864C39.9941 142.863 39.9982 142.861 40.0025 142.859C40.0069 142.858 40.0117 142.857 40.0162 142.855C40.0206 142.854 40.0254 142.852 40.0298 142.851C40.0341 142.849 40.0382 142.847 40.0425 142.846C40.0469 142.844 40.0518 142.843 40.0562 142.842C40.0607 142.84 40.0654 142.838 40.0699 142.837C40.0744 142.835 40.079 142.835 40.0835 142.833L40.1109 142.823C40.1154 142.822 40.1201 142.821 40.1246 142.819L40.1519 142.81L40.1666 142.805C40.171 142.803 40.1757 142.802 40.1802 142.801C40.1848 142.799 40.1893 142.797 40.1939 142.796L40.2085 142.791L40.2359 142.781C40.2406 142.78 40.2458 142.779 40.2505 142.777L40.2652 142.772C40.2698 142.771 40.2743 142.769 40.2789 142.768L40.3228 142.753C40.3274 142.751 40.3319 142.75 40.3365 142.748L40.3804 142.733C40.3853 142.732 40.3911 142.73 40.396 142.729L40.44 142.714C40.445 142.712 40.4506 142.711 40.4556 142.709C40.4606 142.707 40.4653 142.705 40.4703 142.703C40.4753 142.701 40.4809 142.7 40.4859 142.698L40.5005 142.693C40.5056 142.692 40.5111 142.69 40.5162 142.688L40.5308 142.684C40.5359 142.682 40.5414 142.68 40.5464 142.679C40.5516 142.677 40.5569 142.675 40.5621 142.673C40.5671 142.671 40.5726 142.67 40.5777 142.668L40.5923 142.663C40.5974 142.661 40.6028 142.659 40.608 142.657C40.613 142.656 40.6185 142.654 40.6236 142.652C40.6288 142.651 40.6349 142.649 40.6402 142.647C40.6453 142.646 40.6506 142.643 40.6558 142.642C40.661 142.64 40.6663 142.638 40.6714 142.637C40.6767 142.635 40.6818 142.633 40.6871 142.631C40.6922 142.629 40.6975 142.628 40.7027 142.626C40.708 142.624 40.7139 142.623 40.7193 142.621C40.7245 142.619 40.7296 142.617 40.7349 142.615C40.7403 142.613 40.7461 142.612 40.7515 142.61C40.7568 142.609 40.7619 142.606 40.7671 142.604C40.7725 142.603 40.7783 142.6 40.7837 142.599C40.7892 142.597 40.7949 142.596 40.8003 142.594C40.8057 142.592 40.8115 142.59 40.8169 142.588C40.8221 142.586 40.8274 142.585 40.8326 142.583L40.8658 142.571C40.8712 142.569 40.877 142.568 40.8824 142.566C40.8878 142.565 40.8935 142.562 40.899 142.561L40.9166 142.555C40.922 142.553 40.9277 142.552 40.9332 142.55C40.9387 142.548 40.9442 142.546 40.9498 142.544L40.9673 142.538C40.9729 142.536 40.9784 142.534 40.9839 142.532L41.0015 142.526C41.0071 142.525 41.0125 142.522 41.0181 142.521C41.0238 142.519 41.0299 142.518 41.0357 142.516L41.0533 142.51C41.0588 142.508 41.0643 142.506 41.0699 142.504L41.4478 142.378L41.4937 142.076L43.4937 129.076L43.5718 128.572L43.0669 128.505C41.3809 128.279 39.6944 128.052 37.9576 127.819H37.9585C23.4327 125.353 10.1538 119.918 1.43022 107.741C0.191904 105.243 -0.272043 102.029 -0.199659 98.7441C-0.127432 95.4673 0.476598 92.1648 1.33257 89.5166C3.19446 86.0004 6.77074 80.9816 10.9507 76.8418C13.0467 74.7659 15.2821 72.9233 17.5162 71.6025C19.5283 70.413 21.5127 69.6649 23.3765 69.5254C22.8043 72.0486 21.9053 73.9253 20.4673 76.1162L20.148 76.5947L20.1431 76.6035C18.0656 79.8099 16.6669 82.8312 15.6226 86.5H14.4234C14.1166 84.659 13.8088 82.8144 13.4927 80.918L13.314 79.8418L12.6158 80.6797C10.2561 83.5113 8.58844 85.8556 7.54546 88.4395C6.49925 91.0315 6.09603 93.8289 6.19975 97.5527V97.5762L6.20268 97.5996C6.49372 99.9808 7.18472 101.834 8.26714 103.468C9.34365 105.092 10.7931 106.478 12.564 107.94L12.5767 107.951L12.5904 107.96C22.003 114.741 32.8351 117.168 43.897 119.489L44.4468 119.604L44.4976 119.045L45.4957 108.062L46.566 99.5H40.4927C40.4601 97.4041 40.4619 95.3073 40.4966 93.2109C40.9133 92.7974 41.0751 92.6578 41.2828 92.5732C41.5324 92.4717 41.8674 92.442 42.772 92.3799C43.5267 92.3821 44.2816 92.3845 45.0591 92.3867H47.6666L50.5015 92.4023H50.5035C51.4564 92.4038 52.4094 92.4048 53.3912 92.4062C56.4472 92.4119 59.5033 92.4248 62.5601 92.4375H62.5611C64.6281 92.4425 66.6953 92.4471 68.7623 92.4512C73.6755 92.4619 78.5891 92.4784 83.5025 92.498C83.5137 93.7585 83.5237 95.0193 83.5308 96.2803V96.2812C83.5366 97.0747 83.5414 97.8681 83.5474 98.6855Z" fill="#663266" stroke="white"/>
<path d="M174.865 106.609C177.739 106.563 180.598 107.346 183.559 109.267C185.069 110.787 185.831 112.17 186.229 113.673C186.637 115.212 186.672 116.899 186.688 119.066C186.636 127.399 185.537 135.636 184.504 143.939L184.434 144.5H189.5V150.5H165.576C165.859 148.519 166.143 146.534 166.434 144.5H169.46L169.498 144.042C170.257 135.007 170.636 126.064 170.5 116.992L170.492 116.443L169.944 116.503L160.944 117.503L160.527 117.549L160.501 117.969C160.41 119.419 160.41 119.419 160.317 120.898C159.843 128.27 159.314 135.611 158.503 142.945L158.459 143.347L158.842 143.475L158.851 143.478C158.853 143.479 158.857 143.479 158.859 143.48L158.868 143.483C158.871 143.483 158.873 143.485 158.876 143.486L158.902 143.494C158.905 143.495 158.908 143.496 158.91 143.497L158.919 143.5C158.922 143.501 158.924 143.502 158.927 143.503L158.936 143.506C158.938 143.507 158.942 143.507 158.944 143.508L158.96 143.514L158.969 143.517C158.971 143.518 158.974 143.519 158.977 143.52C158.979 143.521 158.983 143.521 158.985 143.522L159.001 143.528L159.01 143.53C159.012 143.531 159.015 143.532 159.018 143.532L159.041 143.541C159.044 143.542 159.046 143.542 159.049 143.543L159.064 143.549C159.067 143.55 159.07 143.55 159.072 143.551L159.088 143.557C159.09 143.558 159.093 143.558 159.096 143.559L159.111 143.565C159.114 143.565 159.117 143.566 159.119 143.567C159.122 143.567 159.124 143.569 159.127 143.57C159.129 143.57 159.132 143.571 159.134 143.571C159.136 143.572 159.139 143.574 159.142 143.574C159.144 143.575 159.147 143.576 159.149 143.576C159.152 143.577 159.154 143.578 159.156 143.579C159.159 143.58 159.162 143.581 159.164 143.582C159.167 143.583 159.169 143.583 159.172 143.584C159.174 143.585 159.176 143.586 159.179 143.587C159.181 143.588 159.184 143.588 159.187 143.589C159.189 143.59 159.191 143.591 159.193 143.592C159.196 143.593 159.199 143.593 159.201 143.594C159.204 143.595 159.206 143.596 159.208 143.597C159.21 143.598 159.213 143.598 159.216 143.599C159.218 143.6 159.22 143.601 159.223 143.602C159.225 143.603 159.228 143.603 159.23 143.604C159.233 143.604 159.235 143.606 159.237 143.607C159.24 143.607 159.242 143.608 159.244 143.609C159.247 143.609 159.25 143.61 159.252 143.611C159.254 143.611 159.257 143.613 159.259 143.613C159.261 143.614 159.263 143.615 159.266 143.615C159.268 143.616 159.27 143.618 159.272 143.618C159.275 143.619 159.277 143.62 159.279 143.62C159.282 143.621 159.285 143.621 159.287 143.622C159.289 143.623 159.292 143.624 159.294 143.625C159.296 143.626 159.299 143.626 159.301 143.627C159.303 143.628 159.305 143.629 159.308 143.63L159.321 143.634C159.324 143.635 159.326 143.636 159.328 143.637L159.349 143.643C159.351 143.643 159.353 143.645 159.355 143.646L159.369 143.65C159.371 143.65 159.373 143.652 159.375 143.653L159.396 143.658C159.398 143.659 159.399 143.661 159.401 143.661L159.415 143.665L159.421 143.667C159.423 143.668 159.426 143.669 159.428 143.67C159.43 143.671 159.432 143.671 159.435 143.672L159.44 143.674C159.443 143.675 159.445 143.675 159.447 143.676L159.453 143.678C159.455 143.679 159.458 143.679 159.46 143.68C159.462 143.681 159.464 143.682 159.466 143.683C159.468 143.683 159.471 143.684 159.473 143.685L159.479 143.687C159.481 143.687 159.483 143.688 159.485 143.689L159.497 143.693C159.499 143.693 159.502 143.694 159.504 143.695C159.506 143.695 159.508 143.697 159.51 143.697L159.516 143.699C159.518 143.7 159.52 143.701 159.522 143.701L159.54 143.707C159.542 143.708 159.545 143.708 159.547 143.709L159.646 143.742C159.648 143.743 159.65 143.744 159.651 143.744L159.675 143.752C159.676 143.753 159.678 143.754 159.68 143.754L159.686 143.756C159.687 143.757 159.69 143.756 159.691 143.757C159.693 143.758 159.695 143.758 159.696 143.759L159.708 143.763C159.71 143.763 159.711 143.764 159.713 143.765L159.719 143.767C159.72 143.767 159.722 143.768 159.724 143.769L159.729 143.771C159.731 143.771 159.734 143.771 159.735 143.772C159.737 143.772 159.739 143.773 159.74 143.774L159.746 143.776C159.748 143.776 159.749 143.777 159.751 143.778L159.757 143.779C159.758 143.78 159.76 143.781 159.762 143.781C159.763 143.782 159.766 143.782 159.768 143.782L159.777 143.786L159.783 143.788C159.785 143.789 159.786 143.79 159.788 143.79C159.79 143.791 159.792 143.791 159.794 143.791L159.804 143.795L159.81 143.797C159.811 143.798 159.813 143.798 159.814 143.799C159.816 143.8 159.818 143.799 159.819 143.8L159.825 143.802L159.835 143.806C159.837 143.806 159.838 143.806 159.84 143.807L159.846 143.809C159.847 143.809 159.849 143.81 159.851 143.811C159.852 143.811 159.854 143.811 159.855 143.812L159.87 143.818C159.872 143.818 159.874 143.818 159.876 143.819L159.891 143.824C159.892 143.825 159.894 143.825 159.896 143.825L159.905 143.829C159.907 143.83 159.909 143.83 159.91 143.83L159.92 143.834C159.921 143.835 159.923 143.835 159.925 143.835L159.935 143.839C159.936 143.84 159.938 143.84 159.939 143.84L159.949 143.844C159.951 143.844 159.953 143.844 159.954 143.845L159.964 143.849C159.965 143.849 159.967 143.849 159.969 143.85C159.97 143.85 159.972 143.851 159.974 143.852C159.975 143.852 159.977 143.852 159.979 143.853L159.988 143.857C159.99 143.857 159.991 143.857 159.992 143.858L160.002 143.861C160.004 143.862 160.005 143.862 160.007 143.862C160.008 143.863 160.01 143.864 160.012 143.864C160.013 143.865 160.015 143.865 160.017 143.865C160.018 143.866 160.019 143.867 160.021 143.867C160.022 143.868 160.024 143.869 160.025 143.869C160.027 143.87 160.029 143.87 160.03 143.87C160.032 143.871 160.034 143.872 160.035 143.872C160.037 143.873 160.039 143.873 160.04 143.873C160.041 143.874 160.043 143.875 160.044 143.875C160.045 143.876 160.047 143.877 160.049 143.877C160.05 143.878 160.052 143.878 160.054 143.878C160.055 143.879 160.057 143.88 160.059 143.88C160.06 143.88 160.061 143.881 160.062 143.881C160.064 143.882 160.066 143.882 160.067 143.883C160.069 143.883 160.071 143.883 160.072 143.884C160.074 143.884 160.075 143.885 160.076 143.886C160.078 143.886 160.08 143.887 160.081 143.888C160.083 143.888 160.084 143.888 160.086 143.889C160.087 143.889 160.088 143.89 160.09 143.891C160.091 143.891 160.093 143.891 160.095 143.892C160.096 143.892 160.098 143.893 160.1 143.894C160.101 143.894 160.102 143.894 160.104 143.895C160.105 143.895 160.107 143.896 160.108 143.897C160.11 143.897 160.112 143.897 160.113 143.898C160.115 143.898 160.116 143.899 160.117 143.9C160.119 143.9 160.121 143.901 160.122 143.902C160.124 143.902 160.125 143.902 160.127 143.903C160.128 143.903 160.129 143.904 160.131 143.904C160.132 143.905 160.134 143.905 160.136 143.905C160.137 143.906 160.139 143.907 160.141 143.907C160.142 143.908 160.143 143.908 160.145 143.908C160.146 143.909 160.148 143.91 160.149 143.91C160.151 143.911 160.152 143.911 160.153 143.911C160.155 143.912 160.157 143.913 160.158 143.913C160.16 143.914 160.162 143.914 160.163 143.914C160.164 143.915 160.166 143.916 160.167 143.916C160.168 143.917 160.17 143.917 160.172 143.917C160.173 143.918 160.174 143.919 160.176 143.919C160.177 143.92 160.179 143.92 160.181 143.92C160.182 143.921 160.183 143.922 160.185 143.922C160.186 143.923 160.188 143.924 160.189 143.924C160.191 143.924 160.193 143.924 160.194 143.925C160.196 143.925 160.197 143.926 160.198 143.927C160.2 143.927 160.202 143.927 160.203 143.928C160.204 143.928 160.206 143.929 160.207 143.93C160.209 143.93 160.21 143.93 160.212 143.931C160.213 143.931 160.214 143.932 160.216 143.933C160.217 143.933 160.219 143.933 160.221 143.934C160.222 143.934 160.223 143.935 160.225 143.936C160.226 143.936 160.228 143.936 160.229 143.937C160.231 143.937 160.232 143.938 160.233 143.939C160.235 143.939 160.237 143.939 160.238 143.94C160.24 143.94 160.241 143.941 160.242 143.942C160.244 143.942 160.246 143.942 160.247 143.943C160.248 143.943 160.25 143.944 160.251 143.945C160.252 143.945 160.254 143.945 160.256 143.945C160.257 143.946 160.259 143.947 160.261 143.947C160.262 143.948 160.263 143.948 160.265 143.948C160.266 143.949 160.268 143.95 160.27 143.95C160.271 143.951 160.272 143.951 160.273 143.951C160.275 143.952 160.277 143.953 160.278 143.953C160.28 143.954 160.281 143.954 160.282 143.954C160.284 143.955 160.286 143.956 160.287 143.956C160.288 143.957 160.29 143.957 160.291 143.957C160.292 143.958 160.294 143.959 160.296 143.959C160.297 143.96 160.299 143.96 160.3 143.96C160.301 143.961 160.303 143.962 160.305 143.962C160.306 143.963 160.307 143.963 160.309 143.963C160.31 143.964 160.312 143.965 160.313 143.965C160.315 143.965 160.316 143.966 160.317 143.966C160.319 143.966 160.321 143.967 160.322 143.968C160.324 143.968 160.325 143.968 160.326 143.969C160.328 143.969 160.33 143.97 160.331 143.971C160.332 143.971 160.334 143.971 160.335 143.972C160.336 143.972 160.338 143.973 160.34 143.974C160.341 143.974 160.342 143.974 160.344 143.975C160.345 143.975 160.347 143.976 160.349 143.977C160.35 143.977 160.351 143.977 160.353 143.978C160.354 143.978 160.356 143.979 160.357 143.98C160.359 143.98 160.36 143.98 160.361 143.981C160.363 143.981 160.365 143.982 160.366 143.983C160.367 143.983 160.369 143.983 160.37 143.984C160.372 143.984 160.374 143.985 160.375 143.986C160.376 143.986 160.378 143.986 160.379 143.986C160.38 143.987 160.382 143.988 160.384 143.988C160.385 143.989 160.386 143.989 160.388 143.989C160.389 143.99 160.391 143.991 160.393 143.991C160.394 143.992 160.395 143.992 160.396 143.992C160.398 143.993 160.4 143.994 160.401 143.994C160.403 143.995 160.404 143.995 160.405 143.995C160.407 143.996 160.409 143.997 160.41 143.997C160.411 143.998 160.413 143.998 160.414 143.998C160.416 143.999 160.417 144 160.419 144C160.42 144.001 160.422 144.001 160.423 144.001C160.424 144.002 160.426 144.003 160.428 144.003C160.429 144.004 160.43 144.004 160.432 144.004C160.433 144.005 160.435 144.006 160.437 144.006C160.438 144.007 160.44 144.007 160.441 144.007C160.443 144.007 160.444 144.009 160.445 144.009C160.447 144.009 160.449 144.009 160.45 144.01C160.452 144.01 160.453 144.011 160.454 144.012C160.456 144.012 160.457 144.012 160.459 144.013C160.46 144.013 160.462 144.014 160.463 144.015C160.464 144.015 160.466 144.015 160.468 144.016C160.469 144.016 160.471 144.017 160.473 144.018C160.474 144.018 160.475 144.019 160.477 144.02C160.478 144.02 160.48 144.02 160.481 144.021C160.483 144.021 160.484 144.022 160.485 144.023C160.487 144.023 160.489 144.023 160.49 144.024C160.492 144.024 160.493 144.025 160.494 144.026C160.496 144.026 160.498 144.026 160.499 144.027C160.501 144.027 160.502 144.028 160.504 144.028C160.505 144.029 160.507 144.029 160.508 144.029C160.509 144.03 160.511 144.031 160.513 144.031C160.514 144.032 160.516 144.032 160.518 144.032C160.519 144.033 160.52 144.034 160.521 144.034C160.523 144.035 160.525 144.035 160.526 144.035C160.528 144.036 160.53 144.037 160.531 144.037C160.533 144.038 160.534 144.039 160.535 144.039C160.537 144.04 160.539 144.04 160.54 144.04C160.542 144.041 160.543 144.042 160.545 144.042C160.546 144.043 160.548 144.043 160.549 144.043C160.55 144.044 160.552 144.045 160.554 144.045C160.555 144.046 160.557 144.046 160.559 144.046C160.56 144.047 160.561 144.048 160.562 144.048C160.564 144.049 160.566 144.049 160.567 144.05C160.569 144.05 160.571 144.05 160.572 144.051C160.574 144.051 160.575 144.052 160.576 144.053C160.578 144.053 160.58 144.053 160.581 144.054C160.583 144.054 160.584 144.055 160.586 144.056C160.587 144.056 160.589 144.056 160.591 144.057C160.592 144.057 160.593 144.058 160.595 144.059C160.596 144.059 160.598 144.06 160.6 144.061C160.601 144.061 160.603 144.061 160.604 144.062C160.606 144.062 160.608 144.063 160.609 144.064C160.611 144.064 160.612 144.064 160.613 144.065L160.623 144.069C160.625 144.069 160.626 144.069 160.628 144.07C160.629 144.07 160.631 144.071 160.633 144.071C160.634 144.072 160.636 144.072 160.638 144.072C160.639 144.073 160.64 144.074 160.642 144.074C160.643 144.075 160.645 144.076 160.646 144.076C160.648 144.077 160.65 144.077 160.651 144.077C160.653 144.078 160.655 144.079 160.656 144.079C160.658 144.08 160.66 144.08 160.661 144.08L160.671 144.084C160.672 144.085 160.674 144.085 160.676 144.085L160.686 144.089C160.687 144.089 160.688 144.09 160.689 144.09L160.699 144.094C160.701 144.094 160.703 144.094 160.704 144.095L160.714 144.099C160.715 144.099 160.717 144.099 160.719 144.1L160.729 144.104C160.73 144.104 160.733 144.104 160.734 144.105L160.744 144.109C160.746 144.109 160.747 144.109 160.749 144.11L160.764 144.115C160.765 144.116 160.767 144.116 160.769 144.116C160.77 144.117 160.772 144.118 160.773 144.118L160.779 144.12C160.781 144.121 160.783 144.121 160.784 144.121L160.799 144.127C160.801 144.128 160.803 144.128 160.805 144.128L160.814 144.132L160.82 144.134C160.822 144.134 160.824 144.134 160.825 144.135L160.835 144.139L160.841 144.141C160.842 144.141 160.844 144.142 160.846 144.143C160.847 144.143 160.85 144.143 160.852 144.144L160.861 144.148L160.867 144.15C160.869 144.15 160.87 144.151 160.872 144.152C160.874 144.152 160.876 144.152 160.878 144.153C160.88 144.153 160.881 144.154 160.883 144.154L160.889 144.156C160.89 144.157 160.892 144.158 160.894 144.158L160.899 144.16C160.901 144.161 160.903 144.162 160.904 144.162C160.906 144.163 160.908 144.163 160.91 144.163C160.912 144.164 160.913 144.165 160.915 144.165L160.927 144.169C160.928 144.17 160.93 144.171 160.932 144.171L160.938 144.173C160.939 144.174 160.941 144.174 160.942 144.175L160.948 144.177C160.95 144.178 160.952 144.177 160.954 144.178L160.96 144.18C160.962 144.18 160.963 144.181 160.965 144.182L160.982 144.188C160.984 144.188 160.986 144.189 160.987 144.19L161.093 144.225C161.095 144.225 161.098 144.226 161.1 144.227L161.117 144.233C161.119 144.233 161.122 144.234 161.124 144.235L161.13 144.236C161.132 144.237 161.134 144.239 161.136 144.239L161.142 144.241C161.144 144.242 161.146 144.243 161.148 144.243L161.154 144.245C161.156 144.246 161.159 144.247 161.161 144.247L161.167 144.249C161.169 144.25 161.172 144.25 161.174 144.251C161.176 144.252 161.178 144.253 161.18 144.254C161.182 144.255 161.184 144.255 161.187 144.256L161.192 144.258C161.195 144.259 161.197 144.259 161.199 144.26L161.205 144.262C161.207 144.263 161.21 144.263 161.212 144.264C161.214 144.265 161.216 144.266 161.218 144.267L161.231 144.271L161.237 144.273C161.239 144.273 161.242 144.275 161.244 144.276L161.265 144.281C161.267 144.282 161.268 144.284 161.271 144.284L161.284 144.288C161.286 144.289 161.289 144.29 161.291 144.291L161.312 144.297C161.314 144.298 161.316 144.299 161.318 144.3C161.321 144.301 161.323 144.301 161.325 144.302C161.327 144.303 161.33 144.304 161.332 144.305L161.346 144.309C161.348 144.31 161.35 144.311 161.353 144.312C161.355 144.312 161.357 144.313 161.359 144.314C161.362 144.314 161.365 144.315 161.367 144.316C161.369 144.316 161.372 144.318 161.374 144.319C161.376 144.319 161.379 144.32 161.381 144.32C161.383 144.321 161.385 144.323 161.388 144.323C161.39 144.324 161.393 144.325 161.396 144.325C161.398 144.326 161.4 144.328 161.402 144.328C161.405 144.329 161.407 144.329 161.409 144.33C161.412 144.331 161.415 144.331 161.417 144.332C161.419 144.333 161.421 144.334 161.424 144.335C161.426 144.336 161.429 144.336 161.432 144.337C161.434 144.338 161.436 144.339 161.438 144.34C161.441 144.341 161.443 144.34 161.445 144.341C161.155 146.375 160.865 148.412 160.566 150.5H137.5V144.5H143.472L143.499 144.029C143.548 143.194 143.597 142.358 143.647 141.497C144.218 132.616 145.224 123.886 146.495 115.071L146.577 114.5H140.576C140.859 112.519 141.143 110.534 141.434 108.5H161.691L161.706 108.529C161.707 108.531 161.706 108.532 161.707 108.533L161.715 108.549C161.715 108.55 161.716 108.551 161.717 108.552L161.771 108.661C161.772 108.662 161.773 108.663 161.773 108.664L161.818 108.754C161.819 108.755 161.819 108.757 161.819 108.758L161.829 108.778C161.83 108.779 161.831 108.779 161.831 108.78L161.899 108.917C161.9 108.918 161.901 108.919 161.901 108.92L161.972 109.061C161.972 109.062 161.972 109.063 161.973 109.065L161.992 109.104C161.993 109.105 161.994 109.106 161.994 109.107L162.248 109.614C162.249 109.616 162.249 109.618 162.25 109.619L162.268 109.654C162.268 109.656 162.27 109.657 162.271 109.658L162.325 109.768C162.326 109.769 162.326 109.771 162.327 109.773L162.378 109.874C162.379 109.876 162.379 109.878 162.38 109.879L162.388 109.895C162.388 109.896 162.39 109.897 162.391 109.899L162.422 109.961C162.423 109.962 162.423 109.965 162.424 109.966L162.457 110.032C162.458 110.034 162.458 110.036 162.459 110.037L162.463 110.045C162.464 110.046 162.465 110.048 162.466 110.049L162.489 110.096C162.49 110.097 162.491 110.099 162.491 110.101L162.517 110.152C162.517 110.153 162.518 110.155 162.519 110.156L162.522 110.164C162.523 110.166 162.525 110.167 162.525 110.168L162.545 110.207C162.546 110.209 162.546 110.211 162.547 110.212L162.553 110.224L162.782 110.684L163.235 110.441C164.116 109.969 164.997 109.498 165.904 109.013C169.022 107.542 171.969 106.655 174.865 106.609Z" fill="#663366" stroke="white"/>
<path d="M98.7901 108.433C107.266 105.01 118.268 105.779 125.662 111.372C128.276 114.242 129.815 116.941 130.697 119.868C131.585 122.81 131.818 126.009 131.781 129.894C131.165 136.583 127.838 141.274 122.688 145.607C118.921 148.258 115.575 149.938 112.03 150.854C108.485 151.771 104.711 151.931 100.078 151.504C93.9136 150.035 89.3275 147.625 85.5333 142.56C81.9448 136.641 82.1422 130.835 83.4815 124.141C85.0328 120.12 86.9438 117.079 89.4083 114.607C91.8806 112.128 94.9314 110.198 98.7901 108.433ZM108.982 113.007C107.063 113.32 105.819 113.74 104.74 114.487C103.682 115.221 102.813 116.25 101.616 117.679L101.569 117.735L101.54 117.804C98.289 125.398 97.0962 134.156 99.3946 142.2L99.4054 142.238L99.422 142.274C99.893 143.282 100.179 143.915 100.656 144.363C101.134 144.812 101.783 145.058 102.817 145.465L102.864 145.484L102.915 145.493C104.357 145.741 105.134 145.875 105.937 145.875C106.736 145.875 107.554 145.741 109.08 145.493L109.232 145.469L109.343 145.363C113.927 141.034 115.336 136.171 115.799 130.093L115.801 130.076V130.06C115.815 128.669 115.819 127.278 115.813 125.887L115.861 123.758V123.747C115.864 120.557 115.684 118.212 114.104 115.301L114.074 115.247L114.033 115.202L113.483 114.603C112.974 114.064 112.568 113.698 112.049 113.468C111.375 113.169 110.531 113.112 109.101 113.002L109.041 112.997L108.982 113.007Z" fill="#663366" stroke="white"/>
<path d="M259.566 107.365C260.802 107.434 261.289 107.471 261.729 107.683C262.161 107.891 262.567 108.278 263.474 109.182C263.146 111.91 263.117 112.098 262.596 114.5H258.359L258.515 115.122C258.517 115.132 258.52 115.142 258.522 115.152L258.538 115.214C258.541 115.224 258.543 115.235 258.546 115.245L258.562 115.307C258.564 115.317 258.567 115.327 258.569 115.337L258.585 115.4C258.587 115.41 258.589 115.42 258.592 115.43L258.615 115.524C258.618 115.534 258.621 115.544 258.623 115.554L258.639 115.617C258.641 115.627 258.644 115.637 258.646 115.647L258.662 115.709C258.665 115.72 258.667 115.73 258.67 115.74L258.686 115.802C258.688 115.812 258.69 115.822 258.692 115.833L258.708 115.895C258.711 115.905 258.713 115.915 258.716 115.925L258.731 115.988C258.734 115.998 258.737 116.008 258.739 116.018L258.755 116.081C258.757 116.091 258.76 116.101 258.763 116.111L258.786 116.205C258.789 116.215 258.79 116.225 258.793 116.235L258.809 116.297C258.811 116.307 258.814 116.318 258.816 116.328L258.832 116.39C258.835 116.4 258.837 116.41 258.84 116.42L258.855 116.483C258.858 116.493 258.861 116.503 258.863 116.513L258.879 116.576C258.881 116.586 258.883 116.596 258.886 116.606L258.909 116.7C258.912 116.71 258.914 116.72 258.917 116.73L258.933 116.792C258.935 116.803 258.938 116.813 258.94 116.823L258.956 116.885C258.959 116.895 258.961 116.905 258.964 116.916L258.979 116.978C258.982 116.988 258.984 116.998 258.986 117.008L259.01 117.102C259.012 117.112 259.015 117.122 259.018 117.132L259.033 117.195C259.036 117.205 259.038 117.215 259.041 117.225L259.057 117.288C259.059 117.298 259.062 117.308 259.064 117.318L259.08 117.38C259.083 117.39 259.084 117.401 259.087 117.411L259.11 117.504C259.113 117.515 259.116 117.525 259.118 117.535L259.134 117.597C259.136 117.607 259.139 117.617 259.142 117.627L259.165 117.721C259.168 117.731 259.17 117.741 259.173 117.751L259.188 117.814C259.191 117.824 259.193 117.834 259.195 117.844L259.211 117.907C259.213 117.917 259.216 117.927 259.219 117.937L259.242 118.031C259.245 118.041 259.247 118.051 259.25 118.061L259.266 118.124C259.268 118.134 259.271 118.144 259.273 118.154L259.297 118.248C259.299 118.258 259.301 118.268 259.304 118.278L259.319 118.34C259.322 118.35 259.325 118.36 259.327 118.371L259.351 118.464C259.353 118.474 259.356 118.485 259.358 118.495L259.382 118.588C259.384 118.598 259.387 118.609 259.39 118.619L259.405 118.681C259.408 118.691 259.41 118.701 259.412 118.711L259.436 118.805C259.438 118.815 259.441 118.825 259.443 118.835L259.467 118.929C259.469 118.939 259.472 118.949 259.475 118.959L259.498 119.053C259.501 119.063 259.503 119.073 259.506 119.083L259.521 119.146C259.524 119.156 259.526 119.167 259.528 119.177C259.531 119.187 259.534 119.197 259.536 119.208L259.552 119.27C259.554 119.28 259.557 119.29 259.56 119.3L259.583 119.394C259.586 119.404 259.588 119.414 259.591 119.424L259.614 119.518C259.617 119.528 259.62 119.538 259.622 119.548L259.646 119.642C259.648 119.652 259.65 119.663 259.652 119.673C259.655 119.683 259.658 119.694 259.66 119.704L259.684 119.797C259.686 119.807 259.689 119.818 259.691 119.828L259.715 119.921C259.717 119.931 259.72 119.942 259.723 119.952L259.746 120.045C259.749 120.056 259.751 120.066 259.754 120.076L259.785 120.201C259.788 120.211 259.789 120.221 259.792 120.231L259.815 120.325C259.818 120.335 259.821 120.345 259.823 120.355L259.854 120.48C259.857 120.49 259.86 120.5 259.862 120.51L259.894 120.635C259.896 120.645 259.899 120.655 259.901 120.666L259.933 120.791C259.935 120.801 259.937 120.811 259.939 120.821L259.971 120.946C259.973 120.956 259.976 120.966 259.979 120.976L260.018 121.132C260.02 121.142 260.023 121.152 260.025 121.163L260.057 121.288C260.059 121.298 260.062 121.308 260.064 121.318L260.104 121.474C260.106 121.484 260.108 121.494 260.11 121.504L260.149 121.661C260.152 121.671 260.155 121.681 260.157 121.691L260.204 121.878C260.207 121.889 260.209 121.899 260.212 121.909L260.259 122.096C260.261 122.106 260.264 122.116 260.267 122.126L260.321 122.345C260.324 122.355 260.326 122.365 260.328 122.375L260.391 122.625C260.393 122.636 260.396 122.646 260.398 122.656L260.469 122.937C260.471 122.947 260.474 122.957 260.477 122.967L260.578 123.374C260.581 123.384 260.583 123.394 260.586 123.404L261.023 125.154C261.026 125.164 261.029 125.176 261.031 125.186L261.125 125.561C261.128 125.571 261.13 125.583 261.133 125.593L261.195 125.843C261.198 125.854 261.201 125.865 261.203 125.875L261.258 126.094C261.26 126.105 261.264 126.116 261.267 126.126L261.313 126.314C261.316 126.324 261.319 126.336 261.321 126.346L261.36 126.502C261.363 126.513 261.366 126.524 261.368 126.535L261.407 126.691C261.41 126.701 261.412 126.713 261.415 126.723L261.446 126.848C261.449 126.859 261.452 126.87 261.455 126.88L261.486 127.005C261.489 127.016 261.492 127.027 261.494 127.038L261.518 127.131C261.52 127.142 261.523 127.153 261.525 127.164L261.549 127.257C261.551 127.268 261.554 127.279 261.557 127.29L261.58 127.383C261.583 127.394 261.585 127.405 261.588 127.416C261.59 127.426 261.594 127.436 261.597 127.447L261.612 127.509C261.615 127.52 261.617 127.531 261.62 127.542L261.644 127.635C261.646 127.646 261.649 127.657 261.651 127.667L261.675 127.761C261.677 127.772 261.68 127.783 261.683 127.793L261.698 127.856C261.701 127.866 261.704 127.878 261.707 127.888L261.723 127.951C261.725 127.961 261.728 127.972 261.73 127.983L261.754 128.077C261.757 128.087 261.759 128.098 261.762 128.109L261.777 128.171C261.78 128.182 261.783 128.193 261.785 128.204L261.801 128.266C261.803 128.277 261.807 128.288 261.81 128.298L261.825 128.361C261.828 128.371 261.83 128.383 261.833 128.393L261.849 128.456C261.851 128.466 261.854 128.477 261.856 128.488L261.872 128.55C261.875 128.561 261.877 128.572 261.88 128.583L261.888 128.614C261.89 128.624 261.894 128.635 261.896 128.646L261.912 128.708C261.915 128.719 261.917 128.73 261.92 128.741L261.936 128.803C261.938 128.814 261.941 128.825 261.943 128.835L261.951 128.867C261.954 128.877 261.956 128.888 261.959 128.899L261.975 128.961C261.977 128.972 261.981 128.983 261.983 128.994L261.991 129.025C261.994 129.035 261.996 129.047 261.999 129.057L262.015 129.12C262.017 129.13 262.02 129.141 262.022 129.152L262.03 129.183C262.033 129.194 262.035 129.205 262.038 129.215L262.046 129.247C262.049 129.257 262.052 129.268 262.055 129.279L262.062 129.31C262.065 129.321 262.068 129.332 262.07 129.342L262.086 129.405C262.089 129.415 262.091 129.426 262.094 129.437L262.102 129.468C262.104 129.479 262.107 129.49 262.109 129.5L262.117 129.532C262.12 129.542 262.123 129.553 262.126 129.564L262.134 129.595C262.136 129.606 262.139 129.617 262.142 129.627L262.149 129.659C262.152 129.669 262.155 129.68 262.157 129.691L262.165 129.722C262.168 129.733 262.17 129.744 262.173 129.754L262.181 129.786C262.183 129.796 262.186 129.807 262.188 129.818C262.191 129.828 262.195 129.839 262.197 129.849L262.205 129.88L262.221 129.945L262.229 129.976C262.231 129.987 262.234 129.998 262.236 130.008L262.244 130.04C262.247 130.05 262.25 130.061 262.253 130.072L262.261 130.103C262.263 130.114 262.266 130.125 262.269 130.135L262.276 130.167C262.279 130.177 262.282 130.188 262.284 130.199L262.292 130.23C262.295 130.241 262.297 130.252 262.3 130.262L262.308 130.293C262.31 130.304 262.314 130.315 262.316 130.326L262.324 130.357C262.327 130.368 262.329 130.379 262.332 130.389L262.34 130.42L262.355 130.485L262.363 130.516C262.366 130.527 262.369 130.538 262.372 130.548L262.38 130.58C262.383 130.59 262.385 130.601 262.388 130.612L262.396 130.643L262.411 130.708L262.419 130.739C262.422 130.749 262.425 130.76 262.428 130.771L262.436 130.802L262.451 130.867L262.459 130.898L262.475 130.962C262.477 130.973 262.481 130.983 262.483 130.994C262.486 131.004 262.489 131.015 262.491 131.026L262.499 131.057L262.515 131.122L262.819 132.34L263.436 131.246L272.436 115.246L272.854 114.5H269.5V108.5H285.5V113.79C285.093 114.192 284.935 114.322 284.662 114.404C284.494 114.454 284.267 114.489 283.902 114.512C283.541 114.536 283.076 114.546 282.438 114.562C281.637 114.541 280.837 114.522 280.013 114.5L279.636 114.491L279.522 114.85C279.249 115.723 278.975 116.595 278.693 117.494C277.622 120.565 276.382 123.333 274.902 126.238L274.901 126.239C274.377 127.275 273.853 128.312 273.313 129.38C272.754 130.479 272.194 131.578 271.617 132.71L271.616 132.712C265.774 144.278 260.119 155.92 254.579 167.631C253.638 169.597 252.667 171.548 251.69 173.5H238.742C240.047 170.288 241.207 167.819 243.059 164.905L243.062 164.898C243.556 164.094 244.051 163.289 244.56 162.46C245.075 161.627 245.595 160.795 246.118 159.965L247.696 157.483L247.703 157.472C249.054 155.244 250.209 153.282 250.868 151.189C251.534 149.076 251.69 146.846 251.09 144.072L251.087 144.057L251.083 144.043C250.885 143.325 250.686 142.607 250.481 141.867C250.263 140.976 250.045 140.084 249.82 139.167L249.819 139.164L249.238 136.896C248.846 135.386 248.444 133.879 248.036 132.375L247.42 130.118C246.862 128.083 246.308 126.047 245.76 124.01V124.008L245.021 121.325C244.754 120.104 244.629 119.528 244.565 118.763C244.501 117.984 244.5 117.011 244.5 115V114.5H238.5V108.473C242.299 108.259 246.099 108.064 249.9 107.875H249.903L253.321 107.679L253.32 107.678C254.395 107.627 255.471 107.576 256.578 107.523H256.581C257.566 107.471 258.552 107.418 259.566 107.365Z" fill="#653265" stroke="white"/>
<path d="M302.119 107.712C304.708 107.146 307.461 107.113 310.918 107.25H310.927L313.577 107.304C315.552 107.347 317.528 107.413 319.505 107.483C319.529 109.469 319.548 111.455 319.562 113.441V113.442C319.574 114.63 319.586 115.818 319.598 117.042C319.548 118.549 319.522 119.205 319.405 119.624C319.318 119.937 319.186 120.098 318.785 120.503C317.317 120.537 315.848 120.539 314.381 120.507C314.137 119.643 314.103 119.522 313.794 118.426L313.788 118.406L313.78 118.385L313.422 117.454C313.312 117.177 313.209 116.933 313.107 116.72C312.902 116.289 312.682 115.941 312.375 115.664C312.066 115.385 311.703 115.209 311.265 115.064C310.834 114.921 310.292 114.796 309.613 114.638L309.59 114.632L309.565 114.629L308.741 114.523C307.995 114.433 307.464 114.399 306.968 114.496C306.298 114.626 305.712 114.988 304.742 115.572L304.491 115.723L304.5 116.015C304.528 116.925 304.542 117.448 304.683 118.011C304.82 118.562 305.079 119.146 305.542 120.201L305.589 120.306L305.676 120.381C307.64 122.051 309.537 123.515 311.65 124.971V124.972C314.856 127.218 317.362 128.985 319.521 132.187C320.15 136.448 320.431 140.846 318.659 144.685C315.968 148.103 312.927 149.949 308.882 151.508C305.139 151.853 301.428 151.783 297.638 151.688L297.632 151.687L294.534 151.646C292.188 151.613 289.842 151.567 287.496 151.51C287.485 150.247 287.476 148.984 287.469 147.72V147.719L287.451 145.327C287.507 142.665 287.886 140.122 288.411 137.5H293.643C293.934 138.351 293.973 138.465 294.34 139.537L294.342 139.543C294.847 140.96 295.137 141.8 295.742 142.468C296.337 143.125 297.221 143.599 298.761 144.439L298.9 144.515L299.059 144.497C300.374 144.342 301.059 144.261 301.708 144.131C302.359 144.001 302.971 143.822 304.141 143.48L304.544 143.362L304.497 142.944C304.247 140.742 303.53 139.202 302.455 137.875C301.401 136.574 299.999 135.479 298.445 134.179H298.446C293.909 130.376 290.84 127.448 290.066 121.62C290.573 117.468 291.523 114.412 294.333 111.376C297.125 109.363 299.554 108.274 302.119 107.712Z" fill="#663366" stroke="white"/>
<path d="M221.502 107.962L221.46 108.5H232.424C232.141 110.481 231.857 112.466 231.566 114.5H220.54L220.502 114.958C219.743 123.993 219.364 132.936 219.5 142.008L219.508 142.5H228.576C228.865 144.234 229.154 145.972 229.451 147.753C223.751 151.323 218.873 152.145 212.108 151.507C209.752 150.673 208.147 149.843 206.861 148.695C205.579 147.551 204.581 146.062 203.486 143.854C202.268 134.428 204.133 124.542 205.495 115.071L205.577 114.5H199.493C199.461 112.404 199.462 110.308 199.497 108.212C199.9 107.814 200.062 107.685 200.385 107.601C200.819 107.487 201.502 107.469 203.062 107.438C204.506 107.468 204.509 107.469 205.989 107.5L206.397 107.509L206.487 107.11C206.691 106.206 206.895 105.302 207.104 104.371C207.951 102.397 208.74 101.293 209.762 100.458C210.813 99.5994 212.135 99.0002 214.146 98.0791V98.0801L214.151 98.0771C215.205 97.5777 216.259 97.0778 217.345 96.5635C218.777 96.0094 219.438 95.7558 220.111 95.6289C220.7 95.518 221.306 95.5031 222.46 95.501C222.144 99.6114 221.828 103.727 221.502 107.962Z" fill="#663266" stroke="white"/>
</g>
<defs>
<clipPath id="clip0_28_64">
<rect width="320" height="174" fill="white"/>
</clipPath>
</defs>
</svg>
