<svg width="160" height="160" viewBox="0 0 160 160" fill="none" xmlns="http://www.w3.org/2000/svg">
<path d="M149.75 89.04L141.9 65.5L126.38 18.8C126.196 18.2712 125.851 17.8133 125.394 17.4905C124.937 17.1676 124.39 16.9961 123.83 17C123.272 16.9982 122.727 17.1707 122.272 17.4934C121.817 17.8161 121.473 18.2729 121.29 18.8L105.77 65.47H54.22L38.7 18.79C38.5164 18.2639 38.1727 17.8084 37.7172 17.4874C37.2617 17.1664 36.7172 16.996 36.16 17C35.6016 16.9967 35.0562 17.1686 34.6005 17.4915C34.1449 17.8144 33.802 18.272 33.62 18.8L18.12 65.47L10.28 89.04C9.93303 90.0902 9.93336 91.2242 10.281 92.2741C10.6285 93.3241 11.3049 94.2343 12.21 94.87L80.01 142.99L147.79 94.87C148.699 94.2373 149.381 93.3289 149.734 92.2789C150.087 91.229 150.092 90.0934 149.75 89.04Z" fill="#FC6D26"/>
<path d="M80 142.96L105.78 65.46H54.23L80 142.96Z" fill="#E24329"/>
<path d="M80 142.96L54.21 65.46H18.13L80 142.96Z" fill="#FC6D26"/>
<path d="M18.1 65.49L10.26 89.03C9.91303 90.0802 9.91336 91.2142 10.261 92.2641C10.6085 93.3141 11.2849 94.2243 12.19 94.86L80 143L18.1 65.5V65.49Z" fill="#FCA326"/>
<path d="M18.12 65.49H54.24L38.7 18.82C38.5168 18.2929 38.1735 17.8361 37.7182 17.5134C37.2628 17.1907 36.7181 17.0182 36.16 17.02C35.6002 17.0161 35.0533 17.1876 34.5959 17.5105C34.1386 17.8333 33.7938 18.2912 33.61 18.82L18.12 65.49Z" fill="#E24329"/>
<path d="M80 142.96L105.78 65.46H141.92L80 142.96Z" fill="#FC6D26"/>
<path d="M141.9 65.49L149.73 89.03C150.079 90.08 150.079 91.2146 149.731 92.2649C149.384 93.3153 148.706 94.2254 147.8 94.86L80 142.96L141.88 65.49H141.9Z" fill="#FCA326"/>
<path d="M141.9 65.49H105.8L121.31 18.82C121.492 18.2904 121.837 17.8316 122.295 17.5086C122.752 17.1855 123.3 17.0146 123.86 17.02C125.01 17.02 126.03 17.75 126.4 18.82L141.92 65.49H141.9Z" fill="#E24329"/>
</svg>
