<svg width="800" height="800" viewBox="0 0 800 800" fill="none" xmlns="http://www.w3.org/2000/svg">
<path d="M725 587.5C725 594.5 719.5 600 712.5 600H700V612.5C700 619.5 694.5 625 687.5 625C680.5 625 675 619.5 675 612.5V600H662.5C655.5 600 650 594.5 650 587.5C650 580.5 655.5 575 662.5 575H675V562.5C675 555.5 680.5 550 687.5 550C694.5 550 700 555.5 700 562.5V575H712.5C719.5 575 725 580.5 725 587.5Z" fill="#31CFFF"/>
<path d="M200 612.5C200 619.5 194.5 625 187.5 625H150V662.5C150 669.5 144.5 675 137.5 675C130.5 675 125 669.5 125 662.5V625H87.5C80.5 625 75 619.5 75 612.5C75 605.5 80.5 600 87.5 600H125V562.5C125 555.5 130.5 550 137.5 550C144.5 550 150 555.5 150 562.5V600H187.5C194.5 600 200 605.5 200 612.5Z" fill="#5FFFBA"/>
<path d="M750 137.5C750 144.5 744.5 150 737.5 150H700V187.5C700 194.5 694.5 200 687.5 200C680.5 200 675 194.5 675 187.5V150H637.5C630.5 150 625 144.5 625 137.5C625 130.5 630.5 125 637.5 125H675V87.5C675 80.5 680.5 75 687.5 75C694.5 75 700 80.5 700 87.5V125H737.5C744.5 125 750 130.5 750 137.5Z" fill="#5FFFBA"/>
<path d="M175 137.5C175 144.5 169.5 150 162.5 150H150V162.5C150 169.5 144.5 175 137.5 175C130.5 175 125 169.5 125 162.5V150H112.5C105.5 150 100 144.5 100 137.5C100 130.5 105.5 125 112.5 125H125V112.5C125 105.5 130.5 100 137.5 100C144.5 100 150 105.5 150 112.5V125H162.5C169.5 125 175 130.5 175 137.5Z" fill="#31CFFF"/>
<path d="M574 268.25C573.5 262.25 572.5 256.25 571.25 250.5C571.25 250.25 571.25 250.25 571.25 250C560.75 196.75 527.25 151.5 481.75 125C478.25 122.75 474.525 121 470.775 119.25C465.025 116.25 459.275 113.75 453.275 111.5C445.025 108.5 436.525 105.75 427.775 104C422.775 102.75 417.775 102 412.75 101.25H412.5C320.75 113.5 250 192 250 287C250 321.25 259 353.25 275 380.75C291.25 409 322.75 456 350 495.75V347.75C346 349 342 350 337.5 350C316.75 350 300 333.25 300 312.5C300 291.75 316.75 275 337.5 275C358.25 275 375 291.75 375 312.5V525H400V312.5C400 291.75 416.75 275 437.5 275C454.5 275 468.75 286.25 473.25 301.75C488.75 306.25 500 320.5 500 337.5C500 358.25 483.25 375 462.5 375C458 375 454 374.25 450 372.75V525H454.75C473.75 497.75 498.5 461.5 519.5 429.5C522 426 524.225 422.5 526.25 419C535.75 404.5 544 391.25 550 380.75C566 353.25 575 321.25 575 287C575 280.5 574.75 274.5 574 268.25Z" fill="#FFD561"/>
<path d="M550.75 150H515C537.275 170.25 554.25 196 564.275 225H591C582.75 197.25 569 171.75 550.75 150Z" fill="#2D2220"/>
<path d="M450 550C450 550 450 560.25 450 575H375C375 560.25 375 550 375 550H450Z" fill="#BCBCBC"/>
<path d="M450 600H375V625H450V600Z" fill="#BCBCBC"/>
<path d="M375 650H450V673.75C450 691.5 431 708.5 412.5 717.75C394 708.5 375 691.5 375 673.75V650Z" fill="#BCBCBC"/>
<path d="M700 562.5C700 569.5 694.5 575 687.5 575H675V587.5C675 594.5 669.5 600 662.5 600C655.5 600 650 594.5 650 587.5V575H637.5C630.5 575 625 569.5 625 562.5C625 555.5 630.5 550 637.5 550H650V537.5C650 530.5 655.5 525 662.5 525C669.5 525 675 530.5 675 537.5V550H687.5C694.5 550 700 555.5 700 562.5Z" fill="#2D2220"/>
<path d="M175 587.5C175 594.5 169.5 600 162.5 600H125V637.5C125 644.5 119.5 650 112.5 650C105.5 650 100 644.5 100 637.5V600H62.5C55.5 600 50 594.5 50 587.5C50 580.5 55.5 575 62.5 575H100V537.5C100 530.5 105.5 525 112.5 525C119.5 525 125 530.5 125 537.5V575H162.5C169.5 575 175 580.5 175 587.5Z" fill="#2D2220"/>
<path d="M725 112.5C725 119.5 719.5 125 712.5 125H675V162.5C675 169.5 669.5 175 662.5 175C655.5 175 650 169.5 650 162.5V125H612.5C605.5 125 600 119.5 600 112.5C600 105.5 605.5 100 612.5 100H650V62.5C650 55.5 655.5 50 662.5 50C669.5 50 675 55.5 675 62.5V100H712.5C719.5 100 725 105.5 725 112.5Z" fill="#2D2220"/>
<path d="M150 112.5C150 119.5 144.5 125 137.5 125H125V137.5C125 144.5 119.5 150 112.5 150C105.5 150 100 144.5 100 137.5V125H87.5C80.5 125 75 119.5 75 112.5C75 105.5 80.5 100 87.5 100H100V87.5C100 80.5 105.5 75 112.5 75C119.5 75 125 80.5 125 87.5V100H137.5C144.5 100 150 105.5 150 112.5Z" fill="#2D2220"/>
<path d="M571.75 392C589.75 360.75 600 324.5 600 286C600 273.75 599 261.75 597 250H571.25C573.75 262 575 274.25 575 287C575 321.25 566 353.25 550 380.75C529.5 416.25 484.75 481.75 454.75 525H425V347.75C429 349 433 350 437.5 350C458.25 350 475 333.25 475 312.5C475 291.75 458.25 275 437.5 275C416.75 275 400 291.75 400 312.5V525H375V312.5C375 291.75 358.25 275 337.5 275C316.75 275 300 291.75 300 312.5C300 333.25 316.75 350 337.5 350C342 350 346 349 350 347.75V525H320.25C290.25 481.75 245.5 416.25 225 380.75C209 353.25 200 321.25 200 287C200 183.5 284 99.5 387.5 99.5C421.75 99.5 453.75 108.75 481.25 125H526C488.75 92.75 440.25 73.5 387.5 73.5C270.25 73.5 175 168.75 175 286C175 324.5 185.25 360.75 203.25 392C224.25 428 266.75 492.5 300 541.75V575H287.5C280.5 575 275 580.5 275 587.5C275 594.5 280.5 600 287.5 600H300V625H287.5C280.5 625 275 630.5 275 637.5C275 644.5 280.5 650 287.5 650H300V673.75C300 712.5 357.25 750 387.5 750C417.75 750 475 712.5 475 673.75V650H487.5C494.5 650 500 644.5 500 637.5C500 630.5 494.5 625 487.5 625H475V600H487.5C494.5 600 500 594.5 500 587.5C500 580.5 494.5 575 487.5 575H475V541.75C508.25 492.5 550.75 428 571.75 392ZM437.5 299.75C444.25 299.75 449.75 305.5 449.75 312.25C449.75 319.25 444.225 324.75 437.5 324.75C430.775 324.75 425.25 319.25 425.25 312.25C425.25 305.5 430.75 299.75 437.5 299.75ZM337.5 325C330.75 325 325.25 319.25 325.25 312.5C325.25 305.5 330.75 300 337.5 300C344.25 300 349.75 305.5 349.75 312.5C349.75 319.25 344.25 325 337.5 325ZM450 673.75C450 691.5 431 708.5 412.5 717.75C403.5 722.25 394.5 725 387.5 725C366.75 725 325 700 325 673.75V650H450V673.75ZM450 625H325V600H450V625ZM450 575H325C325 560.25 325 550 325 550H450C450 550 450 560.25 450 575Z" fill="#2D2220"/>
</svg>
