<svg width="240" height="240" viewBox="0 0 240 240" fill="none" xmlns="http://www.w3.org/2000/svg">
<path d="M225.106 64.566L225.114 64.443C225.113 63.251 224.872 62.0715 224.405 60.9747C223.938 59.8779 223.255 58.8863 222.397 58.059C222.313 57.975 222.217 57.904 222.13 57.824C221.944 57.658 221.759 57.491 221.558 57.34C221.365 57.193 221.158 57.064 220.951 56.934C220.855 56.874 220.769 56.803 220.67 56.746L124.576 1.266C123.181 0.431059 121.584 -0.00630629 119.959 0.00127326C118.333 0.0088528 116.74 0.461088 115.353 1.309L19.33 56.744C19.223 56.806 19.127 56.884 19.023 56.949C18.95 56.996 18.873 57.029 18.8 57.077C18.73 57.124 18.67 57.183 18.6 57.232C18.0611 57.6193 17.568 58.0665 17.13 58.565L17.104 58.595C15.6795 60.2102 14.8912 62.2884 14.886 64.442L14.895 64.582C14.893 64.67 14.88 64.758 14.88 64.846V175.554C14.88 178.831 16.682 181.842 19.57 183.39L115.556 238.807C115.632 238.851 115.714 238.882 115.792 238.924C116.32 239.209 116.877 239.44 117.452 239.611C117.586 239.651 117.718 239.694 117.853 239.728C118.091 239.785 118.331 239.833 118.573 239.87C118.69 239.889 118.805 239.915 118.922 239.93C119.638 240.023 120.363 240.023 121.079 239.93C121.196 239.915 121.311 239.889 121.427 239.87C121.669 239.832 121.909 239.785 122.147 239.728C122.282 239.694 122.414 239.651 122.547 239.611C122.765 239.547 122.98 239.474 123.193 239.394C123.541 239.258 123.88 239.101 124.208 238.924C124.286 238.882 124.368 238.852 124.444 238.807L220.43 183.39C221.848 182.63 223.032 181.5 223.858 180.12C224.684 178.74 225.12 177.162 225.12 175.554V64.779C225.12 64.708 225.108 64.637 225.106 64.566ZM52.543 60.822L117.91 23.082C118.546 22.715 119.267 22.5217 120.001 22.5217C120.735 22.5217 121.456 22.715 122.092 23.082L187.458 60.822C188.094 61.1891 188.621 61.717 188.988 62.3527C189.355 62.9884 189.549 63.7095 189.549 64.4435C189.549 65.1775 189.355 65.8986 188.988 66.5343C188.621 67.17 188.094 67.6979 187.458 68.065L122.091 105.805C121.455 106.172 120.734 106.365 120 106.365C119.266 106.365 118.545 106.172 117.909 105.805L52.543 68.065C51.9074 67.6979 51.3795 67.17 51.0126 66.5343C50.6456 65.8986 50.4524 65.1775 50.4524 64.4435C50.4524 63.7095 50.6456 62.9884 51.0126 62.3527C51.3795 61.717 51.9074 61.1891 52.543 60.822ZM108.677 204.271C108.677 205.004 108.484 205.723 108.118 206.358C107.752 206.992 107.225 207.519 106.59 207.885C105.956 208.252 105.236 208.444 104.504 208.444C103.771 208.444 103.051 208.251 102.417 207.884L37.18 170.218C36.5459 169.852 36.0193 169.325 35.6531 168.691C35.2869 168.057 35.0941 167.337 35.094 166.605V91.279C35.094 90.5467 35.2868 89.8272 35.653 89.193C36.0191 88.5588 36.5458 88.0322 37.18 87.666C37.8142 87.2998 38.5337 87.1071 39.266 87.1071C39.9983 87.1071 40.7178 87.2998 41.352 87.666L106.592 125.332C107.226 125.698 107.753 126.225 108.119 126.859C108.485 127.494 108.678 128.214 108.678 128.946L108.677 204.271ZM204.907 166.605C204.907 167.337 204.714 168.057 204.348 168.691C203.982 169.325 203.455 169.852 202.821 170.218L137.582 207.884C136.948 208.25 136.228 208.443 135.496 208.444C134.763 208.444 134.044 208.251 133.409 207.885C132.775 207.519 132.248 206.992 131.882 206.357C131.516 205.723 131.323 205.003 131.323 204.271V128.946C131.323 127.456 132.119 126.078 133.41 125.332L198.649 87.666C199.283 87.2998 200.003 87.1071 200.735 87.1071C201.467 87.1071 202.187 87.2998 202.821 87.666C203.455 88.0322 203.982 88.5588 204.348 89.193C204.714 89.8272 204.907 90.5467 204.907 91.279V166.605Z" fill="#A1F101"/>
</svg>
