<svg width="715" height="839" viewBox="0 0 715 839" fill="none" xmlns="http://www.w3.org/2000/svg">
<path d="M423.162 789.957C437.158 789.977 451.234 790.917 465.121 789.696C474.553 788.867 479.998 793.474 485.536 799.176C489.171 802.917 489.383 815.067 487.859 820.086C485.901 826.54 481.479 829.336 475.922 831.566C473.769 832.429 471.8 833.753 469.016 834.572C467.297 834.183 466.309 834.009 465.321 834.009C408.668 833.996 352.014 833.992 295.36 834.03C293.929 834.031 292.499 834.518 291.069 834.778C285.388 835.592 281.875 831.256 277.682 828.811C275.314 827.429 273.078 824.849 272.096 822.302C270.809 818.964 270.35 815.125 270.357 811.503C270.379 800.139 277.029 793.7 287.195 790.295C288.678 789.798 290.423 790.032 292.048 790.021C306.872 789.926 321.696 789.851 336.776 789.138C337.074 788.34 337.116 788.174 337.419 787.689C337.789 786.552 337.99 785.735 337.99 784.918C338.006 751.994 338.018 719.07 337.957 686.146C337.955 684.786 337.261 683.427 336.671 682.097C336.454 682.127 336.029 682.233 336.029 682.233C331.259 681.116 327.035 678.125 321.492 679.621C318.871 680.329 315.577 678.33 312.547 677.787C308.151 676.999 303.663 676.663 299.314 675.691C293.397 674.368 287.588 672.568 281.705 671.086C278.223 670.209 274.614 669.785 271.191 668.736C266.995 667.45 262.94 665.708 258.814 664.191C253.615 662.28 248.305 660.631 243.224 658.447C235.061 654.941 227.028 651.131 218.976 647.371C211.601 643.928 204.158 640.602 196.957 636.821C189.513 632.912 182.003 628.983 175.107 624.215C166.781 618.459 159.138 611.725 151.066 605.588C147.106 602.577 142.761 600.076 138.754 597.122C136.083 595.154 133.602 592.896 131.206 590.591C120.854 580.632 110.275 570.886 100.351 560.514C93.3958 553.245 87.3425 545.11 80.9319 537.324C78.297 534.123 75.5294 530.989 73.2762 527.529C70.4499 523.188 68.1982 518.478 65.4985 514.05C62.8268 509.667 59.8378 505.48 57.1105 501.13C52.9679 494.522 48.53 488.056 44.9639 481.144C41.4905 474.412 39.0349 467.161 35.9633 460.212C34.9369 457.89 33.0588 455.928 32.1406 453.578C29.3118 446.339 26.6399 439.033 24.1259 431.679C20.1729 420.115 15.6622 408.707 13.9987 396.468C13.7415 394.575 12.4711 392.832 12.13 390.937C10.3541 381.069 8.73237 371.173 7.04706 361.288C5.30716 351.084 3.55586 340.881 1.40477 330.839C1 329.286 1 327.571 1.3585 325.631C3.37203 323.871 4.20713 322.51 1 322C1 312.312 1 302.625 1.37489 292.655C3.52927 290.567 4.11255 288.967 1 288C1 286.286 1 284.571 1 282.428C1.65918 281.395 2.80888 280.859 2.90501 280.175C4.76147 266.964 6.23566 253.694 8.35605 240.528C9.51642 233.323 11.798 226.303 13.4398 219.169C14.76 213.431 15.7418 207.614 17.1488 201.9C17.7772 199.348 19.2685 197.02 20.0367 194.489C21.5178 189.611 22.527 184.58 24.1609 179.759C26.6979 172.272 29.4743 164.859 32.3823 157.507C34.1222 153.108 36.1147 148.783 38.3357 144.607C41.6454 138.383 45.2568 132.32 48.741 126.19C49.2283 125.332 49.7327 124.485 50.2115 123.622C51.0512 122.11 51.8006 119.363 52.7236 119.305C55.3962 119.138 58.4468 119.446 60.7926 120.651C68.3138 124.515 75.6114 128.819 82.9359 133.056C85.4495 134.51 88.0873 135.976 90.0702 138.017C90.9532 138.926 90.9713 141.563 90.3311 142.919C86.2461 151.578 81.6543 159.999 77.6437 168.689C73.1165 178.499 68.5895 188.35 64.8692 198.479C61.2788 208.255 58.1344 218.278 55.8587 228.431C53.3782 239.498 52.1544 250.845 50.3183 262.059C49.3921 267.716 47.9711 273.316 47.436 279.004C47.0416 283.196 47.8668 287.489 47.8933 291.738C47.9764 305.07 47.8638 318.403 47.9946 331.734C48.0327 335.608 48.587 339.481 48.9864 343.347C49.6017 349.3 50.0741 355.28 51.0104 361.184C51.7741 366 53.1448 370.718 54.2161 375.487C55.4758 381.094 56.6604 386.719 57.9637 392.316C58.5316 394.755 59.1807 397.191 60.0203 399.548C65.2005 414.086 69.1699 429.052 76.6859 442.744C81.0204 450.64 83.7335 459.434 88.1549 467.272C93.3837 476.541 99.8983 485.075 105.43 494.185C111.188 503.668 117.744 512.493 125.133 520.734C130.951 527.224 136.497 533.983 142.643 540.145C148.735 546.253 155.402 551.79 161.863 557.525C166.422 561.573 170.886 565.759 175.704 569.48C182.725 574.902 189.792 580.329 197.264 585.086C207.764 591.771 218.386 598.37 229.462 604.01C238.22 608.469 248.364 610.375 256.756 615.338C265.989 620.798 276.507 621.877 285.913 626.37C289.109 627.896 293.132 627.6 296.696 628.468C302.41 629.859 307.983 631.923 313.748 632.985C322.797 634.652 331.934 635.912 341.076 636.99C349.077 637.933 357.124 638.726 365.17 638.977C375.88 639.311 386.61 638.974 397.329 639.08C407.155 639.177 416.721 637.757 426.297 635.545C432.81 634.041 439.658 634.048 446.296 633C449.941 632.425 453.466 631.077 457.038 630.053C466.666 627.294 476.347 624.702 485.898 621.698C494.442 619.011 503.031 616.305 511.25 612.788C518.819 609.55 525.917 605.214 533.235 601.384C534.524 600.709 535.9 600.197 537.188 599.519C544.533 595.652 551.914 592.03 558.512 586.699C565.699 580.891 574.064 576.568 581.612 571.172C587.034 567.296 592.091 562.873 597.073 558.427C605.393 551.001 613.662 543.504 621.672 535.747C625.301 532.234 628.252 528.022 631.52 524.135C635.285 519.657 639.261 515.338 642.775 510.671C646.272 506.027 649.307 501.036 652.547 496.199C652.639 496.061 652.758 495.941 652.853 495.804C656.745 490.233 660.554 484.603 664.562 479.117C666.317 476.714 668.218 473.219 670.533 472.786C672.532 472.412 675.114 475.837 677.607 477.294C686.244 482.342 694.938 487.291 703.643 492.22C706.445 493.806 707.88 494.533 704.765 498.121C700.385 503.168 697.55 509.541 693.931 515.27C692.399 517.694 690.502 519.884 688.865 522.246C684.985 527.847 681.376 533.651 677.243 539.056C674.103 543.163 670.25 546.719 666.849 550.636C662.14 556.062 657.711 561.738 652.875 567.045C647.952 572.447 642.823 577.68 637.521 582.711C632.505 587.471 627.217 591.955 621.923 596.411C616.418 601.044 610.927 605.725 605.119 609.96C600.505 613.324 595.373 615.97 590.56 619.073C584.39 623.05 578.458 627.416 572.154 631.159C563.454 636.325 554.529 641.118 545.645 645.968C541.386 648.293 537.15 650.779 532.638 652.494C524.286 655.669 515.713 658.255 507.286 661.239C503.368 662.627 499.645 664.574 495.709 665.894C492.642 666.922 489.382 667.374 486.208 668.079C484.777 668.396 483.172 668.389 481.941 669.066C473.118 673.919 463.453 675.058 453.668 675.999C450.628 676.291 447.739 677.945 444.694 678.458C441.576 678.983 438.34 678.758 435.178 679.088C433.439 679.269 431.755 679.946 430.034 680.346C428.607 680.677 427.163 680.931 424.957 681.127C423.439 682.556 422.042 684.075 422.037 685.6C421.912 718.894 421.926 752.188 421.993 785.483C421.997 786.975 422.755 788.465 423.162 789.957Z" fill="#107FB3"/>
<path d="M1 288.4C4.11255 288.967 3.52927 290.567 1.37488 292.186C1 290.933 1 289.867 1 288.4Z" fill="black"/>
<path d="M1 322.375C4.20713 322.51 3.37202 323.871 1.3585 325.203C1 324.25 1 323.5 1 322.375Z" fill="black"/>
<path d="M510.267 589.975C505.302 592.388 500.415 594.981 495.352 597.166C489.425 599.724 483.526 602.833 477.29 604.087C465.815 606.395 455.632 613.303 443.483 613.143C441.444 613.116 439.47 615.44 437.312 615.834C428.867 617.379 420.393 619.395 411.869 619.741C396.104 620.382 380.295 619.978 364.505 619.997C355.538 620.008 346.531 620.513 337.615 619.836C329.612 619.228 321.648 617.588 313.777 615.891C304.559 613.903 295.424 611.491 286.335 608.968C283.976 608.312 281.971 605.62 279.718 605.503C275.48 605.282 271.582 604.464 267.797 602.684C267.455 602.523 266.623 603.061 266.473 602.886C262.362 598.083 255.942 598.814 250.931 596.321C243.89 592.818 237.212 588.592 230.254 584.91C228.048 583.743 225.129 583.811 223.079 582.479C217.147 578.622 211.893 573.526 205.626 570.428C197.512 566.416 191.155 560.408 184.347 554.843C181.593 552.593 179.095 550.015 176.253 547.893C174.779 546.793 172.546 546.689 171.118 545.553C168.77 543.687 166.804 541.343 164.667 539.21C160.377 534.929 155.868 530.842 151.848 526.32C148.339 522.372 146.111 516.9 141.986 513.984C137.017 510.47 134.326 505.518 130.799 501.131C127.129 496.565 124.417 491.242 121.055 486.411C119.365 483.983 116.737 482.157 115.279 479.629C111.921 473.805 109.086 467.682 105.915 461.747C101.853 454.145 97.3683 446.751 93.6658 438.982C91.8127 435.094 90.2849 431.103 88.2157 427.25C85.8778 422.896 85.4203 417.555 83.9536 412.702C83.1204 409.944 81.6614 407.369 80.9032 404.598C78.0511 394.171 75.114 383.755 72.736 373.216C71.5615 368.01 71.627 362.533 70.9569 357.201C70.5974 354.341 69.8164 351.535 69.3293 348.688C69.1089 347.399 68.9615 346.049 69.0943 344.759C69.4085 341.709 69.9104 338.678 69.285 335.515C69.1329 337.149 68.9808 338.783 68.8286 340.418C68.6457 340.428 68.4628 340.439 68.2799 340.449C67.8439 335.049 67.1977 329.655 67.0248 324.246C66.8066 317.422 66.7637 310.576 67.0774 303.759C67.2073 300.935 68.4897 298.171 69.1837 295.364C69.5306 293.961 69.8864 292.532 69.9743 291.099C70.3663 284.712 70.4256 278.295 71.0569 271.933C71.7722 264.726 72.6282 257.496 74.0715 250.408C75.1109 245.304 77.7894 240.52 78.7105 235.409C80.2613 226.803 83.9275 218.854 85.9821 210.632C87.4314 204.832 91.4956 200.761 92.5038 195.132C93.338 190.473 94.3773 185.983 98.5138 182.478C100.468 180.822 99.7678 176.262 101.597 174.189C106.622 168.491 108.968 161.196 113.239 155.02C117.188 149.308 120.853 142.764 124.82 136.737C127.746 132.294 131.799 128.609 135.035 124.348C137.751 120.771 140.001 116.841 142.489 113.089C142.851 112.543 143.365 112.086 143.854 111.637C147.499 108.293 151.347 105.143 154.754 101.572C157.907 98.2668 160.11 93.9025 163.624 91.1405C166.799 88.645 170.163 86.5721 172.723 83.2833C174.357 81.1845 176.753 79.663 178.87 77.9598C183.016 74.6235 187.039 71.0978 191.424 68.1047C195.844 65.0875 201.789 63.5653 204.983 59.6772C209.061 54.7135 215.848 54.5511 219.544 49.343C220.776 47.6068 224.666 48.0055 226.681 46.5288C232.25 42.4494 239.483 41.0483 244.547 37.4154C250.474 33.164 257.83 33.4441 263.26 28.6045C265.813 26.3294 270.518 26.5928 274.125 25.348C279.601 23.4579 284.838 20.75 290.412 19.2917C302.2 16.2082 314.094 13.4803 326.04 11.0787C330.967 10.0881 336.143 10.3611 341.199 9.97316C349.193 9.35983 357.182 8.67393 365.936 8.3559C374.84 8.77912 382.981 8.86518 391.122 8.95125C399.363 9.9503 407.619 11.8114 415.84 11.6681C422.103 11.5589 427.879 12.5278 433.82 13.9415C443.047 16.1373 453.02 16.5326 461.436 20.3942C468.728 23.7395 476.57 24.4401 483.691 27.7858C488.367 29.9829 493.563 31.0578 498.302 33.1434C501.531 34.5642 504.239 37.1314 507.416 38.7137C513.952 41.9698 520.883 44.4946 527.204 48.1045C532.705 51.2461 537.471 55.6471 542.785 59.1533C547.18 62.0532 551.942 64.3908 556.456 67.1173C558.279 68.218 560.092 69.4908 561.531 71.0376C564.141 73.8444 567.197 75.9654 570.21 78.2764C575.982 82.7033 580.874 88.2818 586.092 93.4226C587.984 95.2864 589.763 97.2649 592.416 100.057C586.92 105.359 581.345 110.623 575.908 116.026C572.182 119.729 568.709 123.686 565.017 127.425C557.701 134.834 550.403 142.266 542.912 149.496C539.319 152.964 535.059 155.751 531.543 159.286C527.86 162.988 524.856 167.357 521.28 171.177C517.811 174.883 513.171 173.993 511.008 169.494C510.941 169.354 511.047 169.082 510.959 169.01C506.91 165.671 502.869 162.321 498.768 159.047C498.056 158.479 496.991 158.365 496.249 157.824C493.248 155.637 490.385 153.256 487.333 151.146C481.488 147.107 475.823 142.683 469.573 139.385C462.615 135.712 455.09 133.111 447.807 130.055C447.083 129.751 446.282 129.611 445.591 129.252C435.024 123.76 423.006 123.372 411.994 119.773C396.099 114.577 379.972 114.726 363.792 115.156C352.346 115.459 341.1 117.983 330.099 121.416C326.89 122.417 323.307 122.179 320.047 123.069C315.62 124.276 311.077 125.526 307.058 127.653C301.178 130.765 294.417 131.265 288.752 135.67C285.068 138.536 279.658 139.47 275.427 142.743C270.424 146.612 263.984 148.579 258.764 152.225C253.923 155.607 249.854 160.1 245.47 164.131C240.09 169.079 234.538 173.86 229.43 179.076C225.136 183.462 221.285 188.297 217.4 193.065C213.741 197.556 209.172 201.754 207.035 206.921C204.238 213.682 198.175 218.529 196.832 226.025C196.495 227.905 194.332 229.388 193.421 231.256C192.624 232.891 192.518 234.847 191.909 236.592C190.977 239.265 190.303 242.167 188.757 244.457C185.418 249.405 184.413 254.976 183.139 260.598C181.113 269.533 178.647 278.367 176.386 287.249C176.186 288.034 176.026 288.853 176.016 289.658C175.845 302.435 175.373 315.22 175.67 327.987C175.862 336.193 177.153 344.377 178.056 352.56C178.211 353.971 178.893 355.323 179.318 356.707C179.951 358.769 180.572 360.835 181.414 362.904C182.416 366.617 183.489 370.312 184.387 374.049C184.786 375.708 184.46 377.61 185.106 379.129C187.344 384.401 189.864 389.553 192.641 395.336C193.578 398.652 193.598 401.659 194.805 404.072C212.239 438.887 237.627 466.439 270.937 486.624C272.352 487.481 274.295 487.466 275.992 487.856C280.017 489.907 284.024 491.995 288.08 493.983C289.207 494.536 290.91 494.424 291.612 495.246C295.206 499.454 300.493 499.4 305.107 501.04C306.449 501.517 307.604 502.593 308.961 502.945C318.256 505.354 327.955 506.713 336.785 510.254C344.54 513.364 352.414 513.005 360.175 513.692C368.977 514.472 377.951 513.07 386.851 513.059C394.843 513.049 402.775 513.583 410.559 510.868C415.996 508.971 421.639 507.613 427.258 506.31C429.634 505.758 432.187 505.964 435.259 505.483C437.06 506.394 438.763 507.445 439.368 508.94C441.153 513.357 444.224 514.721 448.74 514.185C455.264 513.41 461.818 512.887 468.358 512.257C468.488 512.581 468.618 512.905 468.748 513.229C461.616 515.917 454.483 518.604 445.975 521.81C456.144 534.172 466.033 545.976 475.664 557.985C481.038 564.686 486.902 568.671 495.572 563.977C495.941 563.778 496.543 564.011 497.02 564.024C497.002 564.006 496.963 563.972 496.845 564.294C494.135 566.287 491.542 567.958 488.157 570.141C494.754 575.377 500.89 580.099 506.825 585.063C508.306 586.301 509.137 588.316 510.267 589.975ZM143.412 219.885C149.426 214.839 155.44 209.793 161.879 204.39C149.34 198.215 139.815 188.478 132.991 174.953C126.139 188.851 116.537 198.182 102.852 205.134C116.851 211.744 126.148 221.732 132.743 234.375C136.499 229.211 139.704 224.804 143.412 219.885ZM221.512 127.031C215.115 120.027 208.718 113.022 202.197 105.882C196.45 118.088 186.504 127.42 172.918 134.411C187.046 141.106 196.558 150.956 203.196 164.528C209.88 150.521 219.829 141.126 232.847 134.401C228.989 131.919 225.532 129.694 221.512 127.031ZM174.071 192.406C177.196 196.176 180.32 199.947 182.793 202.931C188.901 196.862 195.099 190.702 200.583 185.253C194.885 179.502 188.799 173.359 182.821 167.325C180.716 170.071 178.346 173.917 175.231 177.016C172.041 180.189 168.123 182.629 164.405 185.48C166.193 186.595 167.779 187.493 169.263 188.537C170.751 189.583 172.136 190.776 174.071 192.406Z" fill="#8DD8F8"/>
<path d="M407.163 343.118C403.061 340.7 398.958 338.283 394.175 335.464C394.175 344.083 394.175 351.829 394.175 360.649C392.616 359.432 391.621 358.972 391.094 358.195C386.643 351.639 382.256 345.04 377.911 338.414C377.24 337.39 376.538 336.196 376.429 335.027C375.762 327.828 370.037 324.97 364.967 321.643C364.04 321.034 362.371 321.556 360.948 321.556C360.948 323.779 361.015 325.778 360.931 327.77C360.816 330.536 361.633 334.719 360.197 335.776C356.8 338.276 352.425 339.781 348.23 340.783C342.644 342.118 336.805 342.36 331.159 343.489C319.34 345.852 307.566 348.443 295.799 351.056C293.958 351.465 292.299 352.668 290.461 353.136C289.435 353.398 288.216 352.903 286.985 352.363C286.886 351.977 287.026 351.902 287.328 351.625C287.749 330.72 287.87 310.092 287.943 289.464C287.943 289.328 287.285 289.189 286.683 289.149C285.964 289.775 285.495 290.305 285.027 290.834C281.755 292.011 278.483 293.188 274.654 294.792C273.732 296.56 273.056 297.899 273.049 299.243C272.982 310.842 273.035 322.441 273.052 334.04C272.183 334.689 271.333 335.869 270.443 335.9C265.436 336.073 255.5 336 255.5 336C255.5 344.766 255.495 326.349 255.5 336H252C252 336 252.079 332.76 252.078 332.632C252.031 324.308 252.035 315.984 252.035 306.845C249.345 307.571 246.931 308.025 244.665 308.874C239.036 310.982 238.777 315.534 238.9 320.758C239.204 333.578 239 346.411 239 359.239C239 366.532 236.888 368.783 229.637 369.819C224.335 370.576 219.052 371.535 213.814 372.651C210.722 373.31 207.733 374.451 203.832 375.639C203.368 374.357 202.117 372.497 202.108 370.631C201.983 342.652 202.022 314.672 202.022 286.399C210.692 282.43 219.287 278.417 227.949 274.552C234.938 271.434 242.102 268.697 249.013 265.419C256.051 262.08 262.752 258.024 269.823 254.761C278.159 250.914 286.759 247.641 295.193 243.997C298.727 242.47 302.149 240.675 305.581 238.922C309.978 236.676 314.125 233.595 318.777 232.313C322.105 231.395 326.252 232.298 329.73 233.371C334.155 234.735 338.309 237.017 342.515 239.038C349.754 242.516 356.948 246.09 364.149 249.648C364.867 250.003 365.453 250.644 366.185 250.952C374.983 254.649 383.904 258.072 392.58 262.034C404.722 267.577 416.669 273.547 428.732 279.266C433.569 281.559 438.492 283.67 443.887 286.382C444.598 288.859 444.971 290.817 444.974 292.775C445.039 341.469 445.065 390.163 445.098 438.857C443.393 439.965 442.138 440.414 440.88 437.953C438.247 432.799 435.422 427.717 432.302 422.845C428.679 417.188 424.418 411.934 420.874 406.232C417.539 400.866 414.858 395.096 411.708 389.608C410.837 388.091 409.32 386.945 408.04 385.32C407.981 385.01 407.95 385.051 408.337 384.841C408.814 371.033 408.91 357.435 408.946 343.837C408.947 343.596 408.222 343.354 407.668 343.111C407.5 343.109 407.163 343.118 407.163 343.118ZM407.973 313.248C405.777 311.418 403.811 309.15 401.336 307.852C396.803 305.475 395.077 306.701 395.003 311.71C394.981 313.207 394.889 314.714 395.025 316.198C395.245 318.594 394.758 322.027 396.117 323.153C399.346 325.827 403.483 327.405 407.997 329.825C407.997 323.738 407.997 318.929 407.973 313.248ZM366.552 309.978C368.593 310.875 370.635 311.771 372.998 312.81C372.998 307.548 373.379 302.685 372.813 297.934C372.582 295.995 370.656 293.641 368.856 292.664C366.695 291.489 363.845 291.581 360.948 291.063C360.948 295.202 361.187 299.035 360.881 302.824C360.568 306.702 361.866 309.106 366.552 309.978Z" fill="#2C8BDB"/>
<path d="M475.153 491.953C473.076 488.873 470.833 485.889 468.959 482.69C465.847 477.376 463.039 471.884 459.942 466.561C459.333 465.513 457.549 465.087 457.079 464.031C455.533 460.553 453.199 456.923 453.183 453.344C452.941 396.218 453.013 339.09 453.013 281.424C443.829 277.561 434.547 273.656 425.166 269.027C425.374 266.02 425.941 263.737 425.946 261.453C426.014 224.351 426.011 187.248 426.024 150.146C433.358 153.275 440.674 156.447 448.031 159.52C455.806 162.766 463.753 165.635 471.381 169.19C478.784 172.641 485.842 176.825 493.123 180.548C497.484 182.779 501.981 184.744 506.526 187.324C506.702 192.891 506.898 197.965 506.807 203.034C506.62 213.381 506.076 223.726 506.062 234.072C506.051 243.26 506.64 252.447 506.808 261.637C506.927 268.107 506.784 274.581 506.508 281.371C506.172 289.511 505.986 297.332 506.04 305.153C506.069 309.419 506.505 313.683 506.76 318.224C506.761 318.684 506.759 318.868 506.508 319.371C506.425 328.442 506.591 337.195 506.76 346.224C506.761 346.684 506.759 346.868 506.508 347.371C506.425 357.442 506.591 367.195 506.76 377.224C506.761 377.684 506.759 377.868 506.508 378.371C506.181 397.176 506.096 415.663 506.057 434.149C506.055 434.748 506.513 435.348 506.76 436.224C506.761 436.684 506.759 436.868 506.508 437.371C506.163 453.118 506.068 468.548 505.659 483.851C504.567 483.658 503.7 483.332 503.024 483.563C496.967 485.631 490.944 487.797 484.941 489.62C485.297 488.83 485.624 488.356 486.306 487.667C486.774 486.469 486.984 485.485 486.984 484.501C487 400.717 487.004 316.933 486.956 233.149C486.955 231.79 486.309 230.432 485.593 229.043C483.841 228.398 482.461 227.783 480.772 227.02C479.638 228.226 478.093 229.58 478.092 230.936C478.003 317.912 478.039 404.889 477.702 491.906C476.611 491.949 475.882 491.951 475.153 491.953ZM463.314 267.532C463.543 265.986 463.959 264.44 463.969 262.892C464.03 253.315 464.063 243.736 463.973 234.159C463.929 229.426 463.602 224.696 462.765 219.981C462.552 219.968 462.34 219.954 461.757 219.344C459.48 217.749 457.202 216.155 453.999 213.913C453.999 228.719 453.999 242.128 453.999 255.536C453.999 264.299 453.999 264.299 462.445 266.942C462.445 266.942 462.89 266.923 463.314 267.532ZM461.88 200.534C463.404 194.119 459.535 192.268 453.999 191.736C453.999 194.355 454.338 197.186 453.93 199.905C453.027 205.916 457.035 206.892 461.88 208.132C461.88 205.659 461.88 203.558 461.88 200.534ZM485.766 218.501C485.845 216.348 485.718 214.163 486.041 212.046C486.884 206.515 484.258 203.764 479.208 202.67C479.208 207.47 479.208 212.095 479.208 216.287C481.34 217.112 483.139 217.807 485.766 218.501Z" fill="#2C8BDB"/>
<path d="M276.026 487.517C274.295 487.466 272.352 487.481 270.937 486.624C237.627 466.439 212.239 438.887 194.805 404.072C193.598 401.659 193.578 398.652 192.971 395.508C193.591 394.515 194.793 393.958 194.818 393.353C195.184 384.531 197.926 381.757 206.396 380.639C213.233 379.736 220.021 378.324 226.748 376.774C229.333 376.178 231.6 374.286 234.171 373.517C236.731 372.751 239.49 372.652 243.001 372.138C243.001 365.261 243.052 357.849 242.981 350.439C242.94 346.123 242.795 343.154 249.276 343.674C258.797 344.44 268.468 343.343 278.539 343.541C279.001 354.536 278.968 365.029 279.044 375.522C279.052 376.664 279.688 377.802 280.033 378.941C281.475 375.71 283.282 372.586 284.279 369.223C286.086 363.128 290.132 360.272 296.176 359.454C301.079 358.791 305.973 357.988 310.816 356.982C314.633 356.188 318.352 354.93 322.141 353.984C331.727 351.591 341.309 349.174 350.931 346.933C356.356 345.669 361.857 344.736 367.324 343.654C367.671 344.047 368.018 344.441 368.365 344.834C366.957 347.689 365.782 350.691 364.096 353.371C359.881 360.066 355.491 366.653 351.06 373.207C348.145 377.519 344.849 381.58 342.062 385.969C338.406 391.725 335.249 397.799 331.568 403.538C328.23 408.744 324.474 413.683 320.906 418.741C318.553 422.077 316.085 425.34 313.88 428.771C308.109 437.747 302.513 446.836 296.734 455.807C292.85 461.836 288.748 467.724 284.792 473.706C281.841 478.17 278.969 482.685 276.026 487.517ZM306.825 392.464C307.668 391.127 308.511 389.79 308.852 389.248C307.268 386.702 305.943 384.572 304.441 382.157C302.617 385.234 301.056 387.867 299.569 390.374C301.421 392.398 303.114 394.246 305.124 396.442C305.764 394.847 306.118 393.963 306.825 392.464ZM229.454 436.931C228.779 435.306 228.104 433.681 227.237 431.594C225.629 433.072 224.469 434.138 223.364 435.153C224.419 437.19 225.327 438.944 226.461 441.134C227.551 439.573 228.284 438.523 229.454 436.931Z" fill="#10316D"/>
<path d="M625.784 415.707C623.703 420.28 622.378 424.864 619.972 428.786C616.272 434.818 615.01 441.994 609.614 447.372C605.906 451.068 604.451 456.933 601.528 461.536C598.761 465.894 595.418 469.89 592.282 474.011C588.628 478.812 588.888 481.865 593.361 485.695C602.23 493.289 603.113 498.174 597.589 508.093C596.428 510.176 595.787 512.545 594.668 514.655C591.531 520.567 588.595 526.636 584.825 532.126C583.889 533.488 579.589 533.929 577.701 533.011C569.259 528.908 560.115 526.862 551.92 521.504C543.99 516.318 536.272 510.938 529.465 504.581C524.548 499.989 521.349 493.562 517.367 487.965C515.38 485.171 513.357 482.404 511.081 479.251C519.493 473.363 528.789 468.717 535.509 461.628C542.228 454.543 549.107 457.448 556.203 457.586C557.473 457.611 558.93 458.73 559.939 459.714C565.187 464.83 571.009 463.865 575.056 457.632C578.674 452.059 583.108 447.018 586.798 441.487C590.03 436.643 592.859 431.513 595.614 426.374C597.323 423.188 598.616 419.772 600.001 416.42C603.201 408.672 606.54 400.971 609.424 393.106C610.753 389.482 611.171 385.52 611.96 381.702C613.71 373.243 615.963 364.844 617.017 356.298C618.035 348.043 618.041 339.633 618.03 331.292C618.024 326.837 625.518 320.913 630.734 321.878C638.27 323.271 641.874 327.723 642.007 335.363C642.186 345.619 641.291 355.646 638.369 365.596C636.948 370.434 637.908 375.93 636.835 380.923C635.661 386.388 633.261 391.579 631.632 396.961C630.547 400.545 630.018 404.296 628.975 407.895C628.23 410.47 627.044 412.917 625.784 415.707Z" fill="#0D80B4"/>
<path d="M484.911 489.935C490.944 487.797 496.967 485.631 503.024 483.563C503.7 483.332 504.567 483.658 505.913 483.851C506.648 483.96 506.816 483.944 507.216 483.959C507.448 483.991 507.907 483.893 507.907 483.893C509.816 487.616 511.332 491.616 513.714 495.007C519.282 502.934 524.943 510.842 531.209 518.21C534.545 522.132 539.047 525.162 543.333 528.149C549.07 532.147 555.03 535.846 561.059 539.395C563.238 540.677 565.986 540.957 568.299 542.062C570.286 543.011 572.563 544.146 573.642 545.869C574.187 546.739 572.708 549.401 571.544 550.723C566.688 556.236 561.894 561.861 556.509 566.829C552.444 570.578 547.484 573.349 542.979 576.632C538.313 580.033 533.987 584.002 529.014 586.853C523.502 590.014 517.682 593.636 510.526 590.099C509.137 588.316 508.306 586.301 506.825 585.063C500.89 580.099 494.754 575.377 488.157 570.14C491.542 567.958 494.135 566.287 497.028 564.255C497.232 563.944 497.134 563.994 497.037 564.043C496.543 564.011 495.941 563.778 495.572 563.977C486.902 568.671 481.038 564.686 475.664 557.985C466.033 545.976 456.144 534.172 445.975 521.81C454.483 518.604 461.616 515.917 468.748 513.229C468.618 512.905 468.488 512.581 468.358 512.257C461.818 512.887 455.264 513.41 448.74 514.185C444.224 514.721 441.153 513.357 439.368 508.94C438.763 507.445 437.06 506.394 435.512 505.159C434.286 503.086 433.408 500.995 431.977 497.586C437.129 497.586 440.98 497.586 445.368 497.467C453.221 496.41 460.537 495.472 467.852 494.534C470.17 493.882 472.488 493.231 474.98 492.266C475.882 491.951 476.611 491.949 477.943 491.822C478.723 491.407 478.9 491.116 479.451 490.9C481.52 490.628 483.215 490.281 484.911 489.935Z" fill="#0E80B5"/>
<path d="M425.633 150.077C426.011 187.248 426.014 224.351 425.946 261.453C425.941 263.737 425.374 266.02 425 268.728C398.39 257.011 371.849 244.869 345.148 232.056C344.982 230.918 344.975 230.451 344.981 229.518C344.996 215.685 344.998 202.318 345.004 188.609C344.989 187.81 344.97 187.353 344.952 186.897C348.76 184.908 352.564 182.912 356.377 180.932C359.959 179.072 363.505 177.135 367.148 175.402C372.593 172.811 378.067 170.275 383.604 167.889C390.851 164.766 398.198 161.872 405.452 158.765C412.083 155.926 418.649 152.933 425.633 150.077ZM385.756 203.711C388.322 206.643 390.888 209.575 393.455 212.507C392.784 211.798 392.113 211.088 391.442 210.378C395.809 206.055 400.177 201.731 404.545 197.408C404.278 198.859 404.01 200.309 403.743 201.76C399.662 197.146 395.58 192.532 391.499 187.919C392.733 188.205 393.966 188.491 395.2 188.777C390.816 192.964 386.431 197.15 382.047 201.336C381.368 200.747 380.689 200.158 380.01 199.569C381.749 200.786 383.487 202.003 385.756 203.711Z" fill="#1C6FC2"/>
<path d="M467.89 494.165C460.537 495.472 453.221 496.41 445.548 497.194C441.545 491.87 437.721 486.813 434.302 481.495C430.869 476.158 427.94 470.499 424.604 465.096C421.321 459.779 417.772 454.627 414.401 449.364C410.706 443.597 407.169 437.727 403.398 432.011C399.681 426.376 395.623 420.964 391.957 415.298C386.461 406.802 381.315 398.078 375.748 389.63C372.505 384.708 368.701 380.157 365.238 375.375C364.85 374.839 364.695 373.656 365.02 373.153C368.523 367.738 372.144 362.4 376.449 355.969C378.59 359.374 380.02 361.833 381.629 364.168C385.469 369.738 389.393 375.249 393.284 380.783C393.741 381.432 394.225 382.064 394.66 382.728C399.175 389.616 403.783 396.446 408.161 403.421C411.699 409.057 414.733 415.018 418.403 420.562C422.114 426.167 426.51 431.316 430.267 436.894C432.952 440.879 434.871 445.374 437.494 449.406C442.247 456.717 447.312 463.824 452.169 471.068C456.693 477.815 461.094 484.643 465.605 491.397C466.213 492.308 467.146 493.002 467.89 494.165Z" fill="#0F326D"/>
<path d="M386.281 504.785C380.531 504.943 375.204 504.937 369.876 504.978C366.613 505.003 364.976 503.491 364.992 500.172C365.023 493.687 365.07 487.201 364.973 480.717C364.93 477.864 366.215 476.918 368.916 476.973C374.075 477.078 379.242 477.128 384.398 476.954C387.655 476.844 388.964 478.38 388.982 481.36C389.021 487.354 389.168 493.356 388.891 499.337C388.807 501.135 387.467 502.875 386.281 504.785Z" fill="#008BC8"/>
<path d="M359.502 478.99C359.163 486.314 358.874 493.29 359.084 500.251C359.2 504.083 357.761 505.224 354.16 505.026C350.019 504.798 345.855 504.916 341.702 504.989C337.509 505.063 335.646 503.47 335.895 498.921C336.231 492.801 335.749 486.639 335.906 480.503C335.935 479.337 337.271 477.235 338.057 477.21C344.852 476.994 351.659 477.128 358.461 477.264C358.903 477.273 359.328 478.158 359.502 478.99Z" fill="#008AC8"/>
<path d="M369.168 443C374.47 443 379.302 443.19 384.11 442.937C387.552 442.755 388.973 444.214 388.986 447.425C389.011 453.409 388.924 459.396 389.024 465.379C389.073 468.304 387.622 469.074 384.998 469.025C379.68 468.926 374.357 468.925 369.039 469.025C366.43 469.074 364.905 468.305 364.936 465.41C365.006 458.766 364.854 452.114 365.172 445.483C365.214 444.601 367.461 443.825 369.168 443Z" fill="#008BC8"/>
<path d="M359.034 468.032C352.043 468.328 345.052 468.741 338.061 468.74C337.359 468.74 336.091 466.253 336.05 464.891C335.843 457.992 335.955 451.084 335.955 443.007C343.044 443.007 350.546 443.007 358.522 443.488C359.009 451.99 359.022 460.011 359.034 468.032Z" fill="#008BC8"/>
<path d="M507.949 483.434C507.907 483.893 507.448 483.991 507.223 483.498C506.918 467.688 506.837 452.37 506.757 437.052C506.759 436.868 506.761 436.684 506.851 435.768C506.879 416.041 506.818 397.047 506.757 378.052C506.759 377.868 506.761 377.684 506.851 376.768C506.879 366.374 506.818 356.713 506.757 347.052C506.759 346.868 506.761 346.684 506.851 345.768C506.879 336.374 506.818 327.713 506.757 319.052C506.759 318.868 506.761 318.684 506.851 317.768C506.879 305.041 506.818 293.047 506.757 281.052C506.784 274.581 506.927 268.107 506.808 261.637C506.64 252.447 506.051 243.26 506.062 234.072C506.076 223.726 506.62 213.381 506.807 203.034C506.898 197.965 506.702 192.891 506.852 187.466C507.379 188.6 507.961 190.087 507.961 191.575C508.001 288.709 507.994 385.842 507.949 483.434Z" fill="#00FFFF"/>
<path d="M445.493 438.695C445.065 390.163 445.039 341.469 444.974 292.775C444.971 290.817 444.598 288.859 444.227 286.53C444.704 287.277 445.887 288.381 445.913 289.512C446.08 296.984 446.005 304.463 445.999 311.939C445.963 354.137 445.925 396.335 445.493 438.695Z" fill="#54ABFF"/>
<path d="M344.968 229.985C344.975 230.451 344.982 230.918 344.975 231.735C344.308 230.898 343.098 229.717 343.086 228.525C342.954 215.32 342.992 202.113 343.056 188.907C343.059 188.281 343.735 187.658 344.525 186.965C344.97 187.353 344.989 187.81 344.687 188.893C344.26 202.453 344.142 215.387 344.086 228.321C344.084 228.874 344.661 229.43 344.968 229.985Z" fill="#0080FF"/>
<path d="M384.817 622C375.732 622 367.124 622 358.515 622C358.517 621.759 358.519 621.518 358.521 621.278C369.179 621.278 379.836 621.278 390.494 621.278C390.497 621.518 390.501 621.759 390.504 622C388.767 622 387.03 622 384.817 622Z" fill="white"/>
<path d="M370.071 117.006C366.958 117.006 364.332 117.006 361.706 117.006C361.706 116.785 361.707 116.564 361.707 116.344C370.207 116.344 378.706 116.344 387.205 116.344C387.214 116.564 387.223 116.785 387.232 117.006C381.675 117.006 376.117 117.006 370.071 117.006Z" fill="#F6FFFF"/>
<path d="M390.914 8.55782C382.981 8.86518 374.84 8.77912 366.382 8.43519C374.28 8.17302 382.493 8.1687 390.914 8.55782Z" fill="#A4FFFF"/>
<path d="M143.161 220.141C139.704 224.804 136.499 229.211 132.743 234.375C126.148 221.732 116.851 211.744 102.852 205.134C116.537 198.182 126.139 188.851 132.991 174.953C139.815 188.478 149.34 198.215 161.879 204.39C155.44 209.793 149.426 214.839 143.161 220.141Z" fill="#2E8CDB"/>
<path d="M221.793 127.25C225.532 129.694 228.989 131.919 232.847 134.401C219.829 141.126 209.88 150.521 203.196 164.528C196.558 150.956 187.046 141.106 172.918 134.411C186.504 127.42 196.45 118.088 202.197 105.882C208.718 113.022 215.115 120.027 221.793 127.25Z" fill="#2E8CDB"/>
<path d="M173.819 192.155C172.136 190.776 170.751 189.583 169.263 188.537C167.779 187.493 166.193 186.595 164.405 185.48C168.123 182.629 172.042 180.189 175.231 177.016C178.346 173.917 180.716 170.071 182.821 167.325C188.799 173.359 194.885 179.502 200.583 185.253C195.099 190.702 188.901 196.862 182.793 202.931C180.32 199.947 177.196 196.176 173.819 192.155Z" fill="#2F8DDC"/>
<path d="M506.508 378.371C506.818 397.047 506.879 416.041 506.849 435.491C506.513 435.348 506.055 434.748 506.057 434.149C506.096 415.663 506.181 397.176 506.508 378.371Z" fill="#00AAAA"/>
<path d="M506.508 437.371C506.837 452.37 506.918 467.688 506.991 483.467C506.816 483.944 506.648 483.96 506.227 483.977C506.068 468.548 506.163 453.118 506.508 437.371Z" fill="#00AAAA"/>
<path d="M506.508 281.371C506.818 293.047 506.879 305.041 506.849 317.491C506.505 313.683 506.069 309.419 506.04 305.153C505.986 297.332 506.172 289.511 506.508 281.371Z" fill="#00AAAA"/>
<path d="M506.508 347.371C506.818 356.713 506.879 366.374 506.849 376.491C506.591 367.195 506.425 357.442 506.508 347.371Z" fill="#00AAAA"/>
<path d="M506.508 319.371C506.818 327.713 506.879 336.374 506.849 345.491C506.591 337.195 506.425 328.442 506.508 319.371Z" fill="#00AAAA"/>
<path d="M497.02 564.024C497.134 563.994 497.232 563.944 497.146 563.933C496.963 563.972 497.002 564.006 497.02 564.024Z" fill="#8DD8F8"/>
<path d="M385.491 203.466C383.487 202.003 381.749 200.786 380.01 199.569C380.689 200.158 381.368 200.747 382.047 201.336C386.431 197.15 390.816 192.964 395.2 188.777C393.966 188.491 392.732 188.205 391.499 187.919C395.58 192.532 399.661 197.146 403.743 201.76C404.01 200.309 404.278 198.859 404.545 197.408C400.177 201.731 395.809 206.055 391.442 210.378C392.113 211.088 392.784 211.798 393.455 212.507C390.888 209.575 388.322 206.643 385.491 203.466Z" fill="#F4F8FC"/>
<path d="M344.981 229.518C344.661 229.43 344.084 228.874 344.086 228.321C344.142 215.387 344.26 202.453 344.684 189.235C344.998 202.318 344.996 215.685 344.981 229.518Z" fill="#00AAAA"/>
</svg>
