<svg width="144" height="144" viewBox="0 0 144 144" fill="none" xmlns="http://www.w3.org/2000/svg">
<path d="M10.75 0.5H132.583C135.301 0.5 137.909 1.5798 139.831 3.50195C141.753 5.4242 142.833 8.03153 142.833 10.75V132.583C142.833 135.301 141.753 137.909 139.831 139.831C137.909 141.753 135.301 142.833 132.583 142.833H10.75C8.03153 142.833 5.4242 141.753 3.50195 139.831C1.5798 137.909 0.5 135.301 0.5 132.583V10.75C0.5 8.03153 1.57971 5.4242 3.50195 3.50195C5.4242 1.57971 8.03153 0.5 10.75 0.5ZM21 122.333H43.5V56.833H21V122.333ZM37.6816 20.2402C35.3203 19.2432 32.7173 18.9648 30.1982 19.4385C27.6792 19.9122 25.3554 21.1176 23.5176 22.9043C21.6798 24.691 20.4088 26.9797 19.8643 29.4844C19.3197 31.9892 19.5259 34.5997 20.4561 36.9883C21.3863 39.3766 22.9998 41.4383 25.0947 42.915C27.1897 44.3917 29.6734 45.2177 32.2354 45.291V45.292H32.2441C35.7472 45.3318 39.1238 43.983 41.6357 41.541C44.1476 39.0989 45.5915 35.7616 45.6504 32.2588V32.25C45.6493 29.6869 44.8926 27.1807 43.4756 25.0449C42.0584 22.9091 40.043 21.2373 37.6816 20.2402ZM79.333 88.3389L79.3301 88.3115C79.2983 88.0136 79.2983 87.713 79.3301 87.415L79.335 87.3701L79.332 87.3262C79.2198 85.7535 79.419 84.174 79.9189 82.6787C80.4189 81.1834 81.2096 79.8013 82.2451 78.6123C83.2807 77.4233 84.5415 76.4505 85.9541 75.75C87.3619 75.0519 88.8933 74.6377 90.4609 74.5312C93.1329 74.5351 95.4416 75.4067 97.0967 77.4463C98.7696 79.5079 99.833 82.8346 99.833 87.8633V122.333H122.337L122.333 121.83L122.047 82.8428C122.046 72.6965 118.761 65.9913 114.001 61.8301C109.402 57.8099 103.488 56.2168 97.9971 56.1211L97.4668 56.1162C93.5722 55.9921 89.7103 56.8693 86.251 58.6631C83.2571 60.2156 80.6522 62.4108 78.6162 65.083V56.833H56.833V122.333H79.333V88.3389Z" fill="#0A66C2" stroke="white"/>
</svg>
