<svg width="296" height="156" viewBox="0 0 296 156" fill="none" xmlns="http://www.w3.org/2000/svg">
<g clip-path="url(#clip0_27_16)">
<path d="M79.1201 26.3813L74.0752 43.9731H48.417V128.902H25.4365V43.9731H0.5V26.3813H79.1201Z" fill="#24357F" stroke="white"/>
<path d="M116.059 26.3813V93.2856C116.059 99.0455 117.117 103.5 119.512 106.52C121.927 109.565 125.626 111.061 130.688 111.061C135.751 111.061 139.451 109.565 141.866 106.52C144.261 103.5 145.317 99.0453 145.317 93.2856V26.3813H166.886V98.4614C166.886 106.51 164.902 114.182 159.435 119.841C153.972 125.498 144.948 129.229 130.688 129.229C116.429 129.229 107.406 125.498 101.942 119.841C96.4754 114.182 94.4909 106.51 94.4909 98.4614V26.3813H116.059Z" fill="#24357F" stroke="white"/>
<path d="M267.009 59.3427C277.15 59.3427 284.129 62.8689 288.593 68.9872C293.077 75.1341 295.076 83.9694 295.076 94.6787V99.0312H256.008V99.5312C256.008 104.525 257.067 108.899 259.435 112.035C261.821 115.194 265.488 117.035 270.547 117.035C275.905 117.035 280.33 115.302 283.41 113.575C284.95 112.711 286.158 111.847 286.982 111.197C287.326 110.926 287.602 110.691 287.809 110.51L294.126 120.254C289.814 123.689 281.258 129.238 270.477 129.238C256.765 129.238 248.644 123.76 243.93 116.746C239.195 109.7 237.86 101.046 237.86 94.6787C237.86 84.3012 240.415 75.4628 245.318 69.2304C250.209 63.0132 257.473 59.3427 267.009 59.3427ZM267.009 71.29C264.639 71.29 262.758 71.9603 261.282 73.0566C259.812 74.1484 258.769 75.6422 258.032 77.2509C256.563 80.4573 256.271 84.2034 256.271 86.4365V87.2011H277.731V85.2206C277.731 78.3571 275.742 74.8176 273.313 73.0253C270.911 71.2531 268.2 71.29 267.009 71.29Z" fill="#24357F" stroke="white"/>
<path d="M240.108 0.5L195.866 154.781H180.345L224.585 0.5H240.108Z" fill="#24357F" stroke="white"/>
</g>
<defs>
<clipPath id="clip0_27_16">
<rect width="295.576" height="155.282" fill="white"/>
</clipPath>
</defs>
</svg>
