<svg width="1098" height="1569" viewBox="0 0 1098 1569" fill="none" xmlns="http://www.w3.org/2000/svg">
<path d="M520.091 0H301.976C301.971 0 301.971 0 301.964 0C301.947 0 301.935 0.00717131 301.916 0.0119527C301.866 0.031077 301.837 0.0788873 301.837 0.129089C301.837 0.172118 301.861 0.207977 301.885 0.231882L328.197 26.523L1039.1 26.7549L999.327 0.255788C999.307 0.243835 999.276 0.231882 999.252 0.231882L520.091 0ZM35.504 0.0860594L35 0.0740967L75.9617 57.2008L75.9713 57.1578C75.9569 57.1697 75.9546 57.1889 75.9617 57.2008C75.9665 57.2199 75.9833 57.2319 76 57.2319H999.252L999.276 57.2247L1040.48 29.7718L1040.5 29.7359C1040.5 29.724 1040.5 29.7096 1040.49 29.7048C1040.48 29.6977 1040.47 29.6929 1040.46 29.6929L313.96 29.461L313.692 29.1909L284.579 0.0980121L284.548 0.0860594H35.504Z" fill="#04F2F2"/>
<path d="M13.5312 1143.2C13.5312 1143.16 13.5586 1143.12 13.6016 1143.1C13.6406 1143.09 13.6875 1143.09 13.7227 1143.13L27.1914 1157.45L27.6914 1123.21L50.1914 1135.95L50.6914 1178.95L58.1367 1187.54L58.168 1187.62V1484.07C58.168 1484.1 58.1562 1484.13 58.1367 1484.15C58.1172 1484.17 58.0898 1484.18 58.0586 1484.18L57.9805 1484.15L34.6914 1484.07L34.918 1330.03L13.7578 1307.03L13.7227 1306.95L13.5312 1143.2ZM15.6914 1110.62V457.789L35.9258 402.312L35.2422 39.0389L58.5586 70.1288L59.2461 378.992L72.1914 366.055L71.5078 87.3905L35.9258 39.9491L35.2422 39.0389L35.1641 38.9374V0.0740967L94.8242 79.621L95.5078 375.715L39.0078 467.449V1105.79L92.0938 1154.63L95.5117 1158.05V1484.18H72.1914V1167.71L15.6914 1115.45V1110.62Z" fill="#04F2F2"/>
<path d="M369.438 1568.32L369.457 1568.31L369.438 1568.3V1568.32ZM369.438 1568.3H369.445L369.438 1568.29V1568.3ZM35.9375 1568.33C171.517 1567.73 233.858 1568.93 369.438 1568.33V1568.29L329.633 1539.14L329.613 1539.14L329.625 1539.14L0.0195312 1539.11L0 1539.12V1539.14L35.9297 1568.33H35.9375ZM663.359 1561.27H1016.37C1016.37 1561.27 1016.37 1561.27 1016.38 1561.27C1016.38 1561.27 1016.38 1561.27 1016.39 1561.27H1016.39C1016.41 1561.27 1016.43 1561.24 1016.43 1561.22V1561.21H1016.43L1016.43 1561.2C1016.43 1561.2 1016.43 1561.2 1016.43 1561.19H1016.43L1016.42 1561.2L1016.41 1561.19H1016.43C1016.42 1561.18 1016.42 1561.17 1016.41 1561.17L1016.42 1561.16L999 1520.03C997.828 1520.03 995.832 1520.03 995.812 1520.03C995.809 1520.03 995.805 1520.03 995.805 1520.03H660.535H611.477L611.434 1520.01L408.676 1520.57L407.824 1520.01L350.762 1484.09L350.723 1484.07L34.5508 1484.06L34.5 1484.07L0.0195312 1525.21L0 1525.26V1525.27L0.0625 1525.32H328.781L329.633 1525.89L386.703 1561.8L386.684 1561.77L386.734 1561.82L614.258 1561.25L615.246 1562.24L663.32 1561.26L663.359 1561.27Z" fill="#04F2F2"/>
<path d="M1073.03 952.236C1073.03 952.177 1072.99 952.127 1072.94 952.099C1072.89 952.068 1072.83 952.08 1072.78 952.107L1032.28 979.107C1032.24 979.138 1032.21 979.189 1032.21 979.236C1032.21 979.248 1032.21 979.248 1032.21 979.248V1066.39C1032.21 1066.44 1032.23 1066.48 1032.26 1066.51C1032.3 1066.54 1032.34 1066.55 1032.38 1066.55L1032.46 1066.52L1072.96 1039.52C1073 1039.5 1073.03 1039.45 1073.03 1039.39V952.236ZM1073.03 1048.41C1073.03 1048.35 1072.99 1048.3 1072.94 1048.27C1072.89 1048.24 1072.83 1048.25 1072.78 1048.28L1032.28 1075.28C1032.24 1075.31 1032.21 1075.35 1032.21 1075.41V1075.42V1162.6C1032.21 1162.64 1032.23 1162.68 1032.26 1162.72C1032.29 1162.74 1032.33 1162.76 1032.37 1162.76L1032.46 1162.73L1072.96 1135.73C1073 1135.7 1073.03 1135.66 1073.03 1135.6V1048.41ZM1073.05 1255.58C1073.05 1255.52 1073.01 1255.45 1072.95 1255.43C1072.9 1255.39 1072.83 1255.4 1072.77 1255.43L1032.27 1282.43C1032.22 1282.47 1032.19 1282.52 1032.19 1282.58C1032.19 1282.59 1032.19 1282.59 1032.19 1282.59V1378.87C1032.19 1378.91 1032.21 1378.96 1032.24 1378.99C1032.28 1379.03 1032.32 1379.04 1032.37 1379.04C1032.4 1379.04 1032.44 1379.04 1032.47 1379.02L1072.97 1352.02C1073.02 1351.98 1073.05 1351.93 1073.05 1351.87C1073.05 1351.86 1073.05 1351.86 1073.05 1351.85V1255.58ZM1073.05 1360.88C1073.05 1360.82 1073.01 1360.76 1072.95 1360.73C1072.9 1360.7 1072.83 1360.7 1072.77 1360.74L1032.27 1387.74C1032.22 1387.77 1032.19 1387.82 1032.19 1387.88C1032.19 1387.89 1032.19 1387.89 1032.19 1387.9V1548.45C1032.19 1548.5 1032.21 1548.54 1032.24 1548.57C1032.28 1548.61 1032.32 1548.63 1032.37 1548.63C1032.43 1548.63 1032.48 1548.6 1032.52 1548.55L1073.01 1487.8C1073.03 1487.77 1073.05 1487.74 1073.05 1487.7V1360.88ZM1073.05 1144.62C1073.05 1144.55 1073.01 1144.49 1072.96 1144.46C1072.9 1144.43 1072.83 1144.43 1072.77 1144.47L1032.27 1171.47C1032.22 1171.5 1032.19 1171.56 1032.19 1171.62V1171.63V1273.57C1032.19 1273.61 1032.21 1273.66 1032.24 1273.69C1032.28 1273.72 1032.32 1273.74 1032.37 1273.74C1032.4 1273.74 1032.44 1273.73 1032.47 1273.71L1072.97 1246.71C1073.02 1246.68 1073.05 1246.62 1073.05 1246.57C1073.05 1246.56 1073.05 1246.55 1073.05 1246.55V1144.62ZM1097.07 346.607C1097.07 346.537 1097.03 346.467 1096.96 346.439C1096.9 346.408 1096.82 346.408 1096.76 346.447L1032.26 389.447C1032.21 389.478 1032.17 389.549 1032.17 389.607C1032.17 389.619 1032.17 389.619 1032.17 389.627V551.607C1032.17 551.67 1032.19 551.717 1032.23 551.748C1032.27 551.787 1032.32 551.806 1032.37 551.806C1032.41 551.806 1032.45 551.799 1032.48 551.779L1072.98 524.779C1073.03 524.736 1073.06 524.678 1073.06 524.607V455.369L1097.01 431.42C1097.05 431.388 1097.07 431.338 1097.07 431.287V346.607ZM1073.07 734.67C1073.07 734.599 1073.03 734.529 1072.96 734.498C1072.9 734.459 1072.82 734.467 1072.76 734.51L1032.26 761.51C1032.21 761.537 1032.17 761.599 1032.17 761.67C1032.17 761.677 1032.17 761.677 1032.17 761.689V855.967C1032.17 856.017 1032.19 856.068 1032.23 856.107C1032.27 856.146 1032.32 856.17 1032.37 856.17C1032.41 856.17 1032.45 856.158 1032.48 856.138L1072.98 829.138C1073.04 829.099 1073.07 829.037 1073.07 828.967V734.67ZM1073.07 837.978C1073.07 837.908 1073.03 837.838 1072.96 837.806C1072.9 837.779 1072.82 837.779 1072.76 837.818L1032.26 864.818C1032.21 864.857 1032.17 864.92 1032.17 864.978C1032.17 864.986 1032.17 864.998 1032.17 864.998V970.228C1032.17 970.279 1032.19 970.33 1032.23 970.369C1032.27 970.396 1032.32 970.42 1032.37 970.42C1032.41 970.42 1032.45 970.408 1032.48 970.388L1072.98 943.388C1073.04 943.349 1073.07 943.287 1073.07 943.228V837.978ZM1073.08 533.627C1073.08 533.549 1073.04 533.478 1072.97 533.447C1072.9 533.408 1072.82 533.408 1072.76 533.459L1032.26 560.459C1032.2 560.498 1032.16 560.556 1032.16 560.627V560.638V653.849C1032.16 653.908 1032.19 653.959 1032.23 653.998C1032.26 654.037 1032.31 654.056 1032.37 654.056C1032.41 654.056 1032.45 654.049 1032.49 654.029L1072.99 627.029C1073.05 626.986 1073.08 626.92 1073.08 626.849V533.627ZM1073.08 635.869C1073.08 635.787 1073.04 635.717 1072.97 635.677C1072.9 635.646 1072.82 635.646 1072.76 635.697L1032.26 662.697C1032.2 662.728 1032.16 662.799 1032.16 662.869V662.877V752.658C1032.16 752.717 1032.19 752.767 1032.23 752.799C1032.26 752.838 1032.31 752.869 1032.37 752.869C1032.41 752.869 1032.45 752.849 1032.49 752.83L1072.99 725.83C1073.05 725.787 1073.08 725.728 1073.08 725.658V635.869ZM1097.08 223.838C1097.08 223.767 1097.04 223.697 1096.97 223.658C1096.9 223.619 1096.82 223.627 1096.76 223.67L1032.26 266.67C1032.19 266.709 1032.16 266.779 1032.16 266.838C1032.16 266.849 1032.16 266.849 1032.16 266.857V380.599C1032.16 380.709 1032.26 380.799 1032.37 380.799C1032.41 380.799 1032.45 380.787 1032.49 380.767L1096.99 337.767C1097.05 337.728 1097.08 337.67 1097.08 337.599V223.838ZM1087.79 206.68L1087.91 139.051C1087.91 139.047 1087.91 139.043 1087.91 139.039C1087.91 139.012 1087.91 138.984 1087.89 138.965L1040.98 92.0623L1039.91 90.9959L1040.49 29.6913C1040.49 29.6874 1040.49 29.6835 1040.49 29.6796C1040.49 29.6639 1040.48 29.6444 1040.47 29.6288V29.6327C1040.46 29.5975 1040.41 29.578 1040.38 29.5741C1040.32 29.5741 1040.29 29.6053 1040.28 29.6483V29.6444L999.066 57.0741C999.059 57.0936 999.047 57.1131 999.047 57.1327C999.047 57.1366 999.059 57.1405 999.059 57.1444V57.1522L999.066 1520.07C999.066 1520.09 999.078 1520.11 999.086 1520.12L1015.59 1560.85C1015.61 1560.89 1015.64 1560.91 1015.68 1560.91C1015.71 1560.91 1015.73 1560.9 1015.75 1560.88C1015.77 1560.86 1015.79 1560.83 1015.79 1560.8V254.738L1017.41 253.648L1087.74 206.765C1087.77 206.746 1087.79 206.715 1087.79 206.68Z" fill="#04F2F2"/>
</svg>
