<svg width="37" height="38" viewBox="0 0 37 38" fill="none" xmlns="http://www.w3.org/2000/svg">
<path fill-rule="evenodd" clip-rule="evenodd" d="M31.5 38H29.0911L24.8447 34.838H8.80642L4.53209 30.384V30.032V13.5L1.5 7.5V4.5L4.53209 0H6.18657L31.5 38ZM31.5 38L6.18657 0V7.5L6.15942 29.682L9.48033 33.143H37V34.5L31.5 38Z" fill="#00AAFF"/>
<path fill-rule="evenodd" clip-rule="evenodd" d="M3.06729 13.979L0 9.50497V15.5V18.779L3.06729 23.253L3.10559 21L1.5528 19V13.979L3.06729 16V13.979Z" fill="#00AAFF"/>
<path fill-rule="evenodd" clip-rule="evenodd" d="M3.06729 25.572V27.891L0 23.416V21.098L3.06729 25.572Z" fill="#00AAFF"/>
<path fill-rule="evenodd" clip-rule="evenodd" d="M23.5 38L25.5 38L23 35.5H21.5H19.5H18L20.5 37H22.5L23.5 38Z" fill="#00AAFF"/>
<path fill-rule="evenodd" clip-rule="evenodd" d="M10 38L8 38L10.5 35.5H12H14H15.5L13 37H11L10 38Z" fill="#00AAFF"/>
<path fill-rule="evenodd" clip-rule="evenodd" d="M5.85583 35.8558H7.85583L6.35583 34.3558L2.85583 30.8558V32.8558L5.85583 35.8558Z" fill="#00AAFF"/>
</svg>
