<svg width="37" height="38" viewBox="0 0 37 38" fill="none" xmlns="http://www.w3.org/2000/svg">
<path fill-rule="evenodd" clip-rule="evenodd" d="M11.5 35.5L8.5 37.5H6L9 35.5H11.5Z" fill="#00AAFF"/>
<path fill-rule="evenodd" clip-rule="evenodd" d="M15.5 35.5L12.5 37.5H10L13 35.5H15.5Z" fill="#00AAFF"/>
<path fill-rule="evenodd" clip-rule="evenodd" d="M19.5 35.5L16.5 37.5H14L17 35.5H19.5Z" fill="#00AAFF"/>
<path fill-rule="evenodd" clip-rule="evenodd" d="M31.5048 21L33.3808 23.5V26L31.5048 28.112V30.384L27.0027 34.838H8.5L3.58427 38H0L29.9345 0H31.5349L31.5048 2L35 5V9.5L31.5048 13.5V21ZM29.9345 0L0 38V33.143H0.12314H26.3524L29.9345 29.682V0Z" fill="#00AAFF"/>
<path fill-rule="evenodd" clip-rule="evenodd" d="M36.5 16.5V13.5L33.5032 17.5V20.5L36.5 16.5ZM36.465 12V8.99997L33.5032 13V16L36.465 12Z" fill="#00AAFF"/>
</svg>
