<svg width="1743" height="1721" viewBox="0 0 1743 1721" fill="none"
  xmlns="http://www.w3.org/2000/svg"
  shape-rendering="geometricPrecision"
>
  <path
    d="M1231.11 1124.15C1280.75 1049.12 1311.29 956.334 1321.87 848.385V848.381C1329.46 770.905 1326.42 693.813 1322 622.045C1319.16 575.84 1287.07 537.214 1242.14 525.93C1063.17 480.98 973.698 425.425 936.293 396.309C898.012 366.511 844.539 366.51 806.256 396.309C768.852 425.425 679.38 480.98 500.409 525.93C455.482 537.215 423.387 575.84 420.546 622.045C416.131 693.814 413.091 770.906 420.679 848.386C431.262 956.335 461.799 1049.12 511.441 1124.15C544.64 1174.34 591.083 1222.57 649.478 1267.51C699.197 1305.77 757.928 1341.95 824.042 1375.06C838.83 1382.47 855.052 1386.17 871.274 1386.17C887.496 1386.17 903.718 1382.47 918.506 1375.06C984.62 1341.96 1043.35 1305.77 1093.07 1267.51C1151.47 1222.57 1197.91 1174.34 1231.11 1124.15ZM1050.38 1212.03C1004.2 1247.57 949.285 1281.36 887.162 1312.47C877.213 1317.45 865.334 1317.45 855.385 1312.47C793.262 1281.36 738.348 1247.57 692.167 1212.03C639.91 1171.82 598.747 1129.26 569.821 1085.53C526.541 1020.11 499.801 938.026 490.343 841.559C483.234 768.963 486.175 695.219 490.411 626.342C491.373 610.713 502.242 597.643 517.459 593.821C599.622 573.185 751.981 527.261 849.252 451.547C855.734 446.501 863.504 443.978 871.273 443.978C879.043 443.978 886.811 446.501 893.294 451.547C990.564 527.261 1142.92 573.186 1225.09 593.821C1240.3 597.643 1251.17 610.712 1252.13 626.342C1256.37 695.219 1259.31 768.963 1252.2 841.555C1242.74 938.026 1216.01 1020.11 1172.72 1085.53C1143.8 1129.26 1102.64 1171.82 1050.38 1212.03Z"
    fill="#727C93" />
  <g filter="url(#filter0_d_314_3)">
    <path
      d="M874.498 625.5C954.555 625.5 1019.5 690.5 1019.5 770.728L1019.49 772.006C1019.03 826.059 989.089 873.074 944.918 897.702L935.24 903.098L936.573 914.099L962.426 1127.47C964.489 1144.52 951.195 1159.5 934.121 1159.5H814.879C797.805 1159.5 784.511 1144.52 786.574 1127.47L812.427 914.099L813.76 903.098L804.082 897.702C759.564 872.882 729.5 825.317 729.5 770.728C729.5 690.502 794.441 625.5 874.498 625.5Z"
      stroke="#84FF00" stroke-width="33" shape-rendering="crispEdges" />
  </g>
  <path
    d="M846.274 139.484V356.504C854.474 354.824 862.854 353.964 871.274 353.964C879.694 353.964 888.074 354.824 896.274 356.504V140.075C924.197 130.125 944.191 103.466 944.191 72.126C944.191 32.292 911.899 0 872.065 0C832.231 0 799.939 32.292 799.939 72.126C799.939 102.869 819.182 129.103 846.274 139.484Z"
    fill="#179A1C" />
  <path
    d="M1670.42 764.723C1639.68 764.723 1613.45 783.964 1603.07 811.054H1344.78C1344.06 823.784 1343.11 836.554 1341.87 849.354L1341.77 850.334C1341.42 853.924 1341.04 857.494 1340.65 861.054H1602.47C1612.42 888.98 1639.08 908.975 1670.42 908.975C1710.26 908.975 1742.55 876.683 1742.55 836.849C1742.55 797.015 1710.26 764.723 1670.42 764.723Z"
    fill="#179A1C" />
  <path
    d="M1611.21 495.417V574.365C1611.21 582.635 1604.48 589.365 1596.21 589.365H1335.99C1339.25 599.375 1341.29 609.915 1341.96 620.815C1342.34 626.955 1342.71 633.145 1343.06 639.365H1596.21C1632.05 639.365 1661.21 610.205 1661.21 574.365V495.42C1688.73 485.254 1708.34 458.794 1708.34 427.748C1708.34 387.914 1676.05 355.622 1636.22 355.622C1596.38 355.622 1564.09 387.914 1564.09 427.748C1564.09 458.791 1583.7 485.248 1611.21 495.417Z"
    fill="#179A1C" />
  <path
    d="M1147.43 477.674L1147.42 256.374C1147.42 248.104 1154.15 241.374 1162.42 241.374H1380.92C1391.09 268.887 1417.55 288.503 1448.59 288.503C1488.43 288.503 1520.72 256.211 1520.72 216.377C1520.72 176.543 1488.43 144.251 1448.59 144.251C1417.55 144.251 1391.09 163.865 1380.92 191.374H1162.42C1126.58 191.374 1097.42 220.534 1097.42 256.374L1097.43 459.654C1112.82 465.644 1129.45 471.684 1147.43 477.674Z"
    fill="#179A1C" />
  <path
    d="M896.274 1580.23V1403.65C888.064 1405.31 879.674 1406.17 871.274 1406.17C862.874 1406.17 854.484 1405.31 846.274 1403.65V1580.82C819.182 1591.2 799.939 1617.44 799.939 1648.18C799.939 1688.02 832.231 1720.31 872.065 1720.31C911.899 1720.31 944.191 1688.02 944.191 1648.18C944.191 1616.84 924.197 1590.18 896.274 1580.23Z"
    fill="#179A1C" />
  <path
    d="M1661.21 1178.28V1099.33C1661.21 1063.49 1632.05 1034.33 1596.21 1034.33H1299.57C1292.86 1051.61 1285.44 1068.28 1277.3 1084.33H1596.21C1604.48 1084.33 1611.21 1091.06 1611.21 1099.33V1178.28C1583.7 1188.45 1564.09 1214.91 1564.09 1245.95C1564.09 1285.78 1596.38 1318.08 1636.22 1318.08C1676.05 1318.08 1708.34 1285.78 1708.34 1245.95C1708.34 1214.9 1688.73 1188.44 1661.21 1178.28Z"
    fill="#179A1C" />
  <path
    d="M1448.59 1385.2C1417.55 1385.2 1391.09 1404.81 1380.92 1432.32H1162.42C1154.15 1432.32 1147.42 1425.59 1147.42 1417.32L1147.43 1248.55C1134.12 1260.36 1120.06 1271.96 1105.26 1283.35C1102.67 1285.34 1100.06 1287.32 1097.43 1289.3L1097.42 1417.32C1097.42 1453.16 1126.58 1482.32 1162.42 1482.32H1380.92C1391.09 1509.83 1417.55 1529.45 1448.59 1529.45C1488.43 1529.45 1520.72 1497.16 1520.72 1457.32C1520.72 1417.49 1488.43 1385.2 1448.59 1385.2Z"
    fill="#179A1C" />
  <path
    d="M140.077 861.054H401.894C401.504 857.494 401.124 853.924 400.774 850.334C399.494 837.214 398.504 824.104 397.774 811.054H139.483C129.102 783.964 102.868 764.723 72.126 764.723C32.292 764.723 0 797.015 0 836.849C0 876.683 32.292 908.975 72.126 908.975C103.467 908.975 130.128 888.98 140.077 861.054Z"
    fill="#179A1C" />
  <path
    d="M81.334 495.42V574.365C81.334 610.205 110.494 639.365 146.334 639.365H399.484C399.834 633.145 400.204 626.965 400.584 620.815C401.254 609.915 403.294 599.375 406.554 589.365H146.334C138.064 589.365 131.334 582.635 131.334 574.365V495.417C158.843 485.249 178.456 458.791 178.456 427.748C178.456 387.914 146.164 355.622 106.33 355.622C66.496 355.622 34.204 387.914 34.204 427.748C34.205 458.793 53.821 485.253 81.334 495.42Z"
    fill="#179A1C" />
  <path
    d="M293.955 288.503C325 288.503 351.46 268.886 361.626 241.374H580.124C588.394 241.374 595.124 248.104 595.124 256.374L595.114 477.674C613.094 471.684 629.724 465.644 645.114 459.654L645.124 256.374C645.124 220.534 615.964 191.374 580.124 191.374H361.624C351.456 163.865 324.998 144.251 293.955 144.251C254.121 144.251 221.829 176.543 221.829 216.377C221.829 256.211 254.121 288.503 293.955 288.503Z"
    fill="#179A1C" />
  <path
    d="M131.334 1178.28V1099.33C131.334 1091.06 138.064 1084.33 146.334 1084.33H465.244C457.104 1068.28 449.684 1051.61 442.974 1034.33H146.334C110.494 1034.33 81.334 1063.49 81.334 1099.33V1178.28C53.821 1188.44 34.205 1214.9 34.205 1245.95C34.205 1285.78 66.497 1318.08 106.331 1318.08C146.165 1318.08 178.457 1285.78 178.457 1245.95C178.456 1214.91 158.843 1188.45 131.334 1178.28Z"
    fill="#179A1C" />
  <path
    d="M637.284 1283.35C622.484 1271.96 608.424 1260.36 595.114 1248.55L595.124 1417.32C595.124 1425.59 588.394 1432.32 580.124 1432.32H361.626C351.459 1404.81 325 1385.2 293.955 1385.2C254.121 1385.2 221.829 1417.49 221.829 1457.32C221.829 1497.16 254.121 1529.45 293.955 1529.45C324.998 1529.45 351.456 1509.83 361.624 1482.32H580.124C615.964 1482.32 645.124 1453.16 645.124 1417.32L645.114 1289.3C642.484 1287.32 639.874 1285.34 637.284 1283.35Z"
    fill="#179A1C" />
  <defs>
    <filter id="filter0_d_314_3" x="709" y="609" width="331" height="575"
      filterUnits="userSpaceOnUse" color-interpolation-filters="sRGB">
      <feFlood flood-opacity="0" result="BackgroundImageFix" />
      <feColorMatrix in="SourceAlpha" type="matrix"
        values="0 0 0 0 0 0 0 0 0 0 0 0 0 0 0 0 0 0 127 0" result="hardAlpha" />
      <feOffset dy="4" />
      <feGaussianBlur stdDeviation="2" />
      <feComposite in2="hardAlpha" operator="out" />
      <feColorMatrix type="matrix" values="0 0 0 0 0 0 0 0 0 0 0 0 0 0 0 0 0 0 0.25 0" />
      <feBlend mode="normal" in2="BackgroundImageFix" result="effect1_dropShadow_314_3" />
      <feBlend mode="normal" in="SourceGraphic" in2="effect1_dropShadow_314_3" result="shape" />
    </filter>
  </defs>
</svg>