<svg width="269" height="269" viewBox="0 0 269 269" fill="none" xmlns="http://www.w3.org/2000/svg">
  <circle cx="134.5" cy="134.5" r="134.5" fill="#D9D9D9" />
  <path
    d="M126.617 7.06889C126.066 7.11893 124.315 7.29408 122.738 7.41918C86.3775 10.6969 52.3193 30.3132 30.7482 60.4632C18.7365 77.2271 11.054 96.2429 8.15112 116.385C7.12512 123.415 7 125.492 7 135.025C7 144.558 7.12512 146.635 8.15112 153.666C15.1079 201.73 49.3163 242.114 95.7116 257.076C104.02 259.754 112.778 261.58 122.738 262.681C126.617 263.106 143.383 263.106 147.262 262.681C164.454 260.779 179.018 256.526 193.382 249.195C195.584 248.069 196.01 247.769 195.709 247.518C195.509 247.368 186.125 234.783 174.864 219.57L154.394 191.922L128.744 153.966C114.63 133.098 103.019 116.034 102.919 116.034C102.819 116.009 102.718 132.873 102.668 153.465C102.593 189.52 102.568 190.971 102.118 191.822C101.467 193.048 100.967 193.549 99.9157 194.099C99.115 194.499 98.4143 194.574 94.6356 194.574H90.3064L89.1552 193.849C88.4045 193.373 87.854 192.748 87.4786 192.022L86.9531 190.896L87.0031 140.73L87.0782 90.5381L87.854 89.5623C88.2543 89.0369 89.1052 88.3613 89.7058 88.0361C90.7318 87.5357 91.1322 87.4856 95.4614 87.4856C100.566 87.4856 101.417 87.6858 102.743 89.137C103.119 89.5373 117.007 110.455 133.624 135.651C150.24 160.846 172.962 195.25 184.123 212.139L204.393 242.84L205.419 242.164C214.503 236.259 224.112 227.852 231.719 219.095C247.91 200.504 258.345 177.836 261.849 153.666C262.875 146.635 263 144.558 263 135.025C263 125.492 262.875 123.415 261.849 116.385C254.892 68.3197 220.684 27.9362 174.288 12.9738C166.105 10.3216 157.397 8.49507 147.637 7.39416C145.235 7.14395 128.694 6.86872 126.617 7.06889ZM179.018 84.4831C180.219 85.0836 181.195 86.2346 181.545 87.4356C181.746 88.0861 181.796 101.998 181.746 133.349L181.671 178.336L173.738 166.176L165.78 154.016V121.314C165.78 100.171 165.88 88.2863 166.03 87.7108C166.431 86.3096 167.307 85.2087 168.508 84.5582C169.534 84.0328 169.909 83.9827 173.838 83.9827C177.542 83.9827 178.192 84.0328 179.018 84.4831Z"
    fill="black" />
</svg>