
<svg width="1065" height="300" viewBox="0 0 1065 300" fill="none" xmlns="http://www.w3.org/2000/svg">
<path d="M712.502 293.15L749.353 114.567L763.382 293.15H842.896L806.046 9.68488H721.005L681.318 179.763L641.636 9.68488H556.596L519.745 293.15H599.115L613.289 114.567L650.141 293.15H712.502Z" fill="#263db0"/>
<path d="M959.115 9.68488H882.579V293.15H1064V233.622H959.115V9.68488Z" fill="#263db0"/>
<path d="M182.422 9.68488H86.0425L1.00348 293.15H86.0435L97.3815 242.127H171.082L182.422 293.15H267.461L182.422 9.68488ZM134.232 72.0469L159.745 188.267L108.72 188.268L134.232 72.0469Z" fill="#263db0"/>
<path d="M471.553 89.0559C401.121 27.4519 291.214 52.4979 290.136 108.899C274.155 4.25391 400.699 -17.5931 471.546 15.3549C472.808 32.1569 474.073 50.2469 471.553 89.0559Z" fill="#263db0"/>
<path d="M413.117 122.434C395.372 115.508 369.555 109.207 369.518 89.0309C369.503 80.7899 372.894 71.8419 389.349 66.3799C332.656 72.0489 313.75 141.013 376.453 175.29C387.381 181.264 406.357 187.601 406.357 208.11C406.357 232.067 380.036 240.727 362.722 240.361C333.961 239.756 310.837 229.709 284.466 210.944V278.976C315.673 292.41 366.505 307.904 417.462 292.232C458.645 279.566 494.23 244.996 494.23 208.109C494.232 148.087 442.139 133.763 413.117 122.434Z" fill="#263db0"/>
</svg>
