<?xml version="1.0" encoding="UTF-8"?>
<!DOCTYPE svg PUBLIC "-//W3C//DTD SVG 1.1//EN" "http://www.w3.org/Graphics/SVG/1.1/DTD/svg11.dtd">
<svg xmlns="http://www.w3.org/2000/svg" version="1.1" width="715px" height="839px" style="shape-rendering:geometricPrecision; text-rendering:geometricPrecision; image-rendering:optimizeQuality; fill-rule:evenodd; clip-rule:evenodd" xmlns:xlink="http://www.w3.org/1999/xlink">
<g><path style="opacity:0.99" fill="#8dd8f8" d="M 473.5,23.5 C 476.388,23.5419 479.388,24.3753 482.5,26C 484.224,26.4482 484.891,27.2815 484.5,28.5C 485.086,28.2907 485.586,27.9574 486,27.5C 487.946,29.9944 490.279,30.6611 493,29.5C 497.001,31.3325 500.668,33.6658 504,36.5C 509.335,37.5009 514.002,39.8342 518,43.5C 524.342,45.3548 529.342,48.3548 533,52.5C 533.718,51.5494 534.551,51.3828 535.5,52C 537.973,53.5615 539.973,55.5615 541.5,58C 543.5,58.6667 545.5,59.3333 547.5,60C 549.746,61.2568 551.079,63.0901 551.5,65.5C 556.172,65.9946 559.672,68.3279 562,72.5C 563.147,71.5419 564.147,71.8753 565,73.5C 565.359,76.5443 566.026,76.8776 567,74.5C 569.148,75.9774 570.482,77.9774 571,80.5C 574.289,80.085 576.289,81.7517 577,85.5C 577.333,85.1667 577.667,84.8333 578,84.5C 581.969,87.8162 585.469,91.4829 588.5,95.5C 589.984,96.4733 590.484,97.8067 590,99.5C 566.14,123.36 542.306,147.194 518.5,171C 516.287,173.053 514.287,172.887 512.5,170.5C 510.065,166.847 506.732,164.347 502.5,163C 502.833,162.667 503.167,162.333 503.5,162C 501.999,160.748 500.332,159.748 498.5,159C 498.833,158.667 499.167,158.333 499.5,158C 498.167,157.667 496.833,157.333 495.5,157C 495.619,155.719 495.119,154.552 494,153.5C 493.667,153.833 493.333,154.167 493,154.5C 491.333,153.5 490,152.167 489,150.5C 488.667,150.833 488.333,151.167 488,151.5C 484.074,148.759 480.408,145.759 477,142.5C 476.667,142.833 476.333,143.167 476,143.5C 472.053,141.22 468.387,138.553 465,135.5C 464.586,135.957 464.086,136.291 463.5,136.5C 458.576,134.233 453.909,131.567 449.5,128.5C 448.833,128.833 448.167,129.167 447.5,129.5C 441.5,126.833 435.5,124.167 429.5,121.5C 420.987,121.126 412.654,119.293 404.5,116C 383.502,112.689 362.502,112.689 341.5,116C 334.703,118.616 327.703,120.449 320.5,121.5C 319.833,120.167 319.167,120.167 318.5,121.5C 311.895,124.129 305.229,126.796 298.5,129.5C 297.833,129.167 297.167,128.833 296.5,128.5C 293.696,130.138 291.029,131.971 288.5,134C 285.163,135.83 281.83,136.83 278.5,137C 276.053,140.626 272.887,142.459 269,142.5C 266.986,144.845 264.653,146.845 262,148.5C 247.445,158.258 233.778,170.591 221,185.5C 220.667,185.167 220.333,184.833 220,184.5C 218.763,188.971 216.097,192.304 212,194.5C 211.146,199.364 208.646,203.197 204.5,206C 204.833,206.333 205.167,206.667 205.5,207C 203.79,210.719 201.29,213.886 198,216.5C 196.761,222.978 193.928,228.645 189.5,233.5C 189.833,234.167 190.167,234.833 190.5,235.5C 187.954,241.424 185.287,247.257 182.5,253C 182.183,260.332 180.35,267.499 177,274.5C 176.281,278.145 175.781,281.812 175.5,285.5C 175.17,299.198 174.503,313.032 173.5,327C 174.684,328.18 175.351,329.68 175.5,331.5C 174.476,338.57 174.976,345.57 177,352.5C 180.362,359.449 182.195,366.616 182.5,374C 185.651,379.951 188.317,386.117 190.5,392.5C 189.167,392.833 189.167,393.167 190.5,393.5C 196.412,409.993 204.912,424.993 216,438.5C 231.352,457.516 249.519,473.349 270.5,486C 272.134,486.494 273.801,486.66 275.5,486.5C 277.546,488.279 279.713,489.946 282,491.5C 282.414,491.043 282.914,490.709 283.5,490.5C 287.118,491.887 290.285,493.887 293,496.5C 299.342,497.314 305.342,499.647 311,503.5C 314.794,504.23 318.627,504.73 322.5,505C 330.59,507.564 338.757,509.73 347,511.5C 351.035,510.02 354.868,510.353 358.5,512.5C 368.321,511.178 378.154,511.178 388,512.5C 389.559,511.971 391.059,511.304 392.5,510.5C 396.108,511.593 399.775,511.76 403.5,511C 413.765,507.141 423.765,504.641 433.5,503.5C 435.017,503.511 436.184,504.177 437,505.5C 437.914,507.664 439.081,509.664 440.5,511.5C 446.137,512.663 451.804,512.83 457.5,512C 462.115,510.345 466.782,509.345 471.5,509C 463.194,513.38 454.528,516.88 445.5,519.5C 455.794,535.636 467.794,550.47 481.5,564C 483.5,564.667 485.5,564.667 487.5,564C 491.275,562.957 494.942,561.957 498.5,561C 494.796,563.513 491.13,566.013 487.5,568.5C 493.574,574.706 500.241,580.206 507.5,585C 508.823,585.816 509.489,586.983 509.5,588.5C 507.636,588.321 505.636,588.821 503.5,590C 499.135,594.458 493.801,596.792 487.5,597C 482.363,601.595 476.53,603.762 470,603.5C 466.001,605.583 461.834,607.25 457.5,608.5C 456.833,607.167 456.167,607.167 455.5,608.5C 453.49,610.04 451.156,611.04 448.5,611.5C 447.914,611.291 447.414,610.957 447,610.5C 444.595,611.274 442.095,611.774 439.5,612C 440.34,613.666 439.84,613.833 438,612.5C 434.887,614.502 431.387,615.502 427.5,615.5C 426.167,614.167 424.833,614.167 423.5,615.5C 421.961,617.982 420.461,617.982 419,615.5C 417.688,617.658 416.022,617.991 414,616.5C 412.915,617.293 411.748,617.96 410.5,618.5C 385.654,618.495 360.821,618.495 336,618.5C 334.527,618.097 333.194,617.43 332,616.5C 329.796,616.909 327.63,617.242 325.5,617.5C 324.524,616.805 323.524,616.138 322.5,615.5C 321.167,614.167 319.833,614.167 318.5,615.5C 315.801,615.534 313.301,614.867 311,613.5C 310.586,613.957 310.086,614.291 309.5,614.5C 308.818,613.757 308.151,613.091 307.5,612.5C 304.772,611.795 301.939,611.128 299,610.5C 297.853,611.458 296.853,611.125 296,609.5C 294.612,610.554 293.112,610.72 291.5,610C 286.054,608.691 281.054,606.524 276.5,603.5C 274.236,603.904 272.07,603.904 270,603.5C 268.667,602.833 267.667,601.833 267,600.5C 266.586,600.957 266.086,601.291 265.5,601.5C 262.787,599.618 259.953,597.951 257,596.5C 251.458,596.49 246.625,594.324 242.5,590C 239.768,589.587 237.101,588.92 234.5,588C 231.935,585.92 229.268,584.087 226.5,582.5C 226.167,581.167 225.833,581.167 225.5,582.5C 220.902,580.95 217.069,578.283 214,574.5C 212.984,575.634 212.317,575.301 212,573.5C 210.927,574.28 209.76,574.113 208.5,573C 206.667,571.167 204.833,569.333 203,567.5C 202.667,567.833 202.333,568.167 202,568.5C 197.72,566.553 194.387,563.553 192,559.5C 191.667,559.833 191.333,560.167 191,560.5C 187.703,558.205 184.703,555.538 182,552.5C 181.667,552.833 181.333,553.167 181,553.5C 179.833,552.333 178.667,551.167 177.5,550C 177.833,549.667 178.167,549.333 178.5,549C 176.153,548.154 174.32,546.654 173,544.5C 171.927,545.28 170.76,545.113 169.5,544C 168.968,541.537 167.634,539.703 165.5,538.5C 165.167,537.167 164.833,537.167 164.5,538.5C 162.273,537.599 161.273,535.933 161.5,533.5C 160.448,533.649 159.448,533.483 158.5,533C 155.833,529 152.5,525.667 148.5,523C 148.833,522.667 149.167,522.333 149.5,522C 147.863,519.69 145.696,518.19 143,517.5C 142.535,516.069 141.701,514.903 140.5,514C 140.833,513.667 141.167,513.333 141.5,513C 140.109,511.98 138.609,511.147 137,510.5C 136.215,508.714 135.049,507.214 133.5,506C 133.833,505.667 134.167,505.333 134.5,505C 131.728,503.14 129.395,500.806 127.5,498C 127.833,497.667 128.167,497.333 128.5,497C 125.158,493.991 122.158,490.657 119.5,487C 119.833,486.667 120.167,486.333 120.5,486C 115.654,482.418 112.821,477.918 112,472.5C 110,471.167 108.333,469.5 107,467.5C 101.599,457.688 96.5989,448.022 92,438.5C 91.3554,435.441 90.522,432.441 89.5,429.5C 87.2821,426.887 85.6154,423.887 84.5,420.5C 84.8333,419.833 85.1667,419.167 85.5,418.5C 83.3722,411.758 81.0389,405.758 78.5,400.5C 79.6783,398.662 79.345,396.995 77.5,395.5C 74.0083,386.093 71.3417,376.093 69.5,365.5C 70.3389,358.547 69.6723,351.714 67.5,345C 68.4787,341.196 68.6454,337.362 68,333.5C 67.6667,336.167 67.3333,338.833 67,341.5C 66.2165,338.24 66.3832,335.073 67.5,332C 66.1889,325.907 65.5222,319.574 65.5,313C 65.6667,306.833 65.8333,300.667 66,294.5C 67.1068,295.712 67.6068,295.379 67.5,293.5C 68.6829,289.825 68.6829,285.991 67.5,282C 68.8347,275.635 70.168,269.302 71.5,263C 70.572,262.612 69.9054,261.945 69.5,261C 71.5056,249.802 74.5056,238.969 78.5,228.5C 79.8333,227.833 79.8333,227.167 78.5,226.5C 78.5612,222.705 79.8945,219.538 82.5,217C 82.1667,216.667 81.8333,216.333 81.5,216C 82.7122,213.577 84.0456,211.244 85.5,209C 84.8333,208.667 84.1667,208.333 83.5,208C 85.2346,204.235 87.2346,200.735 89.5,197.5C 91.8236,189.183 94.9903,181.183 99,173.5C 100.681,169.917 102.681,167.251 105,165.5C 105.755,160.809 108.255,156.809 112.5,153.5C 111.429,151.675 112.096,150.508 114.5,150C 113.549,149.282 113.383,148.449 114,147.5C 117.892,141.577 122.392,136.077 127.5,131C 126.72,129.927 126.887,128.76 128,127.5C 129.873,125.291 132.04,123.458 134.5,122C 134.167,121.667 133.833,121.333 133.5,121C 134.701,120.097 135.535,118.931 136,117.5C 136.914,118.654 137.747,118.487 138.5,117C 138.167,116.667 137.833,116.333 137.5,116C 138.833,115 140.167,114 141.5,113C 141.167,112.667 140.833,112.333 140.5,112C 142.957,108.942 145.957,106.608 149.5,105C 148.833,104.667 148.167,104.333 147.5,104C 148.953,101.886 150.953,100.552 153.5,100C 154.5,96.3333 156.833,94 160.5,93C 161.495,89.4854 163.828,87.3187 167.5,86.5C 168.861,82.7622 171.195,80.7622 174.5,80.5C 175.354,79.4783 176.354,78.6449 177.5,78C 177.167,77.6667 176.833,77.3333 176.5,77C 178.286,76.2155 179.786,75.0488 181,73.5C 181.333,73.8333 181.667,74.1667 182,74.5C 185.004,69.7537 189.171,66.587 194.5,65C 196.453,60.7167 199.786,58.3834 204.5,58C 206.64,55.8604 208.806,53.6937 211,51.5C 211.333,51.8333 211.667,52.1667 212,52.5C 213.584,51.1387 215.418,50.472 217.5,50.5C 217.281,49.325 217.614,48.325 218.5,47.5C 221.981,44.9853 225.981,43.4853 230.5,43C 230.167,42.6667 229.833,42.3333 229.5,42C 231.5,40.6667 233.5,39.3333 235.5,38C 236.449,37.3828 237.282,37.5494 238,38.5C 240.166,37.2685 242.333,36.2685 244.5,35.5C 246.309,32.6217 248.809,31.6217 252,32.5C 258.46,27.8348 265.293,24.8348 272.5,23.5C 278.433,20.9203 285.433,18.5869 293.5,16.5C 293.735,17.0967 294.235,17.4301 295,17.5C 301.782,15.1933 308.616,13.0267 315.5,11C 321.346,9.91814 327.013,9.41814 332.5,9.5C 360.388,5.21882 388.221,5.55215 416,10.5C 423.619,9.72939 431.119,10.5627 438.5,13C 442.716,14.8111 447.05,16.3111 451.5,17.5C 452.293,17.0688 453.127,16.7355 454,16.5C 460.712,18.4487 467.212,20.782 473.5,23.5 Z"/></g>
<g><path style="opacity:0.004" fill="#e9fffe" d="M 332.5,9.5 C 331.127,9.65668 329.793,9.49001 328.5,9C 330.066,8.23502 331.399,8.40168 332.5,9.5 Z"/></g>
<g><path style="opacity:0.004" fill="#fefffe" d="M 293.5,16.5 C 293.897,15.475 294.563,15.3083 295.5,16C 294.906,16.4643 294.239,16.631 293.5,16.5 Z"/></g>
<g><path style="opacity:0.004" fill="#fefffe" d="M 272.5,23.5 C 271.833,22.1667 271.833,22.1667 272.5,23.5 Z"/></g>
<g><path style="opacity:0.004" fill="#fefffe" d="M 473.5,22.5 C 474.833,23.1667 474.833,23.1667 473.5,22.5 Z"/></g>
<g><path style="opacity:0.004" fill="#fefffe" d="M 244.5,35.5 C 243.833,34.1667 243.833,34.1667 244.5,35.5 Z"/></g>
<g><path style="opacity:0.004" fill="#fefffe" d="M 588.5,94.5 C 589.833,95.1667 589.833,95.1667 588.5,94.5 Z"/></g>
<g><path style="opacity:1" fill="#2d8bdb" d="M 201.5,103.5 C 208.286,116.452 218.286,126.285 231.5,133C 218.36,139.64 208.36,149.473 201.5,162.5C 195.311,148.811 185.311,138.978 171.5,133C 184.661,126.338 194.661,116.505 201.5,103.5 Z"/></g>
<g><path style="opacity:0.004" fill="#f7fffe" d="M 359.5,115.5 C 368.324,114.343 377.324,114.176 386.5,115C 377.506,115.5 368.506,115.666 359.5,115.5 Z"/></g>
<g><path style="opacity:0.012" fill="#1842cb" d="M 55.5,116.5 C 54.1266,116.657 52.7932,116.49 51.5,116C 53.0657,115.235 54.3991,115.402 55.5,116.5 Z"/></g>
<g><path style="opacity:0.999" fill="#157eb3" d="M 55.5,116.5 C 66.9785,123.888 78.9785,131.055 91.5,138C 88.9368,142.308 86.2701,146.475 83.5,150.5C 82.1667,150.833 82.1667,151.167 83.5,151.5C 81.5688,156.085 79.2355,160.419 76.5,164.5C 75.1667,164.833 75.1667,165.167 76.5,165.5C 74.6822,171.128 72.3488,176.462 69.5,181.5C 68.1667,181.833 68.1667,182.167 69.5,182.5C 67.6944,188.916 65.361,194.416 62.5,199C 62.6448,199.772 62.9781,200.439 63.5,201C 62.5842,201.278 61.9175,201.778 61.5,202.5C 60.1667,203.167 60.1667,203.833 61.5,204.5C 61.528,206.582 60.8613,208.416 59.5,210C 59.8333,210.333 60.1667,210.667 60.5,211C 59.252,212.4 58.252,213.9 57.5,215.5C 56.7171,218.77 55.7171,222.103 54.5,225.5C 54.7093,226.086 55.0426,226.586 55.5,227C 54.5842,227.278 53.9175,227.778 53.5,228.5C 53.5,228.833 53.5,229.167 53.5,229.5C 53.3284,230.492 53.6618,231.158 54.5,231.5C 53.99,234.539 53.3234,237.539 52.5,240.5C 51.3263,241.514 50.6596,242.847 50.5,244.5C 50.5,245.167 50.5,245.833 50.5,246.5C 48.975,254.36 47.975,262.027 47.5,269.5C 46.6993,271.042 46.366,272.708 46.5,274.5C 45.4026,279.321 45.4026,283.987 46.5,288.5C 46.5,299.5 46.5,310.5 46.5,321.5C 45.1667,324.833 45.1667,328.167 46.5,331.5C 46.5,332.833 46.5,334.167 46.5,335.5C 46.366,337.292 46.6993,338.958 47.5,340.5C 47.975,347.973 48.975,355.64 50.5,363.5C 50.5,364.167 50.5,364.833 50.5,365.5C 50.2291,367.38 50.8958,368.713 52.5,369.5C 53.3234,372.461 53.99,375.461 54.5,378.5C 53.6618,378.842 53.3284,379.508 53.5,380.5C 53.5,380.833 53.5,381.167 53.5,381.5C 54.0906,382.151 54.7573,382.818 55.5,383.5C 54.3318,384.906 54.6652,386.072 56.5,387C 56.1667,387.333 55.8333,387.667 55.5,388C 56.2638,390.069 56.7638,392.236 57,394.5C 57.3333,394.167 57.6667,393.833 58,393.5C 59.5288,397.429 60.6955,401.429 61.5,405.5C 60.1667,406.167 60.1667,406.833 61.5,407.5C 61.9175,408.222 62.5842,408.722 63.5,409C 62.9781,409.561 62.6448,410.228 62.5,411C 65.513,416.204 67.8464,421.704 69.5,427.5C 68.1667,427.833 68.1667,428.167 69.5,428.5C 72.3427,433.527 74.6761,438.861 76.5,444.5C 75.1667,444.833 75.1667,445.167 76.5,445.5C 79.2404,449.584 81.5737,453.918 83.5,458.5C 82.1667,458.833 82.1667,459.167 83.5,459.5C 86.2564,463.489 88.9231,467.656 91.5,472C 90.5494,472.718 90.3828,473.551 91,474.5C 94.9505,477.121 97.2838,480.788 98,485.5C 101.29,488.114 103.79,491.281 105.5,495C 105.167,495.333 104.833,495.667 104.5,496C 108.817,498.315 111.65,501.815 113,506.5C 114.771,507.304 116.271,508.471 117.5,510C 117.167,510.333 116.833,510.667 116.5,511C 118.425,514.051 121.258,516.885 125,519.5C 126.129,523.603 128.629,526.437 132.5,528C 133.358,531.854 135.692,534.354 139.5,535.5C 140.427,537.113 141.261,538.779 142,540.5C 142.667,541.833 143.333,541.833 144,540.5C 145.202,543.289 147.202,545.956 150,548.5C 150.414,548.043 150.914,547.709 151.5,547.5C 152.354,548.522 153.354,549.355 154.5,550C 154.876,551.84 156.043,553.673 158,555.5C 158.333,555.167 158.667,554.833 159,554.5C 161.461,557.956 164.627,560.456 168.5,562C 171.246,564.608 173.412,567.108 175,569.5C 175.333,569.167 175.667,568.833 176,568.5C 179.323,570.824 182.323,573.491 185,576.5C 185.333,576.167 185.667,575.833 186,575.5C 187.979,576.714 189.479,578.381 190.5,580.5C 195.511,582.312 199.844,585.145 203.5,589C 204.901,589.41 206.234,589.91 207.5,590.5C 208.006,592.105 208.673,592.439 209.5,591.5C 211.886,592.373 213.886,593.873 215.5,596C 220.798,596.651 225.131,598.984 228.5,603C 235.458,603.981 241.458,606.814 246.5,611.5C 248.48,610.617 250.48,610.783 252.5,612C 256.626,613.966 260.626,616.132 264.5,618.5C 265.167,618.167 265.833,617.833 266.5,617.5C 274.318,620.247 281.985,623.247 289.5,626.5C 293.536,625.866 297.536,626.366 301.5,628C 300.304,628.654 300.304,629.154 301.5,629.5C 302.293,629.069 303.127,628.735 304,628.5C 309.236,630.852 314.736,632.519 320.5,633.5C 321.416,633.457 322.083,633.124 322.5,632.5C 328.846,634.221 335.179,634.887 341.5,634.5C 340.737,635.268 339.737,635.768 338.5,636C 339.793,636.49 341.127,636.657 342.5,636.5C 345.779,635.508 349.112,635.341 352.5,636C 350.5,636.333 348.5,636.667 346.5,637C 356.993,636.665 367.493,637.165 378,638.5C 388.843,637.198 399.676,636.698 410.5,637C 408.5,636.667 406.5,636.333 404.5,636C 407.592,635.264 410.592,635.431 413.5,636.5C 414.833,636.5 415.5,635.833 415.5,634.5C 420.076,633.65 424.576,633.65 429,634.5C 430.95,632.197 433.283,631.864 436,633.5C 446.873,629.796 457.706,627.129 468.5,625.5C 473.371,624.398 478.038,622.731 482.5,620.5C 483.895,621.815 484.895,621.481 485.5,619.5C 488.136,619.299 490.469,618.633 492.5,617.5C 495.406,617.043 498.072,616.043 500.5,614.5C 500.435,614.938 500.601,615.272 501,615.5C 503.118,614.717 504.618,613.384 505.5,611.5C 507.283,610.825 508.95,610.492 510.5,610.5C 514.7,607.815 519.2,605.482 524,603.5C 524.333,603.833 524.667,604.167 525,604.5C 528.039,603.469 530.539,601.635 532.5,599C 539.747,596.061 546.747,592.727 553.5,589C 555.38,585.169 558.213,583.336 562,583.5C 564.833,582 567,579.833 568.5,577C 571.062,577.238 573.396,576.238 575.5,574C 574.167,573.333 574.167,572.667 575.5,572C 577.286,571.215 578.786,570.049 580,568.5C 580.333,568.833 580.667,569.167 581,569.5C 583.553,567.403 585.886,565.07 588,562.5C 588.333,562.833 588.667,563.167 589,563.5C 592.098,561.199 594.598,558.366 596.5,555C 597.449,554.383 598.282,554.549 599,555.5C 600.23,552.268 602.23,549.601 605,547.5C 605.333,547.833 605.667,548.167 606,548.5C 607.167,547.333 608.333,546.167 609.5,545C 609.167,544.667 608.833,544.333 608.5,544C 611.524,542.487 614.191,540.487 616.5,538C 616.167,537.667 615.833,537.333 615.5,537C 617.233,535.811 618.9,534.644 620.5,533.5C 622.124,529.876 624.791,527.209 628.5,525.5C 629.098,524.205 629.598,522.872 630,521.5C 632.593,519.451 635.093,517.285 637.5,515C 636.72,513.927 636.887,512.76 638,511.5C 639.333,510.167 640.667,508.833 642,507.5C 642.333,507.833 642.667,508.167 643,508.5C 643.714,503.619 646.214,499.952 650.5,497.5C 650.19,495.799 650.69,494.132 652,492.5C 654.5,490.667 656.667,488.5 658.5,486C 658.167,485.667 657.833,485.333 657.5,485C 659.238,481.259 661.738,478.092 665,475.5C 665.617,474.551 665.451,473.718 664.5,473C 665.333,472.167 666.167,471.333 667,470.5C 667.741,471.641 668.575,471.641 669.5,470.5C 672.526,473.026 675.693,475.36 679,477.5C 679.333,477.167 679.667,476.833 680,476.5C 681.419,477.46 682.919,478.293 684.5,479C 686.755,481.513 689.255,483.68 692,485.5C 692.333,484.833 692.667,484.167 693,483.5C 694.812,485.3 696.645,486.967 698.5,488.5C 700.091,489.219 701.591,490.219 703,491.5C 704.608,490.567 705.441,491.233 705.5,493.5C 705.41,495.425 704.41,496.592 702.5,497C 702.071,499.092 700.738,501.092 698.5,503C 699.451,503.718 699.617,504.551 699,505.5C 696.999,508.331 694.833,510.997 692.5,513.5C 691.167,513.833 691.167,514.167 692.5,514.5C 689.727,517.451 687.061,520.618 684.5,524C 685.28,525.073 685.113,526.24 684,527.5C 682.167,530 680,532.167 677.5,534C 677.833,534.333 678.167,534.667 678.5,535C 675.251,537.988 672.251,541.155 669.5,544.5C 668.167,544.833 668.167,545.167 669.5,545.5C 662.547,552.459 655.88,559.792 649.5,567.5C 649.167,566.167 648.833,566.167 648.5,567.5C 647.833,567.5 647.5,567.833 647.5,568.5C 641.564,575.438 635.231,582.105 628.5,588.5C 627.522,588.977 626.689,589.643 626,590.5C 625.667,590.167 625.333,589.833 625,589.5C 623.428,592.19 621.428,594.523 619,596.5C 618.667,596.167 618.333,595.833 618,595.5C 615.654,599.855 612.154,602.688 607.5,604C 606,606.833 603.833,609 601,610.5C 600.667,610.167 600.333,609.833 600,609.5C 598,612.167 595.667,614.5 593,616.5C 592.667,616.167 592.333,615.833 592,615.5C 588.043,618.122 584.376,621.122 581,624.5C 580.667,624.167 580.333,623.833 580,623.5C 577.913,624.794 575.746,625.961 573.5,627C 574.833,627.667 574.833,628.333 573.5,629C 572.034,629.635 570.7,630.469 569.5,631.5C 568.914,631.291 568.414,630.957 568,630.5C 564.559,633.781 560.726,636.448 556.5,638.5C 553.912,638.457 551.579,639.623 549.5,642C 547.167,643.167 544.833,644.333 542.5,645.5C 539.078,645.511 536.078,647.011 533.5,650C 531.257,651.136 528.924,651.97 526.5,652.5C 526.167,651.167 525.833,651.167 525.5,652.5C 519.883,655.557 514.049,658.224 508,660.5C 507.586,660.043 507.086,659.709 506.5,659.5C 501.316,662.502 495.816,664.835 490,666.5C 489.228,666.355 488.561,666.022 488,665.5C 482.378,667.165 476.545,669.331 470.5,672C 454.351,674.565 438.351,677.398 422.5,680.5C 422.189,679.522 421.522,678.855 420.5,678.5C 419.5,715.494 419.167,752.494 419.5,789.5C 435.342,789.83 451.009,789.496 466.5,788.5C 471.571,787.464 476.071,788.797 480,792.5C 480.483,793.448 480.649,794.448 480.5,795.5C 483.367,795.369 485.033,796.703 485.5,799.5C 484.167,799.833 484.167,800.167 485.5,800.5C 486.473,802.3 487.473,804.134 488.5,806C 488.5,809 488.5,812 488.5,815C 487.939,816.676 486.939,818.009 485.5,819C 485.957,819.414 486.291,819.914 486.5,820.5C 484.051,823.788 481.384,826.955 478.5,830C 475.914,829.29 473.914,830.29 472.5,833C 409.833,833.667 347.167,833.667 284.5,833C 283.086,830.29 281.086,829.29 278.5,830C 275.276,825.703 271.943,821.536 268.5,817.5C 268.5,812.833 268.5,808.167 268.5,803.5C 271.014,798.616 274.348,794.449 278.5,791C 281.496,789.021 284.496,787.854 287.5,787.5C 303.475,788.637 319.475,788.804 335.5,788C 334.836,752.069 334.17,716.236 333.5,680.5C 331.698,679.542 329.698,678.875 327.5,678.5C 326.833,678.5 326.167,678.5 325.5,678.5C 324.167,677.167 322.833,677.167 321.5,678.5C 314.453,677.151 307.453,675.484 300.5,673.5C 298.202,675.03 296.369,674.696 295,672.5C 293.274,673.576 291.441,673.743 289.5,673C 274.134,669.044 259.134,664.21 244.5,658.5C 243.779,656.618 242.779,656.285 241.5,657.5C 238.167,655.833 234.833,654.167 231.5,652.5C 230.833,651.167 230.167,651.167 229.5,652.5C 224.163,650.748 219.33,648.081 215,644.5C 214.586,644.957 214.086,645.291 213.5,645.5C 212.088,644.194 210.421,643.36 208.5,643C 207.167,642.333 207.167,641.667 208.5,641C 201.222,639.602 194.722,636.102 189,630.5C 188.282,631.451 187.449,631.617 186.5,631C 184.167,630 182.5,628.333 181.5,626C 177.258,625.239 173.258,623.239 169.5,620C 169.833,619.667 170.167,619.333 170.5,619C 167.975,618.576 165.975,617.41 164.5,615.5C 164.167,614.167 163.833,614.167 163.5,615.5C 162.027,614.928 160.693,614.095 159.5,613C 159.833,612.667 160.167,612.333 160.5,612C 155.721,610.957 152.054,608.457 149.5,604.5C 148.48,603.046 147.313,602.713 146,603.5C 143.497,601.52 141.664,599.187 140.5,596.5C 137.642,596.405 135.309,595.238 133.5,593C 133.833,592.667 134.167,592.333 134.5,592C 132.5,591 130.5,590 128.5,589C 121.277,581.918 114.444,574.752 108,567.5C 107.333,568.833 106.667,568.833 106,567.5C 103.705,564.203 101.038,561.203 98,558.5C 97.6667,557.5 97.3333,556.5 97,555.5C 93.9082,554.077 91.9082,551.743 91,548.5C 87.3333,544.913 83.6667,541.246 80,537.5C 78.887,536.24 78.7203,535.073 79.5,534C 76.527,531.272 73.6937,528.439 71,525.5C 70.3828,524.551 70.5494,523.718 71.5,523C 69.9781,520.695 67.9781,519.195 65.5,518.5C 65.7035,516.61 65.0368,515.11 63.5,514C 63.8333,513.667 64.1667,513.333 64.5,513C 60.7435,509.914 57.7435,506.248 55.5,502C 55.8333,501.667 56.1667,501.333 56.5,501C 53.4465,497.613 50.7798,493.947 48.5,490C 48.8333,489.667 49.1667,489.333 49.5,489C 46.0891,485.516 43.4225,481.516 41.5,477C 42.4506,476.282 42.6172,475.449 42,474.5C 37.5456,469.376 34.879,463.71 34,457.5C 30.017,454.056 28.1837,449.889 28.5,445C 26.7534,440.628 24.5868,436.461 22,432.5C 21.0737,428.348 20.2404,424.181 19.5,420C 16.961,415.922 14.961,411.588 13.5,407C 14.1667,406.667 14.8333,406.333 15.5,406C 13.4813,401.685 12.148,397.185 11.5,392.5C 11.0472,391.542 10.3805,390.708 9.5,390C 9.83333,389.667 10.1667,389.333 10.5,389C 9.64216,387.43 8.9755,385.763 8.5,384C 9.77298,381.784 9.77298,379.617 8.5,377.5C 8.5,376.833 8.5,376.167 8.5,375.5C 6.29674,372.815 5.63007,369.815 6.5,366.5C 5.89093,362.365 5.22427,358.365 4.5,354.5C 4.5,353.5 4.5,352.5 4.5,351.5C 4.71481,349.821 4.04814,348.821 2.5,348.5C -0.129071,320.496 -0.129071,292.496 2.5,264.5C 4.07394,262.898 4.74061,260.898 4.5,258.5C 4.5,257.5 4.5,256.5 4.5,255.5C 5.22427,251.635 5.89093,247.635 6.5,243.5C 6.29069,242.914 5.95735,242.414 5.5,242C 6.02696,239.24 7.02696,236.74 8.5,234.5C 8.5,233.833 8.5,233.167 8.5,232.5C 9.77298,230.383 9.77298,228.216 8.5,226C 8.9755,224.237 9.64216,222.57 10.5,221C 10.1667,220.667 9.83333,220.333 9.5,220C 10.3805,219.292 11.0472,218.458 11.5,217.5C 12.148,212.815 13.4813,208.315 15.5,204C 14.8333,203.667 14.1667,203.333 13.5,203C 14.7584,198.891 16.5917,195.058 19,191.5C 20.8398,186.811 21.8398,182.144 22,177.5C 24.5868,173.539 26.7534,169.372 28.5,165C 28.2037,160.075 30.037,155.909 34,152.5C 34.2104,149.766 35.0437,147.266 36.5,145C 36.1667,144.667 35.8333,144.333 35.5,144C 37.6667,141.167 39.8333,138.333 42,135.5C 42.6172,134.551 42.4506,133.718 41.5,133C 43.4225,128.484 46.0891,124.484 49.5,121C 48.3595,120.259 48.3595,119.425 49.5,118.5C 51.6309,117.831 53.6309,117.165 55.5,116.5 Z"/></g>
<g><path style="opacity:0.004" fill="#fefffe" d="M 318.5,121.5 C 319.167,121.5 319.833,121.5 320.5,121.5C 319.833,122.833 319.167,122.833 318.5,121.5 Z"/></g>
<g><path style="opacity:0.004" fill="#00fffe" d="M 83.5,150.5 C 84.8333,151.167 84.8333,151.167 83.5,150.5 Z"/></g>
<g><path style="opacity:0.999" fill="#1d6ec2" d="M 422.5,148.5 C 424.494,188.153 425.161,228.153 424.5,268.5C 414.684,264.763 405.018,260.096 395.5,254.5C 395.167,253.167 394.833,253.167 394.5,254.5C 391.545,254.019 389.211,252.519 387.5,250C 381.821,249.55 376.987,247.384 373,243.5C 369.8,242.793 366.633,241.96 363.5,241C 364.654,240.086 364.487,239.253 363,238.5C 362.586,238.957 362.086,239.291 361.5,239.5C 359.037,237.203 356.203,235.537 353,234.5C 349.225,234.82 345.558,233.153 342,229.5C 341.167,214.822 341.334,200.155 342.5,185.5C 346.181,181.519 350.514,179.519 355.5,179.5C 360.69,175.223 366.357,172.723 372.5,172C 375.959,168.763 379.959,166.263 384.5,164.5C 385.167,164.833 385.833,165.167 386.5,165.5C 389.997,162.917 393.664,160.584 397.5,158.5C 398.842,159.902 399.676,159.569 400,157.5C 400.333,157.833 400.667,158.167 401,158.5C 404.745,156.761 408.245,154.594 411.5,152C 415.31,151.143 418.977,149.976 422.5,148.5 Z"/></g>
<g><path style="opacity:0.99" fill="#2b8bdb" d="M 422.5,148.5 C 422.735,147.903 423.235,147.57 424,147.5C 427.854,149.744 432.02,151.244 436.5,152C 439.009,153.421 441.343,155.088 443.5,157C 446.167,157.667 448.833,158.333 451.5,159C 455.339,161.035 459.006,163.201 462.5,165.5C 463.086,165.291 463.586,164.957 464,164.5C 468.715,166.775 473.215,169.442 477.5,172.5C 482.835,172.659 487.502,174.826 491.5,179C 497.308,178.979 501.974,181.146 505.5,185.5C 504.575,283.551 504.241,382.551 504.5,482.5C 503.85,482.196 503.183,481.863 502.5,481.5C 496.443,484.7 490.11,487.033 483.5,488.5C 483.328,487.508 483.662,486.842 484.5,486.5C 485.833,400.167 485.833,313.833 484.5,227.5C 482.549,227.773 481.049,227.107 480,225.5C 479.586,225.957 479.086,226.291 478.5,226.5C 477.5,314.164 477.167,401.831 477.5,489.5C 476.167,490.833 474.833,490.833 473.5,489.5C 470.282,486.445 467.616,482.945 465.5,479C 466.451,478.282 466.617,477.449 466,476.5C 461.284,473.031 458.784,468.698 458.5,463.5C 455.225,462.386 453.058,460.053 452,456.5C 451.5,397.501 451.333,338.501 451.5,279.5C 448.86,278.552 446.193,277.552 443.5,276.5C 443.167,275.167 442.833,275.167 442.5,276.5C 438.058,273.247 433.224,270.581 428,268.5C 426.855,269.684 425.688,269.684 424.5,268.5C 425.161,228.153 424.494,188.153 422.5,148.5 Z M 457.5,191.5 C 457.833,192.833 458.167,192.833 458.5,191.5C 459.167,191.833 459.833,192.167 460.5,192.5C 460.819,197.363 460.486,202.03 459.5,206.5C 457.229,205.316 454.895,204.316 452.5,203.5C 452.334,198.821 452.501,194.155 453,189.5C 454.33,190.582 455.83,191.249 457.5,191.5 Z M 477.5,200.5 C 478.458,200.953 479.292,201.619 480,202.5C 480.333,202.167 480.667,201.833 481,201.5C 484.275,206.254 485.275,211.588 484,217.5C 483.184,216.177 482.017,215.511 480.5,215.5C 480.167,214.167 479.833,214.167 479.5,215.5C 477.558,210.944 476.892,205.944 477.5,200.5 Z M 460.5,217.5 C 460.5,233.5 460.5,249.5 460.5,265.5C 458.196,264.837 455.863,264.17 453.5,263.5C 452.501,246.847 452.167,230.18 452.5,213.5C 455.368,214.353 458.035,215.686 460.5,217.5 Z"/></g>
<g><path style="opacity:0.004" fill="#00fffe" d="M 76.5,164.5 C 77.8333,165.167 77.8333,165.167 76.5,164.5 Z"/></g>
<g><path style="opacity:1" fill="#2e8cdb" d="M 181.5,164.5 C 186.118,172.451 192.451,178.784 200.5,183.5C 192.474,188.026 186.308,194.359 182,202.5C 177.118,194.617 170.618,188.451 162.5,184C 171.049,179.618 177.383,173.118 181.5,164.5 Z"/></g>
<g><path style="opacity:0.004" fill="#0000ff" d="M 370.5,170.5 C 371.833,171.167 371.833,171.167 370.5,170.5 Z"/></g>
<g><path style="opacity:0.004" fill="#fefffe" d="M 512.5,170.5 C 511.833,171.167 511.833,171.167 512.5,170.5 Z"/></g>
<g><path style="opacity:1" fill="#2d8cdb" d="M 130.5,173.5 C 131.376,173.369 132.043,173.702 132.5,174.5C 138.444,187.444 147.777,197.11 160.5,203.5C 154.99,207.088 149.657,210.922 144.5,215C 139.557,220.387 135.224,226.221 131.5,232.5C 124.771,219.437 114.771,209.771 101.5,203.5C 115.299,197.369 124.966,187.369 130.5,173.5 Z"/></g>
<g><path style="opacity:0.004" fill="#0000ff" d="M 69.5,181.5 C 70.8333,182.167 70.8333,182.167 69.5,181.5 Z"/></g>
<g><path style="opacity:0.004" fill="#00d6d6" d="M 505.5,185.5 C 506.499,284.332 506.833,383.332 506.5,482.5C 505.833,482.5 505.167,482.5 504.5,482.5C 504.241,382.551 504.575,283.551 505.5,185.5 Z"/></g>
<g><path style="opacity:1" fill="#f4f8fb" d="M 390.5,184.5 C 394.59,189.42 399.257,193.92 404.5,198C 399.312,201.688 394.978,206.188 391.5,211.5C 388.531,205.532 384.197,200.865 378.5,197.5C 384.561,195.029 388.561,190.696 390.5,184.5 Z"/></g>
<g><path style="opacity:0.004" fill="#00fffe" d="M 460.5,192.5 C 460.833,192.5 461.167,192.5 461.5,192.5C 461.5,197.5 461.5,202.5 461.5,207.5C 460.508,207.672 459.842,207.338 459.5,206.5C 460.486,202.03 460.819,197.363 460.5,192.5 Z"/></g>
<g><path style="opacity:0.004" fill="#fefffe" d="M 89.5,197.5 C 88.8333,196.167 88.8333,196.167 89.5,197.5 Z"/></g>
<g><path style="opacity:0.004" fill="#0000ff" d="M 61.5,202.5 C 62.8333,203.167 62.8333,203.833 61.5,204.5C 61.5,203.833 61.5,203.167 61.5,202.5 Z"/></g>
<g><path style="opacity:0.004" fill="#0000ff" d="M 57.5,215.5 C 58.8333,216.167 58.8333,216.167 57.5,215.5 Z"/></g>
<g><path style="opacity:0.004" fill="#0000ff" d="M 11.5,217.5 C 10.8333,216.167 10.8333,216.167 11.5,217.5 Z"/></g>
<g><path style="opacity:0.004" fill="#02fdff" d="M 460.5,217.5 C 461.492,217.328 462.158,217.662 462.5,218.5C 461.504,233.991 461.17,249.658 461.5,265.5C 461.167,265.5 460.833,265.5 460.5,265.5C 460.5,249.5 460.5,233.5 460.5,217.5 Z"/></g>
<g><path style="opacity:0.012" fill="#c8c5ff" d="M 78.5,226.5 C 78.5,227.167 78.5,227.833 78.5,228.5C 77.1667,227.833 77.1667,227.167 78.5,226.5 Z"/></g>
<g><path style="opacity:0.004" fill="#00fffe" d="M 484.5,227.5 C 485.833,313.833 485.833,400.167 484.5,486.5C 484.493,399.959 484.493,313.626 484.5,227.5 Z"/></g>
<g><path style="opacity:0.004" fill="#0000ff" d="M 53.5,229.5 C 53.5,229.167 53.5,228.833 53.5,228.5C 55.5518,229.053 55.8852,230.053 54.5,231.5C 54.6716,230.508 54.3382,229.842 53.5,229.5 Z"/></g>
<g><path style="opacity:0.004" fill="#fefffe" d="M 76.5,229.5 C 77.8333,230.167 77.8333,230.167 76.5,229.5 Z"/></g>
<g><path style="opacity:0.004" fill="#0000ff" d="M 324.5,229.5 C 325.833,230.167 325.833,230.167 324.5,229.5 Z"/></g>
<g><path style="opacity:0.989" fill="#2d8cdb" d="M 324.5,230.5 C 325.189,231.774 326.023,231.774 327,230.5C 331.008,234.403 335.508,236.403 340.5,236.5C 344.222,239.063 348.055,241.397 352,243.5C 356.432,243.46 360.266,245.293 363.5,249C 366.053,249.761 368.553,250.594 371,251.5C 371.333,251.167 371.667,250.833 372,250.5C 375.242,253.205 378.742,255.539 382.5,257.5C 383.086,257.291 383.586,256.957 384,256.5C 389.045,258.272 393.545,260.938 397.5,264.5C 398.167,264.167 398.833,263.833 399.5,263.5C 405.055,265.901 410.222,268.901 415,272.5C 416.77,271.724 418.603,271.89 420.5,273C 423.429,275.757 426.762,277.924 430.5,279.5C 431.086,279.291 431.586,278.957 432,278.5C 436.307,280.405 440.473,282.405 444.5,284.5C 444.833,335.504 444.5,386.504 443.5,437.5C 440.946,438.527 438.946,437.694 437.5,435C 437.833,434.667 438.167,434.333 438.5,434C 434.668,430.167 432.002,425.667 430.5,420.5C 428.142,418.976 426.309,416.976 425,414.5C 424.846,411.839 423.846,409.173 422,406.5C 421.333,407.833 420.667,407.833 420,406.5C 419.293,404.919 418.46,403.419 417.5,402C 417.833,401.667 418.167,401.333 418.5,401C 415.318,397.814 412.485,394.314 410,390.5C 410.253,387.643 408.919,385.309 406,383.5C 405.667,369.167 405.333,354.833 405,340.5C 404.617,339.944 404.117,339.611 403.5,339.5C 403.167,338.167 402.833,338.167 402.5,339.5C 399.628,338.474 397.128,336.808 395,334.5C 394.333,365.167 393.667,365.167 393,334.5C 392.832,342.521 392.332,350.521 391.5,358.5C 389.645,354.193 386.811,350.526 383,347.5C 381.065,342.538 378.231,338.038 374.5,334C 375.634,332.984 375.301,332.317 373.5,332C 373.833,331.667 374.167,331.333 374.5,331C 371.666,326.059 367.666,322.226 362.5,319.5C 361.575,320.641 360.741,320.641 360,319.5C 359.667,324.5 359.333,329.5 359,334.5C 353.567,337.376 348.067,339.042 342.5,339.5C 341.25,339.577 340.417,340.244 340,341.5C 339.374,339.009 338.541,339.009 337.5,341.5C 336.914,341.291 336.414,340.957 336,340.5C 327.772,341.941 319.772,344.274 312,347.5C 310.354,345.859 309.354,346.193 309,348.5C 308.309,346.109 307.309,346.109 306,348.5C 305.586,348.043 305.086,347.709 304.5,347.5C 300.418,348.689 296.418,349.689 292.5,350.5C 291.542,350.953 290.708,351.619 290,352.5C 288.127,353.089 286.46,352.422 285,350.5C 284.5,330.169 284.333,309.836 284.5,289.5C 282.315,289.704 280.315,290.37 278.5,291.5C 278.167,290.167 277.833,290.167 277.5,291.5C 275.62,291.229 274.287,291.896 273.5,293.5C 272.17,299.463 271.504,305.796 271.5,312.5C 271.504,319.204 272.17,325.537 273.5,331.5C 272.571,332.315 271.571,333.148 270.5,334C 264.487,333.388 258.487,333.555 252.5,334.5C 252.5,333.5 252.5,332.5 252.5,331.5C 252.666,322.161 252.5,312.827 252,303.5C 250.378,304.099 248.878,304.766 247.5,305.5C 244.307,306.665 241.307,308.331 238.5,310.5C 237.175,328.398 237.175,346.231 238.5,364C 236.833,365 235.167,366 233.5,367C 229.964,368.031 226.63,368.531 223.5,368.5C 218.181,369.663 212.847,370.829 207.5,372C 208.34,373.666 207.84,373.833 206,372.5C 204.451,375.003 202.784,375.003 201,372.5C 200.5,343.169 200.333,313.835 200.5,284.5C 204.214,282.166 208.214,280.166 212.5,278.5C 213.086,278.709 213.586,279.043 214,279.5C 218.21,276.061 222.877,273.394 228,271.5C 228.414,271.957 228.914,272.291 229.5,272.5C 234.278,268.901 239.445,265.901 245,263.5C 245.414,263.957 245.914,264.291 246.5,264.5C 250.873,261.314 255.54,258.647 260.5,256.5C 261.167,256.833 261.833,257.167 262.5,257.5C 267.913,252.783 273.913,249.95 280.5,249C 283,247.167 285.5,245.333 288,243.5C 292.322,243.772 296.155,242.272 299.5,239C 303.123,236.521 307.123,235.188 311.5,235C 314.49,232.009 317.99,229.843 322,228.5C 322.417,229.756 323.25,230.423 324.5,230.5 Z M 367.5,291.5 C 369.017,291.511 370.184,292.177 371,293.5C 371.499,299.491 371.666,305.491 371.5,311.5C 369.017,309.931 366.517,308.265 364,306.5C 363.667,307.167 363.333,307.833 363,308.5C 362.311,307.643 361.478,306.977 360.5,306.5C 359.505,300.872 359.171,295.206 359.5,289.5C 362.467,290.402 365.133,291.068 367.5,291.5 Z M 396.5,322.5 C 395.27,319.769 394.604,316.769 394.5,313.5C 394.378,310.309 394.878,307.309 396,304.5C 396.324,306.569 397.158,306.902 398.5,305.5C 404.861,307.845 407.194,312.345 405.5,319C 405.167,321.833 404.833,324.667 404.5,327.5C 402.064,325.384 399.397,323.717 396.5,322.5 Z"/></g>
<g><path style="opacity:0.004" fill="#0000ff" d="M 8.5,232.5 C 8.5,233.167 8.5,233.833 8.5,234.5C 6.77484,234.157 6.27484,233.157 7,231.5C 7.38258,232.056 7.88258,232.389 8.5,232.5 Z"/></g>
<g><path style="opacity:0.004" fill="#0000ff" d="M 52.5,240.5 C 52.8432,242.483 52.1765,243.817 50.5,244.5C 50.6596,242.847 51.3263,241.514 52.5,240.5 Z"/></g>
<g><path style="opacity:0.004" fill="#0000ff" d="M 50.5,246.5 C 51.525,246.897 51.6917,247.563 51,248.5C 50.5357,247.906 50.369,247.239 50.5,246.5 Z"/></g>
<g><path style="opacity:0.004" fill="#0000ff" d="M 4.5,255.5 C 3.83333,254.167 3.83333,254.167 4.5,255.5 Z"/></g>
<g><path style="opacity:0.004" fill="#0000ff" d="M 394.5,254.5 C 394.833,254.5 395.167,254.5 395.5,254.5C 395.315,255.17 394.981,255.17 394.5,254.5 Z"/></g>
<g><path style="opacity:0.004" fill="#0000ff" d="M 4.5,258.5 C 4.74061,260.898 4.07394,262.898 2.5,264.5C 2.02539,261.918 2.69206,259.918 4.5,258.5 Z"/></g>
<g><path style="opacity:0.004" fill="#0000ff" d="M 47.5,269.5 C 48.6225,271.288 48.7891,273.288 48,275.5C 47.6174,274.944 47.1174,274.611 46.5,274.5C 46.366,272.708 46.6993,271.042 47.5,269.5 Z"/></g>
<g><path style="opacity:0.004" fill="#00fffe" d="M 442.5,276.5 C 442.833,276.5 443.167,276.5 443.5,276.5C 443.315,277.17 442.981,277.17 442.5,276.5 Z"/></g>
<g><path style="opacity:0.008" fill="#327db0" d="M 46.5,288.5 C 46.3354,285.482 46.502,282.482 47,279.5C 47.8045,282.696 47.6378,285.696 46.5,288.5 Z"/></g>
<g><path style="opacity:0.004" fill="#eafffe" d="M 175.5,285.5 C 176.613,286.946 176.78,288.613 176,290.5C 175.506,288.866 175.34,287.199 175.5,285.5 Z"/></g>
<g><path style="opacity:0.012" fill="#a5d4ff" d="M 67.5,293.5 C 66.3659,291.034 66.1993,288.367 67,285.5C 67.4974,288.146 67.6641,290.813 67.5,293.5 Z"/></g>
<g><path style="opacity:0.004" fill="#00fffe" d="M 277.5,291.5 C 277.833,291.5 278.167,291.5 278.5,291.5C 278.315,292.17 277.981,292.17 277.5,291.5 Z"/></g>
<g><path style="opacity:0.008" fill="#007fff" d="M 273.5,293.5 C 273.5,306.167 273.5,318.833 273.5,331.5C 272.17,325.537 271.504,319.204 271.5,312.5C 271.504,305.796 272.17,299.463 273.5,293.5 Z"/></g>
<g><path style="opacity:0.012" fill="#4acaca" d="M 252.5,331.5 C 251.778,331.918 251.278,332.584 251,333.5C 250.832,324.149 250.332,314.816 249.5,305.5C 248.571,306.55 247.905,306.55 247.5,305.5C 248.878,304.766 250.378,304.099 252,303.5C 252.5,312.827 252.666,322.161 252.5,331.5 Z"/></g>
<g><path style="opacity:0.97" fill="#1082b6" d="M 614.5,434.5 C 613.167,434.833 613.167,435.167 614.5,435.5C 613.552,439.888 611.219,443.388 607.5,446C 608.634,447.016 608.301,447.683 606.5,448C 606.833,448.333 607.167,448.667 607.5,449C 601.025,458.053 594.859,466.886 589,475.5C 588.667,475.167 588.333,474.833 588,474.5C 587.333,476.167 587.333,477.833 588,479.5C 588.333,479.167 588.667,478.833 589,478.5C 591.894,481.79 594.228,485.457 596,489.5C 596.667,488.167 597.333,488.167 598,489.5C 599.909,494.15 599.909,498.816 598,503.5C 597.25,504.126 596.416,504.626 595.5,505C 595.833,505.333 596.167,505.667 596.5,506C 594.299,507.684 593.633,509.684 594.5,512C 593.039,514.421 591.706,516.921 590.5,519.5C 589.675,520.386 588.675,520.719 587.5,520.5C 585.712,533.788 579.546,536.455 569,528.5C 567.927,529.28 566.76,529.113 565.5,528C 565.833,527.667 566.167,527.333 566.5,527C 559.64,526.823 553.806,523.99 549,518.5C 545.55,517.839 542.384,516.005 539.5,513C 539.833,512.667 540.167,512.333 540.5,512C 537.048,511.108 534.048,509.442 531.5,507C 528.706,504.37 526.039,501.537 523.5,498.5C 524.55,496.898 523.883,496.065 521.5,496C 520.167,495.333 520.167,494.667 521.5,494C 519.714,493.215 518.214,492.049 517,490.5C 516.807,487.819 515.807,485.152 514,482.5C 513.667,482.833 513.333,483.167 513,483.5C 511.708,481.751 510.542,479.918 509.5,478C 512.978,475.85 516.145,473.35 519,470.5C 519.333,470.833 519.667,471.167 520,471.5C 524.273,465.816 529.439,461.982 535.5,460C 534.542,458.853 534.875,457.853 536.5,457C 538.167,456.167 539.833,455.333 541.5,454.5C 545.133,454.367 548.799,454.701 552.5,455.5C 555.025,455.423 557.358,456.59 559.5,459C 559.167,459.333 558.833,459.667 558.5,460C 565.16,463.032 569.827,461.698 572.5,456C 574.447,452.93 576.947,450.43 580,448.5C 580.625,444.563 582.625,441.563 586,439.5C 587.157,433.711 589.99,428.877 594.5,425C 594.043,424.586 593.709,424.086 593.5,423.5C 596.36,418.284 599.36,413.117 602.5,408C 602.043,407.586 601.709,407.086 601.5,406.5C 602.792,404.333 603.625,402 604,399.5C 604.92,399.07 605.753,398.736 606.5,398.5C 606.291,397.914 605.957,397.414 605.5,397C 607.33,393.676 608.663,390.176 609.5,386.5C 610.833,385.833 610.833,385.167 609.5,384.5C 610.139,380.473 610.972,376.473 612,372.5C 612.654,373.696 613.154,373.696 613.5,372.5C 613.167,371.833 612.833,371.167 612.5,370.5C 614.443,366.382 615.11,362.215 614.5,358C 614.903,356.527 615.57,355.194 616.5,354C 615.572,353.612 614.905,352.945 614.5,352C 615.885,350.403 616.551,348.57 616.5,346.5C 617.833,341.167 617.833,335.833 616.5,330.5C 617.286,325.947 619.786,322.613 624,320.5C 627.132,319.233 630.298,319.233 633.5,320.5C 639.7,324.912 642.033,330.912 640.5,338.5C 638.715,353.619 636.881,368.619 635,383.5C 633.91,387.777 632.243,391.777 630,395.5C 630.305,400.301 629.305,404.967 627,409.5C 624.933,412.726 623.1,416.06 621.5,419.5C 621.709,420.086 622.043,420.586 622.5,421C 620.231,425.7 617.564,430.2 614.5,434.5 Z"/></g>
<g><path style="opacity:0.008" fill="#3796c6" d="M 46.5,321.5 C 47.8333,324.833 47.8333,328.167 46.5,331.5C 46.5,328.167 46.5,324.833 46.5,321.5 Z"/></g>
<g><path style="opacity:0.004" fill="#0000ff" d="M 46.5,335.5 C 47.6491,335.791 48.3158,336.624 48.5,338C 48.472,339.07 48.1386,339.903 47.5,340.5C 48.1386,339.903 48.472,339.07 48.5,338C 48.3158,336.624 47.6491,335.791 46.5,335.5 Z"/></g>
<g><path style="opacity:0.008" fill="#b2fffe" d="M 175.5,336.5 C 176.598,337.601 176.765,338.934 176,340.5C 175.51,339.207 175.343,337.873 175.5,336.5 Z"/></g>
<g><path style="opacity:0.004" fill="#00fffe" d="M 342.5,339.5 C 343.239,339.369 343.906,339.536 344.5,340C 343.563,340.692 342.897,340.525 342.5,339.5 Z"/></g>
<g><path style="opacity:0.008" fill="#8080ff" d="M 402.5,339.5 C 402.833,339.5 403.167,339.5 403.5,339.5C 403.315,340.17 402.981,340.17 402.5,339.5 Z"/></g>
<g><path style="opacity:0.008" fill="#187575" d="M 616.5,330.5 C 616.5,335.833 616.5,341.167 616.5,346.5C 615.167,341.167 615.167,335.833 616.5,330.5 Z"/></g>
<g><path style="opacity:0.004" fill="#000000" d="M 247.5,340.5 C 248.833,341.167 248.833,341.167 247.5,340.5 Z"/></g>
<g><path style="opacity:0.98" fill="#10306c" d="M 337.5,348.5 C 346.256,346.085 355.089,343.752 364,341.5C 365.225,341.862 366.391,342.362 367.5,343C 366.716,347.813 364.05,351.813 359.5,355C 360.634,356.016 360.301,356.683 358.5,357C 359.28,358.073 359.113,359.24 358,360.5C 355.96,362.37 354.127,364.37 352.5,366.5C 351.167,366.833 351.167,367.167 352.5,367.5C 345.413,379.38 338.08,390.38 330.5,400.5C 329.167,400.833 329.167,401.167 330.5,401.5C 328.832,404.194 326.832,406.694 324.5,409C 324.833,409.333 325.167,409.667 325.5,410C 323.257,414.248 320.257,417.914 316.5,421C 317.28,422.073 317.113,423.24 316,424.5C 315.092,426.439 313.592,427.439 311.5,427.5C 311.187,432.908 308.52,437.408 303.5,441C 304.634,442.016 304.301,442.683 302.5,443C 302.373,446.319 300.54,448.819 297,450.5C 296.553,455.001 294.22,458.668 290,461.5C 289.553,466.001 287.22,469.668 283,472.5C 281.916,477.401 279.083,481.568 274.5,485C 275.056,485.383 275.389,485.883 275.5,486.5C 273.801,486.66 272.134,486.494 270.5,486C 249.519,473.349 231.352,457.516 216,438.5C 204.912,424.993 196.412,409.993 190.5,393.5C 190.5,393.167 190.5,392.833 190.5,392.5C 192.648,388.257 194.648,383.924 196.5,379.5C 199.807,379.538 202.974,378.872 206,377.5C 206.873,377.735 207.707,378.069 208.5,378.5C 208.833,377.833 209.167,377.167 209.5,376.5C 210.517,379.028 211.684,379.028 213,376.5C 213.333,376.833 213.667,377.167 214,377.5C 216.8,376.872 219.467,375.872 222,374.5C 223.388,375.554 224.888,375.72 226.5,375C 225.5,374.667 224.5,374.333 223.5,374C 228.775,372.466 234.108,371.3 239.5,370.5C 239.56,371.043 239.893,371.376 240.5,371.5C 241.332,362.184 241.832,352.851 242,343.5C 242.689,342.643 243.522,341.977 244.5,341.5C 255.429,340.446 266.429,340.446 277.5,341.5C 278.332,352.819 278.832,364.152 279,375.5C 279.317,373.699 279.984,373.366 281,374.5C 281.943,370.194 282.943,365.861 284,361.5C 284.974,363.878 285.641,363.544 286,360.5C 290.763,357.765 295.763,356.765 301,357.5C 301.959,355.342 303.459,355.009 305.5,356.5C 312.459,354.236 319.459,352.07 326.5,350C 330.338,348.837 334.005,348.337 337.5,348.5 Z M 303.5,383.5 C 304.625,385.129 305.959,386.629 307.5,388C 305.959,389.371 304.625,390.871 303.5,392.5C 302.833,392.167 302.167,391.833 301.5,391.5C 300.653,390.034 299.32,389.2 297.5,389C 299.045,386.62 301.045,384.786 303.5,383.5 Z M 224.5,431.5 C 224.56,430.957 224.893,430.624 225.5,430.5C 227.756,433.077 227.923,435.743 226,438.5C 225.028,436.695 223.861,435.028 222.5,433.5C 222.624,432.893 222.957,432.56 223.5,432.5C 224.078,433.547 224.744,433.38 225.5,432C 225.272,431.601 224.938,431.435 224.5,431.5 Z"/></g>
<g><path style="opacity:0.004" fill="#0b02ef" d="M 239.5,370.5 C 239.334,361.827 239.5,353.16 240,344.5C 240.824,353.343 240.657,362.01 239.5,370.5 Z"/></g>
<g><path style="opacity:0.004" fill="#000000" d="M 337.5,348.5 C 336.833,347.167 336.833,347.167 337.5,348.5 Z"/></g>
<g><path style="opacity:0.004" fill="#0000ff" d="M 2.5,348.5 C 4.04814,348.821 4.71481,349.821 4.5,351.5C 2.95186,351.179 2.28519,350.179 2.5,348.5 Z"/></g>
<g><path style="opacity:0.004" fill="#00fffe" d="M 292.5,350.5 C 293.833,351.167 293.833,351.167 292.5,350.5 Z"/></g>
<g><path style="opacity:0.004" fill="#0000ff" d="M 4.5,354.5 C 3.83333,355.167 3.83333,355.167 4.5,354.5 Z"/></g>
<g><path style="opacity:0.004" fill="#000000" d="M 305.5,354.5 C 306.833,355.167 306.833,355.167 305.5,354.5 Z"/></g>
<g><path style="opacity:0.953" fill="#113069" d="M 415.5,415.5 C 414.167,415.833 414.167,416.167 415.5,416.5C 417.942,419.149 420.275,422.483 422.5,426.5C 421.167,426.833 421.167,427.167 422.5,427.5C 425.167,431.167 427.833,434.833 430.5,438.5C 429.167,438.833 429.167,439.167 430.5,439.5C 433.637,442.299 435.971,445.632 437.5,449.5C 436.167,449.833 436.167,450.167 437.5,450.5C 439.999,453.169 442.332,456.002 444.5,459C 443.366,460.016 443.699,460.683 445.5,461C 445.167,461.333 444.833,461.667 444.5,462C 447.372,464.537 449.872,467.37 452,470.5C 452.617,471.449 452.451,472.282 451.5,473C 456.214,476.296 459.047,480.462 460,485.5C 462.62,487.402 464.787,489.735 466.5,492.5C 465.833,492.5 465.5,492.833 465.5,493.5C 458.446,495.325 451.446,495.992 444.5,495.5C 444.5,494.833 444.167,494.5 443.5,494.5C 443.167,494.5 442.833,494.5 442.5,494.5C 440.998,492.825 439.665,490.992 438.5,489C 439.634,487.984 439.301,487.317 437.5,487C 437.833,486.667 438.167,486.333 438.5,486C 435.48,483.977 433.146,481.31 431.5,478C 431.833,477.667 432.167,477.333 432.5,477C 429.628,474.463 427.128,471.63 425,468.5C 424.383,467.551 424.549,466.718 425.5,466C 421.743,462.914 418.743,459.248 416.5,455C 416.833,454.667 417.167,454.333 417.5,454C 414.628,451.463 412.128,448.63 410,445.5C 409.383,444.551 409.549,443.718 410.5,443C 407.373,440.417 404.707,437.417 402.5,434C 402.833,433.667 403.167,433.333 403.5,433C 401.234,430.609 399.067,428.109 397,425.5C 395.69,423.868 395.19,422.201 395.5,420.5C 391.345,417.531 388.678,413.531 387.5,408.5C 384.435,407.024 383.102,404.857 383.5,402C 381.701,399.159 379.201,396.325 376,393.5C 374.887,392.24 374.72,391.073 375.5,390C 373.699,389.683 373.366,389.016 374.5,388C 371.605,386.06 369.272,383.56 367.5,380.5C 367.709,379.914 368.043,379.414 368.5,379C 366.656,376.657 364.656,374.49 362.5,372.5C 365.403,365.969 369.569,360.303 375,355.5C 379.22,358.332 381.553,361.999 382,366.5C 385.891,368.86 388.058,372.027 388.5,376C 392.915,379.963 395.749,384.463 397,389.5C 397.333,389.167 397.667,388.833 398,388.5C 399.046,390.09 400.213,391.59 401.5,393C 401.5,394 401.5,395 401.5,396C 405.884,400.048 409.051,404.881 411,410.5C 413.391,411.39 414.891,413.057 415.5,415.5 Z"/></g>
<g><path style="opacity:0.004" fill="#0000ff" d="M 50.5,363.5 C 50.369,362.761 50.5357,362.094 51,361.5C 51.6917,362.437 51.525,363.103 50.5,363.5 Z"/></g>
<g><path style="opacity:0.004" fill="#0000ff" d="M 50.5,365.5 C 52.1765,366.183 52.8432,367.517 52.5,369.5C 50.8958,368.713 50.2291,367.38 50.5,365.5 Z"/></g>
<g><path style="opacity:0.004" fill="#0000ff" d="M 352.5,366.5 C 353.833,367.167 353.833,367.167 352.5,366.5 Z"/></g>
<g><path style="opacity:0.004" fill="#00fffe" d="M 223.5,368.5 C 224.239,368.369 224.906,368.536 225.5,369C 224.563,369.692 223.897,369.525 223.5,368.5 Z"/></g>
<g><path style="opacity:0.004" fill="#00fffe" d="M 636.5,371.5 C 637.833,372.167 637.833,372.167 636.5,371.5 Z"/></g>
<g><path style="opacity:0.004" fill="#0000ff" d="M 8.5,375.5 C 8.5,376.167 8.5,376.833 8.5,377.5C 7.35009,378.85 6.68342,378.684 6.5,377C 6.83611,375.97 7.50278,375.47 8.5,375.5 Z"/></g>
<g><path style="opacity:0.004" fill="#0000ff" d="M 54.5,378.5 C 55.8852,379.947 55.5518,380.947 53.5,381.5C 53.5,381.167 53.5,380.833 53.5,380.5C 54.3382,380.158 54.6716,379.492 54.5,378.5 Z"/></g>
<g><path style="opacity:0.012" fill="#009b9b" d="M 609.5,384.5 C 609.5,385.167 609.5,385.833 609.5,386.5C 608.167,385.833 608.167,385.167 609.5,384.5 Z"/></g>
<g><path style="opacity:0.004" fill="#00fffe" d="M 607.5,387.5 C 608.833,388.167 608.833,388.167 607.5,387.5 Z"/></g>
<g><path style="opacity:0.004" fill="#0000ff" d="M 11.5,392.5 C 10.8333,393.167 10.8333,393.167 11.5,392.5 Z"/></g>
<g><path style="opacity:0.004" fill="#fefffe" d="M 77.5,395.5 C 76.8333,396.167 76.8333,396.167 77.5,395.5 Z"/></g>
<g><path style="opacity:0.004" fill="#dbfffe" d="M 78.5,400.5 C 77.475,400.103 77.3083,399.437 78,398.5C 78.4643,399.094 78.631,399.761 78.5,400.5 Z"/></g>
<g><path style="opacity:0.004" fill="#0000ff" d="M 330.5,400.5 C 331.833,401.167 331.833,401.167 330.5,400.5 Z"/></g>
<g><path style="opacity:0.004" fill="#0000ff" d="M 61.5,405.5 C 62.8333,406.167 62.8333,406.833 61.5,407.5C 61.5,406.833 61.5,406.167 61.5,405.5 Z"/></g>
<g><path style="opacity:0.008" fill="#00807f" d="M 415.5,415.5 C 416.833,416.167 416.833,416.167 415.5,415.5 Z"/></g>
<g><path style="opacity:0.008" fill="#00807f" d="M 422.5,426.5 C 423.833,427.167 423.833,427.167 422.5,426.5 Z"/></g>
<g><path style="opacity:0.004" fill="#0000ff" d="M 69.5,427.5 C 70.8333,428.167 70.8333,428.167 69.5,427.5 Z"/></g>
<g><path style="opacity:0.004" fill="#0000ff" d="M 614.5,434.5 C 615.833,435.167 615.833,435.167 614.5,434.5 Z"/></g>
<g><path style="opacity:0.004" fill="#0000ff" d="M 430.5,438.5 C 431.833,439.167 431.833,439.167 430.5,438.5 Z"/></g>
<g><path style="opacity:0.904" fill="#068ec5" d="M 334.5,441.5 C 342.5,441.5 350.5,441.5 358.5,441.5C 358.666,449.84 358.5,458.173 358,466.5C 350.58,467.647 343.08,467.813 335.5,467C 335,466.5 334.5,466 334,465.5C 333.2,457.421 333.367,449.421 334.5,441.5 Z"/></g>
<g><path style="opacity:0.95" fill="#0a91cb" d="M 363.5,441.5 C 371.42,441.185 379.253,441.518 387,442.5C 387.815,450.746 387.648,458.912 386.5,467C 378.92,467.813 371.42,467.647 364,466.5C 363.5,458.173 363.334,449.84 363.5,441.5 Z"/></g>
<g><path style="opacity:0.004" fill="#0000ff" d="M 76.5,444.5 C 77.8333,445.167 77.8333,445.167 76.5,444.5 Z"/></g>
<g><path style="opacity:0.004" fill="#000000" d="M 437.5,449.5 C 438.833,450.167 438.833,450.167 437.5,449.5 Z"/></g>
<g><path style="opacity:0.004" fill="#00fffe" d="M 552.5,454.5 C 553.833,455.167 553.833,455.167 552.5,454.5 Z"/></g>
<g><path style="opacity:0.004" fill="#00fffe" d="M 83.5,458.5 C 84.8333,459.167 84.8333,459.167 83.5,458.5 Z"/></g>
<g><path style="opacity:0.901" fill="#058ec9" d="M 335.5,501.5 C 335.801,493.414 335.467,485.414 334.5,477.5C 334.611,476.883 334.944,476.383 335.5,476C 343.08,475.187 350.58,475.353 358,476.5C 358.667,484.833 358.667,493.167 358,501.5C 357.5,502 357,502.5 356.5,503C 349.833,503.667 343.167,503.667 336.5,503C 335.944,502.617 335.611,502.117 335.5,501.5 Z"/></g>
<g><path style="opacity:0.973" fill="#0b93cd" d="M 364.5,475.5 C 372.087,475.186 379.587,475.519 387,476.5C 387.667,484.5 387.667,492.5 387,500.5C 386.308,501.025 385.808,501.692 385.5,502.5C 378.858,503.664 372.192,503.831 365.5,503C 365,502.5 364.5,502 364,501.5C 363.198,492.755 363.364,484.088 364.5,475.5 Z"/></g>
<g><path style="opacity:0.008" fill="#00a9a9" d="M 334.5,477.5 C 335.467,485.414 335.801,493.414 335.5,501.5C 334.883,501.389 334.383,501.056 334,500.5C 333.178,492.655 333.344,484.989 334.5,477.5 Z"/></g>
<g><path style="opacity:0.989" fill="#0f81b5" d="M 504.5,482.5 C 505.167,482.5 505.833,482.5 506.5,482.5C 506.557,483.609 506.89,484.609 507.5,485.5C 506.167,485.833 506.167,486.167 507.5,486.5C 511.168,491.167 514.335,496.167 517,501.5C 520.994,507.267 525.16,512.267 529.5,516.5C 533.476,518.775 537.143,522.108 540.5,526.5C 541.086,526.291 541.586,525.957 542,525.5C 544.992,528.122 547.992,530.789 551,533.5C 551.333,533.167 551.667,532.833 552,532.5C 556.837,535.251 561.503,538.251 566,541.5C 571.182,540.141 573.182,542.141 572,547.5C 565.636,554.862 558.969,561.862 552,568.5C 551.667,568.167 551.333,567.833 551,567.5C 548.928,571.635 545.928,573.968 542,574.5C 539.834,578.086 536.834,580.753 533,582.5C 532.667,582.167 532.333,581.833 532,581.5C 529.669,583.66 527.169,585.66 524.5,587.5C 523.914,587.291 523.414,586.957 523,586.5C 521.903,588.053 520.57,589.386 519,590.5C 517.396,589.351 515.73,589.351 514,590.5C 512.36,589.157 510.86,588.49 509.5,588.5C 509.489,586.983 508.823,585.816 507.5,585C 500.241,580.206 493.574,574.706 487.5,568.5C 491.13,566.013 494.796,563.513 498.5,561C 494.942,561.957 491.275,562.957 487.5,564C 485.5,564.667 483.5,564.667 481.5,564C 467.794,550.47 455.794,535.636 445.5,519.5C 454.528,516.88 463.194,513.38 471.5,509C 466.782,509.345 462.115,510.345 457.5,512C 451.804,512.83 446.137,512.663 440.5,511.5C 439.081,509.664 437.914,507.664 437,505.5C 436.184,504.177 435.017,503.511 433.5,503.5C 432.859,502.518 432.193,501.518 431.5,500.5C 432.833,499.5 432.833,498.5 431.5,497.5C 432.025,496.808 432.692,496.308 433.5,496C 433.167,495.667 432.833,495.333 432.5,495C 435.817,494.502 439.15,494.335 442.5,494.5C 442.833,494.5 443.167,494.5 443.5,494.5C 444.167,494.5 444.5,494.833 444.5,495.5C 451.446,495.992 458.446,495.325 465.5,493.5C 466.167,493.5 466.5,493.167 466.5,492.5C 467.741,490.069 468.908,490.069 470,492.5C 470.605,490.519 471.605,490.185 473,491.5C 473.464,490.906 473.631,490.239 473.5,489.5C 474.833,490.833 476.167,490.833 477.5,489.5C 479.565,489.483 481.565,489.15 483.5,488.5C 490.11,487.033 496.443,484.7 502.5,481.5C 503.183,481.863 503.85,482.196 504.5,482.5 Z"/></g>
<g><path style="opacity:0.008" fill="#00807f" d="M 507.5,485.5 C 508.833,486.167 508.833,486.167 507.5,485.5 Z"/></g>
<g><path style="opacity:0.004" fill="#0000ff" d="M 698.5,487.5 C 699.833,488.167 699.833,488.167 698.5,487.5 Z"/></g>
<g><path style="opacity:0.004" fill="#00fffe" d="M 692.5,513.5 C 693.833,514.167 693.833,514.167 692.5,513.5 Z"/></g>
<g><path style="opacity:0.004" fill="#00fffe" d="M 529.5,515.5 C 530.833,516.167 530.833,516.167 529.5,515.5 Z"/></g>
<g><path style="opacity:0.004" fill="#0000ff" d="M 620.5,533.5 C 619.833,532.167 619.833,532.167 620.5,533.5 Z"/></g>
<g><path style="opacity:0.004" fill="#fefffe" d="M 164.5,538.5 C 164.833,538.5 165.167,538.5 165.5,538.5C 165.315,539.17 164.981,539.17 164.5,538.5 Z"/></g>
<g><path style="opacity:0.008" fill="#7f807f" d="M 669.5,544.5 C 670.833,545.167 670.833,545.167 669.5,544.5 Z"/></g>
<g><path style="opacity:0.004" fill="#0000ff" d="M 648.5,567.5 C 648.833,567.5 649.167,567.5 649.5,567.5C 649.315,568.17 648.981,568.17 648.5,567.5 Z"/></g>
<g><path style="opacity:0.004" fill="#0000ff" d="M 647.5,568.5 C 647.833,568.5 648.167,568.5 648.5,568.5C 648.315,569.17 647.981,569.17 647.5,568.5 Z"/></g>
<g><path style="opacity:0.004" fill="#fefffe" d="M 225.5,582.5 C 225.833,582.5 226.167,582.5 226.5,582.5C 226.315,583.17 225.981,583.17 225.5,582.5 Z"/></g>
<g><path style="opacity:0.004" fill="#0000ff" d="M 209.5,591.5 C 208.673,592.439 208.006,592.105 207.5,590.5C 208.327,589.561 208.994,589.895 209.5,591.5 Z"/></g>
<g><path style="opacity:0.004" fill="#0000ff" d="M 149.5,604.5 C 148.833,605.167 148.833,605.167 149.5,604.5 Z"/></g>
<g><path style="opacity:0.008" fill="#88d4ff" d="M 455.5,608.5 C 456.167,608.5 456.833,608.5 457.5,608.5C 456.833,609.833 456.167,609.833 455.5,608.5 Z"/></g>
<g><path style="opacity:0.004" fill="#0000ff" d="M 510.5,610.5 C 509.833,609.167 509.833,609.167 510.5,610.5 Z"/></g>
<g><path style="opacity:0.004" fill="#fefffe" d="M 307.5,612.5 C 307.103,613.525 306.437,613.692 305.5,613C 306.094,612.536 306.761,612.369 307.5,612.5 Z"/></g>
<g><path style="opacity:0.004" fill="#2f34e5" d="M 505.5,611.5 C 504.618,613.384 503.118,614.717 501,615.5C 500.601,615.272 500.435,614.938 500.5,614.5C 501.965,613.263 503.632,612.263 505.5,611.5 Z"/></g>
<g><path style="opacity:0.008" fill="#7f807f" d="M 163.5,615.5 C 163.833,615.5 164.167,615.5 164.5,615.5C 164.315,616.17 163.981,616.17 163.5,615.5 Z"/></g>
<g><path style="opacity:0.016" fill="#9ccfff" d="M 318.5,615.5 C 319.833,615.5 321.167,615.5 322.5,615.5C 321.167,616.833 319.833,616.833 318.5,615.5 Z"/></g>
<g><path style="opacity:0.004" fill="#c8ecff" d="M 423.5,615.5 C 424.833,615.5 426.167,615.5 427.5,615.5C 426.167,616.833 424.833,616.833 423.5,615.5 Z"/></g>
<g><path style="opacity:0.004" fill="#0000ff" d="M 492.5,617.5 C 491.833,616.167 491.833,616.167 492.5,617.5 Z"/></g>
<g><path style="opacity:0.004" fill="#fefffe" d="M 356.5,620.5 C 367.326,619.341 378.326,619.174 389.5,620C 378.505,620.5 367.505,620.667 356.5,620.5 Z"/></g>
<g><path style="opacity:0.004" fill="#0000ff" d="M 482.5,620.5 C 483.209,619.596 484.209,619.263 485.5,619.5C 484.895,621.481 483.895,621.815 482.5,620.5 Z"/></g>
<g><path style="opacity:0.004" fill="#0000ff" d="M 468.5,625.5 C 467.761,625.631 467.094,625.464 466.5,625C 467.437,624.308 468.103,624.475 468.5,625.5 Z"/></g>
<g><path style="opacity:0.004" fill="#220eb8" d="M 322.5,632.5 C 321.448,632.649 320.448,632.483 319.5,632C 320.749,631.26 321.749,631.427 322.5,632.5 Z"/></g>
<g><path style="opacity:0.004" fill="#0000ff" d="M 341.5,634.5 C 343.698,634.409 344.031,635.075 342.5,636.5C 341.127,636.657 339.793,636.49 338.5,636C 339.737,635.768 340.737,635.268 341.5,634.5 Z"/></g>
<g><path style="opacity:0.004" fill="#0000ff" d="M 415.5,634.5 C 415.5,635.833 414.833,636.5 413.5,636.5C 413.5,635.167 414.167,634.5 415.5,634.5 Z"/></g>
<g><path style="opacity:0.004" fill="#0000ff" d="M 229.5,652.5 C 230.167,652.5 230.833,652.5 231.5,652.5C 230.833,653.833 230.167,653.833 229.5,652.5 Z"/></g>
<g><path style="opacity:0.004" fill="#0000ff" d="M 525.5,652.5 C 525.833,652.5 526.167,652.5 526.5,652.5C 526.315,653.17 525.981,653.17 525.5,652.5 Z"/></g>
<g><path style="opacity:0.004" fill="#0000ff" d="M 241.5,657.5 C 242.779,656.285 243.779,656.618 244.5,658.5C 243.391,658.443 242.391,658.11 241.5,657.5 Z"/></g>
<g><path style="opacity:0.008" fill="#3588b2" d="M 321.5,678.5 C 322.833,678.5 324.167,678.5 325.5,678.5C 324.167,679.833 322.833,679.833 321.5,678.5 Z"/></g>
<g><path style="opacity:0.004" fill="#0000ff" d="M 327.5,678.5 C 329.698,678.875 331.698,679.542 333.5,680.5C 330.918,680.975 328.918,680.308 327.5,678.5 Z"/></g>
<g><path style="opacity:0.451" fill="#3560a2" d="M 422.5,680.5 C 422.83,716.406 422.496,752.24 421.5,788C 436.496,788.5 451.496,788.667 466.5,788.5C 451.009,789.496 435.342,789.83 419.5,789.5C 419.167,752.494 419.5,715.494 420.5,678.5C 421.522,678.855 422.189,679.522 422.5,680.5 Z"/></g>
<g><path style="opacity:0.008" fill="#7f807f" d="M 485.5,799.5 C 486.167,799.5 486.5,799.833 486.5,800.5C 486.167,800.167 485.833,799.833 485.5,799.5 Z"/></g>
<g><path style="opacity:0.004" fill="#0000ff" d="M 486.5,800.5 C 487.833,801.167 487.833,801.167 486.5,800.5 Z"/></g>
</svg>
