<svg width="148" height="148" viewBox="0 0 148 148" fill="none" xmlns="http://www.w3.org/2000/svg">
<g clip-path="url(#clip0_131_2)">
<path d="M103.444 106.269L86.2329 106.262L69.0217 106.269L64.2427 128.747H86.2329H108.223L103.444 106.269Z" fill="#5C5F64"/>
<path d="M108.223 124.251H64.2426C62.9999 124.251 61.9915 125.253 61.9915 126.499C61.9915 127.745 62.9999 128.747 64.2426 128.747H108.223C109.466 128.747 110.474 127.745 110.474 126.499C110.474 125.253 109.465 124.251 108.223 124.251Z" fill="black"/>
<path d="M38.9829 112.999V45.5009H133.483V96.7306L113.141 112.999H38.9829Z" fill="#ACCEFC"/>
<path d="M133.483 43.2498H38.9828C37.7402 43.2498 36.7317 44.2582 36.7317 45.5009V112.999C36.7317 114.245 37.7402 115.247 38.9828 115.247H113.928L135.734 97.8117V45.5009C135.734 44.2582 134.725 43.2498 133.483 43.2498ZM131.232 95.6496L112.353 110.751H41.2339V47.7486H131.232V95.6496Z" fill="black"/>
<path opacity="0.1" d="M72.1693 101.747H59.2329L72.7329 47.7487H85.6693L72.1693 101.747Z" fill="#AEACAC"/>
<path d="M120.385 101.747H40.0967V112.656H120.385V101.747Z" fill="black"/>
<path d="M88.4839 108.497C88.4839 109.743 87.4754 110.751 86.2328 110.751C84.9902 110.751 83.9817 109.743 83.9817 108.497C83.9817 107.258 84.9902 106.249 86.2328 106.249C87.4754 106.249 88.4839 107.258 88.4839 108.497Z" fill="#434A54"/>
<path d="M144.732 69.973L144.719 69.7456C144.719 69.0238 144.132 68.4338 143.417 68.4307C137.481 68.2066 122.59 66.6607 111.875 57.1092L111.661 56.9907L111.667 56.951C111.463 56.8226 111.222 56.7532 110.975 56.75C110.665 56.7534 110.349 56.8785 110.108 57.0961C99.3801 66.6605 84.4827 68.2064 78.5764 68.4305C77.8316 68.4338 77.2515 69.0236 77.245 69.7454L77.2317 70.0817C78.2138 97.0273 94.9042 117.923 110.243 128.523C110.685 128.826 111.278 128.826 111.717 128.523L111.928 128.385C127.23 117.725 143.802 96.8427 144.732 69.973Z" fill="#FFCE54"/>
<path d="M113.256 76.9998C113.256 75.7571 112.247 74.7487 111.005 74.7487C109.762 74.7487 108.757 75.7571 108.757 76.9998C108.757 76.9998 108.757 76.9998 108.757 77.0032V108.497C108.757 109.743 109.762 110.752 111.005 110.752C112.247 110.752 113.256 109.743 113.256 108.497V76.9998Z" fill="#F6BB42"/>
</g>
<path d="M32.2384 41.8064C31.0516 41.8064 30.0891 40.844 30.0891 39.6572V31.2385C30.0891 30.0517 31.0516 29.0892 32.2384 29.0892C33.4252 29.0892 34.3876 30.0517 34.3876 31.2385V39.6572C34.3876 40.844 33.4252 41.8064 32.2384 41.8064Z" fill="#4391B2"/>
<path d="M21.4925 41.8956C20.3057 41.8956 19.3433 40.9331 19.3433 39.7463V31.1493C19.3433 29.9624 20.3057 29 21.4925 29C22.6793 29 23.6418 29.9624 23.6418 31.1493V39.7463C23.6418 40.9331 22.6793 41.8956 21.4925 41.8956Z" fill="#4391B2"/>
<path d="M42.9847 41.8956C41.7968 41.8956 40.8354 40.9331 40.8354 39.7463V31.1493C40.8354 29.9624 41.7968 29 42.9847 29C44.1726 29 45.134 29.9624 45.134 31.1493V39.7463C45.134 40.9331 44.1726 41.8956 42.9847 41.8956Z" fill="#4391B2"/>
<path d="M32.2384 93.3888C31.0516 93.3888 30.0891 92.4264 30.0891 91.2395V82.8209C30.0891 81.6341 31.0516 80.6716 32.2384 80.6716C33.4252 80.6716 34.3876 81.6341 34.3876 82.8209V91.2395C34.3876 92.4264 33.4252 93.3888 32.2384 93.3888Z" fill="#4391B2"/>
<path d="M21.4925 93.478C20.3057 93.478 19.3433 92.5155 19.3433 91.3287V82.7317C19.3433 81.5448 20.3057 80.5824 21.4925 80.5824C22.6793 80.5824 23.6418 81.5448 23.6418 82.7317V91.3287C23.6418 92.5155 22.6793 93.478 21.4925 93.478Z" fill="#4391B2"/>
<path d="M42.9847 93.478C41.7968 93.478 40.8354 92.5155 40.8354 91.3287V82.7317C40.8354 81.5448 41.7968 80.5824 42.9847 80.5824C44.1726 80.5824 45.134 81.5448 45.134 82.7317V91.3287C45.134 92.5155 44.1726 93.478 42.9847 93.478Z" fill="#4391B2"/>
<path d="M10.6573 63.388H2.23862C1.05179 63.388 0.0893555 62.4256 0.0893555 61.2387C0.0893555 60.0519 1.05179 59.0895 2.23862 59.0895H10.6573C11.8441 59.0895 12.8065 60.0519 12.8065 61.2387C12.8065 62.4256 11.8441 63.388 10.6573 63.388Z" fill="#4391B2"/>
<path d="M10.7463 74.1343H2.14926C0.962439 74.1343 0 73.1719 0 71.9851C0 70.7983 0.962439 69.8358 2.14926 69.8358H10.7463C11.9331 69.8358 12.8956 70.7983 12.8956 71.9851C12.8956 73.1719 11.9331 74.1343 10.7463 74.1343Z" fill="#4391B2"/>
<path d="M10.7463 52.6419H2.14926C0.962439 52.6419 0 51.6795 0 50.4926C0 49.3058 0.962439 48.3434 2.14926 48.3434H10.7463C11.9331 48.3434 12.8956 49.3058 12.8956 50.4926C12.8956 51.6795 11.9331 52.6419 10.7463 52.6419Z" fill="#4391B2"/>
<path d="M62.2379 63.388H53.8214C52.6335 63.388 51.6721 62.4256 51.6721 61.2387C51.6721 60.0519 52.6335 59.0895 53.8214 59.0895H62.2379C63.4258 59.0895 64.3871 60.0519 64.3871 61.2387C64.3871 62.4256 63.4258 63.388 62.2379 63.388Z" fill="#4391B2"/>
<path d="M62.3283 74.1343H53.7313C52.5434 74.1343 51.582 73.1719 51.582 71.9851C51.582 70.7983 52.5434 69.8358 53.7313 69.8358H62.3283C63.5162 69.8358 64.4776 70.7983 64.4776 71.9851C64.4776 73.1719 63.5162 74.1343 62.3283 74.1343Z" fill="#4391B2"/>
<path d="M62.3283 52.6419H53.7313C52.5434 52.6419 51.582 51.6795 51.582 50.4926C51.582 49.3058 52.5434 48.3434 53.7313 48.3434H62.3283C63.5162 48.3434 64.4776 49.3058 64.4776 50.4926C64.4776 51.6795 63.5162 52.6419 62.3283 52.6419Z" fill="#4391B2"/>
<path d="M55.8809 39.7462V82.7314C55.8809 83.9135 54.9137 84.8807 53.7317 84.8807H10.7464C9.56434 84.8807 8.59717 83.9135 8.59717 82.7314V39.7462C8.59717 38.5641 9.56434 37.5969 10.7464 37.5969H53.7317C54.9137 37.5969 55.8809 38.5641 55.8809 39.7462Z" fill="#48B1DD"/>
<path d="M47.2835 52.642V69.8361C47.2835 73.3824 44.382 76.2839 40.8357 76.2839H23.6416C20.0954 76.2839 17.1938 73.3824 17.1938 69.8361V52.642C17.1938 49.0957 20.0954 46.1942 23.6416 46.1942H40.8357C44.382 46.1942 47.2835 49.0957 47.2835 52.642Z" fill="#96CEE5"/>
<defs>
<clipPath id="clip0_131_2">
<rect width="108" height="108" fill="white" transform="translate(36.7317 32)"/>
</clipPath>
</defs>
</svg>
